<?xml version="1.0" encoding="UTF-8"?>
<svg id="TEAM_LOGO" data-name="TEAM LOGO" xmlns="http://www.w3.org/2000/svg" viewBox="0 0 1920 1080">
  <defs>
    <style>
      .cls-1 {
        fill: #594b9e;
      }
    </style>
  </defs>
  <g id="TEAM_TEXT_-_Color_Cool" data-name="TEAM TEXT - Color Cool">
    <g id="TeamLogo_FullColorCool">
      <g id="TeamLogoSmall_ColorCool">
        <polygon id="TrimmedH" class="cls-1" points="1378.55 920.54 1213.6 920.54 1162.31 599.96 1076.89 599.96 1115.86 920.54 940.22 921.06 940.22 331.23 1044.23 331.23 1052.57 399.81 1130.29 399.81 1115.86 309.63 1257.74 309.63 1378.55 920.54"/>
        <path id="GiraffeTSolid" class="cls-1" d="M1055.64,188.03h-110.33c8.99-6.01,16.09-12.36,22.91-19.93,7.29-8.09,12.64-16.48,17.07-26.97-25.16-3.5-78.72-5.28-115.98,15.01-10.64,5.79-14.11,11.53-18.87,17.96-4.21-15.56-17-27.38-32.71-30.45l-6.69-41.3c4.14-4.22,6.69-10.01,6.69-16.38,0-12.93-10.48-23.4-23.4-23.4s-23.41,10.48-23.41,23.4c0,10.32,6.68,19.08,15.96,22.19l5.78,35.63-45.17,2.69-11.87-38.66c5.09-4.29,8.31-10.71,8.31-17.89,0-12.93-10.48-23.4-23.4-23.4s-23.41,10.48-23.41,23.4c0,11.33,8.05,20.78,18.74,22.94l10.71,34.86-34.95,2.08c-22.26,1.33-39.48,19.64-39.8,41.58l-.74.12-28.26,5.26-68.72,12.8c-9.13,0-16.54,7.4-16.54,16.54,0,2.46.54,4.8,1.5,6.89l-21.95,15.74c-.04.89-.05,1.79-.05,2.7,0,37.01,30,67.01,67.01,67.01,16.76,0,32.09-6.16,43.84-16.33l43.64,3.95c0,12.08,15.61,29.98,39.02,33.34,3.71,100.93-34.71,287.45-55.19,371.66-22.42,92.2-52.71,181.76-89.27,210.04h352.55V310.21h149.82l-12.8-122.18ZM759.67,266.56c-27.46,0-49.73-22.26-49.73-49.73s22.27-49.73,49.73-49.73c5.62,0,11.02.93,16.07,2.65h0c-.44,0-.89-.02-1.33-.02-22.28,0-40.35,18.07-40.35,40.35s18.07,40.35,40.35,40.35c12.69,0,24.02-5.86,31.41-15.02-7.36,18.25-25.25,31.14-46.14,31.14Z"/>
      </g>
      <g>
        <path class="cls-1" d="M620.3,951.5v15.79h-19.31v48.8h-22.03v-48.8h-19.31v-15.79h60.64Z"/>
        <path class="cls-1" d="M687.45,1007.57h-22.98l-4.62,8.52h-22.77l38.4-65.49h1.05l38.4,65.49h-22.77l-4.72-8.52ZM670.56,995.36h10.91c-1.89-3.77-4.72-9.69-5.35-12.02h-.21c-.63,2.33-3.46,8.25-5.35,12.02Z"/>
        <path class="cls-1" d="M745.57,1016.09v-64.59h21.93v48.8h25.81v15.79h-47.74Z"/>
        <path class="cls-1" d="M826.56,1016.09v-64.59h21.93v48.8h25.81v15.79h-47.74Z"/>
        <path class="cls-1" d="M997.57,1016.09v-24.94h-25.08v24.94h-21.93v-64.59h21.93v23.95h25.08v-23.95h22.03v64.59h-22.03Z"/>
        <path class="cls-1" d="M1094.2,950.15c23.82,0,40.39,15.16,40.39,33.64s-16.58,33.64-40.39,33.64-40.29-14.89-40.29-33.64,16.58-33.64,40.29-33.64ZM1094.2,1000.3c11.12,0,18.26-7.8,18.26-16.51s-7.13-16.51-18.26-16.51-18.26,7.98-18.26,16.51,7.24,16.51,18.26,16.51Z"/>
        <path class="cls-1" d="M1207.61,1016.09l-11.12-20.09h-6.19v20.09h-21.4v-64.59h28.43c18.57,0,31.69,7.45,31.69,22.7,0,9.15-5.04,15.34-13.33,18.75l14.69,23.14h-22.77ZM1190.3,967.29v13.81h8.18c4.41,0,8.39-1.61,8.39-6.91s-3.99-6.91-8.39-6.91h-8.18Z"/>
        <path class="cls-1" d="M1317.04,997.79c0,12.29-10.7,19.65-30.43,19.65-8.5,0-17.21-1.35-23.08-3.5v-17.94c7.03,3.32,15.42,5.11,21.93,5.11s10.18-.99,10.18-3.32c0-2.69-4.93-3.95-13.01-6.64-12.17-4.04-20.77-8.34-20.77-20.72s11.65-20.27,29.59-20.27c7.55,0,15.32,1.17,20.56,3.05v17.22c-4.62-2.6-11.65-4.13-18.68-4.13-6.19,0-9.97,1.52-9.97,4.13,0,2.33,4.62,3.95,12.28,6.64,12.17,4.31,21.4,8.7,21.4,20.72Z"/>
        <path class="cls-1" d="M1350.82,951.5h50.57v15.79h-28.64v8.61h24.55v14.8h-24.55v9.6h30.22v15.79h-52.15v-64.59Z"/>
      </g>
    </g>
  </g>
</svg>