<?xml version="1.0" encoding="UTF-8"?>
<svg id="TEAM_LOGO" data-name="TEAM LOGO" xmlns="http://www.w3.org/2000/svg" viewBox="0 0 1080 1080">
  <defs>
    <style>
      .cls-1 {
        fill: #fff;
      }
    </style>
  </defs>
  <g id="TEAM_-_B_W" data-name="TEAM - B&amp;amp;W">
    <g id="TeamLogoSmall_White">
      <path id="GiraffeTSolid" class="cls-1" d="M648.53,234.26h-111.03c9.05-6.05,16.19-12.44,23.06-20.05,7.33-8.15,12.72-16.59,17.17-27.15-25.32-3.52-79.22-5.31-116.71,15.1-10.7,5.83-14.2,11.6-18.99,18.07-4.23-15.66-17.1-27.56-32.92-30.65l-6.73-41.56c4.16-4.25,6.73-10.07,6.73-16.48,0-13.01-10.54-23.55-23.55-23.55s-23.56,10.54-23.56,23.55c0,10.38,6.72,19.2,16.06,22.33l5.81,35.86-45.46,2.71-11.94-38.91c5.12-4.32,8.37-10.78,8.37-18,0-13.01-10.54-23.55-23.55-23.55s-23.56,10.54-23.56,23.55c0,11.4,8.1,20.91,18.86,23.08l10.77,35.08-35.18,2.1c-22.4,1.33-39.73,19.76-40.06,41.85l-.75.12-28.44,5.3-69.16,12.88c-9.19,0-16.65,7.45-16.65,16.65,0,2.48.54,4.83,1.51,6.94l-22.08,15.84c-.04.9-.05,1.8-.05,2.71,0,37.25,30.19,67.44,67.43,67.44,16.87,0,32.29-6.2,44.12-16.43l43.91,3.97c0,12.15,15.71,30.17,39.27,33.55,3.74,101.57-34.93,289.27-55.54,374.02-22.56,92.78-53.04,182.91-89.84,211.37h354.79V357.22h150.77l-12.88-122.96ZM350.69,313.28c-27.64,0-50.05-22.4-50.05-50.05s22.41-50.05,50.05-50.05c5.66,0,11.09.94,16.17,2.67h0c-.45,0-.9-.02-1.34-.02-22.43,0-40.61,18.18-40.61,40.61s18.18,40.61,40.61,40.61c12.77,0,24.17-5.89,31.6-15.11-7.41,18.37-25.41,31.33-46.43,31.33Z"/>
      <polygon id="TrimmedH" class="cls-1" points="973.49 971.42 807.5 971.42 755.88 648.8 669.92 648.8 709.14 971.42 532.38 971.94 532.38 378.37 637.05 378.37 645.44 447.39 723.65 447.39 709.14 356.63 851.92 356.63 973.49 971.42"/>
    </g>
  </g>
</svg>