<?xml version="1.0" encoding="UTF-8"?>
<svg id="TEAM_LOGO" data-name="TEAM LOGO" xmlns="http://www.w3.org/2000/svg" xmlns:xlink="http://www.w3.org/1999/xlink" viewBox="0 0 1080 1080">
  <defs>
    <style>
      .cls-1 {
        fill: url(#linear-gradient-2);
      }

      .cls-2 {
        fill: url(#linear-gradient-10);
      }

      .cls-3 {
        fill: #fff;
      }

      .cls-4 {
        fill: url(#linear-gradient-4);
      }

      .cls-5 {
        fill: url(#linear-gradient-3);
      }

      .cls-6 {
        fill: url(#linear-gradient-5);
      }

      .cls-7 {
        fill: url(#linear-gradient-8);
      }

      .cls-8 {
        fill: url(#linear-gradient-7);
      }

      .cls-9 {
        fill: url(#linear-gradient-9);
      }

      .cls-10 {
        fill: url(#linear-gradient-11);
      }

      .cls-11 {
        fill: #58595b;
      }

      .cls-12 {
        fill: url(#linear-gradient-6);
      }

      .cls-13 {
        fill: #404041;
      }

      .cls-14 {
        fill: #929497;
      }

      .cls-15 {
        fill: url(#linear-gradient);
      }
    </style>
    <linearGradient id="linear-gradient" x1="327.59" y1="959.7" x2="353.2" y2="246.14" gradientUnits="userSpaceOnUse">
      <stop offset=".43" stop-color="#58595b"/>
      <stop offset=".51" stop-color="#5f6062"/>
      <stop offset=".64" stop-color="#747578"/>
      <stop offset=".78" stop-color="#929497"/>
    </linearGradient>
    <linearGradient id="linear-gradient-2" x1="303.15" y1="949.85" x2="328.76" y2="236.29" xlink:href="#linear-gradient"/>
    <linearGradient id="linear-gradient-3" x1="396.77" y1="953.21" x2="422.38" y2="239.65" xlink:href="#linear-gradient"/>
    <linearGradient id="linear-gradient-4" x1="299.07" y1="949.71" x2="324.68" y2="236.15" xlink:href="#linear-gradient"/>
    <linearGradient id="linear-gradient-5" x1="365.85" y1="952.1" x2="391.46" y2="238.54" xlink:href="#linear-gradient"/>
    <linearGradient id="linear-gradient-6" x1="259.35" y1="948.28" x2="284.96" y2="234.72" xlink:href="#linear-gradient"/>
    <linearGradient id="linear-gradient-7" x1="386.96" y1="952.86" x2="412.57" y2="239.3" xlink:href="#linear-gradient"/>
    <linearGradient id="linear-gradient-8" x1="398.32" y1="953.27" x2="423.93" y2="239.71" xlink:href="#linear-gradient"/>
    <linearGradient id="linear-gradient-9" x1="471.41" y1="955.89" x2="497.02" y2="242.33" xlink:href="#linear-gradient"/>
    <linearGradient id="linear-gradient-10" x1="231.46" y1="947.28" x2="257.07" y2="233.72" xlink:href="#linear-gradient"/>
    <linearGradient id="linear-gradient-11" x1="406.7" y1="953.57" x2="432.31" y2="240.01" xlink:href="#linear-gradient"/>
  </defs>
  <g id="TEAM_-_Grayscale" data-name="TEAM - Grayscale">
    <g id="TeamLogoSmall_GrayscaleGradiant">
      <polygon id="H" class="cls-13" points="970.91 968.85 805.9 968.85 754.59 648.15 669.15 648.15 708.13 968.85 510.82 969.43 510.82 358.31 633.92 358.31 644.81 447.94 722.56 447.94 708.13 357.73 850.06 357.73 970.91 968.85"/>
      <path id="GiraffeT" class="cls-14" d="M660.69,358.31h-149.87v611.12H158.15c36.58-28.29,66.88-117.88,89.31-210.11,20.49-84.24,58.92-270.82,55.21-371.79-23.42-3.36-39.03-21.27-39.03-33.35l-43.65-3.95c-11.75,10.18-27.09,16.34-43.85,16.34-37.02,0-67.03-30.01-67.03-67.04,0-.9.02-1.8.05-2.7l21.95-15.75c-.96-2.1-1.5-4.43-1.5-6.89,0-9.14,7.41-16.55,16.55-16.55l68.75-12.81,28.27-5.26.74-.12c.32-21.95,17.55-40.27,39.82-41.6l34.97-2.08-10.71-34.87c-10.7-2.16-18.75-11.61-18.75-22.94,0-12.93,10.49-23.41,23.42-23.41s23.41,10.48,23.41,23.41c0,7.18-3.23,13.6-8.32,17.9l11.87,38.68,45.19-2.69-5.78-35.65c-9.28-3.11-15.96-11.88-15.96-22.2,0-12.93,10.49-23.41,23.42-23.41s23.41,10.48,23.41,23.41c0,6.37-2.55,12.16-6.69,16.38l6.69,41.31c15.72,3.07,28.52,14.9,32.72,30.46,4.76-6.43,8.24-12.17,18.88-17.97,37.27-20.3,90.84-18.52,116.02-15.01-4.43,10.49-9.78,18.89-17.07,26.98-6.82,7.57-13.93,13.93-22.92,19.94h110.37l12.81,122.22Z"/>
      <g id="Spots">
        <path class="cls-15" d="M375.46,482.36c-3.52,10.68-12.56,15.57-14.55,16.59-8.68,4.42-16.82,3.13-19.79,2.62-10.97-1.9-17.51-8.72-19.34-10.77-1.76-1.98-6.27-7.16-7.73-15.13-1.44-7.89-.48-13.81,3.49-23.57,3.83-9.4,7.42-14.67,13.09-17.75,5.86-3.19,14.46-2.19,19.79.88,11.55,6.66,21.66,15.53,25.02,29.39.99,4.07,2.44,10.38,0,17.75Z"/>
        <path class="cls-1" d="M349.95,615.41c.54,4.52,1.5,8.23,0,13.39-2.68,9.26-10.73,14.46-14.46,16.88-9.43,6.09-16.21,9.19-22.03,9.6-8.63.62-22.41-.9-30.35-7.86-5-4.37-6.79-10.2-8.09-16.76h0c6.65-35.14,12.98-72.42,17.93-108.51.21-.15.42-.3.64-.44,7.19-4.83,14.93-5.65,16.3-5.78,3.04-.29,10.6-.61,18.34,3.16,10.01,4.87,14.33,13.66,19.2,23.57,3.52,7.15,8.29,16.84,8.73,29.97.64,19.02-8.52,23.23-6.2,42.78Z"/>
        <path class="cls-5" d="M456.66,524.93c-1.13,26.33-2.1,55.91-2.78,90-2.97,2-5.49,3.32-6.8,3.98-12.75,6.41-24.24,6.55-29.24,6.55-8.03,0-17.42,0-27.31-5.67-12.2-7.01-17.55-18.29-19.84-23.13-3.11-6.58-4.31-12.3-4.8-15.28-.41-2.48-1.64-10.91,2.62-31.87,1.99-9.77,2.98-14.66,4.37-17.9,6.44-15.03,23.05-31.74,42.78-31.43,11.49.19,20.48,6.08,21.83,6.99,7.44,5,8.7,9.72,18.77,17.46.14.11.27.21.41.31Z"/>
        <path class="cls-4" d="M365.41,727.16s-1.33,14.38-18.72,37.98c-1.33,1.8-3.46,4.41-6.98,5.67-3.78,1.35-15.53,2.6-29.68,1.39-10.64-.91-19.89-2.45-23.57-6.63-3.18-3.62-5.74-8.24-11.35-11.79-1.5-.94-2.87-1.49-4.36-1.31-2.64.32-3.68,2.69-6.11,4.8,0,0-4.05,3.52-10.04,3.93-2.57.18-4.98-.66-7.12-1.95,5.95-24.48,13.42-57.6,20.93-94.75,20.07-4.66,40.89-7.48,61.71,2.41,7.1,3.37,11.59,6.98,12.66,7.86,12.85,10.52,24.76,29.7,22.65,52.38Z"/>
        <path class="cls-6" d="M433.99,950.22c-2.04,5.62-4.35,4.77-7.57,12.22-1.3,3.02-1.78,5.15-2.17,6.98h-115.59c-.91-1.71-1.77-3.52-2.72-5.53-2.32-4.89-14.54-30.65-4.65-55.58,2.06-5.2,5.48-13.49,13.38-16.59,4.16-1.63,7.63-1.07,14.26,0,6.41,1.04,20.42,3.3,29.1,12.51,1.41,1.5,5.56,3.98,9.6,9.31,6.4,8.44,43.66,5.77,54.42,8.44,5.66,1.41,7.7,4.58,8.73,5.82,5.08,6.08,5.75,15.39,3.2,22.41Z"/>
        <path class="cls-12" d="M313.46,816.94c-.56,7.97-5.79,15.71-8.97,19.79-4.46,5.73-7,12.34-7,30.85,0,6.98,2.06,13.68-2.31,23.13-6.33,13.71-29.56,17.84-46.56,14.12-21.39-4.68-32.69-22.11-36.11-27.87,10.2-27.22,19.52-57.98,27.9-89.79,8.37-2.89,25.33-7.34,44-4.27,3.7.6,5.56,1.19,6.99,1.74,13.52,5.23,18.94,18.97,20.08,22.12,1.22,3.37,2.26,6.26,1.98,10.19Z"/>
        <path class="cls-8" d="M461.72,864.16c-2.23,4.53-4.67,8.3-6.77,11.57-5.38,8.34-10.19,15.59-19.51,20.08-6.56,3.16-12.38,3.52-17.74,3.78-13.84.7-15.65-3.71-33.47-5.82-14.76-1.74-20.08.51-28.05-4.66-2.94-1.91-5.03-4.37-9.2-9.31-10.52-12.45-8.73-15.57-18.04-27.06-5.52-6.82-8.78-8.94-9.31-14.26-.54-5.3,2.05-9.54,3.49-11.93,17.84-29.59,19.82-40.42,34.63-50.34,3.99-2.67,7.93-4.63,12.81-4.95,6.11-.4,10.82,1.96,16.59,4.95,11.07,5.73,18.62,12.51,18.62,12.51,1.42,1.27,4.36,4.02,9.02,5.36,2.63.75,4.74.75,5.82.75,9.19.04,20.05.09,28.23,2.91,1.19.41,3.65,1.28,6.39,2.92,1.33,21.91,3.39,43.21,6.49,63.51Z"/>
        <path class="cls-7" d="M453.82,770.43c-8.34,3.06-17.69,2.59-24.19,2.26-7.01-.35-16.68-.96-25.32-7.56-3.56-2.72-5.45-5.32-8.73-9.89-6.23-8.71-10.7-17.85-22.99-48.89-.46-1.17-1.21-3.06-2.38-5.53-4-8.41-6.64-10.26-8.67-14.55-4.14-8.74-1.32-18.26,0-22.7,1.33-4.46,3.17-10.67,9.02-15.13,4.07-3.11,8.37-4.05,9.89-4.37,4.79-1,15.22-.3,20.37,3.2,7.28,4.95,19.9,3.22,27.36,1.46,4.48-1.07,9.81-2.33,15.71-.59,4.13,1.22,7.17,3.51,9.39,5.66-.13,11.19-.23,22.83-.3,34.94-.15,27.39-.06,54.85.84,81.68Z"/>
        <path class="cls-9" d="M494.81,969.43h-44.73c-.37-2.52-.22-5.61.93-8.44,3.2-7.86,6.58-5.43,6.11-8.59-.09-.62-.33-1.02-.58-1.45-1.89-3.25-3.34-6.74-5.38-9.89-4.8-7.4-1.72-20.59-1.42-21.83.4-1.65,2.11-8.13,7.42-14.7,2.31-2.86,5.95-7.35,10.26-9.7,6.22,27.81,15.01,53.07,27.39,74.6Z"/>
        <path class="cls-2" d="M275.97,961.72c-.94,3.15-2.84,5.03-3.2,5.38,0,0-1.45,1.41-3.49,2.33h-61.15c-3.18-1.35-9.94-4.11-11.75-4.95-.8-.37-5.08-2.42-7.71-6.26-2.24-3.27-2.32-6.45-2.47-12.51-.1-3.85.2-7.86.66-12.29,0,0,0,0,0-.01,4.08-7.11,8.05-14.9,11.92-23.28,2.18.15,4.47.34,6.77.52,11.93.89,34.97,1.98,48.17,5.38,1.28.33,3.79,1.03,6.4,2.91,3.2,2.31,4.81,5.17,6.4,8.29,1.06,2.07,6.26,12.42,9.46,26.63.37,1.66.98,4.55,0,7.86Z"/>
        <path class="cls-10" d="M464.31,397.45c-1.37,19.59-2.83,40.04-4.24,62.87-1.1,2.68-2.03,4.1-2.74,5.08-4.26,5.82-10.08,8.19-12.53,9.02-6.31,2.13-11.53,1.15-17.64,0-8.51-1.6-14.47-4.79-19.02-7.28-7.68-4.19-11.52-6.29-14.84-11.06-4.61-6.63-5.33-14.16-5.53-16.59-.2-2.4-.13-4.36,0-6.11,1.22-16.89,8.73-34.05,8.73-34.05,5.5-12.56,8.25-18.85,13.67-22.7.66-.47,11.76-8.09,24.45-4.95,4.04,1,7.84,3.58,15.42,8.73,6.66,4.52,8.96,7.15,10.48,9.31,1.74,2.48,2.89,4.99,3.79,7.71Z"/>
      </g>
      <path id="Nostril" class="cls-11" d="M199.58,281.47c0,2.53-1.03,4.83-2.69,6.49l-8.87,10.09-1.6,1.82h0c-2.26,2.13-5.31,3.44-8.66,3.44-6.99,0-12.66-5.67-12.66-12.66,0-5.9,4.03-10.86,9.49-12.26h0l11.71-5.1.93-.41c.99-.37,2.06-.57,3.18-.57,5.06,0,9.16,4.11,9.16,9.17Z"/>
      <g id="Eye">
        <circle class="cls-3" cx="351.82" cy="264.89" r="49.75"/>
        <path class="cls-11" d="M401.56,264.89c0,6.57-1.28,12.85-3.59,18.6-7.39,9.16-18.72,15.02-31.42,15.02-22.29,0-40.36-18.08-40.36-40.37s18.07-40.37,40.36-40.37c.44,0,.89,0,1.33.03,19.59,6.68,33.68,25.24,33.68,47.09Z"/>
      </g>
      <path id="EarShadow" class="cls-11" d="M551.17,236.08c-5.43,7.29-12.08,14.04-20.13,18.58-15.05,8.5-34.57,12.15-46.24,13.37l-14.57,91.67v-105.28c.96,0,2.18-.02,3.62-.1,12.62-.63,42.14-4.66,63.67-18.23h13.65Z"/>
      <path id="LeftAntennae" class="cls-11" d="M336.79,185.32c-4.08,1.13-8.39,1.73-12.83,1.73-2.78,0-5.51-.24-8.16-.69l-7.82-25.47c-10.7-2.16-18.75-11.61-18.75-22.94,0-12.93,10.49-23.41,23.42-23.41s23.41,10.48,23.41,23.41c0,7.18-3.23,13.6-8.32,17.9l9.05,29.48Z"/>
      <path id="RightAntennae" class="cls-11" d="M403.2,150.37l4.41,27.21c-5.28,1.99-11,3.08-16.97,3.08-2.64,0-5.23-.21-7.75-.63l-3.87-23.85c-3.18-1.07-6.05-2.8-8.46-5.03-4.62-4.27-7.5-10.38-7.5-17.17,0-5.47,1.88-10.5,5.02-14.49,4.29-5.44,10.93-8.93,18.39-8.93,12.93,0,23.41,10.48,23.41,23.41,0,6.37-2.55,12.16-6.69,16.38Z"/>
    </g>
  </g>
</svg>