<?xml version="1.0" encoding="UTF-8"?>
<svg id="TEAM_LOGO" data-name="TEAM LOGO" xmlns="http://www.w3.org/2000/svg" viewBox="0 0 1080 1080">
  <defs>
    <style>
      .cls-1 {
        fill: #fff;
      }
    </style>
  </defs>
  <g id="TEAM_-_B_W_Inverse" data-name="TEAM - B&amp;amp;W Inverse">
    <g id="TeamLogoSmall_B_WInverse" data-name="TeamLogoSmall_B&amp;amp;WInverse">
      <g id="GiraffeTSolid">
        <path d="M114.43,984.2l34.74-26.87c16.02-12.39,48.21-55.06,83.86-201.68,19.75-81.22,55.57-256.08,55-356.23-17.5-5.99-30.4-18.35-36.07-31.16l-27.19-2.46c-14,10.26-30.97,15.85-48.46,15.85-45.21,0-82-36.79-82-82,0-1.1.02-2.2.06-3.28l.29-7.33,20.14-14.45c0-.09,0-.18,0-.27,0-16.85,13.29-30.66,29.94-31.5l85.9-16c5.81-23.93,26.82-42.25,52.31-43.77l15.9-.95-2.89-9.42c-12.93-6.31-21.61-19.62-21.61-34.54,0-21.17,17.23-38.4,38.4-38.4,16.82,0,31.15,10.87,36.33,25.96,3.87-17.11,19.2-29.92,37.46-29.92,21.17,0,38.4,17.23,38.4,38.4,0,7.31-2.04,14.32-5.84,20.38l4.16,25.68c8.76,3.56,16.49,9.25,22.51,16.43,2.43-1.85,5.25-3.69,8.58-5.5,28.84-15.71,64.61-19.01,89.53-19.01,12.26,0,24.93.82,35.67,2.32l19.35,2.69-7.59,18c-4.11,9.75-9.08,18.17-15.39,26.06h85.42l15.94,152.16h-151.45v610.8H114.43ZM350.6,179.03l16.82-1-1.9-11.69c-7.17-4.69-12.55-11.63-15.3-19.69-1.05,4.63-2.94,9.02-5.59,12.94l5.97,19.43Z"/>
        <path class="cls-1" d="M386.55,110.8c12.92,0,23.4,10.48,23.4,23.4,0,6.37-2.55,12.15-6.68,16.38l6.69,41.29c15.72,3.07,28.5,14.89,32.71,30.45,4.76-6.43,8.23-12.17,18.87-17.96,24.63-13.42,56.39-17.18,82.35-17.18,13.3,0,25.08.99,33.6,2.17-4.43,10.49-9.78,18.88-17.06,26.97-6.82,7.57-13.92,13.92-22.91,19.92h110.31l12.8,122.16h-149.79v610.8H158.35c36.56-28.27,66.85-117.82,89.26-210,20.48-84.19,58.89-270.68,55.18-371.59-23.4-3.36-39.01-21.26-39.01-33.34l-43.63-3.95c-11.75,10.17-27.07,16.33-43.83,16.33-37,0-67-30-67-67,0-.9.02-1.8.05-2.69l21.94-15.74c-.96-2.1-1.5-4.43-1.5-6.89,0-9.14,7.41-16.54,16.54-16.54l68.71-12.8,28.25-5.26.74-.12c.32-21.94,17.54-40.25,39.8-41.58l34.95-2.08-10.7-34.86c-10.69-2.16-18.74-11.61-18.74-22.93,0-12.92,10.48-23.4,23.4-23.4s23.4,10.48,23.4,23.4c0,7.17-3.23,13.59-8.31,17.89l11.87,38.66,45.16-2.69-5.78-35.63c-9.27-3.11-15.95-11.87-15.95-22.19,0-12.92,10.48-23.4,23.4-23.4M351.91,314.75c20.88,0,38.77-12.88,46.13-31.13-7.39,9.16-18.71,15.02-31.4,15.02-22.28,0-40.34-18.07-40.34-40.35s18.06-40.35,40.34-40.35c.44,0,.89,0,1.33.03h0c-5.04-1.73-10.44-2.66-16.06-2.66-27.46,0-49.72,22.26-49.72,49.72s22.26,49.72,49.72,49.72M386.55,80.8c-15.35,0-29.21,6.51-38.96,16.92-9.36-8.07-21.53-12.95-34.83-12.95-29.45,0-53.4,23.95-53.4,53.4,0,11.73,3.86,22.75,10.48,31.7-13.61,3.18-26.04,10.25-35.84,20.54-6.5,6.83-11.54,14.75-14.92,23.33l-9.51,1.77-66.67,12.42c-21.41,1.58-38.84,17.7-42.42,38.5l-8.6,6.17-11.91,8.54-.58,14.65c-.05,1.28-.08,2.58-.08,3.88,0,53.49,43.51,97,97,97,18.71,0,36.92-5.41,52.48-15.42l13.82,1.25c3.07,4.81,6.88,9.4,11.36,13.61,5.61,5.26,12.04,9.71,19,13.2-1.62,99.85-35.55,264.8-54.53,342.83-35.86,147.48-66.82,184.35-78.46,193.36l-69.48,53.73h470.32V388.4h153.1l-3.47-33.13-12.8-122.16-2.82-26.87h-72.05c.8-1.71,1.58-3.45,2.33-5.23l15.19-35.99-38.69-5.38c-11.4-1.59-24.8-2.46-37.74-2.46-26.47,0-64.53,3.56-96.02,20.46-3.46-2.86-7.15-5.37-11.04-7.53l-2.08-12.86c3.41-7.11,5.21-14.96,5.21-23.06,0-29.44-23.95-53.4-53.4-53.4h0Z"/>
      </g>
      <g id="TrimmedH">
        <polygon points="517.43 364.42 649.71 364.42 658.05 432.99 704.87 432.99 690.45 342.82 862.22 342.82 988.94 983.62 792.97 983.62 741.69 663.09 686.01 663.09 724.97 983.57 517.43 984.18 517.43 364.42"/>
        <path class="cls-1" d="M849.89,357.82l120.79,610.8h-164.92l-51.28-320.53h-85.4l38.96,320.53-175.61.52V379.41h104l8.34,68.57h77.7l-14.43-90.17h141.86M874.54,327.82h-201.69l5.56,34.74,8.87,55.43h-15.95l-5.13-42.19-3.21-26.38h-160.57v649.81l30.09-.09,175.61-.52,33.77-.1-4.07-33.52-34.87-286.91h25.95l47.24,295.27,4.04,25.26h227.01l-7.08-35.82-120.79-610.8-4.78-24.18h0Z"/>
      </g>
    </g>
  </g>
</svg>