<?xml version="1.0" encoding="UTF-8"?>
<svg id="TEAM_LOGO" data-name="TEAM LOGO" xmlns="http://www.w3.org/2000/svg" viewBox="0 0 1080 1080">
  <defs>
    <style>
      .cls-1 {
        fill: #fff;
      }

      .cls-2 {
        fill: #58595b;
      }

      .cls-3 {
        fill: #404041;
      }

      .cls-4 {
        fill: #929497;
      }
    </style>
  </defs>
  <g id="TEAM_-_Grayscale" data-name="TEAM - Grayscale">
    <g id="TeamLogoSmall_Grayscale">
      <polygon id="H" class="cls-3" points="969.01 966.96 804.73 966.96 753.65 647.67 668.58 647.67 707.39 966.96 510.95 967.54 510.95 359.11 633.5 359.11 644.35 448.34 721.75 448.34 707.39 358.53 848.69 358.53 969.01 966.96"/>
      <path id="GiraffeT" class="cls-4" d="M660.16,359.11h-149.21v608.43H159.83c36.42-28.16,66.59-117.36,88.91-209.19,20.4-83.87,58.67-269.63,54.97-370.15-23.31-3.35-38.86-21.18-38.86-33.21l-43.46-3.93c-11.7,10.13-26.97,16.26-43.66,16.26-36.86,0-66.74-29.88-66.74-66.74,0-.9.02-1.79.05-2.68l21.86-15.68c-.96-2.09-1.5-4.41-1.5-6.86,0-9.1,7.38-16.47,16.47-16.47l68.45-12.75,28.14-5.24.74-.12c.32-21.86,17.47-40.09,39.64-41.41l34.81-2.07-10.66-34.72c-10.65-2.15-18.67-11.56-18.67-22.84,0-12.87,10.44-23.31,23.31-23.31s23.31,10.43,23.31,23.31c0,7.15-3.22,13.54-8.28,17.82l11.82,38.51,44.99-2.68-5.75-35.49c-9.24-3.1-15.89-11.83-15.89-22.1,0-12.87,10.44-23.31,23.31-23.31s23.31,10.43,23.31,23.31c0,6.35-2.54,12.11-6.66,16.31l6.66,41.13c15.65,3.06,28.39,14.83,32.58,30.33,4.74-6.4,8.2-12.12,18.79-17.89,37.1-20.21,90.44-18.44,115.51-14.95-4.41,10.45-9.74,18.8-17,26.87-6.79,7.54-13.87,13.86-22.82,19.85h109.88l12.75,121.69Z"/>
      <g id="Spots">
        <path class="cls-2" d="M376.18,482.61c-3.51,10.64-12.51,15.51-14.48,16.52-8.65,4.4-16.75,3.12-19.7,2.61-10.93-1.89-17.43-8.68-19.25-10.72-1.75-1.97-6.25-7.13-7.69-15.07-1.43-7.86-.48-13.75,3.48-23.47,3.81-9.36,7.39-14.6,13.04-17.68,5.83-3.18,14.4-2.18,19.7.87,11.5,6.63,21.57,15.46,24.91,29.26.99,4.05,2.43,10.33,0,17.67Z"/>
        <path class="cls-2" d="M350.79,615.08c.54,4.5,1.49,8.19,0,13.33-2.67,9.22-10.68,14.4-14.4,16.8-9.39,6.07-16.14,9.15-21.93,9.56-8.59.61-22.31-.89-30.22-7.82-4.98-4.36-6.76-10.15-8.05-16.69h0c6.62-34.98,12.93-72.1,17.85-108.04.21-.15.42-.29.64-.44,7.15-4.81,14.86-5.63,16.22-5.76,3.03-.29,10.55-.61,18.26,3.15,9.96,4.85,14.26,13.6,19.12,23.47,3.5,7.12,8.25,16.76,8.69,29.84.64,18.94-8.49,23.13-6.17,42.59Z"/>
        <path class="cls-2" d="M457.03,524.99c-1.13,26.21-2.09,55.66-2.76,89.6-2.96,1.99-5.47,3.31-6.77,3.97-12.69,6.38-24.14,6.52-29.12,6.52-8,0-17.34,0-27.19-5.65-12.15-6.98-17.47-18.21-19.75-23.03-3.1-6.55-4.29-12.25-4.78-15.21-.41-2.47-1.63-10.86,2.61-31.73,1.98-9.73,2.97-14.59,4.35-17.82,6.41-14.97,22.95-31.6,42.59-31.29,11.44.18,20.39,6.05,21.73,6.96,7.41,4.98,8.66,9.68,18.69,17.38.14.11.27.21.41.31Z"/>
        <path class="cls-2" d="M366.18,726.34s-1.33,14.32-18.64,37.81c-1.32,1.79-3.45,4.39-6.95,5.65-3.76,1.35-15.46,2.59-29.55,1.39-10.59-.9-19.8-2.43-23.47-6.6-3.17-3.6-5.72-8.21-11.3-11.74-1.49-.94-2.86-1.48-4.34-1.3-2.63.32-3.67,2.68-6.09,4.78,0,0-4.04,3.5-10,3.91-2.56.18-4.96-.66-7.09-1.94,5.93-24.37,13.36-57.35,20.83-94.33,19.98-4.64,40.71-7.44,61.44,2.39,7.07,3.36,11.54,6.95,12.6,7.82,12.79,10.48,24.65,29.57,22.55,52.15Z"/>
        <path class="cls-2" d="M434.46,948.42c-2.04,5.59-4.33,4.75-7.54,12.17-1.3,3.01-1.78,5.12-2.16,6.95h-115.08c-.91-1.71-1.76-3.5-2.71-5.5-2.31-4.87-14.47-30.51-4.63-55.34,2.05-5.18,5.46-13.43,13.33-16.51,4.14-1.63,7.6-1.07,14.2,0,6.39,1.03,20.33,3.28,28.97,12.46,1.4,1.49,5.54,3.96,9.56,9.27,6.37,8.4,43.47,5.74,54.18,8.4,5.64,1.4,7.66,4.56,8.69,5.79,5.05,6.05,5.73,15.32,3.19,22.31Z"/>
        <path class="cls-2" d="M314.46,815.72c-.56,7.94-5.76,15.64-8.93,19.7-4.44,5.71-6.97,12.28-6.97,30.71,0,6.95,2.05,13.62-2.3,23.03-6.3,13.65-29.43,17.76-46.35,14.06-21.29-4.66-32.54-22.01-35.95-27.74,10.15-27.1,19.43-57.73,27.78-89.4,8.34-2.88,25.22-7.3,43.81-4.25,3.68.6,5.53,1.19,6.96,1.74,13.46,5.2,18.86,18.88,19.99,22.02,1.21,3.35,2.25,6.24,1.97,10.14Z"/>
        <path class="cls-2" d="M462.06,862.73c-2.22,4.51-4.64,8.27-6.74,11.52-5.36,8.3-10.15,15.52-19.42,19.99-6.54,3.15-12.33,3.5-17.66,3.77-13.78.7-15.58-3.7-33.32-5.79-14.7-1.74-19.99.51-27.92-4.64-2.93-1.9-5-4.36-9.16-9.27-10.48-12.39-8.69-15.5-17.96-26.94-5.5-6.79-8.74-8.9-9.27-14.2-.54-5.27,2.04-9.5,3.48-11.88,17.76-29.46,19.73-40.24,34.48-50.12,3.97-2.66,7.9-4.61,12.75-4.93,6.08-.4,10.77,1.95,16.51,4.93,11.02,5.7,18.54,12.46,18.54,12.46,1.41,1.27,4.34,4,8.98,5.33,2.62.75,4.72.75,5.79.75,9.15.04,19.96.09,28.11,2.9,1.18.41,3.63,1.28,6.36,2.9,1.33,21.81,3.37,43.02,6.46,63.23Z"/>
        <path class="cls-2" d="M454.2,769.42c-8.3,3.04-17.61,2.58-24.08,2.25-6.98-.35-16.61-.96-25.21-7.52-3.54-2.71-5.43-5.29-8.69-9.85-6.21-8.67-10.65-17.77-22.89-48.68-.46-1.17-1.21-3.05-2.37-5.5-3.98-8.37-6.61-10.21-8.64-14.48-4.12-8.7-1.31-18.18,0-22.6,1.32-4.44,3.15-10.63,8.98-15.06,4.05-3.09,8.33-4.03,9.85-4.35,4.77-1,15.15-.3,20.28,3.18,7.25,4.93,19.81,3.21,27.24,1.45,4.47-1.06,9.76-2.32,15.65-.58,4.11,1.22,7.14,3.5,9.35,5.64-.13,11.14-.23,22.72-.3,34.78-.15,27.27-.06,54.61.83,81.32Z"/>
        <path class="cls-2" d="M495.01,967.54h-44.53c-.37-2.5-.22-5.58.93-8.4,3.19-7.82,6.55-5.41,6.08-8.55-.09-.61-.33-1.02-.58-1.45-1.88-3.23-3.32-6.72-5.36-9.85-4.78-7.37-1.72-20.5-1.41-21.73.4-1.64,2.1-8.1,7.39-14.63,2.3-2.85,5.92-7.32,10.22-9.66,6.19,27.69,14.94,52.84,27.26,74.27Z"/>
        <path class="cls-2" d="M277.14,959.86c-.93,3.13-2.82,5.01-3.19,5.36,0,0-1.45,1.4-3.47,2.32h-60.88c-3.17-1.34-9.9-4.09-11.7-4.93-.8-.37-5.06-2.41-7.68-6.23-2.23-3.26-2.31-6.42-2.46-12.46-.1-3.83.2-7.82.65-12.23,0,0,0,0,0-.01,4.06-7.08,8.02-14.83,11.87-23.18,2.17.15,4.45.34,6.74.51,11.88.88,34.82,1.97,47.95,5.36,1.27.33,3.78,1.02,6.37,2.9,3.18,2.3,4.79,5.14,6.37,8.25,1.05,2.06,6.23,12.37,9.42,26.51.37,1.65.98,4.53,0,7.82Z"/>
        <path class="cls-2" d="M464.64,398.08c-1.36,19.51-2.82,39.87-4.22,62.59-1.1,2.67-2.02,4.08-2.73,5.06-4.24,5.79-10.04,8.16-12.47,8.98-6.28,2.12-11.47,1.14-17.57,0-8.47-1.59-14.4-4.77-18.94-7.25-7.65-4.18-11.47-6.26-14.78-11.01-4.59-6.6-5.3-14.1-5.5-16.51-.2-2.39-.13-4.34,0-6.08,1.22-16.82,8.69-33.9,8.69-33.9,5.47-12.51,8.21-18.76,13.61-22.6.66-.46,11.71-8.05,24.34-4.93,4.03,1,7.8,3.56,15.36,8.69,6.63,4.5,8.92,7.12,10.43,9.27,1.73,2.47,2.88,4.97,3.78,7.68Z"/>
      </g>
      <g id="Eye">
        <circle class="cls-1" cx="352.64" cy="266.1" r="49.53"/>
        <path class="cls-2" d="M402.17,266.1c0,6.54-1.27,12.79-3.58,18.51-7.36,9.12-18.64,14.96-31.28,14.96-22.19,0-40.19-18-40.19-40.19s17.99-40.19,40.19-40.19c.44,0,.89,0,1.33.03,19.5,6.65,33.53,25.13,33.53,46.88Z"/>
      </g>
      <path class="cls-2" d="M201.08,282.61c0,2.52-1.02,4.81-2.68,6.46l-8.83,10.04-1.59,1.81h0c-2.25,2.12-5.29,3.42-8.62,3.42-6.96,0-12.6-5.64-12.6-12.6,0-5.87,4.01-10.81,9.45-12.21h0l11.66-5.08.93-.41c.99-.37,2.05-.57,3.17-.57,5.04,0,9.12,4.09,9.12,9.13Z"/>
      <path id="EarShadow" class="cls-2" d="M551.12,237.42c-5.4,7.25-12.03,13.97-20.04,18.5-14.99,8.46-34.42,12.1-46.03,13.31l-14.51,91.26v-104.82c.96,0,2.17-.02,3.6-.1,12.57-.63,41.96-4.64,63.39-18.15h13.59Z"/>
      <path id="LeftAntennae" class="cls-2" d="M337.68,186.88c-4.07,1.13-8.35,1.72-12.77,1.72-2.77,0-5.48-.24-8.12-.69l-7.79-25.36c-10.65-2.15-18.67-11.56-18.67-22.84,0-12.87,10.44-23.31,23.31-23.31s23.31,10.43,23.31,23.31c0,7.15-3.22,13.54-8.28,17.82l9.01,29.35Z"/>
      <path id="RightAntennae" class="cls-2" d="M403.8,152.08l4.39,27.09c-5.25,1.98-10.95,3.07-16.9,3.07-2.63,0-5.2-.21-7.71-.62l-3.85-23.74c-3.17-1.07-6.03-2.79-8.42-5.01-4.6-4.25-7.47-10.34-7.47-17.09,0-5.44,1.87-10.45,5-14.42,4.27-5.41,10.88-8.89,18.31-8.89,12.87,0,23.31,10.43,23.31,23.31,0,6.35-2.54,12.11-6.66,16.31Z"/>
    </g>
  </g>
</svg>