<?xml version="1.0" encoding="UTF-8"?>
<svg id="TEAM_LOGO" data-name="TEAM LOGO" xmlns="http://www.w3.org/2000/svg" viewBox="0 0 1080 1080">
  <defs>
    <style>
      .cls-1 {
        fill: #594b9e;
      }
    </style>
  </defs>
  <g id="TEAM_-_2-Color_Cool" data-name="TEAM - 2-Color Cool">
    <g id="TeamLogoSmall_ColorCool">
      <polygon id="TrimmedH" class="cls-1" points="970.75 968.69 805.81 968.69 754.52 648.11 669.1 648.11 708.07 968.69 532.43 969.21 532.43 379.39 636.44 379.39 644.78 447.97 722.49 447.97 708.07 357.79 849.95 357.79 970.75 968.69"/>
      <path id="GiraffeTSolid" class="cls-1" d="M647.85,236.19h-110.33c8.99-6.01,16.09-12.36,22.91-19.93,7.29-8.09,12.64-16.48,17.07-26.97-25.16-3.5-78.72-5.28-115.98,15.01-10.64,5.79-14.11,11.53-18.87,17.96-4.21-15.56-17-27.38-32.71-30.45l-6.69-41.3c4.14-4.22,6.69-10.01,6.69-16.38,0-12.93-10.48-23.4-23.4-23.4s-23.41,10.48-23.41,23.4c0,10.32,6.68,19.08,15.96,22.19l5.78,35.63-45.17,2.69-11.87-38.66c5.09-4.29,8.31-10.71,8.31-17.89,0-12.93-10.48-23.4-23.4-23.4s-23.41,10.48-23.41,23.4c0,11.33,8.05,20.78,18.74,22.94l10.71,34.86-34.95,2.08c-22.26,1.33-39.48,19.64-39.8,41.58l-.74.12-28.26,5.26-68.72,12.8c-9.13,0-16.54,7.4-16.54,16.54,0,2.46.54,4.8,1.5,6.89l-21.95,15.74c-.04.89-.05,1.79-.05,2.7,0,37.01,30,67.01,67.01,67.01,16.76,0,32.09-6.16,43.84-16.33l43.64,3.95c0,12.08,15.61,29.98,39.02,33.34,3.71,100.93-34.71,287.45-55.19,371.66-22.42,92.2-52.71,181.76-89.27,210.04h352.55V358.37h149.82l-12.8-122.18ZM351.88,314.71c-27.46,0-49.73-22.26-49.73-49.73s22.27-49.73,49.73-49.73c5.62,0,11.02.93,16.07,2.65h0c-.44,0-.89-.02-1.33-.02-22.28,0-40.35,18.07-40.35,40.35s18.07,40.35,40.35,40.35c12.69,0,24.02-5.86,31.41-15.02-7.36,18.25-25.25,31.14-46.14,31.14Z"/>
    </g>
  </g>
</svg>