<?xml version="1.0" encoding="UTF-8"?>
<svg id="TEAM_LOGO" data-name="TEAM LOGO" xmlns="http://www.w3.org/2000/svg" xmlns:xlink="http://www.w3.org/1999/xlink" viewBox="0 0 1080 1080">
  <defs>
    <style>
      .cls-1 {
        fill: url(#linear-gradient-2);
      }

      .cls-2 {
        fill: #d49751;
      }

      .cls-3 {
        fill: url(#linear-gradient-10);
      }

      .cls-4 {
        fill: #fff;
      }

      .cls-5 {
        fill: url(#linear-gradient-4);
      }

      .cls-6 {
        fill: #b15f6f;
      }

      .cls-7 {
        fill: url(#linear-gradient-3);
      }

      .cls-8 {
        fill: url(#linear-gradient-5);
      }

      .cls-9 {
        fill: #594b9e;
      }

      .cls-10 {
        fill: url(#linear-gradient-8);
      }

      .cls-11 {
        fill: url(#linear-gradient-7);
      }

      .cls-12 {
        fill: url(#linear-gradient-9);
      }

      .cls-13 {
        fill: url(#linear-gradient-11);
      }

      .cls-14 {
        fill: url(#linear-gradient-6);
      }

      .cls-15 {
        fill: url(#linear-gradient);
      }
    </style>
    <linearGradient id="linear-gradient" x1="327.24" y1="960.38" x2="352.89" y2="245.66" gradientUnits="userSpaceOnUse">
      <stop offset=".35" stop-color="#b15f6f"/>
      <stop offset=".48" stop-color="#b76969"/>
      <stop offset=".69" stop-color="#c7845a"/>
      <stop offset=".81" stop-color="#d39650"/>
      <stop offset="1" stop-color="#d49751"/>
    </linearGradient>
    <linearGradient id="linear-gradient-2" x1="302.77" y1="950.52" x2="328.42" y2="235.8" gradientUnits="userSpaceOnUse">
      <stop offset=".5" stop-color="#b15f6f"/>
      <stop offset=".52" stop-color="#b4646c"/>
      <stop offset=".62" stop-color="#c27a60"/>
      <stop offset=".72" stop-color="#cc8a57"/>
      <stop offset=".84" stop-color="#d29452"/>
      <stop offset="1" stop-color="#d49751"/>
    </linearGradient>
    <linearGradient id="linear-gradient-3" x1="396.53" y1="953.89" x2="422.18" y2="239.16" xlink:href="#linear-gradient-2"/>
    <linearGradient id="linear-gradient-4" x1="298.68" y1="950.38" x2="324.33" y2="235.65" xlink:href="#linear-gradient-2"/>
    <linearGradient id="linear-gradient-5" x1="365.57" y1="952.78" x2="391.22" y2="238.05" gradientUnits="userSpaceOnUse">
      <stop offset=".41" stop-color="#b15f6f"/>
      <stop offset=".44" stop-color="#b4646c"/>
      <stop offset=".55" stop-color="#c27a60"/>
      <stop offset=".67" stop-color="#cc8a57"/>
      <stop offset=".81" stop-color="#d29452"/>
      <stop offset="1" stop-color="#d49751"/>
    </linearGradient>
    <linearGradient id="linear-gradient-6" x1="258.89" y1="948.95" x2="284.55" y2="234.22" xlink:href="#linear-gradient-2"/>
    <linearGradient id="linear-gradient-7" x1="386.71" y1="953.53" x2="412.36" y2="238.81" xlink:href="#linear-gradient-2"/>
    <linearGradient id="linear-gradient-8" x1="398.09" y1="953.94" x2="423.74" y2="239.22" xlink:href="#linear-gradient-2"/>
    <linearGradient id="linear-gradient-9" x1="471.3" y1="956.57" x2="496.95" y2="241.85" xlink:href="#linear-gradient-5"/>
    <linearGradient id="linear-gradient-10" x1="230.96" y1="947.94" x2="256.61" y2="233.22" xlink:href="#linear-gradient-5"/>
    <linearGradient id="linear-gradient-11" x1="406.49" y1="954.24" x2="432.14" y2="239.52" xlink:href="#linear-gradient"/>
  </defs>
  <g id="TEAM_-_Full_Color" data-name="TEAM - Full Color">
    <g id="TeamLogoSmall_FullColorGradiant">
      <polygon id="H" class="cls-9" points="971.61 969.55 806.34 969.55 754.94 648.33 669.36 648.33 708.4 969.55 510.77 970.13 510.77 358.01 634.07 358.01 644.98 447.79 722.86 447.79 708.4 357.43 850.56 357.43 971.61 969.55"/>
      <path id="GiraffeT" class="cls-2" d="M660.89,358.01h-150.12v612.12H157.52c36.64-28.33,66.99-118.07,89.45-210.45,20.52-84.38,59.02-271.26,55.3-372.39-23.45-3.37-39.1-21.31-39.1-33.41l-43.72-3.95c-11.77,10.19-27.13,16.36-43.92,16.36-37.08,0-67.14-30.06-67.14-67.14,0-.9.02-1.8.05-2.7l21.99-15.77c-.97-2.1-1.5-4.44-1.5-6.91,0-9.16,7.42-16.57,16.57-16.57l68.86-12.83,28.31-5.27.75-.12c.32-21.99,17.58-40.34,39.88-41.67l35.02-2.09-10.73-34.93c-10.71-2.16-18.78-11.63-18.78-22.98,0-12.95,10.5-23.45,23.45-23.45s23.45,10.5,23.45,23.45c0,7.19-3.23,13.62-8.33,17.92l11.89,38.74,45.26-2.7-5.79-35.7c-9.29-3.12-15.99-11.9-15.99-22.24,0-12.95,10.5-23.45,23.45-23.45s23.45,10.5,23.45,23.45c0,6.39-2.56,12.18-6.7,16.41l6.7,41.38c15.75,3.08,28.56,14.92,32.78,30.51,4.77-6.44,8.25-12.19,18.91-18,37.33-20.33,90.99-18.55,116.21-15.04-4.43,10.51-9.8,18.92-17.1,27.03-6.84,7.59-13.95,13.95-22.96,19.97h110.55l12.83,122.42Z"/>
      <g id="Spots">
        <path class="cls-15" d="M375.19,482.26c-3.53,10.7-12.58,15.6-14.57,16.62-8.7,4.43-16.85,3.14-19.82,2.62-10.99-1.91-17.54-8.73-19.37-10.78-1.77-1.98-6.28-7.17-7.74-15.16-1.44-7.9-.49-13.83,3.5-23.61,3.83-9.42,7.44-14.69,13.11-17.78,5.87-3.19,14.49-2.2,19.82.88,11.57,6.67,21.7,15.56,25.06,29.44.99,4.07,2.44,10.4,0,17.78Z"/>
        <path class="cls-1" d="M349.64,615.53c.54,4.52,1.5,8.24,0,13.41-2.68,9.28-10.75,14.49-14.49,16.91-9.44,6.1-16.23,9.21-22.06,9.62-8.64.62-22.44-.9-30.4-7.87-5.01-4.38-6.8-10.22-8.1-16.79h0c6.66-35.2,13-72.54,17.96-108.69.21-.15.42-.3.64-.44,7.2-4.84,14.95-5.66,16.32-5.79,3.04-.29,10.61-.61,18.37,3.17,10.02,4.88,14.35,13.68,19.24,23.61,3.53,7.16,8.3,16.87,8.75,30.02.64,19.05-8.54,23.27-6.21,42.85Z"/>
        <path class="cls-7" d="M456.53,524.9c-1.13,26.37-2.1,56-2.78,90.14-2.98,2-5.5,3.33-6.81,3.99-12.77,6.42-24.28,6.56-29.29,6.56-8.04,0-17.44,0-27.35-5.68-12.22-7.02-17.58-18.32-19.87-23.17-3.12-6.59-4.32-12.32-4.81-15.3-.41-2.48-1.64-10.93,2.62-31.92,1.99-9.79,2.98-14.68,4.37-17.93,6.45-15.06,23.09-31.79,42.85-31.48,11.51.19,20.51,6.09,21.86,7,7.45,5.01,8.71,9.73,18.8,17.49.14.11.27.21.41.31Z"/>
        <path class="cls-5" d="M365.13,727.47s-1.34,14.4-18.75,38.04c-1.33,1.8-3.47,4.42-6.99,5.68-3.79,1.35-15.56,2.6-29.73,1.39-10.66-.91-19.92-2.45-23.61-6.64-3.19-3.62-5.75-8.26-11.37-11.81-1.5-.94-2.88-1.49-4.37-1.31-2.64.32-3.69,2.69-6.12,4.81,0,0-4.06,3.53-10.06,3.94-2.58.18-4.99-.66-7.13-1.95,5.96-24.52,13.44-57.69,20.96-94.9,20.1-4.66,40.95-7.49,61.81,2.41,7.11,3.38,11.61,6.99,12.68,7.87,12.87,10.54,24.8,29.75,22.69,52.46Z"/>
        <path class="cls-8" d="M433.82,950.89c-2.05,5.63-4.36,4.77-7.58,12.24-1.31,3.03-1.79,5.15-2.17,6.99h-115.78c-.91-1.72-1.77-3.52-2.73-5.54-2.32-4.9-14.56-30.7-4.66-55.67,2.06-5.21,5.49-13.51,13.41-16.61,4.17-1.64,7.65-1.07,14.28,0,6.42,1.04,20.46,3.3,29.15,12.53,1.41,1.5,5.57,3.98,9.62,9.33,6.41,8.45,43.73,5.78,54.51,8.45,5.67,1.41,7.71,4.59,8.75,5.83,5.08,6.09,5.76,15.41,3.21,22.45Z"/>
        <path class="cls-14" d="M313.09,817.39c-.56,7.99-5.8,15.74-8.98,19.82-4.47,5.74-7.02,12.36-7.02,30.9,0,6.99,2.06,13.7-2.31,23.17-6.34,13.73-29.61,17.87-46.63,14.14-21.42-4.69-32.74-22.15-36.17-27.91,10.22-27.27,19.55-58.08,27.95-89.94,8.39-2.89,25.37-7.35,44.07-4.28,3.7.6,5.56,1.2,7,1.75,13.54,5.23,18.97,19,20.11,22.15,1.22,3.37,2.26,6.27,1.99,10.2Z"/>
        <path class="cls-11" d="M461.59,864.69c-2.24,4.54-4.67,8.32-6.78,11.59-5.39,8.35-10.21,15.62-19.54,20.11-6.58,3.17-12.4,3.52-17.77,3.79-13.86.7-15.67-3.72-33.52-5.83-14.79-1.75-20.11.51-28.09-4.66-2.94-1.91-5.03-4.38-9.22-9.33-10.54-12.47-8.74-15.59-18.07-27.11-5.53-6.83-8.79-8.96-9.33-14.28-.54-5.3,2.05-9.55,3.5-11.95,17.87-29.64,19.85-40.49,34.68-50.42,3.99-2.68,7.95-4.64,12.83-4.96,6.12-.4,10.84,1.96,16.61,4.96,11.08,5.74,18.65,12.53,18.65,12.53,1.42,1.28,4.37,4.03,9.04,5.37,2.63.75,4.75.75,5.83.75,9.21.04,20.08.09,28.28,2.92,1.19.41,3.65,1.28,6.4,2.92,1.34,21.94,3.39,43.28,6.5,63.61Z"/>
        <path class="cls-10" d="M453.68,770.81c-8.35,3.06-17.72,2.59-24.23,2.27-7.03-.35-16.71-.96-25.36-7.57-3.57-2.72-5.46-5.33-8.75-9.91-6.24-8.72-10.72-17.88-23.03-48.97-.46-1.17-1.21-3.07-2.39-5.54-4-8.42-6.65-10.27-8.69-14.57-4.15-8.75-1.32-18.29,0-22.74,1.33-4.47,3.17-10.69,9.04-15.15,4.08-3.11,8.38-4.06,9.91-4.37,4.8-1.01,15.25-.3,20.4,3.2,7.29,4.96,19.93,3.23,27.4,1.46,4.49-1.07,9.82-2.33,15.74-.59,4.13,1.23,7.18,3.52,9.41,5.67-.13,11.21-.23,22.86-.3,34.99-.15,27.44-.06,54.94.84,81.82Z"/>
        <path class="cls-12" d="M494.74,970.13h-44.8c-.37-2.52-.22-5.62.94-8.45,3.21-7.87,6.59-5.44,6.12-8.6-.09-.62-.33-1.02-.58-1.46-1.89-3.25-3.34-6.76-5.39-9.91-4.81-7.41-1.73-20.62-1.42-21.86.4-1.65,2.11-8.15,7.43-14.72,2.32-2.86,5.96-7.36,10.28-9.72,6.23,27.85,15.03,53.16,27.43,74.72Z"/>
        <path class="cls-3" d="M275.54,962.41c-.94,3.15-2.84,5.04-3.21,5.39,0,0-1.46,1.41-3.49,2.33h-61.25c-3.19-1.35-9.96-4.11-11.77-4.96-.8-.37-5.09-2.43-7.73-6.27-2.25-3.28-2.33-6.46-2.48-12.53-.1-3.86.2-7.87.66-12.31,0,0,0,0,0-.01,4.08-7.12,8.07-14.92,11.94-23.32,2.18.15,4.47.34,6.78.52,11.95.89,35.03,1.99,48.24,5.39,1.28.33,3.8,1.03,6.41,2.92,3.2,2.32,4.81,5.18,6.41,8.3,1.06,2.07,6.27,12.44,9.47,26.67.37,1.66.98,4.56,0,7.87Z"/>
        <path class="cls-13" d="M464.18,397.22c-1.37,19.62-2.84,40.11-4.25,62.97-1.1,2.69-2.03,4.11-2.74,5.09-4.26,5.82-10.1,8.21-12.55,9.04-6.32,2.13-11.54,1.15-17.67,0-8.53-1.6-14.49-4.8-19.05-7.29-7.7-4.2-11.54-6.3-14.87-11.08-4.62-6.64-5.34-14.18-5.54-16.61-.2-2.4-.13-4.37,0-6.12,1.23-16.92,8.75-34.11,8.75-34.11,5.51-12.59,8.26-18.88,13.7-22.73.66-.47,11.78-8.1,24.49-4.96,4.05,1,7.85,3.58,15.45,8.75,6.67,4.53,8.98,7.16,10.49,9.33,1.74,2.48,2.9,5,3.8,7.73Z"/>
      </g>
      <g id="Eye">
        <circle class="cls-4" cx="351.51" cy="264.44" r="49.83"/>
        <path class="cls-6" d="M401.34,264.44c0,6.58-1.28,12.87-3.6,18.63-7.4,9.18-18.75,15.05-31.47,15.05-22.33,0-40.43-18.11-40.43-40.43s18.1-40.43,40.43-40.43c.45,0,.89,0,1.34.03,19.62,6.69,33.73,25.28,33.73,47.17Z"/>
      </g>
      <path id="Nostril" class="cls-6" d="M199.03,281.05c0,2.54-1.03,4.84-2.69,6.5l-8.88,10.11-1.6,1.82h0c-2.27,2.14-5.32,3.44-8.68,3.44-7,0-12.68-5.67-12.68-12.68,0-5.91,4.04-10.87,9.51-12.28h0l11.73-5.11.94-.41c.99-.37,2.07-.57,3.19-.57,5.07,0,9.18,4.11,9.18,9.18Z"/>
      <path id="EarShadow" class="cls-6" d="M551.19,235.59c-5.44,7.3-12.1,14.06-20.17,18.61-15.08,8.51-34.63,12.17-46.31,13.39l-14.6,91.82v-105.46c.96,0,2.18-.02,3.62-.1,12.64-.63,42.21-4.67,63.78-18.26h13.68Z"/>
      <path id="LeftAntennae" class="cls-6" d="M336.46,184.74c-4.09,1.13-8.4,1.73-12.85,1.73-2.78,0-5.52-.24-8.17-.69l-7.83-25.51c-10.71-2.16-18.78-11.63-18.78-22.98,0-12.95,10.5-23.45,23.45-23.45s23.45,10.5,23.45,23.45c0,7.19-3.23,13.62-8.33,17.92l9.06,29.53Z"/>
      <path id="RightAntennae" class="cls-6" d="M402.97,149.73l4.41,27.25c-5.29,1.99-11.01,3.08-17,3.08-2.64,0-5.23-.21-7.76-.63l-3.87-23.89c-3.19-1.07-6.06-2.81-8.47-5.04-4.62-4.28-7.51-10.4-7.51-17.2,0-5.48,1.88-10.52,5.03-14.51,4.29-5.45,10.95-8.94,18.42-8.94,12.95,0,23.45,10.5,23.45,23.45,0,6.39-2.56,12.18-6.7,16.41Z"/>
    </g>
  </g>
</svg>