<?xml version="1.0" encoding="UTF-8"?>
<svg id="TEAM_LOGO" data-name="TEAM LOGO" xmlns="http://www.w3.org/2000/svg" viewBox="0 0 1920 1080">
  <defs>
    <style>
      .cls-1 {
        fill: #d49751;
      }

      .cls-2 {
        fill: #fff;
      }

      .cls-3 {
        fill: #b15f6f;
      }

      .cls-4 {
        fill: #594b9e;
      }
    </style>
  </defs>
  <g id="TEAM_TEXT_-_Full_Color_2" data-name="TEAM TEXT - Full Color 2">
    <g id="TeamLogo_FullColor2">
      <g>
        <path class="cls-4" d="M614.25,951.64v15.79h-19.31v48.8h-22.03v-48.8h-19.31v-15.79h60.64Z"/>
        <path class="cls-4" d="M681.4,1007.7h-22.98l-4.62,8.52h-22.77l38.4-65.49h1.05l38.4,65.49h-22.77l-4.72-8.52ZM664.51,995.5h10.91c-1.89-3.77-4.72-9.69-5.35-12.02h-.21c-.63,2.33-3.46,8.25-5.35,12.02Z"/>
        <path class="cls-4" d="M739.52,1016.22v-64.59h21.93v48.8h25.81v15.79h-47.74Z"/>
        <path class="cls-4" d="M820.51,1016.22v-64.59h21.93v48.8h25.81v15.79h-47.74Z"/>
        <path class="cls-4" d="M991.52,1016.22v-24.94h-25.08v24.94h-21.93v-64.59h21.93v23.95h25.08v-23.95h22.03v64.59h-22.03Z"/>
        <path class="cls-4" d="M1088.15,950.29c23.82,0,40.39,15.16,40.39,33.64s-16.58,33.64-40.39,33.64-40.29-14.89-40.29-33.64,16.58-33.64,40.29-33.64ZM1088.15,1000.44c11.12,0,18.26-7.8,18.26-16.51s-7.13-16.51-18.26-16.51-18.26,7.98-18.26,16.51,7.24,16.51,18.26,16.51Z"/>
        <path class="cls-4" d="M1201.56,1016.22l-11.12-20.09h-6.19v20.09h-21.4v-64.59h28.43c18.57,0,31.69,7.45,31.69,22.7,0,9.15-5.04,15.34-13.33,18.75l14.69,23.14h-22.77ZM1184.25,967.42v13.81h8.18c4.41,0,8.39-1.61,8.39-6.91s-3.99-6.91-8.39-6.91h-8.18Z"/>
        <path class="cls-4" d="M1310.99,997.92c0,12.29-10.7,19.65-30.43,19.65-8.5,0-17.21-1.35-23.08-3.5v-17.94c7.03,3.32,15.42,5.11,21.93,5.11s10.18-.99,10.18-3.32c0-2.69-4.93-3.95-13.01-6.64-12.17-4.04-20.77-8.34-20.77-20.72s11.65-20.27,29.59-20.27c7.55,0,15.32,1.17,20.56,3.05v17.22c-4.62-2.6-11.65-4.13-18.68-4.13-6.19,0-9.97,1.52-9.97,4.13,0,2.33,4.62,3.95,12.28,6.64,12.17,4.31,21.4,8.7,21.4,20.72Z"/>
        <path class="cls-4" d="M1344.77,951.64h50.57v15.79h-28.64v8.61h24.55v14.8h-24.55v9.6h30.22v15.79h-52.15v-64.59Z"/>
      </g>
      <g id="TeamLogoSmall_FullColor">
        <polygon id="H" class="cls-4" points="1385.73 921.53 1220.57 921.53 1169.21 600.53 1083.68 600.53 1122.7 921.53 925.2 922.11 925.2 310.4 1048.42 310.4 1059.32 400.12 1137.14 400.12 1122.7 309.82 1264.77 309.82 1385.73 921.53"/>
        <path id="GiraffeT" class="cls-1" d="M1075.22,310.4h-150.02v611.71h-353.01c36.61-28.32,66.95-117.99,89.39-210.31,20.51-84.32,58.98-271.08,55.26-372.15-23.44-3.36-39.07-21.3-39.07-33.39l-43.69-3.95c-11.77,10.19-27.11,16.35-43.9,16.35-37.06,0-67.1-30.04-67.1-67.1,0-.9.02-1.8.05-2.7l21.97-15.76c-.97-2.1-1.5-4.44-1.5-6.9,0-9.15,7.42-16.56,16.56-16.56l68.82-12.82,28.29-5.27.75-.12c.32-21.97,17.56-40.31,39.86-41.64l35-2.09-10.72-34.91c-10.71-2.16-18.77-11.62-18.77-22.97,0-12.94,10.5-23.43,23.44-23.43s23.43,10.49,23.43,23.43c0,7.18-3.23,13.61-8.33,17.91l11.88,38.71,45.23-2.69-5.79-35.68c-9.29-3.12-15.98-11.89-15.98-22.22,0-12.94,10.5-23.43,23.44-23.43s23.43,10.49,23.43,23.43c0,6.38-2.55,12.17-6.69,16.4l6.7,41.35c15.74,3.07,28.54,14.91,32.76,30.49,4.77-6.44,8.25-12.18,18.9-17.98,37.3-20.32,90.93-18.53,116.13-15.03-4.43,10.5-9.79,18.9-17.09,27.01-6.83,7.58-13.94,13.94-22.94,19.95h110.48l12.82,122.34Z"/>
        <g id="Spots">
          <path class="cls-3" d="M789.71,434.57c-3.53,10.69-12.57,15.59-14.56,16.61-8.69,4.43-16.84,3.14-19.81,2.62-10.98-1.91-17.52-8.73-19.35-10.78-1.76-1.98-6.28-7.17-7.73-15.15-1.44-7.9-.49-13.82,3.5-23.59,3.83-9.41,7.43-14.68,13.11-17.77,5.87-3.19,14.48-2.2,19.81.88,11.56,6.66,21.68,15.54,25.05,29.42.99,4.07,2.44,10.39,0,17.77Z"/>
          <path class="cls-3" d="M764.18,567.75c.54,4.52,1.5,8.23,0,13.4-2.68,9.27-10.74,14.48-14.48,16.89-9.44,6.1-16.22,9.2-22.05,9.61-8.64.62-22.43-.9-30.38-7.87-5.01-4.38-6.8-10.21-8.1-16.78h0c6.66-35.17,13-72.49,17.94-108.62.21-.15.42-.3.64-.44,7.19-4.84,14.94-5.66,16.31-5.79,3.04-.29,10.61-.61,18.35,3.17,10.01,4.88,14.34,13.67,19.22,23.6,3.52,7.16,8.29,16.85,8.74,30,.64,19.04-8.53,23.25-6.2,42.82Z"/>
          <path class="cls-3" d="M870.99,477.18c-1.13,26.35-2.1,55.96-2.78,90.08-2.98,2-5.5,3.33-6.81,3.99-12.76,6.41-24.27,6.55-29.27,6.55-8.04,0-17.43,0-27.33-5.68-12.21-7.02-17.56-18.31-19.86-23.16-3.12-6.58-4.31-12.31-4.81-15.29-.41-2.48-1.64-10.92,2.62-31.9,1.99-9.78,2.98-14.67,4.37-17.92,6.44-15.05,23.07-31.77,42.82-31.46,11.5.19,20.5,6.09,21.85,6.99,7.45,5.01,8.71,9.73,18.79,17.48.14.11.27.21.41.31Z"/>
          <path class="cls-3" d="M779.65,679.61s-1.34,14.39-18.74,38.02c-1.33,1.8-3.47,4.42-6.99,5.68-3.78,1.35-15.54,2.6-29.71,1.39-10.65-.91-19.91-2.45-23.59-6.64-3.18-3.62-5.75-8.25-11.36-11.8-1.5-.94-2.88-1.49-4.37-1.31-2.64.32-3.69,2.69-6.12,4.81,0,0-4.06,3.52-10.05,3.93-2.58.18-4.98-.66-7.13-1.95,5.96-24.51,13.43-57.65,20.95-94.84,20.09-4.66,40.93-7.48,61.77,2.41,7.11,3.37,11.6,6.99,12.67,7.87,12.86,10.54,24.79,29.73,22.68,52.43Z"/>
          <path class="cls-3" d="M848.3,902.89c-2.05,5.62-4.35,4.77-7.58,12.23-1.31,3.03-1.79,5.15-2.17,6.99h-115.7c-.91-1.72-1.77-3.52-2.73-5.53-2.32-4.89-14.55-30.67-4.66-55.63,2.06-5.2,5.49-13.5,13.4-16.6,4.16-1.64,7.64-1.07,14.27,0,6.42,1.04,20.44,3.3,29.13,12.52,1.41,1.5,5.57,3.98,9.61,9.32,6.41,8.44,43.7,5.77,54.47,8.44,5.67,1.41,7.7,4.59,8.74,5.83,5.08,6.08,5.76,15.4,3.21,22.43Z"/>
          <path class="cls-3" d="M727.65,769.48c-.56,7.98-5.79,15.73-8.98,19.81-4.47,5.74-7.01,12.35-7.01,30.88,0,6.99,2.06,13.69-2.31,23.15-6.33,13.72-29.59,17.86-46.6,14.13-21.41-4.68-32.72-22.13-36.15-27.89,10.21-27.25,19.54-58.04,27.93-89.88,8.38-2.89,25.35-7.34,44.05-4.28,3.7.6,5.56,1.2,6.99,1.75,13.53,5.23,18.96,18.98,20.1,22.14,1.22,3.37,2.26,6.27,1.98,10.2Z"/>
          <path class="cls-3" d="M876.05,816.74c-2.24,4.54-4.67,8.31-6.78,11.58-5.39,8.35-10.2,15.61-19.53,20.1-6.57,3.17-12.4,3.52-17.76,3.79-13.86.7-15.66-3.72-33.5-5.83-14.78-1.75-20.1.51-28.07-4.66-2.94-1.91-5.03-4.38-9.21-9.32-10.54-12.46-8.74-15.58-18.06-27.09-5.53-6.82-8.78-8.95-9.32-14.27-.54-5.3,2.05-9.55,3.5-11.94,17.86-29.62,19.84-40.46,34.66-50.39,3.99-2.68,7.94-4.63,12.82-4.95,6.12-.4,10.83,1.96,16.6,4.95,11.08,5.73,18.64,12.52,18.64,12.52,1.42,1.27,4.37,4.03,9.03,5.36,2.63.75,4.75.75,5.83.75,9.2.04,20.07.09,28.26,2.91,1.19.41,3.65,1.28,6.4,2.92,1.34,21.93,3.39,43.25,6.5,63.57Z"/>
          <path class="cls-3" d="M868.14,722.93c-8.34,3.06-17.71,2.59-24.21,2.27-7.02-.35-16.7-.96-25.34-7.56-3.56-2.72-5.45-5.32-8.74-9.9-6.24-8.72-10.71-17.86-23.01-48.94-.46-1.17-1.21-3.06-2.39-5.53-4-8.41-6.65-10.27-8.68-14.56-4.15-8.75-1.32-18.27,0-22.72,1.33-4.46,3.17-10.69,9.03-15.14,4.07-3.11,8.38-4.05,9.9-4.37,4.8-1.01,15.24-.3,20.39,3.2,7.29,4.95,19.92,3.23,27.39,1.46,4.49-1.07,9.82-2.33,15.73-.59,4.13,1.23,7.18,3.51,9.4,5.67-.13,11.2-.23,22.85-.3,34.97-.15,27.42-.06,54.9.84,81.76Z"/>
          <path class="cls-3" d="M909.18,922.11h-44.77c-.37-2.52-.22-5.61.93-8.44,3.21-7.87,6.59-5.44,6.12-8.59-.09-.62-.33-1.02-.58-1.46-1.89-3.25-3.34-6.75-5.39-9.9-4.81-7.41-1.72-20.61-1.42-21.85.4-1.65,2.11-8.14,7.43-14.71,2.32-2.86,5.95-7.36,10.27-9.71,6.22,27.83,15.02,53.13,27.41,74.67Z"/>
          <path class="cls-3" d="M690.13,914.4c-.94,3.15-2.84,5.04-3.21,5.39,0,0-1.46,1.41-3.49,2.33h-61.21c-3.18-1.35-9.95-4.11-11.76-4.95-.8-.37-5.09-2.43-7.72-6.26-2.24-3.28-2.32-6.45-2.47-12.52-.1-3.85.2-7.86.66-12.3,0,0,0,0,0-.01,4.08-7.12,8.06-14.91,11.93-23.31,2.18.15,4.47.34,6.77.52,11.95.89,35.01,1.98,48.21,5.39,1.28.33,3.8,1.03,6.41,2.91,3.2,2.32,4.81,5.17,6.41,8.3,1.06,2.07,6.27,12.44,9.47,26.65.37,1.66.98,4.56,0,7.87Z"/>
          <path class="cls-3" d="M878.64,349.58c-1.37,19.61-2.84,40.08-4.25,62.93-1.1,2.69-2.03,4.11-2.74,5.08-4.26,5.82-10.09,8.2-12.54,9.03-6.31,2.13-11.54,1.15-17.66,0-8.52-1.6-14.48-4.79-19.04-7.29-7.69-4.2-11.54-6.29-14.86-11.07-4.62-6.64-5.33-14.17-5.53-16.6-.2-2.4-.13-4.37,0-6.12,1.23-16.91,8.74-34.08,8.74-34.08,5.5-12.58,8.26-18.87,13.69-22.72.66-.47,11.77-8.1,24.47-4.95,4.05,1,7.85,3.58,15.44,8.74,6.67,4.53,8.97,7.16,10.49,9.32,1.74,2.48,2.9,5,3.8,7.72Z"/>
        </g>
        <g id="Eye">
          <circle class="cls-2" cx="766.04" cy="216.9" r="49.8"/>
          <path class="cls-3" d="M815.84,216.9c0,6.58-1.28,12.86-3.6,18.61-7.4,9.17-18.74,15.04-31.45,15.04-22.31,0-40.4-18.09-40.4-40.41s18.09-40.41,40.4-40.41c.45,0,.89,0,1.34.03,19.61,6.69,33.71,25.26,33.71,47.14Z"/>
        </g>
        <path class="cls-3" d="M613.66,233.5c0,2.54-1.03,4.83-2.69,6.49l-8.88,10.1-1.6,1.82h0c-2.27,2.13-5.32,3.44-8.67,3.44-7,0-12.67-5.67-12.67-12.67,0-5.9,4.03-10.87,9.5-12.27h0l11.72-5.11.93-.41c.99-.37,2.06-.57,3.18-.57,5.07,0,9.17,4.11,9.17,9.18Z"/>
        <path id="EarShadow" class="cls-3" d="M965.59,188.06c-5.43,7.29-12.09,14.05-20.15,18.6-15.07,8.51-34.6,12.17-46.28,13.38l-14.59,91.76v-105.39c.96,0,2.18-.02,3.62-.1,12.63-.63,42.18-4.67,63.74-18.25h13.67Z"/>
        <path id="LeftAntennae" class="cls-3" d="M751,137.25c-4.09,1.13-8.4,1.73-12.84,1.73-2.78,0-5.51-.24-8.17-.69l-7.83-25.49c-10.71-2.16-18.77-11.62-18.77-22.97,0-12.94,10.5-23.43,23.44-23.43s23.43,10.49,23.43,23.43c0,7.18-3.23,13.61-8.33,17.91l9.06,29.51Z"/>
        <path id="RightAntennae" class="cls-3" d="M817.48,102.26l4.41,27.24c-5.28,1.99-11.01,3.08-16.99,3.08-2.64,0-5.23-.21-7.75-.63l-3.87-23.87c-3.18-1.07-6.06-2.8-8.47-5.04-4.62-4.28-7.51-10.39-7.51-17.19,0-5.47,1.88-10.51,5.03-14.5,4.29-5.44,10.94-8.93,18.41-8.93,12.94,0,23.43,10.49,23.43,23.43,0,6.38-2.55,12.17-6.69,16.4Z"/>
      </g>
    </g>
  </g>
</svg>