<?xml version="1.0" encoding="UTF-8"?>
<svg id="TEAM_LOGO" data-name="TEAM LOGO" xmlns="http://www.w3.org/2000/svg" xmlns:xlink="http://www.w3.org/1999/xlink" viewBox="0 0 1920 1080">
  <defs>
    <style>
      .cls-1 {
        fill: url(#linear-gradient-2);
      }

      .cls-2 {
        fill: url(#linear-gradient-10);
      }

      .cls-3 {
        fill: #fff;
      }

      .cls-4 {
        fill: url(#linear-gradient-4);
      }

      .cls-5 {
        fill: url(#linear-gradient-3);
      }

      .cls-6 {
        fill: url(#linear-gradient-5);
      }

      .cls-7 {
        fill: url(#linear-gradient-8);
      }

      .cls-8 {
        fill: url(#linear-gradient-7);
      }

      .cls-9 {
        fill: url(#linear-gradient-9);
      }

      .cls-10 {
        fill: url(#linear-gradient-11);
      }

      .cls-11 {
        fill: #58595b;
      }

      .cls-12 {
        fill: url(#linear-gradient-6);
      }

      .cls-13 {
        fill: #404041;
      }

      .cls-14 {
        fill: #929497;
      }

      .cls-15 {
        fill: url(#linear-gradient);
      }
    </style>
    <linearGradient id="linear-gradient" x1="738.53" y1="928.37" x2="764.89" y2="193.76" gradientUnits="userSpaceOnUse">
      <stop offset=".43" stop-color="#58595b"/>
      <stop offset=".51" stop-color="#5f6062"/>
      <stop offset=".64" stop-color="#747578"/>
      <stop offset=".78" stop-color="#929497"/>
    </linearGradient>
    <linearGradient id="linear-gradient-2" x1="713.37" y1="918.24" x2="739.73" y2="183.63" xlink:href="#linear-gradient"/>
    <linearGradient id="linear-gradient-3" x1="809.74" y1="921.7" x2="836.11" y2="187.09" xlink:href="#linear-gradient"/>
    <linearGradient id="linear-gradient-4" x1="709.17" y1="918.09" x2="735.53" y2="183.48" xlink:href="#linear-gradient"/>
    <linearGradient id="linear-gradient-5" x1="777.92" y1="920.55" x2="804.28" y2="185.94" xlink:href="#linear-gradient"/>
    <linearGradient id="linear-gradient-6" x1="668.28" y1="916.62" x2="694.64" y2="182.01" xlink:href="#linear-gradient"/>
    <linearGradient id="linear-gradient-7" x1="799.65" y1="921.33" x2="826.01" y2="186.72" xlink:href="#linear-gradient"/>
    <linearGradient id="linear-gradient-8" x1="811.35" y1="921.75" x2="837.71" y2="187.14" xlink:href="#linear-gradient"/>
    <linearGradient id="linear-gradient-9" x1="886.59" y1="924.45" x2="912.96" y2="189.84" xlink:href="#linear-gradient"/>
    <linearGradient id="linear-gradient-10" x1="639.56" y1="915.59" x2="665.93" y2="180.98" xlink:href="#linear-gradient"/>
    <linearGradient id="linear-gradient-11" x1="819.97" y1="922.06" x2="846.34" y2="187.45" xlink:href="#linear-gradient"/>
  </defs>
  <g id="TEAM_TEXT_-_Grayscale" data-name="TEAM TEXT - Grayscale">
    <g id="TeamLogo_Grayscale">
      <g id="TeamLogoSmall_GrayscaleGradiant">
        <polygon id="H" class="cls-13" points="1400.82 937.79 1230.95 937.79 1178.13 607.63 1090.16 607.63 1130.29 937.79 927.16 938.39 927.16 309.24 1053.89 309.24 1065.11 401.52 1145.15 401.52 1130.29 308.64 1276.41 308.64 1400.82 937.79"/>
        <path id="GiraffeT" class="cls-14" d="M1081.45,309.24h-154.3v629.15h-363.08c37.66-29.12,68.85-121.36,91.94-216.31,21.09-86.72,60.66-278.81,56.84-382.76-24.11-3.46-40.19-21.9-40.19-34.34l-44.94-4.06c-12.1,10.48-27.88,16.82-45.15,16.82-38.11,0-69.01-30.9-69.01-69.01,0-.93.02-1.86.05-2.78l22.6-16.21c-.99-2.16-1.55-4.56-1.55-7.1,0-9.41,7.63-17.04,17.04-17.04l70.78-13.18,29.1-5.42.77-.13c.33-22.6,18.07-41.46,40.99-42.82l36-2.15-11.03-35.9c-11.01-2.22-19.3-11.96-19.3-23.62,0-13.31,10.79-24.1,24.11-24.1s24.1,10.79,24.1,24.1c0,7.39-3.32,14-8.56,18.42l12.22,39.82,46.52-2.77-5.95-36.7c-9.55-3.21-16.43-12.23-16.43-22.85,0-13.31,10.79-24.1,24.11-24.1s24.1,10.79,24.1,24.1c0,6.56-2.63,12.52-6.89,16.87l6.89,42.53c16.19,3.16,29.36,15.34,33.69,31.36,4.9-6.62,8.48-12.53,19.43-18.5,38.37-20.9,93.52-19.06,119.44-15.46-4.56,10.8-10.07,19.44-17.58,27.78-7.03,7.8-14.34,14.34-23.6,20.52h113.62l13.18,125.83Z"/>
        <g id="Spots">
          <path class="cls-15" d="M787.8,436.95c-3.63,11-12.93,16.03-14.98,17.08-8.94,4.55-17.32,3.22-20.37,2.69-11.3-1.96-18.02-8.98-19.91-11.08-1.81-2.04-6.46-7.37-7.96-15.58-1.48-8.12-.5-14.21,3.6-24.27,3.94-9.68,7.64-15.1,13.48-18.28,6.03-3.28,14.89-2.26,20.37.9,11.89,6.85,22.3,15.99,25.76,30.26,1.02,4.19,2.51,10.69,0,18.27Z"/>
          <path class="cls-1" d="M761.55,573.93c.55,4.65,1.54,8.47,0,13.78-2.76,9.54-11.04,14.89-14.89,17.38-9.71,6.27-16.69,9.46-22.68,9.89-8.89.63-23.07-.93-31.25-8.09-5.15-4.5-6.99-10.5-8.33-17.25h0c6.85-36.18,13.37-74.56,18.46-111.72.22-.15.44-.3.66-.45,7.4-4.98,15.37-5.82,16.78-5.96,3.13-.29,10.91-.63,18.88,3.26,10.3,5.02,14.75,14.06,19.77,24.27,3.62,7.36,8.53,17.33,8.99,30.86.66,19.58-8.78,23.92-6.38,44.04Z"/>
          <path class="cls-5" d="M871.41,480.77c-1.17,27.1-2.16,57.56-2.86,92.65-3.06,2.05-5.66,3.42-7,4.1-13.12,6.59-24.96,6.74-30.11,6.74-8.27,0-17.93,0-28.11-5.84-12.56-7.22-18.07-18.83-20.42-23.82-3.21-6.77-4.44-12.66-4.94-15.73-.42-2.55-1.69-11.23,2.69-32.81,2.05-10.06,3.07-15.09,4.49-18.43,6.63-15.48,23.73-32.67,44.04-32.36,11.83.19,21.09,6.26,22.47,7.19,7.66,5.15,8.95,10.01,19.33,17.97.14.11.28.22.42.32Z"/>
          <path class="cls-4" d="M777.46,688.97s-1.37,14.8-19.28,39.1c-1.37,1.86-3.56,4.54-7.19,5.84-3.89,1.39-15.99,2.68-30.56,1.43-10.95-.93-20.48-2.52-24.27-6.83-3.27-3.72-5.91-8.49-11.68-12.14-1.54-.97-2.96-1.53-4.49-1.35-2.72.33-3.79,2.77-6.3,4.94,0,0-4.17,3.62-10.34,4.05-2.65.18-5.13-.68-7.33-2,6.13-25.2,13.82-59.3,21.54-97.54,20.66-4.79,42.09-7.7,63.53,2.48,7.31,3.47,11.93,7.18,13.03,8.09,13.23,10.84,25.49,30.57,23.32,53.92Z"/>
          <path class="cls-6" d="M848.07,918.62c-2.1,5.78-4.48,4.91-7.79,12.58-1.34,3.11-1.84,5.3-2.23,7.19h-119c-.94-1.76-1.82-3.62-2.8-5.69-2.39-5.03-14.97-31.55-4.79-57.22,2.12-5.35,5.64-13.89,13.78-17.08,4.28-1.68,7.86-1.1,14.68,0,6.6,1.07,21.03,3.39,29.96,12.88,1.45,1.54,5.72,4.1,9.89,9.59,6.59,8.69,44.95,5.94,56.02,8.69,5.83,1.45,7.92,4.72,8.99,5.99,5.22,6.25,5.92,15.84,3.3,23.07Z"/>
          <path class="cls-12" d="M723.98,781.4c-.58,8.21-5.96,16.17-9.23,20.37-4.59,5.9-7.21,12.7-7.21,31.76,0,7.19,2.12,14.08-2.38,23.81-6.51,14.11-30.43,18.37-47.93,14.54-22.02-4.82-33.65-22.76-37.18-28.69,10.5-28.03,20.09-59.69,28.72-92.44,8.62-2.98,26.07-7.55,45.3-4.4,3.81.62,5.72,1.23,7.19,1.8,13.92,5.38,19.5,19.53,20.67,22.77,1.25,3.47,2.33,6.45,2.04,10.49Z"/>
          <path class="cls-8" d="M876.61,830.01c-2.3,4.67-4.8,8.55-6.97,11.91-5.54,8.59-10.5,16.05-20.08,20.67-6.76,3.26-12.75,3.62-18.26,3.9-14.25.72-16.11-3.82-34.46-5.99-15.2-1.8-20.67.53-28.87-4.79-3.03-1.96-5.18-4.5-9.47-9.59-10.84-12.81-8.98-16.03-18.57-27.86-5.69-7.02-9.03-9.21-9.59-14.68-.55-5.45,2.11-9.82,3.6-12.28,18.36-30.46,20.41-41.61,35.65-51.83,4.1-2.75,8.17-4.77,13.18-5.09,6.29-.41,11.14,2.02,17.08,5.09,11.39,5.9,19.17,12.88,19.17,12.88,1.46,1.31,4.49,4.14,9.29,5.52,2.71.78,4.88.77,5.99.78,9.46.04,20.64.09,29.06,3,1.22.42,3.76,1.32,6.58,3,1.37,22.56,3.49,44.48,6.68,65.38Z"/>
          <path class="cls-7" d="M868.48,733.52c-8.58,3.15-18.21,2.67-24.9,2.33-7.22-.36-17.18-.99-26.07-7.78-3.66-2.8-5.61-5.47-8.99-10.19-6.42-8.97-11.02-18.37-23.67-50.34-.48-1.21-1.25-3.15-2.45-5.69-4.11-8.65-6.84-10.56-8.93-14.98-4.26-9-1.36-18.8,0-23.37,1.37-4.59,3.26-10.99,9.29-15.58,4.19-3.2,8.62-4.17,10.19-4.49,4.93-1.03,15.67-.31,20.97,3.29,7.49,5.09,20.49,3.32,28.17,1.5,4.62-1.1,10.1-2.4,16.18-.6,4.25,1.26,7.38,3.61,9.67,5.83-.14,11.52-.24,23.5-.31,35.97-.15,28.2-.06,56.47.86,84.09Z"/>
          <path class="cls-9" d="M910.68,938.39h-46.05c-.38-2.59-.23-5.77.96-8.69,3.3-8.09,6.78-5.59,6.29-8.84-.1-.63-.34-1.05-.6-1.5-1.94-3.34-3.44-6.94-5.54-10.19-4.94-7.62-1.77-21.19-1.46-22.47.41-1.7,2.17-8.37,7.64-15.13,2.38-2.94,6.12-7.57,10.57-9.99,6.4,28.63,15.45,54.64,28.19,76.8Z"/>
          <path class="cls-2" d="M685.39,930.45c-.97,3.24-2.92,5.18-3.3,5.54,0,0-1.5,1.45-3.59,2.39h-62.95c-3.27-1.39-10.23-4.23-12.1-5.09-.83-.38-5.23-2.49-7.94-6.44-2.31-3.37-2.39-6.64-2.54-12.88-.1-3.96.21-8.09.68-12.65,0,0,0,0,0-.01,4.2-7.32,8.29-15.34,12.27-23.97,2.24.15,4.6.35,6.97.53,12.29.91,36,2.04,49.59,5.54,1.32.34,3.91,1.06,6.59,3,3.29,2.38,4.95,5.32,6.59,8.54,1.09,2.13,6.45,12.79,9.74,27.41.38,1.71,1.01,4.69,0,8.09Z"/>
          <path class="cls-10" d="M879.28,349.54c-1.41,20.17-2.92,41.22-4.37,64.72-1.13,2.76-2.09,4.22-2.82,5.23-4.38,5.99-10.38,8.44-12.89,9.29-6.49,2.19-11.87,1.18-18.16,0-8.76-1.65-14.89-4.93-19.58-7.49-7.91-4.32-11.87-6.47-15.28-11.38-4.75-6.83-5.48-14.58-5.69-17.08-.2-2.47-.13-4.49,0-6.29,1.26-17.39,8.99-35.06,8.99-35.06,5.66-12.94,8.49-19.4,14.08-23.37.68-.48,12.11-8.33,25.17-5.09,4.16,1.03,8.07,3.68,15.88,8.99,6.86,4.66,9.23,7.36,10.79,9.59,1.79,2.55,2.98,5.14,3.91,7.94Z"/>
        </g>
        <path id="Nostril" class="cls-11" d="M606.74,230.14c0,2.61-1.06,4.97-2.77,6.68l-9.13,10.39-1.65,1.87h0c-2.33,2.2-5.47,3.54-8.92,3.54-7.2,0-13.03-5.83-13.03-13.03,0-6.07,4.15-11.18,9.77-12.62h0l12.06-5.25.96-.42c1.02-.38,2.12-.59,3.27-.59,5.21,0,9.43,4.23,9.43,9.44Z"/>
        <g id="Eye">
          <circle class="cls-3" cx="763.47" cy="213.07" r="51.22"/>
          <path class="cls-11" d="M814.68,213.07c0,6.77-1.32,13.23-3.7,19.14-7.61,9.43-19.27,15.47-32.34,15.47-22.95,0-41.55-18.61-41.55-41.56s18.6-41.56,41.55-41.56c.46,0,.92,0,1.37.03,20.17,6.88,34.67,25.98,34.67,48.48Z"/>
        </g>
        <path id="EarShadow" class="cls-11" d="M968.7,183.41c-5.59,7.5-12.44,14.45-20.73,19.13-15.5,8.75-35.59,12.51-47.6,13.77l-15,94.37v-108.39c.99,0,2.25-.02,3.72-.1,12.99-.65,43.39-4.8,65.55-18.77h14.06Z"/>
        <path id="LeftAntennae" class="cls-11" d="M748,131.15c-4.2,1.17-8.64,1.78-13.21,1.78-2.86,0-5.67-.24-8.4-.71l-8.05-26.22c-11.01-2.22-19.3-11.96-19.3-23.62,0-13.31,10.79-24.1,24.11-24.1s24.1,10.79,24.1,24.1c0,7.39-3.32,14-8.56,18.42l9.32,30.35Z"/>
        <path id="RightAntennae" class="cls-11" d="M816.36,95.16l4.54,28.01c-5.43,2.05-11.32,3.17-17.47,3.17-2.72,0-5.38-.22-7.97-.64l-3.98-24.55c-3.27-1.1-6.23-2.88-8.71-5.18-4.75-4.4-7.72-10.69-7.72-17.68,0-5.63,1.93-10.81,5.17-14.91,4.41-5.6,11.25-9.19,18.94-9.19,13.31,0,24.1,10.79,24.1,24.1,0,6.56-2.63,12.52-6.89,16.87Z"/>
      </g>
      <g>
        <path class="cls-13" d="M628.58,964.97v15.79h-19.31v48.8h-22.03v-48.8h-19.31v-15.79h60.64Z"/>
        <path class="cls-13" d="M695.72,1021.04h-22.98l-4.62,8.52h-22.77l38.4-65.49h1.05l38.4,65.49h-22.77l-4.72-8.52ZM678.83,1008.84h10.91c-1.89-3.77-4.72-9.69-5.35-12.02h-.21c-.63,2.33-3.46,8.25-5.35,12.02Z"/>
        <path class="cls-13" d="M753.84,1029.56v-64.59h21.93v48.8h25.81v15.79h-47.74Z"/>
        <path class="cls-13" d="M834.83,1029.56v-64.59h21.93v48.8h25.81v15.79h-47.74Z"/>
        <path class="cls-13" d="M1005.85,1029.56v-24.94h-25.08v24.94h-21.93v-64.59h21.93v23.95h25.08v-23.95h22.03v64.59h-22.03Z"/>
        <path class="cls-13" d="M1102.47,963.63c23.82,0,40.39,15.16,40.39,33.64s-16.58,33.64-40.39,33.64-40.29-14.89-40.29-33.64,16.58-33.64,40.29-33.64ZM1102.47,1013.77c11.12,0,18.26-7.8,18.26-16.51s-7.13-16.51-18.26-16.51-18.26,7.98-18.26,16.51,7.24,16.51,18.26,16.51Z"/>
        <path class="cls-13" d="M1215.88,1029.56l-11.12-20.09h-6.19v20.09h-21.4v-64.59h28.43c18.57,0,31.69,7.45,31.69,22.7,0,9.15-5.04,15.34-13.33,18.75l14.69,23.14h-22.77ZM1198.57,980.76v13.81h8.18c4.41,0,8.39-1.61,8.39-6.91s-3.99-6.91-8.39-6.91h-8.18Z"/>
        <path class="cls-13" d="M1325.31,1011.26c0,12.29-10.7,19.65-30.43,19.65-8.5,0-17.21-1.35-23.08-3.5v-17.94c7.03,3.32,15.42,5.11,21.93,5.11s10.18-.99,10.18-3.32c0-2.69-4.93-3.95-13.01-6.64-12.17-4.04-20.77-8.34-20.77-20.72s11.65-20.27,29.59-20.27c7.55,0,15.32,1.17,20.56,3.05v17.22c-4.62-2.6-11.65-4.13-18.68-4.13-6.19,0-9.97,1.52-9.97,4.13,0,2.33,4.62,3.95,12.28,6.64,12.17,4.31,21.4,8.7,21.4,20.72Z"/>
        <path class="cls-13" d="M1359.09,964.97h50.57v15.79h-28.64v8.61h24.55v14.8h-24.55v9.6h30.22v15.79h-52.15v-64.59Z"/>
      </g>
    </g>
  </g>
</svg>