<?xml version="1.0" encoding="UTF-8"?>
<svg id="TEAM_LOGO" data-name="TEAM LOGO" xmlns="http://www.w3.org/2000/svg" viewBox="0 0 1920 1080">
  <g id="TEAM_TEXT_-_Black" data-name="TEAM TEXT - Black">
    <g id="TeamLogo_Black">
      <g id="TeamLogoSmall_Black">
        <polygon id="TrimmedH" points="1395.79 933.24 1226.69 933.24 1174.1 604.58 1086.53 604.58 1126.48 933.24 946.41 933.77 946.41 329.08 1053.05 329.08 1061.6 399.39 1141.27 399.39 1126.48 306.94 1271.94 306.94 1395.79 933.24"/>
        <path id="GiraffeTSolid" d="M1064.74,182.28h-113.11c9.22-6.16,16.5-12.67,23.49-20.43,7.47-8.3,12.96-16.9,17.5-27.65-25.8-3.59-80.71-5.41-118.9,15.39-10.9,5.94-14.47,11.82-19.35,18.41-4.31-15.95-17.42-28.07-33.54-31.22l-6.86-42.34c4.24-4.33,6.85-10.26,6.85-16.79,0-13.25-10.74-23.99-23.99-23.99s-24,10.74-24,23.99c0,10.58,6.85,19.56,16.36,22.75l5.92,36.53-46.31,2.76-12.17-39.64c5.21-4.4,8.52-10.98,8.52-18.34,0-13.25-10.74-23.99-23.99-23.99s-24,10.74-24,23.99c0,11.61,8.25,21.3,19.22,23.51l10.98,35.74-35.84,2.14c-22.82,1.36-40.48,20.13-40.81,42.63l-.76.13-28.97,5.4-70.46,13.13c-9.36,0-16.96,7.59-16.96,16.96,0,2.52.55,4.92,1.54,7.07l-22.5,16.14c-.04.92-.05,1.84-.05,2.76,0,37.94,30.76,68.7,68.7,68.7,17.18,0,32.9-6.31,44.94-16.74l44.73,4.05c0,12.38,16.01,30.74,40,34.18,3.81,103.47-35.59,294.69-56.58,381.02-22.98,94.52-54.04,186.34-91.52,215.33h361.43V307.54h153.6l-13.13-125.26ZM761.32,262.78c-28.16,0-50.98-22.82-50.98-50.98s22.83-50.98,50.98-50.98c5.76,0,11.3.96,16.47,2.72h0c-.46,0-.91-.02-1.37-.02-22.85,0-41.37,18.53-41.37,41.37s18.52,41.37,41.37,41.37c13.01,0,24.62-6,32.2-15.4-7.55,18.71-25.88,31.92-47.3,31.92Z"/>
      </g>
      <g>
        <path d="M624.77,960.42v15.79h-19.31v48.8h-22.03v-48.8h-19.31v-15.79h60.64Z"/>
        <path d="M691.92,1016.48h-22.98l-4.62,8.52h-22.77l38.4-65.49h1.05l38.4,65.49h-22.77l-4.72-8.52ZM675.02,1004.28h10.91c-1.89-3.77-4.72-9.69-5.35-12.02h-.21c-.63,2.33-3.46,8.25-5.35,12.02Z"/>
        <path d="M750.03,1025.01v-64.59h21.93v48.8h25.81v15.79h-47.74Z"/>
        <path d="M831.03,1025.01v-64.59h21.93v48.8h25.81v15.79h-47.74Z"/>
        <path d="M1002.04,1025.01v-24.94h-25.08v24.94h-21.93v-64.59h21.93v23.95h25.08v-23.95h22.03v64.59h-22.03Z"/>
        <path d="M1098.67,959.07c23.82,0,40.39,15.16,40.39,33.64s-16.58,33.64-40.39,33.64-40.29-14.89-40.29-33.64,16.58-33.64,40.29-33.64ZM1098.67,1009.22c11.12,0,18.26-7.8,18.26-16.51s-7.13-16.51-18.26-16.51-18.26,7.98-18.26,16.51,7.24,16.51,18.26,16.51Z"/>
        <path d="M1212.08,1025.01l-11.12-20.09h-6.19v20.09h-21.4v-64.59h28.43c18.57,0,31.69,7.45,31.69,22.7,0,9.15-5.04,15.34-13.33,18.75l14.69,23.14h-22.77ZM1194.77,976.21v13.81h8.18c4.41,0,8.39-1.61,8.39-6.91s-3.99-6.91-8.39-6.91h-8.18Z"/>
        <path d="M1321.5,1006.71c0,12.29-10.7,19.65-30.43,19.65-8.5,0-17.21-1.35-23.08-3.5v-17.94c7.03,3.32,15.42,5.11,21.93,5.11s10.18-.99,10.18-3.32c0-2.69-4.93-3.95-13.01-6.64-12.17-4.04-20.77-8.34-20.77-20.72s11.65-20.27,29.59-20.27c7.55,0,15.32,1.17,20.56,3.05v17.22c-4.62-2.6-11.65-4.13-18.68-4.13-6.19,0-9.97,1.52-9.97,4.13,0,2.33,4.62,3.95,12.28,6.64,12.17,4.31,21.4,8.7,21.4,20.72Z"/>
        <path d="M1355.28,960.42h50.57v15.79h-28.64v8.61h24.55v14.8h-24.55v9.6h30.22v15.79h-52.15v-64.59Z"/>
      </g>
    </g>
  </g>
</svg>