<?xml version="1.0" encoding="UTF-8"?>
<svg id="TEAM_LOGO" data-name="TEAM LOGO" xmlns="http://www.w3.org/2000/svg" xmlns:xlink="http://www.w3.org/1999/xlink" viewBox="0 0 1920 1080">
  <defs>
    <style>
      .cls-1 {
        fill: url(#linear-gradient-2);
      }

      .cls-2 {
        fill: #d49751;
      }

      .cls-3 {
        fill: url(#linear-gradient-10);
      }

      .cls-4 {
        fill: #fff;
      }

      .cls-5 {
        fill: url(#linear-gradient-4);
      }

      .cls-6 {
        fill: #b15f6f;
      }

      .cls-7 {
        fill: url(#linear-gradient-3);
      }

      .cls-8 {
        fill: url(#linear-gradient-5);
      }

      .cls-9 {
        fill: #594b9e;
      }

      .cls-10 {
        fill: url(#linear-gradient-8);
      }

      .cls-11 {
        fill: url(#linear-gradient-7);
      }

      .cls-12 {
        fill: url(#linear-gradient-9);
      }

      .cls-13 {
        fill: url(#linear-gradient-11);
      }

      .cls-14 {
        fill: url(#linear-gradient-6);
      }

      .cls-15 {
        fill: url(#linear-gradient);
      }
    </style>
    <linearGradient id="linear-gradient" x1="735.51" y1="930.28" x2="762.09" y2="189.78" gradientUnits="userSpaceOnUse">
      <stop offset=".35" stop-color="#b15f6f"/>
      <stop offset=".48" stop-color="#b76969"/>
      <stop offset=".69" stop-color="#c7845a"/>
      <stop offset=".81" stop-color="#d39650"/>
      <stop offset="1" stop-color="#d49751"/>
    </linearGradient>
    <linearGradient id="linear-gradient-2" x1="710.15" y1="920.07" x2="736.73" y2="179.56" gradientUnits="userSpaceOnUse">
      <stop offset=".5" stop-color="#b15f6f"/>
      <stop offset=".52" stop-color="#b4646c"/>
      <stop offset=".62" stop-color="#c27a60"/>
      <stop offset=".72" stop-color="#cc8a57"/>
      <stop offset=".84" stop-color="#d29452"/>
      <stop offset="1" stop-color="#d49751"/>
    </linearGradient>
    <linearGradient id="linear-gradient-3" x1="807.3" y1="923.55" x2="833.88" y2="183.05" xlink:href="#linear-gradient-2"/>
    <linearGradient id="linear-gradient-4" x1="705.92" y1="919.91" x2="732.49" y2="179.41" xlink:href="#linear-gradient-2"/>
    <linearGradient id="linear-gradient-5" x1="775.22" y1="922.4" x2="801.79" y2="181.9" gradientUnits="userSpaceOnUse">
      <stop offset=".41" stop-color="#b15f6f"/>
      <stop offset=".44" stop-color="#b4646c"/>
      <stop offset=".55" stop-color="#c27a60"/>
      <stop offset=".67" stop-color="#cc8a57"/>
      <stop offset=".81" stop-color="#d29452"/>
      <stop offset="1" stop-color="#d49751"/>
    </linearGradient>
    <linearGradient id="linear-gradient-6" x1="664.7" y1="918.43" x2="691.27" y2="177.93" xlink:href="#linear-gradient-2"/>
    <linearGradient id="linear-gradient-7" x1="797.12" y1="923.19" x2="823.7" y2="182.68" xlink:href="#linear-gradient-2"/>
    <linearGradient id="linear-gradient-8" x1="808.92" y1="923.61" x2="835.49" y2="183.11" xlink:href="#linear-gradient-2"/>
    <linearGradient id="linear-gradient-9" x1="884.77" y1="926.33" x2="911.34" y2="185.83" xlink:href="#linear-gradient-5"/>
    <linearGradient id="linear-gradient-10" x1="635.75" y1="917.4" x2="662.33" y2="176.89" xlink:href="#linear-gradient-5"/>
    <linearGradient id="linear-gradient-11" x1="817.61" y1="923.92" x2="844.19" y2="183.42" xlink:href="#linear-gradient"/>
  </defs>
  <g id="TEAM_TEXT_-_Full_Color" data-name="TEAM TEXT - Full Color">
    <g id="TeamLogo_FullColorGradiant">
      <g id="TeamLogoSmall_FullColorGradiant">
        <polygon id="H" class="cls-9" points="1403.12 939.78 1231.89 939.78 1178.64 606.97 1089.96 606.97 1130.42 939.78 925.66 940.38 925.66 306.18 1053.41 306.18 1064.71 399.2 1145.39 399.2 1130.42 305.58 1277.71 305.58 1403.12 939.78"/>
        <path id="GiraffeT" class="cls-2" d="M1081.19,306.18h-155.53v634.2h-365.99c37.96-29.36,69.41-122.33,92.68-218.04,21.26-87.42,61.15-281.05,57.3-385.83-24.3-3.49-40.51-22.08-40.51-34.61l-45.3-4.1c-12.2,10.56-28.11,16.95-45.51,16.95-38.42,0-69.56-31.14-69.56-69.57,0-.94.02-1.87.05-2.8l22.78-16.34c-1-2.18-1.56-4.6-1.56-7.16,0-9.49,7.69-17.17,17.17-17.17l71.35-13.29,29.33-5.46.77-.13c.33-22.78,18.21-41.79,41.32-43.17l36.29-2.16-11.11-36.19c-11.1-2.24-19.46-12.05-19.46-23.81,0-13.42,10.88-24.3,24.3-24.3s24.3,10.88,24.3,24.3c0,7.45-3.35,14.11-8.63,18.57l12.32,40.14,46.89-2.79-6-36.99c-9.63-3.23-16.56-12.33-16.56-23.04,0-13.42,10.88-24.3,24.3-24.3s24.3,10.88,24.3,24.3c0,6.62-2.65,12.62-6.94,17l6.94,42.87c16.32,3.19,29.59,15.46,33.96,31.61,4.94-6.68,8.55-12.63,19.59-18.64,38.67-21.06,94.27-19.22,120.4-15.58-4.59,10.89-10.15,19.6-17.72,28-7.08,7.86-14.46,14.45-23.79,20.69h114.54l13.29,126.84Z"/>
        <g id="Spots">
          <path class="cls-15" d="M785.18,434.92c-3.66,11.09-13.03,16.16-15.1,17.22-9.01,4.59-17.46,3.25-20.54,2.72-11.39-1.98-18.17-9.05-20.07-11.17-1.83-2.05-6.51-7.43-8.02-15.7-1.5-8.19-.5-14.33,3.63-24.46,3.97-9.76,7.7-15.22,13.59-18.42,6.08-3.31,15.01-2.28,20.54.91,11.98,6.91,22.48,16.12,25.97,30.5,1.03,4.22,2.53,10.77,0,18.42Z"/>
          <path class="cls-1" d="M758.72,572.99c.56,4.69,1.55,8.54,0,13.89-2.78,9.61-11.13,15.01-15.01,17.52-9.78,6.32-16.82,9.54-22.86,9.97-8.96.64-23.25-.93-31.5-8.16-5.19-4.54-7.05-10.58-8.39-17.39h0c6.9-36.47,13.47-75.15,18.6-112.61.22-.16.44-.31.66-.46,7.46-5.02,15.49-5.87,16.91-6,3.15-.3,11-.63,19.03,3.28,10.38,5.06,14.87,14.17,19.93,24.46,3.65,7.42,8.6,17.47,9.06,31.1.67,19.74-8.85,24.11-6.43,44.39Z"/>
          <path class="cls-7" d="M869.46,479.09c-1.17,27.32-2.18,58.02-2.88,93.4-3.09,2.07-5.7,3.45-7.06,4.13-13.23,6.65-25.16,6.79-30.35,6.79-8.33,0-18.07,0-28.34-5.89-12.66-7.27-18.21-18.98-20.59-24.01-3.23-6.83-4.47-12.76-4.98-15.86-.43-2.57-1.7-11.32,2.72-33.07,2.06-10.14,3.09-15.21,4.53-18.58,6.68-15.6,23.92-32.94,44.39-32.62,11.92.19,21.25,6.31,22.65,7.25,7.72,5.19,9.03,10.09,19.48,18.12.14.11.28.22.43.32Z"/>
          <path class="cls-5" d="M774.76,688.96s-1.39,14.92-19.43,39.41c-1.38,1.87-3.59,4.58-7.25,5.89-3.92,1.4-16.12,2.7-30.81,1.44-11.04-.94-20.64-2.54-24.46-6.88-3.3-3.75-5.96-8.55-11.78-12.23-1.55-.98-2.98-1.55-4.53-1.36-2.74.33-3.82,2.79-6.35,4.98,0,0-4.21,3.65-10.42,4.08-2.67.18-5.17-.69-7.39-2.02,6.18-25.41,13.93-59.77,21.72-98.32,20.83-4.83,42.43-7.76,64.04,2.5,7.37,3.5,12.02,7.24,13.14,8.16,13.34,10.92,25.7,30.82,23.51,54.36Z"/>
          <path class="cls-8" d="M845.93,920.45c-2.12,5.83-4.51,4.95-7.85,12.68-1.35,3.14-1.85,5.34-2.25,7.25h-119.95c-.95-1.78-1.83-3.65-2.83-5.74-2.4-5.07-15.09-31.8-4.83-57.68,2.14-5.39,5.69-14,13.89-17.21,4.32-1.7,7.92-1.11,14.8,0,6.66,1.07,21.2,3.42,30.2,12.98,1.46,1.55,5.77,4.13,9.97,9.67,6.64,8.76,45.31,5.98,56.47,8.76,5.87,1.46,7.99,4.75,9.06,6.04,5.27,6.3,5.97,15.97,3.32,23.26Z"/>
          <path class="cls-14" d="M720.85,782.13c-.59,8.28-6.01,16.3-9.31,20.54-4.63,5.95-7.27,12.8-7.27,32.01,0,7.25,2.14,14.2-2.4,24-6.57,14.22-30.67,18.52-48.32,14.65-22.2-4.86-33.92-22.95-37.48-28.92,10.58-28.25,20.25-60.17,28.95-93.19,8.69-3,26.28-7.61,45.66-4.43,3.84.63,5.77,1.24,7.25,1.81,14.03,5.42,19.65,19.68,20.84,22.95,1.26,3.49,2.35,6.5,2.06,10.57Z"/>
          <path class="cls-11" d="M874.7,831.13c-2.32,4.7-4.84,8.62-7.03,12.01-5.59,8.65-10.58,16.18-20.24,20.83-6.81,3.28-12.85,3.65-18.41,3.93-14.37.73-16.24-3.85-34.73-6.04-15.32-1.81-20.83.53-29.1-4.83-3.05-1.98-5.22-4.54-9.55-9.67-10.92-12.92-9.06-16.16-18.72-28.09-5.73-7.07-9.11-9.28-9.67-14.8-.56-5.5,2.13-9.9,3.63-12.38,18.51-30.71,20.57-41.95,35.94-52.24,4.14-2.78,8.23-4.81,13.29-5.13,6.34-.42,11.23,2.03,17.21,5.13,11.48,5.94,19.33,12.98,19.33,12.98,1.47,1.32,4.53,4.17,9.36,5.56,2.73.78,4.92.78,6.04.78,9.54.04,20.81.09,29.3,3.02,1.23.43,3.79,1.33,6.63,3.03,1.39,22.74,3.52,44.84,6.73,65.9Z"/>
          <path class="cls-10" d="M866.51,733.87c-8.65,3.17-18.36,2.69-25.1,2.35-7.28-.36-17.31-1-26.27-7.84-3.69-2.82-5.66-5.52-9.06-10.27-6.47-9.04-11.11-18.52-23.86-50.74-.48-1.22-1.26-3.18-2.47-5.74-4.15-8.72-6.89-10.64-9-15.1-4.3-9.07-1.37-18.95,0-23.56,1.38-4.63,3.29-11.08,9.36-15.7,4.22-3.22,8.69-4.2,10.27-4.53,4.97-1.04,15.8-.31,21.14,3.32,7.55,5.13,20.65,3.35,28.39,1.51,4.65-1.11,10.18-2.42,16.31-.61,4.28,1.27,7.44,3.64,9.75,5.87-.14,11.61-.24,23.69-.31,36.26-.16,28.43-.06,56.92.87,84.77Z"/>
          <path class="cls-12" d="M909.05,940.38h-46.42c-.38-2.61-.23-5.82.97-8.76,3.32-8.16,6.83-5.64,6.34-8.91-.1-.64-.34-1.06-.6-1.51-1.96-3.37-3.47-7-5.59-10.27-4.98-7.68-1.79-21.36-1.47-22.65.42-1.71,2.19-8.44,7.7-15.25,2.4-2.97,6.17-7.63,10.65-10.07,6.45,28.86,15.57,55.08,28.42,77.41Z"/>
          <path class="cls-3" d="M681.95,932.38c-.97,3.26-2.94,5.22-3.32,5.59,0,0-1.51,1.46-3.62,2.41h-63.46c-3.3-1.4-10.31-4.26-12.19-5.13-.83-.38-5.28-2.51-8.01-6.49-2.33-3.4-2.41-6.69-2.56-12.98-.1-4,.21-8.15.68-12.75,0,0,0,0,0-.01,4.23-7.38,8.36-15.46,12.37-24.16,2.26.16,4.64.36,7.02.53,12.39.92,36.29,2.06,49.98,5.59,1.33.34,3.94,1.07,6.64,3.02,3.32,2.4,4.99,5.36,6.64,8.6,1.1,2.14,6.5,12.89,9.82,27.63.38,1.72,1.02,4.72,0,8.16Z"/>
          <path class="cls-13" d="M877.39,346.81c-1.42,20.33-2.94,41.55-4.4,65.24-1.14,2.78-2.1,4.26-2.84,5.27-4.42,6.03-10.46,8.5-13,9.36-6.55,2.21-11.96,1.19-18.31,0-8.83-1.66-15.01-4.97-19.74-7.55-7.97-4.35-11.96-6.52-15.4-11.48-4.79-6.88-5.53-14.69-5.74-17.21-.21-2.49-.13-4.53,0-6.34,1.27-17.53,9.06-35.34,9.06-35.34,5.71-13.04,8.56-19.56,14.19-23.55.69-.48,12.2-8.39,25.37-5.13,4.2,1.04,8.13,3.71,16.01,9.06,6.91,4.7,9.3,7.42,10.87,9.67,1.81,2.57,3,5.18,3.94,8.01Z"/>
        </g>
        <g id="Eye">
          <circle class="cls-4" cx="760.65" cy="209.24" r="51.63"/>
          <path class="cls-6" d="M812.28,209.24c0,6.82-1.33,13.34-3.73,19.3-7.67,9.51-19.43,15.59-32.6,15.59-23.13,0-41.89-18.76-41.89-41.89s18.75-41.89,41.89-41.89c.46,0,.92,0,1.39.03,20.33,6.93,34.95,26.19,34.95,48.87Z"/>
        </g>
        <path id="Nostril" class="cls-6" d="M602.67,226.45c0,2.63-1.07,5.01-2.79,6.73l-9.2,10.47-1.66,1.89h0c-2.35,2.21-5.51,3.57-8.99,3.57-7.26,0-13.14-5.88-13.14-13.14,0-6.12,4.18-11.27,9.85-12.72h0l12.15-5.29.97-.43c1.03-.38,2.14-.59,3.3-.59,5.25,0,9.51,4.26,9.51,9.51Z"/>
        <path id="EarShadow" class="cls-6" d="M967.53,179.34c-5.63,7.56-12.54,14.57-20.89,19.28-15.62,8.82-35.88,12.61-47.98,13.88l-15.12,95.13v-109.26c1,0,2.26-.02,3.75-.1,13.1-.65,43.74-4.84,66.08-18.92h14.17Z"/>
        <path id="LeftAntennae" class="cls-6" d="M745.06,126.67c-4.24,1.17-8.7,1.8-13.31,1.8-2.88,0-5.71-.25-8.47-.72l-8.12-26.43c-11.1-2.24-19.46-12.05-19.46-23.81,0-13.42,10.88-24.3,24.3-24.3s24.3,10.88,24.3,24.3c0,7.45-3.35,14.11-8.63,18.57l9.39,30.59Z"/>
        <path id="RightAntennae" class="cls-6" d="M813.97,90.39l4.57,28.24c-5.48,2.07-11.41,3.2-17.61,3.2-2.74,0-5.42-.22-8.04-.65l-4.01-24.75c-3.3-1.11-6.28-2.91-8.78-5.22-4.79-4.43-7.79-10.78-7.79-17.82,0-5.67,1.95-10.89,5.21-15.03,4.45-5.64,11.34-9.26,19.09-9.26,13.42,0,24.3,10.88,24.3,24.3,0,6.62-2.65,12.62-6.94,17Z"/>
      </g>
      <g>
        <path class="cls-9" d="M628.58,964.97v15.79h-19.31v48.8h-22.03v-48.8h-19.31v-15.79h60.64Z"/>
        <path class="cls-9" d="M695.72,1021.04h-22.98l-4.62,8.52h-22.77l38.4-65.49h1.05l38.4,65.49h-22.77l-4.72-8.52ZM678.83,1008.84h10.91c-1.89-3.77-4.72-9.69-5.35-12.02h-.21c-.63,2.33-3.46,8.25-5.35,12.02Z"/>
        <path class="cls-9" d="M753.84,1029.56v-64.59h21.93v48.8h25.81v15.79h-47.74Z"/>
        <path class="cls-9" d="M834.83,1029.56v-64.59h21.93v48.8h25.81v15.79h-47.74Z"/>
        <path class="cls-9" d="M1005.85,1029.56v-24.94h-25.08v24.94h-21.93v-64.59h21.93v23.95h25.08v-23.95h22.03v64.59h-22.03Z"/>
        <path class="cls-9" d="M1102.47,963.63c23.82,0,40.39,15.16,40.39,33.64s-16.58,33.64-40.39,33.64-40.29-14.89-40.29-33.64,16.58-33.64,40.29-33.64ZM1102.47,1013.77c11.12,0,18.26-7.8,18.26-16.51s-7.13-16.51-18.26-16.51-18.26,7.98-18.26,16.51,7.24,16.51,18.26,16.51Z"/>
        <path class="cls-9" d="M1215.88,1029.56l-11.12-20.09h-6.19v20.09h-21.4v-64.59h28.43c18.57,0,31.69,7.45,31.69,22.7,0,9.15-5.04,15.34-13.33,18.75l14.69,23.14h-22.77ZM1198.57,980.76v13.81h8.18c4.41,0,8.39-1.61,8.39-6.91s-3.99-6.91-8.39-6.91h-8.18Z"/>
        <path class="cls-9" d="M1325.31,1011.26c0,12.29-10.7,19.65-30.43,19.65-8.5,0-17.21-1.35-23.08-3.5v-17.94c7.03,3.32,15.42,5.11,21.93,5.11s10.18-.99,10.18-3.32c0-2.69-4.93-3.95-13.01-6.64-12.17-4.04-20.77-8.34-20.77-20.72s11.65-20.27,29.59-20.27c7.55,0,15.32,1.17,20.56,3.05v17.22c-4.62-2.6-11.65-4.13-18.68-4.13-6.19,0-9.97,1.52-9.97,4.13,0,2.33,4.62,3.95,12.28,6.64,12.17,4.31,21.4,8.7,21.4,20.72Z"/>
        <path class="cls-9" d="M1359.09,964.97h50.57v15.79h-28.64v8.61h24.55v14.8h-24.55v9.6h30.22v15.79h-52.15v-64.59Z"/>
      </g>
    </g>
  </g>
</svg>