<?xml version="1.0" encoding="UTF-8"?>
<svg id="GAME_PROJECT_LOGO" data-name="GAME PROJECT LOGO" xmlns="http://www.w3.org/2000/svg" viewBox="0 0 1927.54 1080">
  <defs>
    <style>
      .cls-1 {
        fill: #fff;
      }
    </style>
  </defs>
  <g id="TITLE_-_B_W_Inverse" data-name="TITLE - B&amp;amp;W Inverse">
    <g id="GameTitle_W_B" data-name="GameTitle_W&amp;amp;B">
      <g>
        <path d="M443.9,862.87c-10.96,0-19.97-8.54-20.73-19.33-2.64-10.27-21.42-85.73-21.42-152.52,0-78.86,0-111.5,9.61-148.59,2.57-9.93,7.05-22.28,18.9-29.71l.03-.02c2.88-1.92,28.06-17.79,83.88-24.28,14.66-1.7,28.67-2.57,41.63-2.57,37.65,0,56.02,7.1,60.01,8.87,9.33,3.28,15.69,11.93,17.54,23.86,1.14,5.24,12.78,59.9,16.65,122.78,4.05,65.69,9.86,165.05,10.09,169.05.87,11-6.98,20.76-17.93,22.25l-56.36,7.71c-.94.13-1.89.19-2.83.19h0c-9.84,0-18.35-6.95-20.35-16.57l-20.73-83.61-.05-.26c-.08-.43-.47-.66-.78-.66-.05,0-.09,0-.14.01l-21.6,3.28c-.31.06-.56.3-.63.61l1.56,88.97-.02.34c-.49,9.63-7.45,17.61-16.93,19.39l-55.54,10.44c-1.28.24-2.58.36-3.86.36ZM528.99,622.63c-1.28,0-2.67.1-4.13.3-7.08.96-16.8,4.05-19.52,19.67-.02.12-.07.38.17.66.09.11.29.3.58.3.05,0,.11,0,.17-.02l35.19-6.07c.42-.07.71-.46.67-.88-1.46-13.96-9.34-13.96-13.13-13.96Z"/>
        <path class="cls-1" d="M555.8,495.85c39.43,0,56.32,8.18,56.32,8.18,6.09,1.96,10.17,8.01,11.4,16.37,0,0,12.52,56.88,16.51,121.58,4.16,67.47,10.1,169.13,10.1,169.13.5,5.74-3.59,10.86-9.3,11.64l-56.36,7.71c-.5.07-.99.1-1.48.1-5.1,0-9.61-3.62-10.6-8.76l-20.72-83.57c-1-5.16-5.51-8.76-10.6-8.76-.57,0-1.16.05-1.74.14l-21.58,3.28c-5.03.82-8.8,5.03-9.06,10.12l1.57,89.17c-.25,4.99-3.89,9.15-8.79,10.07l-55.53,10.44c-.68.13-1.35.19-2.02.19-5.83,0-10.78-4.73-10.78-10.81,0,0-21.37-81.23-21.37-151.05,0-78.39,0-110.23,9.29-146.08,2.46-9.48,6.24-18.55,14.53-23.75.06-.04.12-.08.19-.12,0,0,23.18-16.17,79.56-22.72,15.52-1.8,28.96-2.5,40.48-2.5M506.09,653.55c.62,0,1.24-.05,1.88-.16l35.19-6.07c5.6-.97,9.5-6.11,8.91-11.77-1.02-9.74-5.62-22.93-23.08-22.93-1.7,0-3.52.12-5.48.39-19.63,2.67-26.07,16.63-28.02,27.86-1.17,6.73,4.07,12.67,10.6,12.67M555.8,475.85c-13.35,0-27.75.89-42.79,2.64-56.97,6.62-83.47,22.7-88.17,25.83-14.93,9.42-20.37,24.83-23.16,35.61-9.93,38.32-9.93,71.33-9.93,151.09,0,66.4,18.18,141.02,21.53,154.2,1.58,15.51,14.71,27.65,30.62,27.65,1.91,0,3.82-.18,5.71-.53l55.54-10.44c14.04-2.64,24.35-14.45,25.07-28.71l.03-.68v-.68s-1.42-80.39-1.42-80.39l5.3-.81,18.75,75.6c3.04,14.14,15.59,24.33,30.1,24.33,1.39,0,2.8-.1,4.18-.28l56.36-7.71c16.17-2.2,27.77-16.59,26.55-32.83-.31-5.23-6.06-103.72-10.09-168.99-3.86-62.58-15.33-117.19-16.8-124.01-2.46-15.23-11.28-26.82-23.79-31.35-5.58-2.36-25.68-9.53-63.6-9.53h0Z"/>
      </g>
      <g>
        <path d="M1020.65,826.84c-13.08,0-26.45-.67-36.67-1.85-11.08-1.27-19.41-10.65-18.96-21.35l12.79-308.94c.39-9.34,7.28-17.29,16.75-19.33,24.94-5.38,48.29-8.11,69.39-8.11,43.47,0,78.27,11.27,103.43,33.49,23.18,20.47,30.7,43.92,32.86,53.05,4.04,17.07,15.19,81.22-10.73,190.14-7.51,31.57-31.32,54.61-70.77,68.49-33.88,11.92-72.05,14.42-98.1,14.42,0,0,0,0,0,0ZM1080.86,666.3c7.73-.43,12.84-2.53,13.31-4.5,3.81-15.99,1.97-24.68,1.74-25.62-.21-.87-1.68-5.15-10.89-5.15-.86,0-1.77.04-2.71.12l-1.45,35.15Z"/>
        <path class="cls-1" d="M1063.96,477.26c94.73,0,121.25,56.35,126.56,78.84,6.53,27.61,11.66,91.47-10.72,185.52-15.08,63.36-103.5,75.22-159.14,75.22-14.85,0-27.37-.85-35.54-1.78-5.94-.68-10.34-5.46-10.11-11l12.79-308.95c.2-4.79,3.83-8.88,8.87-9.97,25.57-5.52,47.86-7.88,67.28-7.88M1077.96,676.38c9.07,0,23.48-1.93,25.93-12.26,3.65-15.33,2.81-25.74,1.75-30.24-.87-3.66-5.18-12.85-20.62-12.85-3.17,0-6.8.39-10.97,1.29-.82.18-1.41.84-1.45,1.63l-2.08,50.35c-.04.9.67,1.68,1.65,1.79,1.33.15,3.37.29,5.79.29M1063.96,457.26c-21.81,0-45.87,2.8-71.5,8.33-13.92,3-24.05,14.8-24.64,28.68l-12.79,308.96c-.33,8.01,2.51,15.72,8,21.69,5.13,5.57,12.16,9.13,19.81,10,6.23.71,19.42,1.91,37.82,1.91,26.83,0,66.21-2.6,101.42-14.98,19.15-6.74,35.17-15.76,47.6-26.8,15.11-13.43,25.06-29.85,29.57-48.8,26.43-111.06,14.89-177.15,10.73-194.76-2.38-10.06-10.64-35.87-35.97-58.24-12.5-11.04-27.43-19.68-44.38-25.69-19.29-6.84-41.38-10.31-65.68-10.31h0Z"/>
      </g>
      <g>
        <path d="M1374.07,844.29c-.82,0-1.66-.04-2.48-.12l-157.03-10.38-.19-.02c-11.56-1.2-20.34-10.02-20.43-20.51v-.73s.09-.73.09-.73c.17-1.25,17.36-125.29,19.61-162.8,4.64-77.18,4.56-115.67,4.52-134.16,0-4.82-.02-8,.07-10.3.39-10.9,12.77-21.35,23.58-23.41,1.17-.22,2.37-.37,3.57-.42l.37-.02,155.34,3.69c.29,0,.59-.01.88-.01,6.67,0,13,2.58,17.38,7.07,3.82,3.92,5.85,8.98,5.7,14.24l-2.1,83.86c-.27,9.99-8.05,18.19-18.92,19.97l-.9.15-76.83-1.51c-.78.23-1.28.59-1.48.82l.35,5.83c.29.35,1.37,1.08,3.1,1.08.11,0,.23,0,.35,0l.62-.03,68.99,4.62c.26,0,.52-.01.79-.01,12.73,0,23.09,9.33,23.09,20.8v.48l-7.21,74.29c-.33,10.67-9.68,19.48-21.56,20.18l-.66.04-57.42-4.14c-1.28.19-2.05.75-2.28,1.03l-.43,5.13c.27.29,1.07.88,2.54,1.02l54.15,4.99c6.94.64,13.1,4,16.92,9.21,3.36,4.59,4.56,10.11,3.37,15.53l-12.8,58.52c-2.12,9.71-11.65,16.75-22.65,16.75Z"/>
        <path class="cls-1" d="M1245.87,490.69l155.29,3.69c.27-.01.53-.02.8-.02,7.29,0,13.25,4.95,13.08,11.04l-2.1,83.88c-.14,5.06-4.52,9.37-10.54,10.36l-77.06-1.51c-6.37,1.04-10.85,5.78-10.53,11.13l.38,6.35c.35,5.79,6.15,10.27,13.07,10.27.3,0,.6,0,.91-.03l68.92,4.62c.31-.02.61-.03.91-.03,7.17,0,13.09,4.8,13.09,10.8l-7.21,74.2c0,5.67-5.31,10.37-12.16,10.78l-57.58-4.15c-6.51.39-11.68,4.66-12.13,10.03l-.47,5.66c-.48,5.77,4.64,10.84,11.61,11.48l54.15,4.99c7.53.69,12.78,6.5,11.44,12.65l-12.8,58.52c-1.14,5.2-6.63,8.89-12.88,8.89-.55,0-1.1-.03-1.65-.09l-157.01-10.38c-6.52-.68-11.42-5.23-11.46-10.65,0,0,17.38-125.24,19.69-163.58,5.84-97.26,4.23-134.32,4.6-144.7.19-5.21,8.06-12.53,15.46-13.95.71-.14,1.44-.22,2.19-.26M1245.61,470.68l-.73.04c-1.66.08-3.33.28-4.95.59-14.84,2.83-31.12,16.72-31.69,32.88-.09,2.49-.08,5.74-.07,10.67.04,18.39.12,56.67-4.5,133.54-2.23,37.12-19.36,160.78-19.53,162.03l-.2,1.45v1.46c.14,15.59,12.78,28.64,29.41,30.37l.37.04.37.02,156.71,10.36c1.09.1,2.19.15,3.27.15,15.67,0,29.3-10.35,32.42-24.61l12.8-58.52c1.78-8.15-.07-16.74-5.07-23.58-1.56-2.12-3.37-4.04-5.4-5.7,2.09-1.16,4.04-2.53,5.81-4.11,6.19-5.48,9.87-13.11,10.22-21.08l7.14-73.52.09-.96v-.97c0-10.8-6-20.32-15.07-25.83,2.51-1.41,4.82-3.14,6.88-5.16,5.62-5.52,8.84-12.78,9.04-20.44l2.1-83.91c.21-7.94-2.82-15.57-8.53-21.45-6.25-6.42-15.19-10.1-24.54-10.1-.3,0-.61,0-.91.01l-154.71-3.67-.73-.02h0Z"/>
      </g>
      <g>
        <path d="M1786.32,926.05c-2.14,0-4.26-.33-6.31-.98l-102.89-34.8c-9.03-2.91-14.93-11.52-14.38-20.99l7.75-181.27-6.29,17.86c-2.93,8.31-10.81,13.89-19.62,13.89-.21,0-.42,0-.63,0l-48.69-1.48c-9.38-.28-17.42-6.83-19.6-15.95l-5.31-20.63-7.94,169.88c-.53,11.12-9.65,19.82-20.76,19.82-1,0-2.02-.07-3.02-.22l-100.22-11.22-.23-.04c-10.12-1.61-17.65-10.55-17.53-20.79v-.37s.04-.37.04-.37c.12-1.41,12.17-141.55,14.16-207.36,3.42-112.93,2.17-222.91,2.16-224v-.24c.13-11.06,8.9-20.08,19.95-20.54l120.5-5.17c.3-.01.59-.02.88-.02,8.29,0,15.78,4.91,19.08,12.52l32.42,74.71,25.89-65.69c3-8.15,10.82-13.61,19.52-13.61.58,0,1.17.03,1.76.07l138.57,12.19c8.95.75,16.8,7.32,20.97,17.56l.85,2.09-27.71,487.33-.73,1.65c-4.32,9.83-13.2,16.18-22.62,16.18Z"/>
        <path class="cls-1" d="M1578.31,391.05c4.29,0,8.19,2.54,9.91,6.5l36.85,84.91c.95,2.18,2.95,3.25,4.95,3.25,2.12,0,4.24-1.21,5.09-3.58l29.95-76c1.55-4.32,5.64-7.16,10.17-7.16.3,0,.61.01.91.04l138.54,12.19c5.83.49,10.21,5.53,12.58,11.37l-27.48,483.28c-2.59,5.9-7.87,10.21-13.46,10.21-1.09,0-2.19-.16-3.29-.51l-102.79-34.77c-4.73-1.5-7.83-6.03-7.52-10.98l9.06-212.04c.23-3.62-2.62-5.75-5.47-5.75-2.07,0-4.14,1.12-5.01,3.61l-16.54,46.93c-1.53,4.33-5.62,7.21-10.19,7.21-.11,0-.22,0-.33,0l-48.69-1.48c-4.9-.15-9.09-3.58-10.2-8.35l-12.92-50.22c-.66-2.84-2.94-4.18-5.22-4.18-2.63,0-5.27,1.79-5.43,5.15l-9.36,200.44c-.28,5.84-5.12,10.29-10.77,10.29-.57,0-1.14-.04-1.72-.14l-100.18-11.21c-5.29-.84-9.17-5.44-9.11-10.8,0,0,12.17-141.06,14.19-207.92,3.47-114.47,2.16-224.43,2.16-224.43.07-5.74,4.62-10.43,10.36-10.67l120.51-5.17c.15,0,.3,0,.45,0M1578.31,371.05c-.42,0-.84,0-1.27.03l-120.55,5.18c-16.33.67-29.3,14.03-29.5,30.41v.24s0,.24,0,.24c.01,1.1,1.26,110.88-2.15,223.58-1.98,65.53-14.01,205.4-14.13,206.81l-.06.74v.74c-.1,7.39,2.48,14.58,7.24,20.23,4.76,5.65,11.41,9.4,18.71,10.56l.46.07.46.05,99.84,11.17c1.42.2,2.86.3,4.29.3,16.46,0,29.96-12.88,30.75-29.33l6.04-129.21c4.75,3.27,10.45,5.23,16.52,5.41l48.69,1.48c.32,0,.63.01.94.01,5.08,0,9.96-1.25,14.27-3.51l-6.09,142.54c-.77,13.97,7.92,26.66,21.23,30.98l102.65,34.72.18.06.18.06c3.03.96,6.17,1.45,9.34,1.45,13.39,0,25.86-8.7,31.77-22.16l1.45-3.31.21-3.6,27.48-483.28.26-4.5-1.7-4.17c-5.61-13.79-16.59-22.67-29.39-23.76l-138.5-12.18h-.04s-.04,0-.04,0c-.86-.07-1.73-.11-2.59-.11-12.84,0-24.38,8.04-28.86,20.04l-17,43.12-22.8-52.55c-4.89-11.26-15.98-18.54-28.26-18.54h0Z"/>
      </g>
      <g>
        <path d="M863.83,440.9c-11.47,0-20.8-9.33-20.8-20.8v-47.88c0-11.47,9.33-20.8,20.8-20.8h34.46c.44,0,.8-.36.8-.8v-102.94c0-.44-.36-.8-.8-.8h-34.46c-11.47,0-20.8-9.33-20.8-20.8v-53c0-11.47,9.33-20.8,20.8-20.8l206.44,2.38c11.34.13,20.56,9.46,20.56,20.8v49.44c0,5.56-2.17,10.79-6.1,14.72-3.93,3.92-9.15,6.08-14.7,6.08,0,0-.21,0-.31,0l-32.25.3h-.17c-.24,0-.43.08-.59.23-.24.24-.23.49-.23.57l.55,105.06c0,.44.36.8.8.8h32.2c11.47,0,20.8,9.33,20.8,20.8v46.64c0,11.47-9.33,20.8-20.8,20.8h-206.2Z"/>
        <path class="cls-1" d="M863.83,162.27s.08,0,.13,0l206.2,2.38c5.92.07,10.68,4.88,10.68,10.8v49.44c0,5.98-4.85,10.8-10.8,10.8-.09,0-.18,0-.27,0l-32.23.3c-.09,0-.18,0-.27,0-5.97,0-10.83,4.86-10.8,10.86l.55,105.06c.03,5.95,4.86,10.75,10.8,10.75h32.2c5.97,0,10.8,4.84,10.8,10.8v46.64c0,5.97-4.84,10.8-10.8,10.8h-206.2c-5.97,0-10.8-4.84-10.8-10.8v-47.88c0-5.97,4.84-10.8,10.8-10.8h34.46c5.97,0,10.8-4.84,10.8-10.8v-102.94c0-5.97-4.84-10.8-10.8-10.8h-34.46c-5.97,0-10.8-4.84-10.8-10.8v-53c0-5.97,4.84-10.8,10.8-10.8M863.83,142.27c-16.98,0-30.8,13.82-30.8,30.8v53c0,16.99,13.82,30.8,30.8,30.8h25.26v84.55h-25.26c-16.99,0-30.8,13.82-30.8,30.8v47.88c0,16.99,13.82,30.8,30.8,30.8h206.2c16.99,0,30.8-13.82,30.8-30.8v-46.64c0-16.99-13.82-30.8-30.8-30.8h-23.05l-.45-86.75,23.18-.22c.11,0,.22,0,.33,0,16.98,0,30.8-13.82,30.8-30.8v-49.44c0-16.79-13.66-30.61-30.45-30.8l-206.2-2.38h-.36Z"/>
      </g>
      <g>
        <path d="M1343.77,461.64c-.74,0-1.49-.04-2.23-.11l-65.54-6.76c-7.68-.77-14.34-5.57-17.07-12.27l-30.36-64.54-2.99,55.35c-.54,9.89-9.31,17.62-19.95,17.62-.71,0-1.42-.03-2.12-.1l-72.37-5.99c-10.38-1.05-18.3-9.12-18.42-18.79v-.2s0-.2,0-.2c.02-.91,2.47-91.81,2.07-121.81-.42-31.15.51-125.06.54-128.64-.03-4.73,1.83-9.23,5.23-12.68,3.76-3.81,9.14-6,14.76-6,.5,0,1.01.02,1.52.05l69.98,4.6c6.77.46,12.85,3.97,16.3,9.38l.11.18,42.88,73.94,2.87-57.73c.49-9.92,9.26-17.7,19.96-17.7.31,0,.61,0,.92.02l61.69,3,42.56,2.18c7.97.41,14.74,5.28,17.66,12.71,2.92,7.43,1.27,15.61-4.29,21.33l-26.32,27.1c-2.47,31.39-5.67,70.99-7.5,89.12-3.15,31.31-9.92,119.01-9.98,119.89l-.02.23c-.96,9.59-9.51,16.82-19.89,16.82Z"/>
        <path class="cls-1" d="M1135.32,166.52c.28,0,.55,0,.84.03l70.01,4.6c3.57.24,6.79,2.05,8.52,4.78l50.91,87.78c1.05,1.65,2.86,2.41,4.63,2.41,2.49,0,4.91-1.5,5.04-4.1l3.71-74.58c.23-4.64,4.61-8.19,9.98-8.19.17,0,.34,0,.51.01l45.92,2.24,15.7.76,14.33.73h.02l28.19,1.45c8.65.44,12.75,10.87,6.71,17.09l-28.83,29.69c-2.47,31.46-5.87,73.72-7.76,92.5-3.2,31.79-10,120.13-10,120.13-.45,4.5-4.79,7.82-9.94,7.82-.4,0-.81-.02-1.22-.06l-65.51-6.76c-4.12-.42-7.63-2.9-8.92-6.3l-38.41-81.67c-.82-2.16-2.94-3.18-5.03-3.18-2.47,0-4.88,1.43-5.03,4.09l-4.06,75c-.26,4.65-4.67,8.16-9.97,8.16-.4,0-.81-.02-1.22-.06l-72.26-5.97c-5.29-.53-9.37-4.41-9.43-8.97,0,0,2.48-91.66,2.07-122.22-.43-31.84.55-128.5.55-128.5-.07-4.86,4.43-8.68,9.98-8.68M1135.32,146.52c-8.28,0-16.25,3.27-21.88,8.97-5.26,5.33-8.13,12.3-8.11,19.67-.06,5.86-.96,97.45-.54,128.81.39,29.8-2.04,120.5-2.07,121.41v.4s0,.4,0,.4c.19,14.75,11.98,27.04,27.42,28.6l.18.02.18.02,72.12,5.96c1,.09,2.01.14,3.01.14,15.95,0,29.1-11.89,29.94-27.07l.85-15.74,13.37,28.42c4.19,9.95,13.98,17.04,25.24,18.18l65.47,6.75c1.11.11,2.2.17,3.27.17,15.54,0,28.37-11.1,29.84-25.83l.02-.23.02-.23c.07-.88,6.82-88.47,9.96-119.66,1.77-17.52,4.8-54.92,7.24-85.74l23.81-24.51c8.33-8.57,10.8-20.81,6.42-31.95-4.31-10.97-14.69-18.44-26.46-19.04l-28.19-1.45-.51-.03h-.02l-13.81-.71h-.03s-.03,0-.03,0l-15.7-.76-45.91-2.24h-.07s-.07,0-.07,0c-.45-.02-.89-.03-1.34-.03-16.04,0-29.2,11.95-29.95,27.2l-1.19,23.97-25.81-44.51-.21-.36-.22-.35c-5.15-8.08-14.13-13.31-24.03-13.99h-.03s-.03,0-.03,0l-69.98-4.6c-.72-.05-1.45-.07-2.17-.07h0Z"/>
      </g>
      <g>
        <path d="M698.65,829.87c-10.9,0-19.95-8.04-21.06-18.69l-.06-.58v-.59c.02-.83,1.08-83.81-3.83-148.05-4.81-62.81-13.67-155.29-13.76-156.21-.58-5.54,1.23-11.23,4.95-15.53,3.82-4.41,9.39-7.07,15.28-7.29l70.85-3.2c.34-.01.62-.02.9-.02,6.97,0,13.49,3.37,17.44,9.02l.11.16,55.66,86.58-3.56-74.61c-.54-11.38,8.09-20.92,19.65-21.73l81.96-5.63c.5-.03,1-.05,1.5-.05,11.6,0,21.08,9.26,21.15,20.66.05,3.04,1.96,122.98,2.07,161.37.11,38.12-3.64,142.82-3.81,147.63-.09,11.37-9.51,20.6-21.11,20.64h-68.52c-8.42,0-16.01-4.85-19.39-12.39l-34.57-74.39,3.04,69.39c.25,5.64-1.78,11.01-5.71,15.13-3.95,4.13-9.5,6.52-15.27,6.57l-83.93,1.81Z"/>
        <path class="cls-1" d="M924.7,483.44c6.09,0,11.14,4.78,11.15,10.77,0,0,1.96,122.22,2.07,161.29.11,39.07-3.81,147.4-3.81,147.4.02,5.97-4.97,10.82-11.14,10.84h-68.49s-.02,0-.03,0c-4.46,0-8.5-2.57-10.26-6.54l-43.93-94.53c-1-2.26-3.03-3.28-5.05-3.28-2.91,0-5.81,2.1-5.66,5.64l4.02,91.75c.27,6.13-4.79,11.25-11.13,11.26l-83.75,1.81h-.03c-5.73,0-10.54-4.2-11.11-9.72,0,0,1.14-83.5-3.87-148.95-4.87-63.64-13.78-156.4-13.78-156.4-.64-6.19,4.24-11.63,10.67-11.88l70.92-3.2c.15,0,.3,0,.45,0,3.7,0,7.17,1.77,9.25,4.75l64.55,100.4c1.16,1.65,2.87,2.39,4.56,2.39,2.93,0,5.81-2.21,5.65-5.66l-4.35-91.2c-.28-5.85,4.32-10.86,10.36-11.28l81.95-5.62c.27-.02.55-.03.82-.03M924.7,463.44h0c-.73,0-1.47.03-2.21.08l-81.93,5.62c-8.07.56-15.49,4.12-20.91,10.02-5.59,6.08-8.45,13.95-8.06,22.16l1.78,37.34-35.38-55.03-.21-.33-.22-.32c-5.82-8.32-15.4-13.29-25.64-13.29-.41,0-.81,0-1.22.02h-.06s-.06,0-.06,0l-70.88,3.2c-8.61.36-16.75,4.27-22.36,10.74-5.51,6.35-8.18,14.76-7.35,23.09.26,2.73,8.99,93.88,13.74,155.96,4.88,63.77,3.82,146.32,3.81,147.15l-.02,1.17.12,1.17c1.64,15.77,14.96,27.66,31,27.66h.47s83.62-1.81,83.62-1.81c8.43-.09,16.56-3.6,22.35-9.67,5.74-6.02,8.83-14.21,8.46-22.47l-.83-18.98,13.28,28.58c5.01,11.08,16.15,18.23,28.45,18.23h68.52s.03,0,.03,0h.03c8.2-.02,15.94-3.17,21.78-8.85,5.91-5.75,9.2-13.38,9.3-21.55.27-7.52,3.93-109.51,3.81-147.89-.11-38.3-2.01-157.49-2.08-161.46-.14-16.86-14.08-30.54-31.15-30.54h0Z"/>
      </g>
      <g>
        <path d="M242.78,927.73c-5.49,0-10.86-2.24-14.75-6.16-3.9-3.93-6.04-9.14-6.03-14.69-.04-3.62-1.37-121.94-3.12-180.99-2.58-87.33.66-157.54.92-162.97-.01-.14-.06-.29-.21-.45-.16-.16-.38-.27-.58-.27-.09,0-.19.02-.31.07l-.21.08-82.86,28.35c-2.38.9-4.86,1.36-7.38,1.36-10.22,0-19.06-7.63-20.57-17.74l-17.18-124.98c-1.45-9.94,4.57-19.63,14.08-22.76,5.15-2.04,63.94-25,172.59-55.01,118.21-32.65,190.97-46.64,197.57-47.89,1.8-.49,3.64-.74,5.48-.74,6.41,0,12.58,3.07,16.51,8.21,3.74,4.9,5.09,11.07,3.77,17.07l-10.62,123.49-.24.87c-1.86,6.8-6.97,12.15-13.67,14.32l-84.62,27.14c-5.77,1.9-7.37,3.45-7.52,10.7v.55s-.08.55-.08.55c-.1.73-9.63,74.92-2.55,182.45,4.19,63.57,10.38,159.22,10.44,160.18l.02.3v.3c.05,9.37-6.2,17.63-15.21,20.15l-128.16,37.74c-1.8.49-3.65.74-5.5.74Z"/>
        <path class="cls-1" d="M480.23,332.97c6.8,0,12.31,6.55,10.37,13.66l-10.61,123.35c-.96,3.52-3.63,6.32-7.1,7.44l-84.59,27.13c-9.63,3.17-14.22,8.27-14.46,20.01,0,0-9.85,74.48-2.61,184.42,4.23,64.3,10.44,160.17,10.44,160.17.03,4.89-3.24,9.19-7.96,10.48l-128.05,37.71c-.96.26-1.93.39-2.87.39-5.8,0-10.82-4.73-10.78-10.88,0,0-1.33-120.8-3.12-181.25-2.7-91.12.93-162.5.93-162.5.04-6.23-5.06-10.89-10.79-10.89-1.31,0-2.65.24-3.97.76l-82.82,28.33c-1.31.52-2.65.76-3.96.76-5.15,0-9.87-3.74-10.68-9.21l-17.17-124.91c-.79-5.3,2.42-10.38,7.55-11.93,0,0,57.83-23.29,171.89-54.79,124.45-34.38,197.21-47.78,197.21-47.78,1.08-.33,2.15-.48,3.19-.48M480.23,312.97h0c-2.58,0-5.15.33-7.67.97-8.93,1.68-79.92,15.38-198.05,48.01-108.81,30.06-166.41,52.49-173.39,55.26-6.63,2.27-12.31,6.74-16.07,12.68-3.92,6.2-5.5,13.6-4.45,20.86l17.16,124.83.02.12.02.12c1.11,7.43,4.88,14.19,10.62,19.01,5.56,4.67,12.6,7.25,19.84,7.25,3.68,0,7.3-.66,10.77-1.95l70.24-24.03c-.9,25.4-2.37,82.69-.37,150.09,1.74,58.69,3.06,176.15,3.11,180.75,0,8.18,3.17,15.88,8.94,21.68,5.75,5.79,13.71,9.11,21.84,9.11,2.74,0,5.48-.37,8.14-1.09l.19-.05.19-.06,127.92-37.67c13.3-3.75,22.51-15.97,22.44-29.81v-.59s-.04-.59-.04-.59c-.06-.96-6.25-96.62-10.44-160.19-7.01-106.38,2.39-179.76,2.49-180.49l.14-1.09.02-1.11c0-.47.03-.87.06-1.2.18-.06.38-.13.6-.21l84.51-27.1c9.97-3.22,17.54-11.15,20.29-21.22l.48-1.75.16-1.8,10.49-121.99c1.71-8.66-.32-17.51-5.73-24.59-5.81-7.6-14.95-12.14-24.45-12.14h0Z"/>
      </g>
      <g>
        <path d="M599.4,459.9c-10.76,0-19.86-8.41-20.72-19.15l-16.5-206.49-28.07-23.52c-6.12-5.14-8.59-13.1-6.44-20.79,2.15-7.69,8.38-13.22,16.27-14.44l77.88-12.05-.11.2,25.85-4.11c1.08-.17,2.19-.26,3.28-.26,9.97,0,18.56,7.12,20.43,16.92l7.31,38.42,60.48-51.42c3.75-3.19,8.54-4.96,13.47-4.96,5.89,0,11.52,2.51,15.46,6.88l46,51.06c7.32,8.13,7.07,20.63-.58,28.46l-54.87,56.12c-.3.31-.3.81,0,1.12l60.38,62.32c3.92,4.05,6.05,9.6,5.85,15.23-.21,5.71-2.66,10.95-6.92,14.75l-48.25,43.18c-3.82,3.42-8.74,5.3-13.87,5.3s-10.18-1.93-14.02-5.43l-54.47-49.65.07,43.79c.02,10.6-7.91,19.5-18.45,20.7l-67.08,7.68c-.79.09-1.59.14-2.38.14Z"/>
        <path class="cls-1" d="M752.52,168.26c2.96,0,5.9,1.21,8.03,3.57l46,51.06c3.81,4.24,3.68,10.71-.3,14.79l-54.86,56.11c-4.09,4.19-4.11,10.87-.03,15.07l60.38,62.32c4.27,4.41,4.02,11.48-.56,15.57l-48.25,43.19c-2.05,1.84-4.63,2.75-7.2,2.75s-5.22-.94-7.28-2.82l-62.19-56.69c-1.07-.98-2.35-1.42-3.6-1.42-2.79,0-5.44,2.18-5.43,5.42l.09,54.22c.01,5.5-4.11,10.13-9.58,10.75l-67.09,7.68c-.42.05-.83.07-1.25.07-5.55,0-10.3-4.27-10.75-9.94l-16.83-210.67-31.28-26.21c-6.64-5.57-3.63-16.36,4.93-17.69l57.66-8.92-.16.29,46.16-7.34c.57-.09,1.15-.14,1.71-.14,5.1,0,9.62,3.62,10.6,8.79l8.78,46.18c.52,2.73,2.88,4.4,5.33,4.4,1.21,0,2.44-.41,3.48-1.29l66.5-56.54c2.03-1.73,4.52-2.57,6.99-2.57M752.52,148.26h0c-7.3,0-14.39,2.61-19.95,7.34l-47.38,40.28-4.1-21.54c-2.76-14.52-15.48-25.05-30.25-25.05-1.62,0-3.25.13-4.85.38l-5.64.9.06-.11-40.34,6.24-57.66,8.92c-11.81,1.83-21.15,10.11-24.37,21.63-3.22,11.52.48,23.45,9.64,31.14l24.86,20.83,16.16,202.31c.62,7.78,4.13,14.97,9.88,20.24,5.7,5.23,13.09,8.11,20.81,8.11,1.17,0,2.36-.07,3.53-.2l67.08-7.68c15.59-1.77,27.33-14.95,27.3-30.66l-.04-21.08,37.7,34.36c5.69,5.19,13.06,8.04,20.75,8.04s14.89-2.79,20.54-7.85l48.25-43.19c6.2-5.54,9.94-13.51,10.24-21.84.3-8.33-2.85-16.55-8.66-22.54l-54.16-55.89,48.6-49.71c11.33-11.6,11.7-30.11.86-42.15l-46.01-51.06c-5.83-6.47-14.17-10.19-22.89-10.19h0Z"/>
      </g>
    </g>
  </g>
</svg>