<?xml version="1.0" encoding="UTF-8"?>
<svg id="GAME_PROJECT_LOGO" data-name="GAME PROJECT LOGO" xmlns="http://www.w3.org/2000/svg" viewBox="0 0 1927.54 1080">
  <defs>
    <style>
      .cls-1 {
        fill: #12497f;
      }

      .cls-2 {
        fill: #f7a23c;
      }

      .cls-3 {
        fill: #fab04f;
      }

      .cls-4 {
        fill: #16549a;
      }
    </style>
  </defs>
  <g id="TITLE_-_Full_Color" data-name="TITLE - Full Color">
    <g id="GameTitle_FullColor">
      <path class="cls-4" d="M654.68,806.41s-5.94-101.66-10.1-169.13c-3.99-64.7-16.51-121.58-16.51-121.58-1.23-8.36-5.31-14.41-11.4-16.37,0,0-28.18-13.66-96.8-5.68-56.37,6.55-79.56,22.72-79.56,22.72-.06.04-.12.08-.19.12-8.29,5.2-12.07,14.28-14.53,23.75-9.29,35.85-9.29,67.68-9.29,146.08,0,69.82,21.37,151.05,21.37,151.05,0,6.77,6.15,11.87,12.8,10.62l55.53-10.44c4.9-.92,8.54-5.09,8.79-10.07l-1.57-89.17c.26-5.08,4.03-9.3,9.06-10.12l21.58-3.28c5.77-.93,11.24,2.88,12.34,8.62l20.72,83.57c1.09,5.63,6.39,9.44,12.07,8.66l56.36-7.71c5.71-.78,9.8-5.9,9.3-11.64ZM547.71,642.62l-35.19,6.07c-7.37,1.27-13.76-5.14-12.48-12.51,1.96-11.23,8.39-25.19,28.02-27.86,22-2.99,27.44,11.85,28.55,22.54.59,5.66-3.31,10.8-8.91,11.77Z"/>
      <path class="cls-4" d="M1195.08,551.4c-6.4-27.1-43.58-103.37-193.85-70.96-5.04,1.09-8.67,5.18-8.87,9.97l-12.79,308.95c-.23,5.54,4.17,10.31,10.11,11,38.74,4.45,175.57,6.83,194.68-73.44,22.38-94.05,17.25-157.91,10.72-185.52ZM1108.46,659.42c-3.11,13.08-25.41,12.69-31.73,11.97-.97-.11-1.69-.89-1.65-1.79l2.08-50.35c.03-.78.62-1.45,1.45-1.63,24.49-5.29,30.55,7.15,31.59,11.56,1.07,4.5,1.9,14.91-1.75,30.24Z"/>
      <path class="cls-4" d="M1250.44,485.99c-.75.04-1.48.13-2.19.26-7.4,1.41-15.28,8.73-15.46,13.95-.37,10.39,1.25,47.44-4.6,144.7-2.3,38.34-19.69,163.58-19.69,163.58.04,5.42,4.95,9.97,11.46,10.64l157.01,10.38c6.91.72,13.3-3.15,14.53-8.8l12.8-58.52c1.35-6.15-3.9-11.96-11.44-12.65l-54.15-4.99c-6.98-.64-12.1-5.71-11.61-11.48l.47-5.66c.45-5.37,5.62-9.65,12.13-10.03l57.58,4.15c6.85-.41,12.16-5.11,12.16-10.78l7.21-74.2c0-6.26-6.43-11.21-14-10.78l-68.92-4.62c-7.32.41-13.62-4.21-13.98-10.25l-.38-6.35c-.32-5.35,4.16-10.08,10.53-11.13l77.06,1.51c6.02-.99,10.41-5.29,10.54-10.36l2.1-83.88c.17-6.31-6.24-11.4-13.88-11.02l-155.29-3.69Z"/>
      <path class="cls-4" d="M1680.7,394.32l138.54,12.19c5.83.49,10.21,5.53,12.58,11.37l-27.48,483.28c-3.1,7.04-10.03,11.83-16.75,9.69l-102.79-34.77c-4.73-1.5-7.83-6.03-7.52-10.98l9.06-212.04c.4-6.26-8.4-8.05-10.49-2.14l-16.54,46.93c-1.56,4.44-5.82,7.35-10.52,7.21l-48.69-1.48c-4.9-.15-9.09-3.58-10.2-8.35l-12.92-50.22c-1.42-6.11-10.36-5.3-10.66.96l-9.36,200.44c-.31,6.43-6.13,11.16-12.49,10.15l-100.18-11.21c-5.29-.84-9.17-5.44-9.11-10.8,0,0,12.17-141.06,14.19-207.92,3.47-114.47,2.16-224.43,2.16-224.43.07-5.74,4.62-10.43,10.36-10.67l120.51-5.17c4.46-.18,8.58,2.4,10.35,6.49l36.85,84.91c1.95,4.49,8.39,4.28,10.04-.33l29.96-76c1.65-4.61,6.2-7.53,11.08-7.12Z"/>
      <path class="cls-3" d="M857.59,168.38v53c0,5.97,4.84,10.8,10.8,10.8h34.46c5.97,0,10.8,4.84,10.8,10.8v102.94c0,5.97-4.84,10.8-10.8,10.8h-34.46c-5.97,0-10.8,4.84-10.8,10.8v47.88c0,5.97,4.84,10.8,10.8,10.8h206.2c5.97,0,10.8-4.84,10.8-10.8v-46.64c0-5.97-4.84-10.8-10.8-10.8h-32.2c-5.95,0-10.77-4.81-10.8-10.75l-.55-105.06c-.03-6.09,4.98-11,11.06-10.85l32.23-.3c6.07.15,11.06-4.73,11.06-10.8v-49.44c0-5.92-4.76-10.74-10.68-10.8l-206.2-2.38c-6.01-.07-10.93,4.79-10.93,10.8Z"/>
      <path class="cls-3" d="M1404.88,196.81l-28.84,29.69c-2.47,31.46-5.87,73.72-7.76,92.5-3.2,31.79-10,120.13-10,120.13-.49,4.86-5.49,8.33-11.17,7.76l-65.51-6.76c-4.12-.42-7.63-2.9-8.92-6.3l-38.41-81.67c-1.78-4.72-9.79-4-10.05.9l-4.06,75c-.28,5.01-5.36,8.69-11.19,8.1l-72.26-5.97c-5.29-.53-9.37-4.41-9.43-8.97,0,0,2.48-91.66,2.07-122.22-.43-31.84.55-128.5.55-128.5-.07-5.1,4.88-9.05,10.82-8.65l70.01,4.6c3.57.24,6.79,2.05,8.52,4.78l50.91,87.78c2.53,3.98,9.45,2.76,9.67-1.7l3.71-74.58c.24-4.79,4.89-8.42,10.48-8.18l45.92,2.24,15.7.76,14.33.73h.02l28.19,1.45c8.65.44,12.75,10.87,6.71,17.09Z"/>
      <path class="cls-4" d="M674.46,500.09s8.91,92.77,13.78,156.4,3.87,148.95,3.87,148.95c.57,5.53,5.4,9.74,11.14,9.72l83.75-1.81c6.34-.02,11.4-5.13,11.13-11.26l-4.02-91.75c-.26-6,8.27-7.88,10.71-2.36l43.93,94.53c1.77,3.98,5.82,6.56,10.3,6.54h68.49c6.17-.02,11.15-4.88,11.14-10.84,0,0,3.92-108.33,3.81-147.4-.11-39.07-2.07-161.29-2.07-161.29-.02-6.26-5.51-11.19-11.97-10.74l-81.95,5.63c-6.04.42-10.64,5.42-10.36,11.28l4.35,91.2c.26,5.45-7.04,7.8-10.2,3.28l-64.55-100.4c-2.17-3.1-5.84-4.89-9.7-4.74l-70.92,3.2c-6.43.25-11.31,5.69-10.67,11.88Z"/>
      <path class="cls-4" d="M112.51,431.33s57.83-23.29,171.89-54.79c124.45-34.38,197.21-47.78,197.21-47.78,8.13-2.47,15.8,4.98,13.56,13.18l-10.61,123.35c-.96,3.52-3.63,6.32-7.1,7.44l-84.59,27.13c-9.63,3.17-14.22,8.27-14.46,20.01,0,0-9.86,74.48-2.62,184.42,4.23,64.3,10.44,160.17,10.44,160.17.03,4.89-3.24,9.19-7.96,10.48l-128.05,37.71c-6.9,1.88-13.7-3.34-13.65-10.49,0,0-1.33-120.8-3.12-181.25-2.7-91.12.93-162.5.93-162.5.05-7.65-7.65-12.93-14.77-10.12l-82.82,28.33c-6.47,2.55-13.62-1.58-14.65-8.46l-17.17-124.91c-.79-5.3,2.42-10.38,7.55-11.93Z"/>
      <path class="cls-3" d="M815.75,382.04l-48.25,43.19c-4.13,3.69-10.38,3.67-14.48-.07l-62.19-56.69c-3.47-3.17-9.05-.7-9.04,4l.09,54.22c.01,5.5-4.11,10.13-9.58,10.75l-67.09,7.68c-6.07.7-11.51-3.78-12-9.87l-16.83-210.67-31.28-26.21c-6.64-5.57-3.63-16.36,4.93-17.69l57.66-8.92-.16.29,46.16-7.34c5.77-.92,11.22,2.92,12.31,8.65l8.78,46.18c.77,4.07,5.65,5.79,8.81,3.11l66.5-56.54c4.45-3.79,11.11-3.34,15.02,1l46,51.06c3.81,4.24,3.68,10.71-.3,14.78l-54.86,56.11c-4.09,4.19-4.11,10.87-.03,15.07l60.38,62.32c4.27,4.41,4.02,11.48-.56,15.57Z"/>
      <path class="cls-2" d="M1074.59,357.95h-32.2c-5.95,0-10.77-4.81-10.8-10.75l-.3-57.06c-17.27-.84-34.56-1.54-51.84-2.07-21.89-.68-43.85-1.27-65.8-1.46v59.31c0,5.97-4.84,10.8-10.8,10.8h-34.46c-5.97,0-10.8,4.84-10.8,10.8v47.88c0,5.97,4.84,10.8,10.8,10.8h206.2c5.97,0,10.8-4.84,10.8-10.8v-46.64c0-5.97-4.84-10.8-10.8-10.8Z"/>
      <path class="cls-2" d="M1354.52,321.14c-38.25-5.07-76.56-9.98-114.89-14.2-36.71-4.05-73.49-7.57-110.31-10.5,0,.89.02,1.75.03,2.56.41,30.55-2.07,122.22-2.07,122.22.06,4.55,4.14,8.43,9.43,8.97l72.26,5.97c5.83.59,10.92-3.1,11.19-8.1l4.06-75c.26-4.91,8.27-5.62,10.05-.9l38.41,81.67c1.29,3.4,4.8,5.88,8.92,6.3l65.51,6.76c5.68.57,10.68-2.9,11.17-7.76,0,0,6.28-81.5,9.61-116.11-4.45-.63-8.91-1.26-13.37-1.88Z"/>
      <path class="cls-2" d="M755.92,304.16c-2.29-2.36-3.29-5.51-2.99-8.56-4.56.55-9.13,1.11-13.69,1.69-42.16,5.96-84.25,12.55-126.59,17.01-9.62,1.01-19.24,1.95-28.87,2.87l9.44,118.1c.49,6.09,5.93,10.57,12,9.87l67.09-7.68c5.47-.62,9.59-5.25,9.58-10.75l-.09-54.22c-.01-4.7,5.57-7.17,9.04-4l62.19,56.69c4.1,3.74,10.36,3.77,14.48.07l48.25-43.19c4.58-4.09,4.82-11.16.56-15.57l-60.38-62.32Z"/>
      <path class="cls-1" d="M645.82,657.57c-29.73,1.02-59.45,2.24-89.16,3.67-30.75,1.48-61.42,2.82-92,5.85-7.69,1.19-15.39,2.39-23.08,3.58-8.42,1.31-16.86,2.51-25.27,3.81,0,3.83,0,7.77,0,11.84,0,69.82,21.37,151.05,21.37,151.05,0,6.77,6.15,11.87,12.8,10.62l55.53-10.44c4.9-.92,8.54-5.09,8.79-10.07l-1.57-89.17c.26-5.08,4.03-9.3,9.06-10.12l21.58-3.28c5.77-.93,11.24,2.88,12.34,8.62l20.72,83.57c1.09,5.63,6.39,9.44,12.07,8.66l56.36-7.71c5.71-.78,9.8-5.9,9.3-11.64,0,0-4.85-83.05-8.85-148.83Z"/>
      <path class="cls-1" d="M1156,654.28c-15.4-.59-30.81-1-46.22-1.27-.36,2.04-.78,4.17-1.32,6.42-3.11,13.08-25.41,12.69-31.73,11.97-.97-.11-1.69-.89-1.65-1.79l.7-17c-30.05-.2-60.1-.01-90.15.27l-6.07,146.51c-.23,5.54,4.17,10.31,10.11,11,38.74,4.45,175.57,6.83,194.68-73.44,7.14-30.01,11.47-56.93,13.86-80.6-14.07-.81-28.14-1.52-42.22-2.05Z"/>
      <path class="cls-1" d="M1396.48,670.95c-56.46-3.78-112.87-8.98-169.34-12.8-4.43,47.97-18.64,150.33-18.64,150.33.04,5.42,4.95,9.97,11.46,10.65l157.01,10.38c6.91.72,13.3-3.15,14.53-8.8l12.8-58.52c1.35-6.15-3.9-11.96-11.44-12.65l-54.15-4.99c-6.98-.64-12.1-5.71-11.61-11.48l.47-5.66c.45-5.37,5.62-9.65,12.13-10.03l57.58,4.15c6.85-.41,12.16-5.11,12.16-10.78l3.76-38.76c-5.58-.32-11.15-.66-16.73-1.03Z"/>
      <path class="cls-1" d="M1630.25,684.26c-14.72-1.65-29.45-2.97-44.19-4.05l3.86,15.01c1.11,4.78,5.3,8.21,10.2,8.35l48.69,1.48c4.7.14,8.95-2.77,10.52-7.21l2.95-8.36c-10.66-1.82-21.33-3.58-32.02-5.22Z"/>
      <path class="cls-1" d="M1447.16,673.67c-4.15,70.38-11.96,160.88-11.96,160.88-.06,5.36,3.81,9.96,9.11,10.8l100.18,11.21c6.36,1.01,12.18-3.72,12.49-10.15l7.83-167.6c-39.17-2.35-78.42-3.43-117.65-5.14Z"/>
      <path class="cls-1" d="M1684.62,693.42l-7.34,171.68c-.31,4.95,2.79,9.48,7.52,10.98l102.79,34.77c6.73,2.13,13.66-2.65,16.75-9.69l10.3-181.17c-43.2-9.52-86.5-18.66-130.02-26.56Z"/>
      <path class="cls-1" d="M915.88,653.52c-75.91.58-151.77.72-227.66,2.76,0,.07.01.14.02.21,5.01,65.45,3.87,148.95,3.87,148.95.57,5.53,5.4,9.74,11.14,9.72l83.75-1.81c6.34-.02,11.4-5.13,11.13-11.26l-4.02-91.75c-.26-6,8.27-7.88,10.71-2.36l43.93,94.53c1.77,3.98,5.82,6.55,10.3,6.54h68.49c6.17-.02,11.15-4.88,11.14-10.84,0,0,3.77-103.96,3.81-144.93-8.87.09-17.74.17-26.61.24Z"/>
      <path class="cls-1" d="M374.55,682.62c-11.77,2.68-23.5,5.49-35.27,8.19-16.6,3.81-33.26,7.41-50.08,10.1-18.63,2.97-37.37,5.41-56.09,7.79.1,4.03.21,8.1.33,12.21,1.79,60.44,3.12,181.25,3.12,181.25-.05,7.15,6.75,12.38,13.65,10.49l128.05-37.71c4.72-1.29,7.98-5.59,7.96-10.48,0,0-6.2-95.87-10.44-160.17-.49-7.39-.89-14.61-1.23-21.67Z"/>
    </g>
  </g>
</svg>