<?xml version="1.0" encoding="UTF-8"?>
<svg id="PROJECT_ICON" data-name="PROJECT ICON" xmlns="http://www.w3.org/2000/svg" viewBox="0 0 1080 1080">
  <defs>
    <style>
      .cls-1 {
        fill: #fff;
      }
    </style>
  </defs>
  <g id="ICON_-_B_W_Inverse" data-name="ICON - B&amp;amp;W Inverse">
    <g id="ICON_-_B_W_Inverse-2" data-name="ICON - B&amp;amp;W Inverse">
      <g id="Manu">
        <g>
          <path d="M325.97,229.32l8.85,5.58,24.3,12.15-22.48-42.26-3.68-19.56,33.81,24.74-14.18-32.5,12.28-54.14,12.73,40.33c2.82,8.93,7.01,17.33,12.45,24.97l32.8,46c.59.83.41,1.64.25,2.05-.16.41-.58,1.13-1.59,1.34-31.32,6.45-58.23,15.43-78.25,26.1l-17.29-34.8Z"/>
          <path class="cls-1" d="M365.66,142.45l7.17,22.71c2.98,9.43,7.4,18.31,13.15,26.37l30.29,42.48c-18.66,4.03-35.71,8.96-50.64,14.62l-9.45-17.77-3.59-6.74-11.18-21.02-1.2-6.39,8.67,6.34,29.87,21.86-14.8-33.93-6.12-14.03,7.83-34.53M337.86,242.01l5.02,2.51,14.68,7.34c-4.23,1.77-8.26,3.61-12.07,5.5l-7.63-15.35M364.59,113.25c-1.35,0-2.71.82-3.11,2.41l-14.13,62.31,7.43,17.03-22.69-16.6c-.56-.37-1.16-.53-1.75-.53-1.78,0-3.41,1.53-3.19,3.55l4.71,25.04,11.9,22.37,3.59,6.74-10.07-5.04-14.35-9.05c-.49-.24-.98-.35-1.45-.35-2.19,0-3.97,2.35-2.87,4.61l22.5,45.28c20-11.56,48.03-21.24,81.41-28.11,5.08-1.05,7.41-6.97,4.4-11.19l-32.8-46c-5.13-7.2-9.1-15.15-11.76-23.58l-14.76-46.78c-.51-1.43-1.76-2.13-3.01-2.13h0Z"/>
        </g>
        <g>
          <path d="M678.91,640.52c-2.1,0-4.24-.1-6.34-.3-.07,0-.11-.05-.11-.11v-29.46c0-6.19-5.04-11.23-11.23-11.23-.18,0-.36,0-.54.01-6,.28-10.7,5.28-10.7,11.39v22.72c0,.1-.11.12-.11.12-11.94-6.02-21.58-15.4-27.91-27.14-5.04-9.35-7.71-19.94-7.71-30.63,0-.81.01-1.62.04-2.42.02-.62.05-1.23.09-1.83.07-1.01.39-1.97.92-2.76,7.71-11.5,19.08-20.35,32.05-24.97.04-.01.37-.1.37-.1l.03-.02c.46-.14.92-.32,1.37-.52,3.92-1.79,6.46-5.74,6.46-10.07,0-6.04-4.91-11.01-10.95-11.08h-.13c-.78,0-1.54.08-2.28.24-6.7.84-13.25,2.59-19.49,5.21-19.58,8.22-31.46,19.93-38.12,37.7-13.01.58-28.93.93-43.33.93s-30.31-.34-43.33-.93c-6.66-17.77-18.55-29.48-38.12-37.7-6.23-2.62-12.79-4.37-19.49-5.21-.74-.16-1.5-.24-2.28-.24h-.13c-6.04.07-10.95,5.04-10.95,11.08,0,4.33,2.54,8.28,6.48,10.08.44.2.89.38,1.35.52h.03s.32.1.38.11c12.97,4.62,24.35,13.47,32.04,24.96.54.79.85,1.76.92,2.79.04.59.07,1.19.09,1.8.03.82.04,1.62.04,2.43,0,10.69-2.66,21.29-7.7,30.63-6.33,11.74-15.97,21.12-27.88,27.13,0,0-.02,0-.03,0-.04,0-.11-.03-.11-.11v-22.72c0-6.11-4.7-11.12-10.7-11.4-.17,0-.35-.01-.53-.01-6.19,0-11.23,5.04-11.23,11.23v29.46c0,.06-.04.1-.11.11-2.1.2-4.23.3-6.34.3-6.44,0-12.78-.94-18.87-2.8-.04-.01-.07-.05-.07-.1v-30.17c0-6.2-5.04-11.24-11.23-11.24s-11.23,5.04-11.23,11.24v17.84c-.02.08-.1.12-.14.12-4.87-4.11-9.1-8.87-12.58-14.18-.34-.52-.67-1.04-.99-1.57-6.23-10.15-9.52-21.82-9.52-33.79,0-7.57,1.3-14.99,3.85-22.03.14-.38.27-.74.41-1.09l2.03-5.22-5.42-1.42c-.8-.21-1.6-.43-2.4-.65-26.81-7.25-51.77-15.94-74.25-25.83l45.66-24.08-68.26-12.15,45.16-14.24-47.8-26.69,81.05-7.51.18-.03c1.65-.27,3.27-.7,4.82-1.25,2.22-.78,4.37-1.86,6.37-3.2l5.59-3.77c5.52-3.71,9.84-8.91,12.49-15.03l.09-.22q1.82-4.83,1.82-5.84v-3.88l-3.76-.96c-5.56-1.43-9.74-6.01-10.64-11.68-.12-.76-.18-1.53-.18-2.29,0-2.23.49-4.36,1.46-6.33l.23-.39c.35-.57.84-1.39,1.1-1.85.86-1.54,1.64-3.15,2.3-4.79.11-.28.54-1.39.7-1.87.18-.52.69-2.15.86-2.78.1-.37.77-3.38.86-3.89.18-1.02.53-4.56.54-5.04.03-.6.05-1.27.05-1.94,0-1.75-.11-3.51-.33-5.22-.76-6.02-2.8-11.72-6.08-16.93-.6-.94-1.22-1.85-1.86-2.71-1.85-3-3.11-6.27-3.75-9.74-.31-1.69-.46-3.42-.46-5.15,0-1.53.12-3.06.36-4.55,1.16-7.19,4.98-13.59,10.79-18.04,2.49-1.46,5.13-2.9,7.85-4.29,22.77-11.61,54.12-20.97,90.65-27.07l1.81-.3,1.18-1.4c12.46-14.69,52.4-24.95,97.13-24.95s84.67,10.26,97.13,24.95l1.18,1.4,1.81.3c36.54,6.1,67.88,15.46,90.65,27.07,2.73,1.39,5.37,2.84,7.86,4.3,5.81,4.45,9.63,10.84,10.79,18.03.24,1.49.36,3.02.36,4.56,0,1.73-.16,3.46-.46,5.16-.63,3.46-1.89,6.73-3.74,9.73-.64.86-1.27,1.77-1.86,2.7-3.29,5.22-5.33,10.92-6.09,16.95-.22,1.71-.33,3.46-.33,5.21,0,.67.02,1.34.05,1.99.02.43.37,3.97.55,5.04.05.33.3,1.59.4,2,.05.24.37,1.53.46,1.85.17.63.36,1.27.57,1.9.08.26.19.58.31.91.17.5.58,1.56.7,1.85.66,1.62,1.43,3.23,2.3,4.78.25.45.74,1.27,1.09,1.84l.23.39c.97,1.98,1.46,4.11,1.46,6.33,0,.76-.06,1.53-.18,2.29-.9,5.67-5.08,10.25-10.64,11.68l-3.76.96v3.88q0,1,1.82,5.84l.09.22c2.65,6.12,6.97,11.32,12.5,15.03l5.58,3.76c2.01,1.35,4.16,2.42,6.4,3.21,1.52.55,3.15.97,4.79,1.24l.18.03,81.05,7.51-47.8,26.69,45.16,14.24-68.26,12.15,45.66,24.08c-22.47,9.9-47.43,18.58-74.22,25.83-.82.22-1.62.44-2.42.65l-5.42,1.42,2.03,5.22c.14.36.28.72.41,1.08,2.56,7.06,3.85,14.47,3.85,22.04,0,11.96-3.29,23.64-9.52,33.77-.33.54-.66,1.06-1,1.58-3.49,5.32-7.71,10.08-12.56,14.16-.01,0-.03,0-.04,0-.05,0-.1-.03-.11-.05v-17.9c0-6.2-5.04-11.24-11.23-11.24s-11.23,5.04-11.23,11.24v30.17c0,.05-.03.09-.06.1-6.09,1.86-12.44,2.8-18.88,2.8ZM582.48,500.97c3.21.68,6.5,1.02,9.8,1.02,19.19,0,36.37-11.44,43.77-29.14,0,0,.21-.5.28-.68,1.11-2.86,1.67-5.87,1.67-8.96,0-4.53-1.23-8.95-3.57-12.8-2.08-3.43-4.99-6.34-8.43-8.4-.25-.15-.49-.29-.73-.42l-.14-.08c-1.92-1-4.09-1.53-6.27-1.53-.45,0-.91.02-1.37.07-6.27.63-11.35,5.62-12.1,11.87-.36,3.09.29,6.1,1.91,8.72l.3.48.05.05c.36.53.76,1.04,1.19,1.51.62.68,1.01,1.43,1.15,2.19l.02.1c0,.86-.37,1.57-.68,2-.16.23-.42.43-.75.59l-.5.23c-.45.22-.92.42-1.38.61-.24.1-.45.19-.66.27-2.76,1.09-5.65,1.85-8.58,2.25-1.7.24-3.43.36-5.18.36-7.63,0-14.95-2.28-21.2-6.58l-1.13-1.18h-.41c-.37-.28-.75-.55-1.12-.81l-1.3-.91h-.05c-4.84-3.18-10.15-5.4-15.82-6.62-3.23-.7-6.57-1.05-9.93-1.05s-6.7.36-9.94,1.06c-5.66,1.22-10.97,3.44-15.81,6.62h-.04l-1.3.91c-.37.26-.74.53-1.11.81h-.41l-1.14,1.18c-6.25,4.31-13.57,6.58-21.2,6.58-1.75,0-3.49-.12-5.16-.36-2.96-.41-5.85-1.16-8.61-2.26-.21-.08-.42-.17-.63-.26-.49-.21-.96-.41-1.41-.63l-.59-.28c-.24-.12-.5-.33-.67-.55-.31-.43-.67-1.14-.67-2.09.15-.78.54-1.53,1.15-2.19.44-.48.83-.98,1.19-1.51l.05-.05.31-.51c1.61-2.62,2.27-5.63,1.91-8.72-.74-6.26-5.83-11.25-12.09-11.88-.46-.04-.92-.07-1.38-.07-2.18,0-4.35.53-6.27,1.53l-.14.08c-.24.13-.48.27-.71.41-3.45,2.08-6.37,4.98-8.45,8.42-2.33,3.85-3.56,8.27-3.56,12.8,0,3.08.56,6.09,1.67,8.94.08.19.28.68.28.68,7.41,17.72,24.59,29.16,43.78,29.16,3.3,0,6.59-.34,9.8-1.02l.56-.12c5.15-1.15,10.05-3.14,14.55-5.92,1.1-.68,2.76-1.91,4.82-3.45.72-.54,1.62-1.21,1.91-1.41,5.84-3.39,12.51-5.19,19.31-5.19s13.47,1.79,19.31,5.19c.3.2,1.19.87,1.92,1.41,2.06,1.54,3.72,2.77,4.82,3.45,4.51,2.79,9.41,4.78,14.56,5.93l.54.12h.02ZM541.32,421.16c-13.8,0-24.2,6.46-24.2,15.02s10.4,15.02,24.2,15.02,24.2-6.46,24.2-15.02-10.4-15.02-24.2-15.02ZM608.61,391.95c-11.64,0-21.11,9.47-21.11,21.11s9.47,21.11,21.11,21.11,21.11-9.47,21.11-21.11-9.47-21.11-21.11-21.11ZM474.04,391.95c-11.64,0-21.11,9.47-21.11,21.11s9.47,21.11,21.11,21.11,21.11-9.47,21.11-21.11-9.47-21.11-21.11-21.11ZM719.09,398.51c3.08,1.48,7.13,3.09,10.92,3.09.84,0,1.66-.08,2.42-.24,7.86-1.63,12.37-8.54,11.77-18.02-.01-.18-.03-.37-.05-.57-.24-2.52-1.35-4.57-2.17-6.07l-.25-.47c-.25-.49-.7-1.19-1.25-2.04-.11-.17-.21-.32-.27-.42-1.37-2.39-2.42-4.93-3.11-7.54-.63-2.37-.98-4.8-1.05-7.24,0-.29-.01-.57-.01-.84,0-2.53.3-5.04.9-7.46.73-2.99,1.9-5.86,3.48-8.54.63-.87,1.22-1.78,1.76-2.71,2.98-5.11,4.56-10.96,4.56-16.91,0-7.68-1.04-18.74-10.06-26.08-1.53-1.25-3.27-2.31-5.16-3.16-2.19-.98-4.48-1.95-6.8-2.89l-1.08-.44c-4.95-1.98-10.26-3.9-15.77-5.72-17.94-5.89-38.47-10.77-61.02-14.49-32.94-5.44-68.44-8.2-105.52-8.2s-72.59,2.76-105.52,8.2c-22.55,3.73-43.08,8.6-61.02,14.49-5.52,1.81-10.82,3.74-15.77,5.72l-1.1.44h0c-2.32.95-4.59,1.92-6.78,2.89-1.89.84-3.63,1.91-5.16,3.16-9.01,7.34-10.06,18.4-10.06,26.08,0,5.95,1.58,11.8,4.56,16.91.54.93,1.14,1.84,1.76,2.71,1.58,2.68,2.75,5.55,3.48,8.52.6,2.44.9,4.95.9,7.47,0,.28,0,.55-.01.83-.06,2.46-.41,4.89-1.04,7.25-.29,1.12-1.67,4.38-4.59,9.93l-.07.14c-1.05,1.96-1.71,4.14-1.92,6.43-.02.24-.04.43-.05.63-.62,9.82,3.5,16.38,11.3,18.01.76.16,1.57.24,2.42.24,3.78,0,7.83-1.61,10.92-3.09l.31.12,2.09-1.33c1.64-1.04,3.36-2.09,5.13-3.13l1.08-.63c.52-.31,1.05-.61,1.57-.91.2-.12.33-.19.47-.27,7.05-4.01,14.57-7.77,22.41-11.21l.65-.28c41.47-18.09,91.29-27.67,144.07-27.71,52.77.04,102.59,9.62,144.06,27.71l.96.42c7.72,3.4,15.13,7.11,22.05,11.04.18.1.32.18.45.26.59.33,1.11.64,1.64.94l1.17.68c1.73,1.02,3.42,2.05,5.03,3.07l2.09,1.33.31-.12Z"/>
          <path class="cls-1" d="M541.32,242.58c43.52,0,76.37,9.45,89.63,19.73-28.39-3.83-58.46-5.77-89.63-5.77s-61.24,1.94-89.63,5.77c13.26-10.29,46.12-19.73,89.63-19.73M541.31,358.16c52.1.04,101.23,9.48,142.07,27.29l.79.34c7.62,3.35,14.93,7.01,21.74,10.88l.05.03.05.03c.11.06.22.12.32.18l.06.03.06.03c.5.28,1,.57,1.49.86l1.53.9c1.56.93,3.08,1.86,4.53,2.78l4.32,2.74.71-.28c2.43,1.04,5.24,2,8.13,2.41.07,1.38.44,2.35,2.13,6.83l.08.22.1.22c3.03,7,7.97,12.95,14.29,17.19l5.61,3.78c2.34,1.57,4.87,2.84,7.5,3.76,1.82.65,3.72,1.14,5.64,1.46l.36.06.36.03,64.82,6.01-23.61,13.19-20.23,11.3,22.1,6.97,14.69,4.63-33.87,6.03-28.67,5.1,25.76,13.59,23.48,12.39c-19.68,8.11-41.11,15.32-63.9,21.48h-.02s-.02.01-.02.01c-.78.21-1.55.42-2.34.63l-10.84,2.85,4.06,10.44c.13.32.25.65.37.99,2.36,6.5,3.55,13.34,3.55,20.33,0,11.04-3.03,21.81-8.79,31.18-.32.53-.62,1-.91,1.43-1.1,1.68-2.28,3.29-3.53,4.85v-5.89c0-8.95-7.28-16.24-16.23-16.24s-16.23,7.28-16.23,16.24v26.44c-4.54,1.09-9.22,1.64-13.94,1.64-.48,0-.97,0-1.45-.02v-24.86c0-8.95-7.28-16.23-16.23-16.23-.25,0-.51,0-.76.02-8.68.4-15.47,7.6-15.47,16.39v14.14c-7.74-5.34-14.09-12.42-18.62-20.82-4.65-8.62-7.11-18.39-7.11-28.26,0-.79.01-1.52.04-2.26.02-.56.05-1.12.08-1.65.01-.19.06-.3.09-.34,7.06-10.53,17.46-18.66,29.32-22.95l.71-.18.22-.11c.5-.17,1-.37,1.47-.59,5.71-2.61,9.4-8.35,9.4-14.63,0-8.77-7.13-15.98-15.89-16.08h-.06s-.06,0-.06,0h-.07c-1.05,0-2.08.1-3.09.3-7.09.9-14.02,2.76-20.61,5.53-19.82,8.32-32.28,20.03-39.64,37.46-12.29.5-26.71.78-39.88.78s-27.59-.29-39.88-.78c-7.35-17.43-19.82-29.13-39.64-37.46-6.59-2.77-13.52-4.63-20.61-5.53-1.01-.2-2.05-.3-3.09-.3h-.18c-8.76.1-15.89,7.31-15.89,16.08,0,6.28,3.69,12.02,9.38,14.61.51.23,1.03.44,1.56.62l.21.11.66.16c11.87,4.28,22.27,12.42,29.34,22.96.02.02.06.14.07.29.04.56.06,1.12.08,1.69.03.71.04,1.44.04,2.23,0,9.87-2.46,19.64-7.11,28.26-4.52,8.39-10.88,15.47-18.62,20.81v-14.14c0-8.79-6.8-15.99-15.46-16.39-.26-.01-.52-.02-.78-.02-8.95,0-16.23,7.28-16.23,16.23v24.86c-.48.01-.97.02-1.45.02-4.72,0-9.4-.55-13.94-1.64v-26.44c0-8.95-7.28-16.24-16.23-16.24s-16.23,7.28-16.23,16.24v5.89c-1.26-1.56-2.44-3.18-3.54-4.86-.28-.43-.57-.89-.91-1.45-5.74-9.34-8.78-20.12-8.78-31.15,0-6.99,1.19-13.83,3.56-20.34.12-.33.24-.65.37-.98l4.05-10.44-10.83-2.85c-.78-.21-1.56-.42-2.34-.63h-.02s-.02-.01-.02-.01c-22.79-6.16-44.22-13.37-63.9-21.48l23.48-12.39,25.76-13.59-28.67-5.1-33.87-6.03,14.69-4.63,22.1-6.97-20.23-11.3-23.61-13.19,64.82-6.01.36-.03.36-.06c1.92-.32,3.82-.81,5.64-1.46,2.63-.93,5.16-2.19,7.53-3.78l5.57-3.75c6.32-4.25,11.27-10.19,14.3-17.2l.1-.22.08-.22c1.69-4.49,2.06-5.46,2.13-6.83,2.89-.41,5.69-1.37,8.13-2.41l.71.28,4.32-2.74c1.4-.89,2.86-1.78,4.37-2.68l1.69-.99c.5-.29,1-.58,1.5-.87l.06-.03.06-.03c.11-.06.21-.12.32-.18l.05-.03.05-.03c6.75-3.83,13.98-7.46,21.51-10.78l1.02-.45c40.85-17.82,89.97-27.25,142.06-27.29M607.21,439.13c-3.66,2.97-6.19,7.31-6.78,12.21-.49,4.15.44,8.39,2.61,11.92l.61.99c-2.22.83-4.53,1.42-6.87,1.74h-.03s-.03,0-.03,0c-1.44.2-2.94.31-4.45.31-6.44,0-12.63-1.87-17.95-5.42l-2.25-2.34h-.92l-2.45-1.73h-.18c-2.95-1.81-6.04-3.32-9.27-4.5,6.99-3.55,11.26-9.29,11.26-16.14,0-11.6-12.28-20.02-29.2-20.02s-29.2,8.42-29.2,20.02c0,6.85,4.28,12.58,11.26,16.14-3.23,1.18-6.32,2.69-9.27,4.5h-.18l-2.45,1.73h-.92s-2.24,2.34-2.24,2.34c-5.32,3.55-11.51,5.42-17.95,5.42-1.51,0-3.01-.1-4.45-.31h-.03s-.03,0-.03,0c-2.34-.32-4.64-.9-6.87-1.74l.61-.99c2.17-3.54,3.1-7.77,2.61-11.93-.58-4.9-3.11-9.23-6.78-12.2,13.75-.73,24.71-12.14,24.71-26.07s-11.71-26.11-26.11-26.11-26.11,11.71-26.11,26.11c0,9.39,4.98,17.64,12.45,22.24-1.8.34-3.55.94-5.18,1.78l-.12.06-.12.07c-.29.16-.57.32-.89.51-4.13,2.48-7.63,5.97-10.13,10.1-2.81,4.63-4.29,9.95-4.29,15.39,0,3.71.67,7.32,2.01,10.77.08.22.17.43.26.64l.06.15c8.18,19.57,27.17,32.21,48.38,32.21,3.46,0,6.92-.34,10.3-1.02h.06l1.07-.24c5.7-1.27,11.11-3.47,16.09-6.55,1.27-.79,2.96-2.03,5.2-3.7.54-.41,1.26-.94,1.61-1.19,5.03-2.88,10.76-4.4,16.61-4.4s11.58,1.52,16.61,4.4c.35.25,1.07.79,1.61,1.19,2.24,1.67,3.92,2.91,5.2,3.7,4.98,3.08,10.4,5.28,16.09,6.55l1.08.24h.06c3.38.68,6.84,1.02,10.3,1.02,21.21,0,40.2-12.64,48.39-32.24l.05-.11c.09-.22.18-.44.28-.68,1.33-3.43,2-7.05,2-10.75,0-5.44-1.48-10.76-4.29-15.39-2.5-4.12-6-7.62-10.13-10.1h-.02s-.02-.03-.02-.03c-.28-.16-.56-.33-.85-.49l-.12-.07-.12-.06c-1.62-.85-3.37-1.45-5.18-1.78,7.46-4.6,12.45-12.85,12.45-22.24,0-14.4-11.71-26.11-26.11-26.11s-26.11,11.71-26.11,26.11,10.96,25.34,24.71,26.07M541.32,232.58c-47.59,0-87.83,11.25-100.94,26.71-37.24,6.22-69.01,15.77-92.1,27.55-2.94,1.5-5.73,3.03-8.37,4.59-6.77,5.09-11.53,12.68-12.94,21.4-.28,1.74-.43,3.53-.43,5.35,0,2.07.19,4.09.54,6.05.77,4.22,2.33,8.16,4.53,11.67.62.83,1.21,1.67,1.76,2.55,2.8,4.44,4.67,9.5,5.35,14.9.19,1.51.29,3.04.29,4.59,0,.59-.01,1.17-.04,1.75,0,.24-.33,3.56-.48,4.43-.05.29-.68,3.11-.75,3.39-.15.55-.67,2.19-.77,2.47-.09.27-.5,1.34-.6,1.6-.59,1.46-1.27,2.87-2.04,4.23-.38.68-1.31,2.2-1.36,2.3-1.32,2.62-2.06,5.58-2.06,8.71,0,1.05.08,2.07.24,3.08,1.22,7.67,6.92,13.83,14.33,15.74,0,.09-1.5,4.07-1.5,4.07-2.26,5.22-5.97,9.69-10.7,12.87l-5.58,3.76c-1.65,1.1-3.42,1.99-5.27,2.64-1.28.46-2.61.8-3.96,1.03l-84.55,7.83c-3.66.61-4.53,5.47-1.32,7.31l40.7,22.73-38.56,12.16c-3.57,1.49-3.09,6.7.7,7.51l58.3,10.38-34.7,18.3c-2.91,1.53-2.78,5.75.23,7.09,23.13,10.33,48.96,19.4,76.95,26.97.82.23,1.63.45,2.45.66-.15.4-.3.8-.45,1.2-2.69,7.41-4.15,15.4-4.15,23.74,0,13.33,3.75,25.79,10.25,36.39.35.58.71,1.14,1.08,1.71,3.75,5.72,8.31,10.85,13.52,15.24.98.83,2.12,1.2,3.24,1.2,2.64,0,5.14-2.08,5.14-5.12v-17.84c0-3.45,2.79-6.24,6.23-6.24s6.23,2.79,6.23,6.24v30.17c0,2.25,1.46,4.23,3.61,4.89,6.43,1.96,13.26,3.01,20.33,3.01,2.3,0,4.58-.11,6.82-.33,2.63-.25,4.63-2.45,4.63-5.09v-29.47c0-3.44,2.79-6.23,6.23-6.23.1,0,.2,0,.3,0,3.35.15,5.93,3.04,5.93,6.4v22.72c0,2.96,2.43,5.12,5.11,5.12.76,0,1.54-.17,2.28-.55,12.75-6.43,23.26-16.66,30.03-29.22,5.3-9.82,8.3-21.06,8.3-33.01,0-.88-.01-1.74-.05-2.61-.02-.66-.06-1.31-.1-1.96-.13-1.87-.71-3.68-1.76-5.23-8.29-12.37-20.44-21.93-34.73-26.96,0,0-.02,0-.03,0-.39-.09-.76-.22-1.12-.38-2.1-.96-3.55-3.07-3.55-5.53,0-3.33,2.68-6.04,6.01-6.08h.07c.49,0,.96.06,1.41.17,6.45.78,12.64,2.46,18.42,4.89,18.53,7.78,30.17,18.67,36.46,37.93,14.49.73,32.02,1.09,46.93,1.09s32.44-.37,46.93-1.09c6.28-19.26,17.93-30.15,36.46-37.93,5.78-2.43,11.97-4.1,18.42-4.89.45-.11.92-.17,1.41-.17h.07c3.32.04,6.01,2.74,6.01,6.08,0,2.46-1.46,4.57-3.55,5.53-.36.16-.73.3-1.12.38,0,0-.02,0-.03,0-14.29,5.03-26.44,14.59-34.73,26.96-1.05,1.55-1.63,3.37-1.76,5.23-.04.65-.07,1.31-.1,1.96-.03.87-.05,1.73-.05,2.61,0,11.94,3.01,23.18,8.3,33.01,6.77,12.55,17.27,22.79,30.03,29.22.75.38,1.53.55,2.28.55,2.68,0,5.11-2.16,5.11-5.12v-22.72c0-3.36,2.58-6.25,5.93-6.4.1,0,.2,0,.3,0,3.44,0,6.23,2.79,6.23,6.23v29.47c0,2.64,2.01,4.83,4.63,5.09,2.24.22,4.52.33,6.82.33,7.07,0,13.9-1.05,20.33-3.01,2.15-.65,3.61-2.64,3.61-4.89v-30.17c0-3.45,2.79-6.24,6.23-6.24s6.23,2.79,6.23,6.24v17.84c0,3.04,2.5,5.12,5.14,5.12,1.11,0,2.25-.37,3.24-1.2,5.21-4.38,9.78-9.52,13.52-15.24.37-.56.73-1.13,1.08-1.71,6.51-10.59,10.25-23.05,10.25-36.39,0-8.34-1.46-16.33-4.15-23.74-.15-.4-.3-.8-.45-1.2.82-.22,1.64-.44,2.45-.66,27.99-7.57,53.81-16.64,76.95-26.97,3.01-1.34,3.13-5.56.22-7.09l-34.7-18.3,58.3-10.38c3.79-.81,4.28-6.02.7-7.51l-38.56-12.16,40.7-22.73c3.21-1.85,2.33-6.71-1.32-7.31l-84.55-7.83c-1.35-.23-2.67-.57-3.96-1.03-1.85-.65-3.62-1.54-5.27-2.64l-5.58-3.76c-4.73-3.17-8.44-7.64-10.7-12.87,0,0-1.5-3.98-1.5-4.07,7.42-1.9,13.11-8.07,14.33-15.74.16-1,.24-2.03.24-3.08,0-3.13-.74-6.09-2.06-8.71-.05-.1-.98-1.62-1.36-2.3-.76-1.36-1.44-2.77-2.03-4.23-.11-.26-.52-1.33-.6-1.6-.1-.27-.19-.54-.28-.82-.18-.54-.34-1.1-.49-1.65-.07-.28-.35-1.4-.41-1.68-.07-.28-.29-1.43-.34-1.71-.15-.86-.47-4.18-.48-4.43-.03-.58-.04-1.16-.04-1.75,0-1.55.1-3.08.29-4.59.68-5.4,2.56-10.45,5.35-14.9.55-.87,1.14-1.72,1.76-2.55,2.2-3.51,3.76-7.45,4.53-11.67.36-1.96.54-3.99.54-6.05,0-1.82-.15-3.61-.43-5.35-1.4-8.72-6.17-16.31-12.94-21.4-2.64-1.56-5.44-3.09-8.37-4.59-23.09-11.77-54.86-21.33-92.1-27.55-13.11-15.46-53.35-26.71-100.94-26.71h0ZM352.64,396.6c-.49,0-.96-.04-1.4-.13-6.01-1.25-7.71-6.69-7.33-12.81,0-.15.02-.3.04-.46.15-1.65.63-3.2,1.38-4.6.23-.44,4.23-7.99,5.05-11.08.72-2.69,1.13-5.5,1.21-8.39,0-.32.01-.65.01-.97,0-2.98-.36-5.88-1.05-8.66-.87-3.58-2.28-6.97-4.14-10.07,0,0,0-.01-.01-.02-.58-.79-1.13-1.62-1.62-2.48-2.47-4.23-3.88-9.15-3.88-14.4,0-8.96,1.77-16.96,8.22-22.21,1.23-1,2.59-1.82,4.04-2.47,2.48-1.11,5.04-2.19,7.69-3.25h0c4.88-1.96,10.04-3.83,15.48-5.61,17.55-5.76,37.88-10.61,60.27-14.31,31.5-5.2,67.06-8.14,104.71-8.14s73.21,2.93,104.71,8.14c22.39,3.7,42.72,8.55,60.27,14.31,5.43,1.79,10.6,3.66,15.48,5.61h0c2.65,1.06,5.22,2.15,7.69,3.25,1.45.65,2.81,1.47,4.04,2.47,6.45,5.25,8.22,13.25,8.22,22.21,0,5.25-1.41,10.17-3.88,14.4-.5.85-1.04,1.68-1.62,2.48,0,0,0,.01-.01.02-1.86,3.1-3.27,6.49-4.14,10.07-.68,2.78-1.05,5.68-1.05,8.66,0,.32,0,.65.01.97.07,2.89.49,5.7,1.21,8.39.82,3.1,2.05,6.04,3.62,8.77.12.22,1.13,1.73,1.43,2.31.75,1.39,1.69,2.95,1.85,4.6.01.15.03.3.04.46.38,6.12-1.79,11.56-7.8,12.81-.44.09-.91.13-1.4.13-4.48,0-10.43-3.52-10.64-3.52,0,0,0,0,0,0-2.07-1.31-4.19-2.59-6.35-3.85h0c-.54-.32-1.09-.64-1.64-.95-.17-.1-.33-.19-.5-.29-7.36-4.18-15.2-8.09-23.47-11.7h0c-40.34-17.6-91.02-28.09-146.06-28.13-55.04.04-105.72,10.53-146.06,28.13h0c-8.28,3.61-16.12,7.52-23.47,11.7-.17.09-.33.19-.5.29-.55.31-1.1.63-1.64.95h0c-2.16,1.26-4.28,2.54-6.35,3.85,0,0,0,0,0,0-.22,0-6.16,3.52-10.64,3.52h0ZM608.61,429.16c-8.89,0-16.11-7.21-16.11-16.11s7.21-16.11,16.11-16.11,16.11,7.21,16.11,16.11-7.21,16.11-16.11,16.11h0ZM474.04,429.16c-8.89,0-16.11-7.21-16.11-16.11s7.21-16.11,16.11-16.11,16.11,7.21,16.11,16.11-7.21,16.11-16.11,16.11h0ZM541.32,446.19c-10.61,0-19.2-4.48-19.2-10.02s8.59-10.02,19.2-10.02,19.2,4.48,19.2,10.02-8.59,10.02-19.2,10.02h0ZM592.27,476.31c1.99,0,3.95-.14,5.86-.41,3.39-.46,6.66-1.34,9.75-2.56.25-.1.5-.2.74-.3.54-.22,1.08-.46,1.61-.72.18-.08.36-.17.54-.25,1.04-.51,1.95-1.24,2.62-2.17,1.01-1.41,1.61-3.14,1.61-5,0-.27-.03-.58-.09-.9-.31-1.75-1.17-3.35-2.36-4.66-.37-.4-.69-.84-.98-1.3h0c-.97-1.58-1.44-3.49-1.2-5.52.47-3.94,3.68-7.09,7.62-7.48.3-.03.59-.04.88-.04,1.43,0,2.77.35,3.95.96.2.11.4.23.6.35,2.75,1.66,5.06,3.96,6.73,6.71,1.81,2.98,2.84,6.47,2.84,10.21,0,2.52-.47,4.92-1.33,7.14-.07.19-.15.38-.23.57-6.4,15.31-21.52,26.07-39.16,26.07-3.18,0-6.28-.35-9.26-1.02h0c-4.67-1.04-9.06-2.86-13.01-5.3-1.71-1.05-6.09-4.48-6.77-4.88-6.43-3.76-13.92-5.91-21.91-5.91s-15.47,2.15-21.91,5.91c-.68.39-5.06,3.82-6.77,4.88-3.95,2.44-8.34,4.26-13.01,5.3h0c-2.98.67-6.08,1.02-9.26,1.02-17.64,0-32.76-10.76-39.16-26.07-.08-.19-.16-.38-.23-.57-.86-2.21-1.33-4.62-1.33-7.14,0-3.74,1.04-7.23,2.84-10.21,1.66-2.75,3.98-5.05,6.73-6.71.2-.12.4-.23.6-.35,1.18-.62,2.53-.96,3.95-.96.29,0,.58.01.88.04,3.94.39,7.16,3.54,7.62,7.48.24,2.03-.23,3.94-1.2,5.51h0c-.29.47-.61.9-.98,1.31-1.2,1.31-2.05,2.91-2.36,4.66-.06.32-.09.63-.09.9,0,1.87.6,3.59,1.61,5,.67.93,1.58,1.66,2.62,2.17.18.08.36.17.54.25.53.25,1.07.49,1.61.72.24.1.49.2.74.3,3.09,1.22,6.35,2.1,9.75,2.56,1.91.27,3.87.41,5.86.41,9.11,0,17.54-2.87,24.46-7.76,0,0,0,0,0,0,.74-.6,1.49-1.18,2.27-1.73h0c4.53-3.2,9.72-5.53,15.33-6.73,2.86-.62,5.83-.94,8.88-.94s6.02.32,8.88.94c5.61,1.2,10.8,3.53,15.33,6.73h0c.78.55,1.53,1.13,2.27,1.73,0,0,0,0,0,0,6.92,4.89,15.35,7.76,24.46,7.76h0Z"/>
        </g>
        <g>
          <path d="M739.38,264.13c-20.02-10.67-46.93-19.65-78.25-26.1-1.01-.21-1.43-.93-1.59-1.34-.16-.41-.34-1.22.25-2.05l32.8-46c5.45-7.64,9.63-16.04,12.45-24.97l12.73-40.33,12.28,54.14-14.18,32.5,33.81-24.74-3.68,19.56-22.48,42.26,24.3-12.15,8.85-5.58-17.29,34.8Z"/>
          <path class="cls-1" d="M716.98,142.45l7.83,34.53-6.12,14.03-14.8,33.93,29.87-21.86,8.67-6.34-1.2,6.39-11.18,21.02-3.59,6.74-9.45,17.77c-14.93-5.66-31.99-10.6-50.64-14.62l30.29-42.49c5.75-8.06,10.17-16.94,13.15-26.37l7.17-22.71M744.78,242.01l-7.63,15.35c-3.82-1.89-7.84-3.73-12.07-5.5l14.68-7.34,5.02-2.51M718.05,113.25c-1.25,0-2.5.7-3.01,2.13l-14.76,46.78c-2.66,8.43-6.63,16.38-11.76,23.58l-32.8,46c-3.01,4.22-.68,10.14,4.4,11.19,33.38,6.87,61.41,16.55,81.41,28.11l22.5-45.28c1.1-2.27-.68-4.61-2.87-4.61-.47,0-.96.11-1.45.35l-14.35,9.05-10.07,5.04,3.59-6.74,11.9-22.37,4.71-25.04c.22-2.02-1.41-3.55-3.19-3.55-.59,0-1.19.17-1.75.53l-22.69,16.6,7.43-17.03-14.13-62.31c-.4-1.59-1.76-2.41-3.11-2.41h0Z"/>
        </g>
      </g>
      <g>
        <path d="M540,961.76c-49.34,0-95.79-10.78-134.33-31.16l-1.35-.72-53.98,5.85c-1.47.16-2.96.24-4.44.24-10.63,0-20.72-4.05-28.4-11.4l-33.87-30.24c-.65-.66-.62-1.42-.54-1.82.08-.4.34-1.11,1.2-1.47l34.44-12.01-66.46-21.82c-2.82-.9-5.02-2.97-6.08-5.68l-8.87-22.77c-.99-2.54-.87-5.3.34-7.75,1.19-2.41,3.24-4.16,5.81-4.95l36.17-8.31-45.89-18.42c-3.93-1.58-6.7-5.16-7.25-9.35l-3.29-25.23c-.67-5.14,2.18-10.18,6.94-12.25l63.5-27.62-18.36-2.18c-21.05-2.5-37.21-19.7-38.42-40.91l-7.98-90.43c-.71-12.89,4.14-25.11,13.38-33.95l66.78,23.7c-.07,1.54-.11,3.07-.11,4.59,0,28.49,12.72,55.12,34.89,73.06,16.63,13.45,37.59,20.86,59.02,20.86,45.15,0,84.09-32.62,92.32-76.56h89.68c8.23,43.94,47.16,76.56,92.31,76.56,21.43,0,42.39-7.41,59.02-20.86,22.18-17.94,34.9-44.57,34.9-73.06,0-1.52-.04-3.05-.11-4.59l66.77-23.7c9.24,8.84,14.09,21.06,13.38,33.95l-7.98,90.43c-1.21,21.21-17.36,38.41-38.42,40.91l-18.36,2.18,63.49,27.62c4.76,2.07,7.61,7.11,6.94,12.25l-3.29,25.23c-.55,4.19-3.33,7.78-7.25,9.35l-45.89,18.42,36.17,8.31c2.56.79,4.62,2.54,5.8,4.95,1.21,2.45,1.32,5.2.33,7.74l-8.87,22.77c-1.06,2.72-3.26,4.79-6.04,5.67l-66.5,21.82,34.44,12.02c.86.36,1.12,1.07,1.2,1.47s.11,1.16-.54,1.82l-33.88,30.24c-7.68,7.35-17.77,11.4-28.4,11.4h0c-1.48,0-2.97-.08-4.44-.24l-53.98-5.85-1.35.72c-38.54,20.39-84.99,31.16-134.33,31.16ZM601.38,882.63c2.35,1.4,5.03,2.14,7.77,2.14,2.35,0,4.66-.54,6.74-1.58h.15l24.38-15.4c1.14-.54,2.21-1.22,3.17-2.02l5.35-3.69-1.45-1.17c1.07-2.11,1.65-4.46,1.65-6.89,0-8.39-6.83-15.22-15.22-15.22-1.87,0-3.69.34-5.4.99l-.42-.33-3.08,2.22-11.3,8.17c-1.88,1.36-4.1,2.08-6.43,2.08-1.56,0-3.07-.33-4.5-.97l-55.22-24.83c-1.96-.88-4.06-1.33-6.24-1.33-1.78,0-3.51.3-5.15.9h-.11l-.99.44-55.22,24.84c-1.42.64-2.94.96-4.5.96-2.32,0-4.54-.72-6.42-2.08l-10.86-7.84c-.33-.26-.65-.49-.98-.71l-.09-.06c-2.46-1.6-5.32-2.44-8.27-2.44-8.39,0-15.22,6.83-15.22,15.22,0,3.14.95,6.13,2.67,8.62l-.93.91,5.4,3.36,23.43,14.57c.98.77,2.04,1.42,3.18,1.93,1.95.89,4.06,1.34,6.24,1.34s4.27-.45,6.25-1.34l.28-.13,56.81-25.55c1.42-.64,2.94-.97,4.5-.97s3.06.32,4.48.96l55.56,24.89ZM541.32,773.52c-21.95,0-39.15,10.42-39.15,23.71,0,.93.08,1.87.25,2.78.88,4.82,5.11,8.31,10.06,8.31h.04c4.75,0,9.22,1.83,11.95,4.89,4.38,4.91,10.47,7.73,16.72,7.74h.22c6.26-.01,12.35-2.83,16.73-7.74,2.73-3.07,7.2-4.9,11.95-4.9,5.01,0,9.24-3.49,10.11-8.3.17-.92.25-1.85.25-2.78,0-13.3-17.2-23.71-39.15-23.71ZM617.14,726.34l.66,4.41c2.78,18.53,19.03,32.51,37.81,32.51,21.08,0,38.23-17.15,38.23-38.24,0-4.84-.9-9.56-2.66-14.04l-1.64-4.15-72.4,19.51ZM389.67,709c-2.33,5.04-3.51,10.43-3.51,16.02,0,21.08,17.15,38.24,38.24,38.24,19.86,0,36.22-14.89,38.06-34.65l.39-4.19-71.41-19.24-1.77,3.83Z"/>
        <path class="cls-1" d="M243.62,553.19l60.32,21.4c0,.37,0,.73,0,1.09,0,30.01,13.39,58.05,36.75,76.95,17.51,14.17,39.59,21.97,62.17,21.97,46.15,0,86.13-32.35,96.38-76.56h81.56c10.25,44.21,50.23,76.56,96.37,76.56,22.57,0,44.65-7.8,62.17-21.97,23.36-18.89,36.75-46.94,36.75-76.95,0-.36,0-.73,0-1.09l60.32-21.4c6.79,7.58,10.3,17.45,9.75,27.81l-7.96,90.19v.16s-.02.16-.02.16c-1.07,18.78-15.38,34.01-34.01,36.22l-36.71,4.35,33.9,14.75,46.54,20.25c2.73,1.19,4.36,4.07,3.98,7.02l-3.29,25.23c-.31,2.41-1.91,4.46-4.15,5.36l-31.09,12.48-29.59,11.88,31.08,7.14,20.42,4.69c1.56.53,2.32,1.68,2.65,2.33.34.68.8,2.07.16,3.72l-8.86,22.77c-.51,1.31-1.57,2.3-2.9,2.73h-.04s-.04.02-.04.02l-52.43,17.2-28.07,9.21,27.89,9.73,15.6,5.45-29.88,26.67-.13.12-.13.12c-6.75,6.46-15.61,10.01-24.95,10.01-1.3,0-2.61-.07-3.9-.21l-52.46-5.69-3.05-.33-2.71,1.43c-18.3,9.68-38.72,17.23-60.7,22.43-22.83,5.41-46.82,8.15-71.3,8.15s-48.46-2.74-71.3-8.15c-21.97-5.2-42.39-12.75-60.7-22.43l-2.71-1.43-3.05.33-52.46,5.69c-1.29.14-2.6.21-3.9.21-9.34,0-18.2-3.56-24.95-10.01l-.12-.12-.13-.11-29.88-26.67,15.6-5.44,27.9-9.73-28.07-9.21-52.43-17.21h-.04s-.04-.02-.04-.02c-1.33-.43-2.39-1.42-2.9-2.73l-8.87-22.76c-.64-1.65-.18-3.05.16-3.73.32-.65,1.09-1.8,2.65-2.33l20.42-4.69,31.08-7.14-29.59-11.88-31.09-12.48c-2.25-.9-3.84-2.95-4.15-5.36l-3.29-25.23c-.38-2.95,1.25-5.84,3.98-7.02l46.55-20.25,33.9-14.75-36.72-4.35c-18.64-2.21-32.94-17.44-34.01-36.22v-.16s-.02-.16-.02-.16l-7.96-90.19c-.55-10.36,2.95-20.23,9.75-27.81M424.4,768.26c22.46,0,40.96-16.84,43.04-39.18l.78-8.39-8.14-2.19-63.27-17.05-8.14-2.19-3.54,7.66c-2.63,5.7-3.97,11.8-3.97,18.11,0,23.84,19.4,43.23,43.24,43.23M655.6,768.26c23.84,0,43.24-19.4,43.24-43.23,0-5.47-1.01-10.81-3.01-15.87l-3.28-8.31-8.63,2.32-63.78,17.19-8.61,2.32,1.32,8.82c3.15,20.96,21.52,36.77,42.75,36.77M512.48,813.32h.04c3.35,0,6.42,1.2,8.22,3.22,2.5,2.8,5.47,5.05,8.72,6.64l-51.66,23.24c-.78.35-1.6.53-2.45.53-1.26,0-2.47-.39-3.5-1.13l-10.78-7.78c-.37-.29-.74-.55-1.12-.8l-.05-.04-.2-.13c-3.28-2.12-7.08-3.24-10.99-3.24-11.15,0-20.22,9.07-20.22,20.22,0,2.83.58,5.56,1.66,8.06l-2.49,2.67,10.32,6.42,23.21,14.43c1.23.94,2.56,1.74,3.95,2.36,2.62,1.19,5.43,1.8,8.33,1.8s5.68-.6,8.3-1.78l.04-.02.04-.02.2-.09,56.82-25.56c.78-.35,1.6-.53,2.45-.53s1.66.17,2.44.52l55.31,24.78c3.06,1.76,6.52,2.69,10.07,2.69,2.71,0,5.36-.54,7.83-1.58h.52l2.45-1.55,22.91-14.47c1.3-.64,2.53-1.42,3.65-2.32l9.8-6.48-3.15-3.15c.64-1.98.97-4.06.97-6.19,0-11.15-9.07-20.22-20.22-20.22-1.11,0-2.2.09-3.28.26l-1.48-1.56-7.07,5.11-11.31,8.17c-1.02.74-2.23,1.13-3.49,1.13-.85,0-1.67-.18-2.45-.53l-51.67-23.23c3.24-1.59,6.22-3.84,8.72-6.64,1.8-2.02,4.87-3.22,8.22-3.22h.05c7.37,0,13.67-5.22,14.98-12.41.22-1.2.33-2.44.33-3.67,0-16.37-18.98-28.71-44.15-28.71s-44.14,12.34-44.14,28.71c0,1.23.11,2.47.33,3.68,1.31,7.19,7.61,12.41,14.98,12.41M838.87,541.7l-73.15,25.96c.23,2.65.36,5.33.36,8.03,0,27.94-12.89,52.87-33.04,69.17-15.27,12.35-34.71,19.75-55.88,19.75-44.92,0-82.05-33.3-88.06-76.56h-98.18c-6.02,43.26-43.15,76.56-88.07,76.56-21.17,0-40.61-7.39-55.88-19.75-20.15-16.3-33.04-41.23-33.04-69.17,0-2.71.12-5.38.36-8.03l-73.15-25.96c-11.31,9.54-18.15,24.1-17.24,40.01l7.98,90.36c1.36,23.95,19.8,42.86,42.82,45.59l-46.55,20.25c-6.83,2.97-10.86,10.1-9.9,17.48l3.29,25.23c.78,5.99,4.74,11.09,10.34,13.34l31.09,12.48-20.79,4.78c-8.23,2.41-12.63,11.35-9.52,19.35l8.87,22.77c1.6,4.11,4.98,7.28,9.18,8.62l52.43,17.21-20.6,7.18c-4.8,1.86-6.04,8.07-2.32,11.63l33.83,30.2c8.62,8.25,20.06,12.79,31.86,12.79,1.65,0,3.31-.09,4.97-.27l52.46-5.69c37.57,19.88,85.05,31.74,136.67,31.74s99.1-11.87,136.67-31.74l52.46,5.69c1.66.18,3.32.27,4.98.27,11.81,0,23.24-4.54,31.86-12.79l33.83-30.2c3.72-3.56,2.48-9.78-2.32-11.63l-20.6-7.19,52.43-17.2c4.2-1.34,7.57-4.51,9.18-8.62l8.87-22.77c3.11-7.99-1.29-16.94-9.52-19.35l-20.79-4.78,31.09-12.48c5.61-2.25,9.56-7.36,10.34-13.34l3.29-25.23c.97-7.39-3.08-14.51-9.9-17.48l-46.54-20.25c23.01-2.73,41.45-21.64,42.82-45.59l7.98-90.36c.91-15.91-5.93-30.47-17.24-40.01h0ZM424.4,758.26c-18.36,0-33.24-14.88-33.24-33.23,0-4.97,1.09-9.69,3.05-13.92l63.27,17.05c-1.57,16.89-15.78,30.11-33.08,30.11h0ZM655.6,758.26c-16.66,0-30.46-12.26-32.86-28.25l63.78-17.19c1.49,3.78,2.31,7.9,2.31,12.2,0,18.36-14.88,33.23-33.24,33.23h0ZM512.48,803.32c-2.51,0-4.69-1.73-5.14-4.2-.11-.62-.17-1.25-.17-1.88,0-10.33,15.29-18.71,34.14-18.71s34.15,8.38,34.15,18.71c0,.64-.06,1.27-.17,1.88-.45,2.47-2.63,4.2-5.14,4.2h-.05c-6.42,0-12.13,2.58-15.68,6.56-3.33,3.73-7.99,6.06-13,6.07h-.21c-5.01,0-9.67-2.33-13-6.07-3.55-3.99-9.26-6.56-15.68-6.56h-.04ZM475.36,856.94c2.22,0,4.45-.46,6.55-1.4l55.22-24.84h0c1.28-.58,2.7-.9,4.19-.9s2.91.32,4.19.9l55.22,24.83c2.09.94,4.33,1.41,6.55,1.41,3.31,0,6.59-1.03,9.36-3.03l11.31-8.17h0c1.68-1.21,3.74-1.92,5.97-1.92,5.65,0,10.22,4.58,10.22,10.22,0,3.1-1.38,5.88-3.56,7.74h0s-.03.02-.03.02c-.76.65-1.6,1.19-2.52,1.59l-23.43,14.8h0c-1.58,1-3.45,1.58-5.45,1.58s-3.87-.58-5.44-1.58h-.01s-55.83-25.02-55.83-25.02c-2.08-.93-4.3-1.4-6.53-1.4s-4.47.47-6.55,1.41l-56.86,25.57-.23.11c-1.28.58-2.7.9-4.2.9s-2.91-.32-4.19-.9c-.83-.38-1.61-.86-2.31-1.44h0s-23.7-14.75-23.7-14.75h0c-2.87-1.81-4.78-5.01-4.78-8.65,0-5.64,4.58-10.22,10.22-10.22,2.05,0,3.95.6,5.55,1.64l.03.02c.26.16.5.34.74.53l10.95,7.91c2.77,2,6.05,3.02,9.35,3.02h0Z"/>
      </g>
    </g>
  </g>
</svg>