<?xml version="1.0" encoding="UTF-8"?>
<svg id="PROJECT_ICON" data-name="PROJECT ICON" xmlns="http://www.w3.org/2000/svg" viewBox="0 0 1080 1080">
  <g id="ICON_-_Black" data-name="ICON - Black">
    <g id="IconGame_Black">
      <g id="Manu">
        <path d="M422.52,242.92c-33.37,6.87-61.41,16.55-81.41,28.11l-22.5-45.28c-1.34-2.75,1.58-5.63,4.31-4.26l14.35,9.05,10.07,5.04-3.59-6.74-11.9-22.37-4.71-25.04c-.29-2.69,2.67-4.5,4.94-3.02l22.69,16.6-7.43-17.03,14.13-62.31c.78-3.07,5.06-3.26,6.12-.28l14.76,46.78c2.66,8.43,6.63,16.38,11.76,23.58l32.8,46c3.01,4.22.68,10.14-4.4,11.19Z"/>
        <path d="M848.7,437.83l-84.55-7.84c-1.35-.23-2.67-.57-3.96-1.03-1.85-.65-3.62-1.54-5.27-2.64l-5.58-3.76c-4.73-3.17-8.44-7.64-10.7-12.87,0,0-1.5-3.98-1.5-4.07,7.42-1.9,13.11-8.07,14.33-15.74.16-1,.24-2.03.24-3.08,0-3.13-.74-6.09-2.06-8.71-.05-.1-.98-1.62-1.36-2.3-.76-1.36-1.44-2.77-2.03-4.23-.11-.26-.52-1.33-.6-1.6-.1-.27-.19-.54-.28-.82-.18-.54-.34-1.1-.49-1.65-.08-.28-.35-1.4-.41-1.68-.07-.28-.29-1.43-.34-1.71-.15-.86-.47-4.18-.48-4.43-.03-.58-.04-1.16-.04-1.75,0-1.55.1-3.09.29-4.59.68-5.4,2.56-10.45,5.35-14.9.55-.87,1.14-1.72,1.76-2.55,2.2-3.51,3.76-7.45,4.53-11.67.36-1.96.54-3.99.54-6.05,0-1.82-.15-3.61-.43-5.35-1.4-8.72-6.17-16.31-12.94-21.4-2.64-1.56-5.44-3.09-8.37-4.59-23.09-11.77-54.86-21.33-92.1-27.55-13.11-15.46-53.35-26.71-100.94-26.71s-87.83,11.25-100.94,26.71c-37.24,6.22-69.01,15.77-92.1,27.55-2.94,1.5-5.73,3.03-8.37,4.59-6.77,5.09-11.53,12.68-12.94,21.4-.28,1.74-.43,3.53-.43,5.35,0,2.07.19,4.09.54,6.05.77,4.22,2.34,8.16,4.53,11.67.62.83,1.21,1.67,1.76,2.55,2.8,4.45,4.67,9.5,5.35,14.9.19,1.51.29,3.04.29,4.59,0,.59-.01,1.17-.04,1.75,0,.24-.33,3.56-.48,4.43-.05.29-.68,3.11-.75,3.39-.15.55-.67,2.19-.77,2.47-.09.27-.5,1.34-.6,1.6-.59,1.46-1.27,2.87-2.03,4.23-.38.68-1.31,2.2-1.36,2.3-1.32,2.62-2.06,5.58-2.06,8.71,0,1.05.08,2.07.24,3.08,1.22,7.67,6.92,13.83,14.33,15.74,0,.09-1.5,4.07-1.5,4.07-2.26,5.22-5.97,9.69-10.7,12.87l-5.58,3.76c-1.65,1.1-3.42,1.99-5.27,2.64-1.28.46-2.61.8-3.96,1.03l-84.55,7.84c-3.66.61-4.53,5.47-1.32,7.31l40.7,22.73-38.56,12.16c-3.57,1.49-3.09,6.7.7,7.51l58.3,10.38-34.7,18.3c-2.91,1.53-2.78,5.75.23,7.09,23.13,10.33,48.96,19.4,76.95,26.97.82.23,1.63.45,2.45.66-.15.4-.3.8-.45,1.2-2.69,7.41-4.15,15.4-4.15,23.74,0,13.34,3.75,25.79,10.25,36.39.35.58.71,1.14,1.08,1.71,3.75,5.72,8.31,10.85,13.52,15.24,3.31,2.79,8.37.4,8.37-3.92v-17.84c0-3.45,2.79-6.24,6.23-6.24s6.23,2.79,6.23,6.24v30.17c0,2.25,1.46,4.23,3.61,4.89,6.43,1.96,13.26,3.01,20.33,3.01,2.3,0,4.58-.11,6.82-.33,2.63-.25,4.63-2.45,4.63-5.09v-29.47c0-3.54,2.95-6.4,6.53-6.23,3.35.15,5.93,3.04,5.93,6.4v22.72c0,3.79,4,6.28,7.39,4.57,12.75-6.43,23.26-16.66,30.03-29.22,5.3-9.82,8.3-21.06,8.3-33.01,0-.88-.01-1.74-.05-2.61-.02-.66-.06-1.31-.1-1.96-.13-1.87-.71-3.68-1.76-5.23-8.29-12.37-20.44-21.93-34.73-26.96,0,0-.02,0-.03,0-.39-.09-.76-.22-1.12-.38-2.1-.96-3.55-3.07-3.55-5.53,0-3.33,2.68-6.04,6.01-6.08h.07c.49,0,.96.06,1.41.17,6.45.78,12.64,2.46,18.42,4.89,18.53,7.78,30.17,18.67,36.46,37.93,14.49.73,32.02,1.09,46.93,1.09s32.44-.37,46.93-1.09c6.28-19.26,17.93-30.15,36.46-37.93,5.78-2.43,11.97-4.1,18.42-4.89.45-.11.92-.17,1.41-.17h.07c3.32.04,6.01,2.74,6.01,6.08,0,2.46-1.46,4.57-3.55,5.53-.36.16-.73.3-1.12.38,0,0-.02,0-.03,0-14.29,5.03-26.44,14.59-34.73,26.96-1.05,1.55-1.63,3.37-1.76,5.23-.04.65-.07,1.31-.1,1.96-.03.87-.05,1.73-.05,2.61,0,11.94,3.01,23.18,8.3,33.01,6.77,12.55,17.27,22.79,30.03,29.22,3.39,1.71,7.39-.77,7.39-4.57v-22.72c0-3.36,2.58-6.25,5.93-6.4,3.58-.17,6.53,2.69,6.53,6.23v29.47c0,2.64,2.01,4.83,4.63,5.09,2.24.22,4.52.33,6.82.33,7.07,0,13.9-1.06,20.33-3.01,2.15-.65,3.61-2.64,3.61-4.89v-30.17c0-3.45,2.79-6.24,6.23-6.24s6.23,2.79,6.23,6.24v17.84c0,4.33,5.06,6.71,8.37,3.92,5.21-4.38,9.78-9.52,13.52-15.24.37-.56.73-1.13,1.08-1.71,6.51-10.59,10.25-23.05,10.25-36.39,0-8.34-1.46-16.33-4.15-23.74-.15-.4-.3-.8-.45-1.2.82-.22,1.64-.44,2.45-.66,27.99-7.57,53.81-16.64,76.95-26.97,3.01-1.34,3.13-5.56.23-7.09l-34.7-18.3,58.3-10.38c3.79-.81,4.28-6.02.7-7.51l-38.56-12.16,40.7-22.73c3.21-1.85,2.34-6.71-1.32-7.31ZM631.66,470.35c-.07.19-.15.38-.23.57-6.4,15.31-21.52,26.07-39.16,26.07-3.18,0-6.28-.35-9.26-1.02h0c-4.67-1.04-9.06-2.86-13.01-5.3-1.71-1.06-6.09-4.48-6.77-4.88-6.43-3.76-13.92-5.91-21.91-5.91s-15.47,2.15-21.91,5.91c-.68.39-5.06,3.82-6.77,4.88-3.95,2.44-8.34,4.26-13.01,5.3h0c-2.98.67-6.08,1.02-9.26,1.02-17.64,0-32.76-10.76-39.16-26.07-.08-.19-.16-.38-.23-.57-.86-2.21-1.33-4.62-1.33-7.14,0-3.74,1.04-7.23,2.84-10.21,1.66-2.75,3.98-5.05,6.73-6.71.2-.12.4-.23.6-.35,1.42-.74,3.08-1.09,4.83-.92,3.94.39,7.16,3.54,7.62,7.48.24,2.03-.23,3.94-1.2,5.51h0c-.29.47-.61.91-.98,1.31-1.2,1.31-2.05,2.91-2.36,4.66-.06.32-.09.63-.09.9,0,1.87.6,3.59,1.61,5,.67.93,1.58,1.66,2.62,2.17.18.08.36.17.54.25.53.25,1.07.49,1.61.72.24.1.49.2.74.3,3.09,1.22,6.35,2.1,9.75,2.56,1.91.27,3.87.41,5.86.41,9.11,0,17.54-2.87,24.46-7.76,0,0,0,0,0,0,.74-.6,1.49-1.18,2.27-1.73h0c4.53-3.2,9.72-5.53,15.33-6.73,2.86-.62,5.83-.94,8.88-.94s6.02.32,8.88.94c5.61,1.2,10.8,3.53,15.33,6.73h0c.78.55,1.53,1.13,2.27,1.73,0,0,0,0,0,0,6.92,4.89,15.35,7.76,24.46,7.76,1.99,0,3.95-.14,5.86-.41,3.39-.46,6.66-1.34,9.75-2.56.25-.1.5-.2.74-.3.54-.23,1.08-.46,1.61-.72.18-.08.36-.17.54-.25,1.04-.51,1.95-1.24,2.62-2.17,1.01-1.41,1.61-3.14,1.61-5,0-.27-.03-.58-.09-.9-.31-1.75-1.17-3.35-2.36-4.66-.37-.4-.69-.84-.98-1.3h0c-.97-1.58-1.44-3.49-1.2-5.52.47-3.94,3.68-7.09,7.62-7.48,1.75-.17,3.41.18,4.83.92.2.11.4.23.6.35,2.75,1.66,5.06,3.96,6.73,6.71,1.81,2.98,2.84,6.47,2.84,10.21,0,2.52-.47,4.92-1.33,7.14ZM457.93,413.06c0-8.89,7.21-16.11,16.11-16.11s16.11,7.21,16.11,16.11-7.21,16.11-16.11,16.11-16.11-7.21-16.11-16.11ZM522.12,436.18c0-5.53,8.59-10.02,19.2-10.02s19.2,4.48,19.2,10.02-8.59,10.02-19.2,10.02-19.2-4.48-19.2-10.02ZM592.5,413.06c0-8.89,7.21-16.11,16.11-16.11s16.11,7.21,16.11,16.11-7.21,16.11-16.11,16.11-16.11-7.21-16.11-16.11ZM719.36,393.07c-2.07-1.31-4.19-2.59-6.35-3.85h0c-.54-.32-1.09-.64-1.64-.95-.17-.1-.33-.19-.5-.29-7.36-4.18-15.2-8.09-23.47-11.7h0c-40.34-17.6-91.02-28.09-146.06-28.13-55.04.04-105.72,10.53-146.06,28.13h0c-8.28,3.61-16.12,7.52-23.47,11.7-.17.09-.33.19-.5.29-.55.31-1.1.63-1.64.95h0c-2.16,1.26-4.28,2.54-6.35,3.85-.15-.06-7.49,4.34-12.05,3.39-6.01-1.25-7.71-6.69-7.33-12.81,0-.15.02-.3.04-.46.15-1.65.63-3.2,1.38-4.6.23-.44,4.23-7.99,5.05-11.08.72-2.69,1.13-5.5,1.21-8.39,0-.32.01-.65.01-.97,0-2.98-.36-5.88-1.05-8.66-.87-3.58-2.28-6.97-4.14-10.07,0,0,0-.01-.01-.02-.58-.79-1.13-1.62-1.62-2.48-2.47-4.23-3.88-9.15-3.88-14.39,0-8.96,1.77-16.96,8.22-22.21,1.23-1,2.59-1.82,4.04-2.47,2.48-1.11,5.04-2.19,7.69-3.25h0c4.88-1.96,10.04-3.83,15.48-5.61,17.55-5.76,37.88-10.61,60.27-14.31,31.5-5.2,67.06-8.14,104.71-8.14s73.21,2.93,104.71,8.14c22.39,3.7,42.72,8.55,60.27,14.31,5.43,1.79,10.6,3.66,15.48,5.61h0c2.65,1.06,5.22,2.15,7.69,3.25,1.45.65,2.81,1.47,4.04,2.47,6.45,5.25,8.22,13.25,8.22,22.21,0,5.25-1.41,10.17-3.88,14.39-.5.85-1.04,1.68-1.62,2.48,0,0,0,.01-.01.02-1.86,3.1-3.27,6.49-4.14,10.07-.68,2.78-1.05,5.68-1.05,8.66,0,.32,0,.65.01.97.08,2.89.49,5.7,1.21,8.39.82,3.1,2.05,6.04,3.62,8.77.12.22,1.13,1.73,1.43,2.31.75,1.39,1.69,2.95,1.85,4.6.01.15.03.3.04.46.38,6.12-1.79,11.56-7.8,12.81-4.55.95-11.9-3.45-12.05-3.39Z"/>
        <path d="M764.03,225.75l-22.5,45.28c-20-11.56-48.03-21.24-81.41-28.11-5.08-1.05-7.41-6.97-4.4-11.19l32.8-46c5.13-7.2,9.1-15.15,11.76-23.58l14.76-46.78c1.06-2.98,5.34-2.79,6.12.28l14.13,62.31-7.43,17.03,22.69-16.6c2.26-1.48,5.23.33,4.94,3.02l-4.71,25.04-11.9,22.37-3.59,6.74,10.07-5.04,14.35-9.05c2.74-1.36,5.65,1.51,4.31,4.26Z"/>
      </g>
      <path d="M851.86,737.9l-46.54-20.25c23.01-2.73,41.45-21.64,42.82-45.59l7.98-90.36c.9-15.91-5.93-30.47-17.24-40.01l-73.15,25.96c.23,2.65.36,5.33.36,8.03,0,27.94-12.89,52.87-33.04,69.17-15.27,12.35-34.71,19.75-55.88,19.75-44.92,0-82.05-33.3-88.06-76.56h-98.18c-6.02,43.26-43.15,76.56-88.07,76.56-21.17,0-40.61-7.39-55.88-19.75-20.15-16.3-33.04-41.23-33.04-69.17,0-2.71.12-5.38.36-8.03l-73.15-25.96c-11.31,9.54-18.15,24.1-17.24,40.01l7.98,90.36c1.36,23.95,19.8,42.86,42.82,45.59l-46.55,20.25c-6.83,2.97-10.86,10.1-9.9,17.49l3.29,25.23c.78,5.99,4.74,11.09,10.34,13.34l31.09,12.48-20.79,4.78c-8.23,2.41-12.63,11.35-9.52,19.35l8.87,22.77c1.6,4.11,4.97,7.28,9.18,8.62l52.43,17.21-20.6,7.18c-4.8,1.86-6.04,8.07-2.32,11.63l33.83,30.2c9.83,9.41,23.31,13.99,36.84,12.52l52.46-5.69c37.57,19.88,85.05,31.74,136.67,31.74s99.1-11.87,136.67-31.74l52.46,5.69c13.53,1.47,27.01-3.11,36.84-12.52l33.83-30.2c3.72-3.56,2.48-9.78-2.32-11.63l-20.6-7.19,52.43-17.2c4.2-1.34,7.57-4.51,9.18-8.62l8.87-22.77c3.11-7.99-1.29-16.94-9.52-19.35l-20.79-4.78,31.09-12.48c5.61-2.25,9.56-7.36,10.34-13.34l3.29-25.23c.97-7.39-3.08-14.51-9.9-17.49ZM541.32,778.52c18.86,0,34.15,8.38,34.15,18.71,0,.64-.06,1.27-.17,1.88-.45,2.47-2.64,4.21-5.15,4.2h-.04c-6.42,0-12.13,2.58-15.68,6.56-3.33,3.73-7.99,6.06-13,6.07h-.21c-5.01,0-9.67-2.33-13-6.07-3.55-3.99-9.26-6.56-15.68-6.56h-.03c-2.51,0-4.7-1.73-5.15-4.2-.11-.62-.17-1.25-.17-1.88,0-10.33,15.29-18.71,34.14-18.71ZM391.16,725.02c0-4.97,1.09-9.69,3.05-13.92l63.27,17.05c-1.57,16.89-15.78,30.11-33.08,30.11-18.36,0-33.24-14.88-33.24-33.24ZM640.58,861.77h0s-.03.02-.03.02c-.75.65-1.6,1.19-2.52,1.59l-23.43,14.8h0c-1.58,1-3.45,1.58-5.45,1.58s-3.87-.58-5.44-1.58h-.01s-55.83-25.02-55.83-25.02c-4.16-1.87-8.92-1.86-13.08,0l-56.86,25.57-.23.11c-1.28.58-2.7.9-4.2.9s-2.91-.32-4.19-.9c-.83-.38-1.61-.86-2.31-1.43h0s-23.7-14.75-23.7-14.75h0c-2.87-1.81-4.78-5.01-4.78-8.65,0-5.64,4.58-10.22,10.22-10.22,2.05,0,3.95.6,5.55,1.64l.03.02c.26.16.5.34.74.53l10.95,7.91c4.63,3.34,10.69,3.96,15.9,1.62l55.22-24.84h0c1.28-.58,2.7-.9,4.19-.9s2.91.32,4.19.9l55.22,24.83c5.21,2.34,11.28,1.73,15.9-1.62l11.31-8.17h0c1.68-1.21,3.74-1.92,5.97-1.92,5.65,0,10.22,4.58,10.22,10.22,0,3.1-1.38,5.88-3.56,7.74ZM655.6,758.26c-16.66,0-30.46-12.26-32.86-28.25l63.78-17.18c1.49,3.78,2.31,7.9,2.31,12.2,0,18.36-14.88,33.24-33.24,33.24Z"/>
    </g>
  </g>
</svg>