<?xml version="1.0" encoding="UTF-8"?>
<svg id="PROJECT_ICON" data-name="PROJECT ICON" xmlns="http://www.w3.org/2000/svg" viewBox="0 0 1080 1080">
  <defs>
    <style>
      .cls-1 {
        fill: #fff;
      }

      .cls-2 {
        fill: #16549a;
      }
    </style>
  </defs>
  <g id="ICON_-_1-Color" data-name="ICON - 1-Color">
    <g id="ICON_-_1-Color-2" data-name="ICON - 1-Color">
      <rect class="cls-2" x="64.64" y="64.64" width="950.72" height="950.72" rx="123.63" ry="123.63"/>
      <g id="Manu">
        <path class="cls-1" d="M424.46,252.77c-32.82,6.76-60.4,16.28-80.07,27.65l-22.13-44.53c-1.31-2.71,1.55-5.53,4.24-4.19l14.11,8.9,9.91,4.95-3.53-6.63-11.7-22-4.63-24.63c-.29-2.64,2.63-4.43,4.86-2.97l22.32,16.33-7.31-16.75,13.9-61.28c.77-3.02,4.98-3.21,6.02-.28l14.52,46.01c2.61,8.29,6.52,16.11,11.56,23.19l32.26,45.24c2.96,4.15.67,9.97-4.32,11Z"/>
        <path class="cls-1" d="M843.61,444.46l-83.15-7.71c-1.33-.22-2.63-.56-3.89-1.01-1.82-.64-3.56-1.52-5.18-2.6l-5.49-3.7c-4.65-3.12-8.3-7.52-10.52-12.65,0,0-1.48-3.92-1.48-4.01,7.3-1.87,12.9-7.94,14.1-15.48.16-.99.24-2,.24-3.03,0-3.08-.73-5.99-2.02-8.57-.05-.1-.97-1.6-1.34-2.26-.75-1.34-1.42-2.73-2-4.16-.11-.26-.51-1.31-.59-1.58-.1-.27-.19-.54-.27-.8-.18-.54-.34-1.08-.48-1.62-.07-.27-.35-1.37-.41-1.65-.06-.28-.29-1.4-.33-1.68-.15-.85-.47-4.11-.48-4.35-.03-.57-.04-1.14-.04-1.72,0-1.53.1-3.03.29-4.51.67-5.31,2.51-10.28,5.27-14.65.54-.86,1.12-1.69,1.73-2.5,2.16-3.45,3.7-7.32,4.46-11.47.35-1.93.53-3.92.53-5.95,0-1.79-.14-3.55-.42-5.26-1.38-8.58-6.07-16.04-12.72-21.05-2.6-1.54-5.35-3.04-8.24-4.51-22.71-11.58-53.96-20.98-90.58-27.09-12.9-15.2-52.47-26.27-99.28-26.27s-86.38,11.07-99.28,26.27c-36.62,6.11-67.87,15.51-90.58,27.09-2.89,1.47-5.64,2.98-8.24,4.51-6.65,5-11.34,12.47-12.72,21.05-.28,1.71-.42,3.47-.42,5.26,0,2.03.18,4.02.53,5.95.76,4.15,2.3,8.02,4.46,11.47.61.81,1.19,1.65,1.73,2.5,2.75,4.37,4.6,9.34,5.27,14.65.19,1.48.29,2.99.29,4.51,0,.58-.01,1.15-.04,1.72,0,.24-.33,3.5-.47,4.35-.05.28-.66,3.06-.74,3.33-.15.54-.66,2.16-.76,2.43-.09.27-.49,1.32-.59,1.58-.58,1.43-1.25,2.82-2,4.16-.37.67-1.29,2.16-1.34,2.26-1.3,2.58-2.02,5.49-2.02,8.57,0,1.03.08,2.04.24,3.03,1.2,7.54,6.8,13.6,14.1,15.48,0,.09-1.48,4.01-1.48,4.01-2.22,5.14-5.87,9.53-10.52,12.65l-5.49,3.7c-1.62,1.08-3.36,1.96-5.18,2.6-1.26.45-2.56.79-3.89,1.01l-83.15,7.71c-3.6.6-4.46,5.38-1.3,7.19l40.03,22.36-37.93,11.96c-3.51,1.47-3.04,6.59.69,7.38l57.34,10.21-34.13,18c-2.86,1.51-2.73,5.66.22,6.98,22.75,10.16,48.15,19.08,75.68,26.53.8.22,1.6.44,2.41.65-.15.39-.3.78-.44,1.18-2.64,7.29-4.08,15.14-4.08,23.34,0,13.12,3.68,25.37,10.09,35.79.35.57.7,1.13,1.06,1.68,3.68,5.62,8.17,10.68,13.3,14.99,3.26,2.74,8.24.4,8.24-3.86v-17.55c0-3.39,2.74-6.13,6.13-6.13s6.13,2.74,6.13,6.13v29.68c0,2.21,1.44,4.16,3.55,4.81,6.32,1.93,13.04,2.97,20,2.97,2.26,0,4.5-.11,6.71-.32,2.58-.25,4.56-2.41,4.56-5v-28.98c0-3.48,2.91-6.29,6.42-6.12,3.3.15,5.83,2.99,5.83,6.29v22.35c0,3.73,3.93,6.17,7.27,4.49,12.54-6.32,22.88-16.39,29.53-28.73,5.21-9.66,8.17-20.72,8.17-32.46,0-.86-.01-1.72-.05-2.57-.02-.65-.06-1.29-.1-1.93-.12-1.84-.7-3.62-1.73-5.15-8.15-12.17-20.11-21.57-34.16-26.52,0,0-.02,0-.03,0-.38-.09-.75-.22-1.1-.38-2.06-.94-3.5-3.02-3.5-5.44,0-3.28,2.64-5.94,5.91-5.98h.07c.48,0,.95.06,1.39.17,6.35.77,12.43,2.42,18.11,4.81,18.22,7.66,29.68,18.36,35.85,37.3,14.25.71,31.49,1.07,46.16,1.07s31.91-.36,46.16-1.07c6.18-18.94,17.63-29.65,35.85-37.3,5.69-2.39,11.77-4.04,18.11-4.81.44-.11.91-.17,1.39-.17h.07c3.27.04,5.91,2.7,5.91,5.98,0,2.42-1.43,4.5-3.5,5.44-.35.16-.72.29-1.1.38,0,0-.02,0-.03,0-14.05,4.95-26,14.35-34.16,26.52-1.03,1.53-1.6,3.31-1.73,5.15-.04.64-.07,1.29-.1,1.93-.03.85-.05,1.71-.05,2.57,0,11.75,2.96,22.8,8.17,32.46,6.65,12.35,16.99,22.41,29.53,28.73,3.33,1.68,7.27-.76,7.27-4.49v-22.35c0-3.3,2.54-6.14,5.83-6.29,3.52-.17,6.42,2.64,6.42,6.12v28.98c0,2.6,1.97,4.75,4.56,5,2.2.21,4.44.32,6.71.32,6.95,0,13.67-1.04,20-2.97,2.11-.64,3.55-2.6,3.55-4.81v-29.68c0-3.39,2.74-6.13,6.13-6.13s6.13,2.74,6.13,6.13v17.55c0,4.26,4.98,6.6,8.24,3.86,5.13-4.31,9.62-9.37,13.3-14.99.36-.55.71-1.11,1.06-1.68,6.4-10.42,10.09-22.67,10.09-35.79,0-8.2-1.44-16.06-4.08-23.34-.14-.4-.29-.79-.44-1.18.81-.21,1.61-.43,2.41-.65,27.53-7.44,52.93-16.37,75.68-26.53,2.96-1.32,3.08-5.47.22-6.98l-34.13-18,57.34-10.21c3.73-.79,4.21-5.92.69-7.38l-37.93-11.96,40.03-22.36c3.16-1.82,2.3-6.59-1.3-7.19ZM630.15,476.44c-.07.19-.15.37-.23.56-6.29,15.06-21.17,25.64-38.51,25.64-3.13,0-6.17-.35-9.11-1h0c-4.6-1.02-8.91-2.81-12.8-5.21-1.68-1.04-5.99-4.41-6.65-4.8-6.33-3.7-13.69-5.82-21.55-5.82s-15.22,2.12-21.55,5.82c-.66.39-4.98,3.76-6.65,4.8-3.89,2.4-8.2,4.19-12.8,5.21h0c-2.93.65-5.98,1-9.11,1-17.34,0-32.22-10.58-38.51-25.64-.08-.19-.16-.37-.23-.56-.84-2.18-1.31-4.54-1.31-7.02,0-3.68,1.02-7.11,2.79-10.04,1.64-2.7,3.91-4.97,6.62-6.6.19-.12.39-.23.59-.34,1.4-.73,3.03-1.07,4.75-.9,3.88.39,7.04,3.49,7.5,7.36.24,2-.23,3.88-1.18,5.42h0c-.28.46-.6.89-.96,1.29-1.18,1.29-2.02,2.86-2.32,4.58-.06.31-.09.62-.09.89,0,1.84.59,3.53,1.59,4.92.66.92,1.56,1.64,2.58,2.14.18.08.36.17.53.25.52.25,1.05.48,1.58.71.24.1.48.2.73.3,3.03,1.2,6.25,2.06,9.59,2.52,1.88.27,3.81.4,5.76.4,8.96,0,17.25-2.82,24.05-7.63,0,0,0,0,0,0,.72-.59,1.47-1.16,2.23-1.7h0c4.45-3.15,9.56-5.44,15.08-6.62,2.81-.61,5.74-.93,8.73-.93s5.92.32,8.73.93c5.52,1.19,10.62,3.47,15.08,6.62h0c.77.54,1.51,1.11,2.23,1.7,0,0,0,0,0,0,6.8,4.81,15.1,7.63,24.05,7.63,1.96,0,3.88-.13,5.76-.4,3.34-.46,6.55-1.31,9.59-2.52.24-.1.49-.19.73-.3.53-.22,1.06-.46,1.58-.71.18-.08.35-.17.53-.25,1.02-.5,1.92-1.22,2.58-2.14,1-1.39,1.59-3.09,1.59-4.92,0-.27-.03-.57-.09-.89-.31-1.72-1.15-3.3-2.32-4.58-.36-.4-.68-.83-.96-1.28h0c-.95-1.55-1.42-3.43-1.18-5.43.46-3.87,3.62-6.97,7.5-7.36,1.72-.17,3.36.18,4.75.9.2.11.4.23.59.34,2.71,1.63,4.98,3.9,6.62,6.6,1.78,2.93,2.79,6.36,2.79,10.04,0,2.48-.46,4.84-1.31,7.02ZM459.28,420.1c0-8.75,7.09-15.84,15.84-15.84s15.84,7.09,15.84,15.84-7.09,15.84-15.84,15.84-15.84-7.09-15.84-15.84ZM522.42,442.84c0-5.44,8.45-9.85,18.88-9.85s18.88,4.41,18.88,9.85-8.45,9.85-18.88,9.85-18.88-4.41-18.88-9.85ZM591.63,420.1c0-8.75,7.09-15.84,15.84-15.84s15.84,7.09,15.84,15.84-7.09,15.84-15.84,15.84-15.84-7.09-15.84-15.84ZM716.4,400.44c-2.04-1.29-4.12-2.55-6.24-3.79h0c-.53-.31-1.07-.63-1.61-.93-.17-.1-.33-.19-.49-.28-7.24-4.11-14.95-7.96-23.09-11.51h0c-39.68-17.31-89.52-27.62-143.65-27.66-54.13.04-103.98,10.36-143.65,27.66h0c-8.14,3.55-15.85,7.39-23.09,11.51-.17.09-.33.18-.49.28-.54.3-1.08.62-1.61.93h0c-2.13,1.24-4.21,2.49-6.24,3.79-.15-.06-7.37,4.27-11.85,3.33-5.91-1.23-7.59-6.58-7.21-12.6,0-.15.02-.3.04-.45.15-1.62.62-3.15,1.36-4.52.22-.43,4.16-7.85,4.97-10.9.71-2.65,1.12-5.41,1.19-8.25,0-.32.01-.64.01-.95,0-2.93-.36-5.78-1.03-8.51-.86-3.52-2.25-6.85-4.07-9.91,0,0,0-.01-.01-.02-.57-.78-1.11-1.6-1.6-2.43-2.43-4.16-3.81-9-3.81-14.16,0-8.81,1.74-16.68,8.08-21.84,1.21-.99,2.55-1.79,3.98-2.43,2.43-1.09,4.96-2.15,7.57-3.2h0c4.8-1.92,9.88-3.76,15.22-5.52,17.26-5.67,37.26-10.44,59.28-14.07,30.98-5.12,65.95-8,102.98-8s72,2.88,102.98,8c22.02,3.64,42.02,8.41,59.28,14.07,5.34,1.76,10.42,3.6,15.22,5.52h0c2.61,1.05,5.13,2.11,7.57,3.2,1.42.64,2.77,1.44,3.98,2.43,6.34,5.16,8.08,13.03,8.08,21.84,0,5.16-1.39,10-3.81,14.16-.49.84-1.02,1.66-1.6,2.43,0,0,0,.01-.01.02-1.83,3.05-3.21,6.38-4.07,9.91-.67,2.73-1.03,5.58-1.03,8.51,0,.32,0,.64.01.95.07,2.85.48,5.61,1.19,8.25.81,3.05,2.02,5.94,3.56,8.63.12.21,1.11,1.7,1.41,2.27.73,1.37,1.66,2.9,1.82,4.52.01.15.03.3.04.45.38,6.02-1.76,11.37-7.67,12.6-4.48.93-11.7-3.39-11.85-3.33Z"/>
        <path class="cls-1" d="M760.33,235.89l-22.13,44.53c-19.67-11.37-47.24-20.89-80.07-27.65-4.99-1.03-7.28-6.85-4.32-11l32.26-45.24c5.05-7.08,8.95-14.9,11.56-23.19l14.52-46.01c1.04-2.93,5.25-2.74,6.02.28l13.9,61.28-7.31,16.75,22.32-16.33c2.23-1.46,5.14.33,4.86,2.97l-4.63,24.63-11.7,22-3.53,6.63,9.91-4.95,14.11-8.9c2.69-1.34,5.56,1.48,4.24,4.19Z"/>
      </g>
      <path class="cls-1" d="M846.71,739.58l-45.77-19.91c22.63-2.68,40.77-21.28,42.11-44.83l7.84-88.86c.89-15.65-5.83-29.97-16.96-39.35l-71.94,25.53c.23,2.61.35,5.24.35,7.9,0,27.48-12.68,52-32.5,68.03-15.02,12.15-34.14,19.42-54.96,19.42-44.17,0-80.69-32.75-86.61-75.29h-96.56c-5.92,42.54-42.44,75.29-86.61,75.29-20.82,0-39.94-7.27-54.96-19.42-19.82-16.03-32.49-40.55-32.49-68.03,0-2.66.12-5.29.35-7.9l-71.94-25.53c-11.12,9.38-17.85,23.7-16.96,39.35l7.84,88.86c1.34,23.55,19.47,42.15,42.11,44.83l-45.78,19.91c-6.71,2.92-10.68,9.93-9.74,17.2l3.24,24.81c.77,5.89,4.66,10.91,10.17,13.12l30.57,12.28-20.44,4.7c-8.1,2.37-12.42,11.16-9.37,19.03l8.73,22.39c1.57,4.04,4.89,7.16,9.02,8.48l51.56,16.92-20.26,7.06c-4.72,1.83-5.94,7.94-2.28,11.44l33.27,29.7c9.67,9.25,22.93,13.76,36.23,12.31l51.59-5.59c36.95,19.55,83.65,31.22,134.41,31.22s97.47-11.67,134.42-31.22l51.59,5.59c13.3,1.44,26.56-3.06,36.23-12.31l33.27-29.7c3.66-3.5,2.43-9.62-2.28-11.44l-20.26-7.07,51.56-16.92c4.13-1.32,7.45-4.44,9.02-8.48l8.72-22.39c3.06-7.86-1.27-16.66-9.36-19.03l-20.44-4.7,30.57-12.28c5.52-2.21,9.4-7.24,10.17-13.12l3.23-24.81c.95-7.26-3.03-14.27-9.74-17.2ZM541.3,779.53c18.55,0,33.59,8.24,33.59,18.4,0,.63-.06,1.25-.17,1.85-.44,2.43-2.6,4.14-5.07,4.13h-.04c-6.32,0-11.93,2.54-15.42,6.46-3.28,3.67-7.86,5.96-12.79,5.97h-.21c-4.93,0-9.51-2.29-12.79-5.97-3.5-3.92-9.1-6.46-15.43-6.46h-.03c-2.47,0-4.63-1.7-5.07-4.13-.11-.61-.17-1.23-.17-1.85,0-10.16,15.04-18.4,33.58-18.4ZM393.62,726.91c0-4.89,1.07-9.53,3-13.69l62.22,16.77c-1.54,16.61-15.52,29.61-32.53,29.61-18.05,0-32.69-14.63-32.69-32.69ZM638.92,861.41h0s-.03.02-.03.02c-.74.64-1.58,1.17-2.48,1.57l-23.04,14.55h0c-1.55.98-3.39,1.55-5.36,1.55s-3.8-.57-5.35-1.55h-.01s-54.91-24.6-54.91-24.6c-4.09-1.84-8.77-1.83-12.86,0l-55.92,25.15-.23.11c-1.26.57-2.66.89-4.13.89s-2.86-.31-4.12-.89c-.82-.37-1.59-.84-2.27-1.41h0s-23.31-14.5-23.31-14.5h0c-2.82-1.78-4.7-4.93-4.7-8.51,0-5.55,4.5-10.05,10.05-10.05,2.02,0,3.89.59,5.46,1.61l.03.02c.25.16.49.34.73.53l10.77,7.78c4.56,3.29,10.51,3.89,15.64,1.59l54.31-24.43h0c1.25-.57,2.65-.88,4.12-.88s2.86.31,4.12.88l54.31,24.42c5.12,2.31,11.09,1.7,15.64-1.6l11.12-8.04h0c1.65-1.19,3.68-1.89,5.87-1.89,5.55,0,10.05,4.5,10.05,10.05,0,3.05-1.36,5.78-3.5,7.61ZM653.7,759.6c-16.38,0-29.96-12.05-32.32-27.78l62.73-16.9c1.47,3.72,2.27,7.77,2.27,12,0,18.05-14.64,32.69-32.69,32.69Z"/>
    </g>
  </g>
</svg>