<?xml version="1.0" encoding="UTF-8"?>
<svg id="PROJECT_ICON" data-name="PROJECT ICON" xmlns="http://www.w3.org/2000/svg" xmlns:xlink="http://www.w3.org/1999/xlink" viewBox="0 0 1080 1080">
  <defs>
    <style>
      .cls-1 {
        fill: #939393;
      }

      .cls-2 {
        fill: #787878;
      }

      .cls-3 {
        fill: #444;
      }

      .cls-4 {
        fill: none;
      }

      .cls-5 {
        fill: #3c3c3c;
      }

      .cls-6 {
        fill: #c2c2c2;
      }

      .cls-7 {
        fill: #6b6b6b;
      }

      .cls-8 {
        fill: #9b9b9b;
      }

      .cls-9 {
        fill: #797979;
      }

      .cls-10 {
        fill: #bbb;
      }

      .cls-11 {
        fill: #616161;
      }

      .cls-12 {
        clip-path: url(#clippath);
      }

      .cls-13 {
        fill: #050505;
      }
    </style>
    <clipPath id="clippath">
      <path class="cls-4" d="M410.52,212.56c-36.79,7.57-67.69,18.25-89.73,30.98l-24.8-49.91c-1.47-3.03,1.74-6.2,4.75-4.7l15.81,9.97,11.1,5.55-3.95-7.43-13.12-24.66-5.19-27.6c-.32-2.96,2.95-4.96,5.44-3.33l25.01,18.3-8.19-18.78,15.58-68.68c.86-3.38,5.58-3.6,6.74-.31l16.27,51.56c2.93,9.29,7.3,18.05,12.96,25.99l36.15,50.7c3.32,4.65.75,11.18-4.85,12.33ZM881.7,435.45l-44.86,25.05,42.5,13.4c3.94,1.64,3.41,7.39-.78,8.27l-64.26,11.44,38.24,20.17c3.2,1.69,3.06,6.34-.25,7.82-25.49,11.39-53.96,21.39-84.81,29.73-.9.25-1.8.49-2.7.73.17.44.34.88.5,1.32,2.96,8.17,4.57,16.97,4.57,26.16,0,14.7-4.13,28.43-11.3,40.1-.39.64-.78,1.26-1.19,1.88-4.13,6.3-9.16,11.96-14.9,16.8-3.65,3.07-9.23.44-9.23-4.33v-19.66c0-3.8-3.08-6.87-6.87-6.87s-6.87,3.08-6.87,6.87v33.26c0,2.48-1.61,4.67-3.98,5.39-7.09,2.16-14.62,3.32-22.41,3.32-2.54,0-5.04-.12-7.51-.36-2.89-.28-5.11-2.7-5.11-5.61v-32.48c0-3.9-3.26-7.05-7.2-6.86-3.7.17-6.54,3.35-6.54,7.05v25.04c0,4.18-4.41,6.92-8.14,5.03-14.06-7.09-25.64-18.37-33.1-32.2-5.84-10.83-9.15-23.22-9.15-36.38,0-.97.02-1.92.05-2.88.03-.72.06-1.45.11-2.17.14-2.06.79-4.06,1.94-5.77,9.14-13.63,22.53-24.17,38.28-29.72.01,0,.02,0,.03-.01.43-.1.84-.24,1.24-.42,2.31-1.05,3.92-3.39,3.92-6.09,0-3.67-2.96-6.66-6.62-6.7h-.08c-.54,0-1.06.06-1.56.19-7.11.86-13.93,2.71-20.3,5.39-20.42,8.58-33.26,20.57-40.18,41.8-15.97.8-35.29,1.2-51.73,1.2s-35.76-.4-51.73-1.2c-6.93-21.23-19.76-33.23-40.18-41.8-6.37-2.68-13.19-4.52-20.3-5.39-.5-.12-1.02-.19-1.56-.19h-.08c-3.66.04-6.62,3.02-6.62,6.7,0,2.71,1.61,5.04,3.92,6.09.39.18.81.33,1.24.42.01,0,.02,0,.03.01,15.75,5.55,29.14,16.08,38.28,29.72,1.15,1.71,1.8,3.71,1.94,5.77.05.72.08,1.44.11,2.17.04.96.05,1.91.05,2.88,0,13.16-3.31,25.55-9.15,36.38-7.46,13.83-19.04,25.12-33.1,32.2-3.74,1.89-8.14-.85-8.14-5.03v-25.04c0-3.7-2.84-6.88-6.54-7.05-3.94-.19-7.2,2.96-7.2,6.86v32.48c0,2.91-2.21,5.33-5.11,5.61-2.47.24-4.98.36-7.51.36-7.79,0-15.32-1.16-22.41-3.32-2.37-.72-3.98-2.91-3.98-5.39v-33.26c0-3.8-3.08-6.87-6.87-6.87s-6.87,3.08-6.87,6.87v19.66c0,4.77-5.58,7.4-9.23,4.33-5.75-4.83-10.78-10.5-14.9-16.8-.41-.62-.8-1.25-1.19-1.88-7.17-11.67-11.3-25.41-11.3-40.1,0-9.19,1.61-18,4.57-26.16.16-.44.33-.88.5-1.32-.9-.24-1.8-.48-2.7-.73-30.85-8.34-59.31-18.34-84.81-29.73-3.31-1.48-3.45-6.13-.25-7.82l38.24-20.17-64.26-11.44c-4.18-.89-4.71-6.63-.78-8.27l42.5-13.4-44.86-25.05c-3.54-2.04-2.57-7.39,1.46-8.06l93.19-8.64c1.49-.25,2.95-.63,4.36-1.13,2.04-.72,3.99-1.7,5.81-2.91l6.16-4.14c5.21-3.5,9.3-8.42,11.79-14.18,0,0,1.65-4.39,1.65-4.49-8.18-2.1-14.46-8.89-15.8-17.34-.18-1.11-.27-2.24-.27-3.39,0-3.45.82-6.71,2.27-9.6.06-.11,1.09-1.79,1.5-2.54.84-1.5,1.59-3.05,2.24-4.66.12-.29.57-1.47.67-1.77.11-.3.68-2.11.85-2.72.08-.3.78-3.42.83-3.74.17-.95.52-4.61.53-4.88.03-.64.05-1.28.05-1.93,0-1.71-.11-3.4-.32-5.06-.75-5.95-2.82-11.52-5.9-16.42-.61-.96-1.26-1.9-1.94-2.81-2.42-3.87-4.14-8.21-5-12.86-.39-2.17-.6-4.39-.6-6.67,0-2.01.16-3.98.47-5.9,1.55-9.61,6.8-17.98,14.26-23.59,2.91-1.72,5.99-3.41,9.23-5.06,25.45-12.98,60.47-23.51,101.51-30.36,14.46-17.04,58.8-29.44,111.26-29.44s96.8,12.4,111.26,29.44c41.05,6.85,76.06,17.39,101.51,30.36,3.24,1.65,6.32,3.34,9.23,5.06,7.46,5.61,12.71,13.97,14.26,23.59.31,1.92.47,3.89.47,5.9,0,2.28-.21,4.51-.6,6.67-.85,4.65-2.57,8.99-5,12.86-.69.91-1.33,1.85-1.94,2.81-3.09,4.9-5.15,10.47-5.9,16.42-.21,1.66-.32,3.35-.32,5.06,0,.65.02,1.29.05,1.93.01.27.37,3.93.53,4.88.05.32.3,1.58.37,1.89.07.31.37,1.55.45,1.85.17.61.35,1.22.54,1.82.09.3.2.6.3.9.1.3.55,1.48.67,1.77.65,1.61,1.4,3.16,2.24,4.66.42.75,1.45,2.42,1.5,2.54,1.45,2.89,2.27,6.15,2.27,9.6,0,1.15-.09,2.28-.27,3.39-1.34,8.45-7.62,15.25-15.8,17.34,0,.1,1.65,4.49,1.65,4.49,2.49,5.76,6.58,10.68,11.79,14.18l6.16,4.14c1.81,1.21,3.77,2.2,5.81,2.91,1.42.51,2.87.88,4.36,1.13l93.19,8.64c4.03.67,5,6.03,1.46,8.06ZM642.49,455.36c0-4.12-1.14-7.97-3.13-11.25-1.83-3.03-4.38-5.57-7.42-7.4-.22-.13-.44-.26-.66-.38-1.57-.82-3.4-1.2-5.33-1.01-4.35.43-7.89,3.91-8.4,8.25-.26,2.24.26,4.35,1.32,6.08h0c.32.52.68,1,1.08,1.44,1.32,1.44,2.26,3.21,2.6,5.14.07.35.1.69.1.99,0,2.06-.66,3.96-1.78,5.51-.74,1.03-1.75,1.83-2.89,2.39-.2.09-.4.19-.59.28-.58.28-1.18.54-1.77.79-.27.11-.54.22-.82.33-3.4,1.35-7,2.31-10.74,2.82-2.11.3-4.27.45-6.46.45-10.04,0-19.33-3.16-26.96-8.55,0,0,0,0-.01,0-.81-.66-1.64-1.3-2.5-1.9h0c-4.99-3.53-10.71-6.09-16.89-7.42-3.15-.68-6.43-1.04-9.79-1.04s-6.64.36-9.79,1.04c-6.18,1.33-11.9,3.89-16.89,7.42h0c-.86.6-1.69,1.24-2.5,1.9,0,0,0,0-.01,0-7.62,5.39-16.92,8.55-26.96,8.55-2.19,0-4.35-.15-6.46-.45-3.74-.51-7.34-1.47-10.74-2.82-.27-.11-.55-.22-.82-.33-.59-.25-1.19-.51-1.77-.79-.2-.09-.39-.19-.59-.28-1.14-.56-2.15-1.36-2.89-2.39-1.12-1.56-1.78-3.46-1.78-5.51,0-.3.04-.64.1-.99.35-1.93,1.29-3.7,2.6-5.14.4-.44.76-.93,1.08-1.44h0c1.06-1.74,1.59-3.85,1.32-6.08-.52-4.34-4.06-7.81-8.4-8.25-1.93-.19-3.76.2-5.33,1.01-.22.12-.44.25-.66.38-3.03,1.82-5.58,4.37-7.42,7.4-1.99,3.28-3.13,7.13-3.13,11.25,0,2.78.52,5.43,1.46,7.87.08.21.17.42.26.63,7.05,16.87,23.72,28.73,43.16,28.73,3.51,0,6.92-.39,10.21-1.12h0c5.15-1.15,9.98-3.15,14.34-5.84,1.88-1.16,6.71-4.94,7.46-5.37,7.09-4.14,15.34-6.52,24.15-6.52s17.05,2.37,24.15,6.52c.74.43,5.58,4.21,7.46,5.37,4.36,2.69,9.19,4.69,14.34,5.84h0c3.29.73,6.7,1.12,10.21,1.12,19.44,0,36.1-11.86,43.16-28.73.09-.21.18-.42.26-.63.95-2.44,1.46-5.09,1.46-7.87ZM467.29,417.84c9.8,0,17.75-7.95,17.75-17.75s-7.95-17.75-17.75-17.75-17.75,7.95-17.75,17.75,7.95,17.75,17.75,17.75ZM541.46,436.61c11.69,0,21.16-4.94,21.16-11.04s-9.47-11.04-21.16-11.04-21.16,4.94-21.16,11.04,9.47,11.04,21.16,11.04ZM615.62,417.84c9.8,0,17.75-7.95,17.75-17.75s-7.95-17.75-17.75-17.75-17.75,7.95-17.75,17.75,7.95,17.75,17.75,17.75ZM750.97,381.8c6.62-1.37,9.02-7.37,8.59-14.12-.01-.17-.03-.34-.04-.51-.17-1.81-1.21-3.53-2.04-5.06-.34-.65-1.45-2.31-1.58-2.55-1.73-3.01-3.09-6.25-3.99-9.67-.79-2.97-1.25-6.06-1.33-9.25-.01-.36-.02-.71-.02-1.07,0-3.28.4-6.48,1.15-9.54.96-3.95,2.52-7.68,4.56-11.1,0-.01.01-.02.02-.03.64-.87,1.24-1.79,1.79-2.73,2.72-4.66,4.27-10.08,4.27-15.87,0-9.88-1.95-18.69-9.06-24.48-1.35-1.11-2.86-2.01-4.45-2.72-2.73-1.22-5.56-2.41-8.48-3.58h0c-5.38-2.16-11.07-4.22-17.06-6.19-19.34-6.35-41.75-11.7-66.43-15.77-34.71-5.74-73.91-8.97-115.41-8.97s-80.69,3.23-115.41,8.97c-24.68,4.08-47.09,9.42-66.43,15.77-5.99,1.97-11.68,4.03-17.06,6.18h0c-2.93,1.17-5.75,2.37-8.48,3.59-1.6.71-3.1,1.62-4.45,2.72-7.11,5.78-9.06,14.6-9.06,24.48,0,5.78,1.56,11.2,4.27,15.87.55.94,1.15,1.86,1.79,2.73,0,.01.01.02.02.03,2.05,3.42,3.6,7.15,4.56,11.1.75,3.06,1.15,6.26,1.15,9.54,0,.36,0,.71-.02,1.07-.08,3.19-.54,6.28-1.33,9.25-.9,3.42-5.32,11.73-5.57,12.22-.82,1.53-1.35,3.25-1.52,5.06-.02.17-.03.34-.04.51-.42,6.75,1.46,12.74,8.08,14.12,5.02,1.04,13.11-3.8,13.28-3.74,2.28-1.45,4.62-2.86,7-4.24h0c.6-.35,1.2-.7,1.81-1.04.19-.11.37-.21.55-.32,8.11-4.61,16.75-8.92,25.87-12.89h0c44.47-19.4,100.32-30.96,160.99-31,60.67.05,116.53,11.61,160.99,31h0c9.12,3.97,17.76,8.28,25.87,12.89.19.1.37.21.55.32.6.34,1.21.69,1.81,1.04h0c2.38,1.39,4.71,2.8,7,4.24.17-.06,8.26,4.78,13.28,3.74ZM782.17,188.94l-15.81,9.97-11.1,5.55,3.95-7.43,13.12-24.66,5.19-27.6c.32-2.96-2.95-4.96-5.44-3.33l-25.01,18.3,8.19-18.78-15.58-68.68c-.86-3.38-5.58-3.6-6.74-.31l-16.27,51.56c-2.93,9.29-7.3,18.05-12.96,25.99l-36.15,50.7c-3.32,4.65-.75,11.18,4.85,12.33,36.79,7.57,67.69,18.25,89.73,30.98l24.8-49.91c1.47-3.03-1.74-6.2-4.75-4.7ZM894.64,777.39l-3.62,27.81c-.86,6.6-5.22,12.23-11.4,14.71l-34.26,13.76,22.91,5.27c9.07,2.66,13.92,12.51,10.49,21.32l-9.77,25.1c-1.77,4.53-5.48,8.03-10.11,9.5l-57.78,18.96,22.7,7.92c5.29,2.05,6.66,8.9,2.56,12.82l-37.29,33.28c-10.83,10.37-25.69,15.42-40.6,13.8l-57.82-6.27c-41.41,21.91-93.74,34.99-150.64,34.99s-109.22-13.08-150.63-34.99l-57.82,6.27c-14.9,1.62-29.76-3.43-40.6-13.8l-37.28-33.28c-4.1-3.92-2.73-10.78,2.56-12.82l22.7-7.92-57.78-18.97c-4.63-1.48-8.35-4.97-10.11-9.5l-9.78-25.1c-3.43-8.81,1.42-18.67,10.5-21.32l22.91-5.27-34.26-13.76c-6.18-2.48-10.54-8.11-11.4-14.71l-3.63-27.81c-1.06-8.14,3.39-16,10.92-19.27l51.3-22.32c-25.37-3.01-45.69-23.85-47.2-50.24l-8.79-99.59c-1-17.54,6.54-33.59,19-44.1l80.62,28.61c-.26,2.92-.39,5.87-.39,8.85,0,30.79,14.2,58.27,36.41,76.24,16.83,13.61,38.25,21.76,61.59,21.76,49.51,0,90.44-36.7,97.07-84.38h108.22c6.63,47.68,47.56,84.38,97.06,84.38,23.33,0,44.76-8.15,61.59-21.76,22.21-17.96,36.42-45.44,36.42-76.24,0-2.98-.13-5.93-.39-8.85l80.62-28.61c12.47,10.52,20,26.56,19,44.1l-8.79,99.59c-1.5,26.39-21.83,47.24-47.2,50.24l51.3,22.32c7.52,3.28,11.98,11.13,10.92,19.27ZM503.82,823.52c0,.7.06,1.4.19,2.08.5,2.72,2.91,4.64,5.68,4.63h.04c7.09,0,13.37,2.84,17.29,7.24,3.67,4.12,8.81,6.68,14.33,6.69h.23c5.52-.01,10.66-2.57,14.33-6.69,3.92-4.39,10.2-7.24,17.28-7.24h.05c2.77,0,5.18-1.91,5.68-4.63.12-.68.19-1.37.19-2.08,0-11.39-16.85-20.63-37.64-20.63s-37.63,9.24-37.63,20.63ZM412.58,780.56c19.07,0,34.73-14.57,36.46-33.18l-69.73-18.79c-2.16,4.67-3.36,9.87-3.36,15.34,0,20.23,16.4,36.63,36.63,36.63ZM654.78,886.13c0-6.22-5.04-11.26-11.27-11.26-2.45,0-4.73.79-6.58,2.12h0s-12.46,9-12.46,9c-5.1,3.69-11.79,4.37-17.53,1.79l-60.86-27.37c-1.41-.64-2.97-.99-4.62-.99s-3.21.35-4.62.99h-.01l-60.86,27.38c-5.74,2.58-12.42,1.9-17.53-1.78l-12.07-8.72c-.26-.21-.53-.41-.82-.59l-.04-.03c-1.76-1.14-3.86-1.8-6.12-1.8-6.22,0-11.27,5.04-11.27,11.26,0,4.02,2.1,7.54,5.27,9.53h0s26.12,16.25,26.12,16.25h.01c.77.65,1.63,1.18,2.55,1.59,1.41.64,2.97.99,4.62.99s3.21-.36,4.63-.99l.26-.12,62.67-28.19c4.58-2.06,9.83-2.07,14.41-.01l61.54,27.57h.02c1.74,1.11,3.79,1.74,6,1.74s4.27-.64,6.01-1.74h0l25.82-16.31c1.01-.45,1.95-1.04,2.78-1.76l.03-.02h0c2.4-2.06,3.92-5.12,3.92-8.54ZM704.05,743.93c0-4.74-.9-9.28-2.55-13.45l-70.3,18.94c2.65,17.63,17.86,31.14,36.22,31.14,20.23,0,36.63-16.4,36.63-36.63Z"/>
    </clipPath>
  </defs>
  <g id="ICON_-_Grayscale_2_Value_Color" data-name="ICON - Grayscale 2_Value Color">
    <g id="ICON_-_Grayscale_2_Value_Color-2" data-name="ICON - Grayscale 2_Value Color">
      <path class="cls-1" d="M479.16,377.73c-5.14-.85-8.35-1.4-13.46-.03-4.08,1.09-8.23,3.49-11.23,6.49-6.22,6.22-8.73,15.52-6.39,24.01,2.86,10.39,12.76,17.9,23.5,18.02,8.73.1,16.93-4.6,21.27-12.18,8.82-15.4-1.7-33.15-17.6-37.44-9.54-2.57-19.65-1.02-28.21,3.78-12.49,7-15.54,26.2-4.65,36.12,6.6,6.02,15.96,9.36,24.85,6.59,8.99-2.81,14.87-9.06,17.92-17.84,1.88-5.42.5-12.9-2.32-17.72-2.79-4.77-8.26-9.32-13.75-10.57-5.89-1.34-12.5-1.05-17.72,2.32-5.23,3.37-8.52,7.85-10.57,13.75l-.2.57c.77-1.83,1.55-3.66,2.32-5.49l-.35.48c1.2-1.55,2.4-3.1,3.6-4.65l-.47.38c1.55-1.2,3.1-2.4,4.65-3.6l-.55.27c1.83-.77,3.66-1.55,5.49-2.32l-.6.15,6.11-.82-.61.02,6.11.82-.59-.11,5.49,2.32-.53-.25,4.65,3.6-.45-.41c-1.55,12.04-3.1,24.08-4.65,36.12.52-.31,1.05-.59,1.61-.83-1.83.77-3.66,1.55-5.49,2.32,1.15-.45,2.27-.76,3.48-.96l-6.11.82c1.23-.13,2.39-.14,3.62-.02l-6.11-.82c1.22.2,2.34.5,3.49.94-1.83-.77-3.66-1.55-5.49-2.32l.62.34c-1.55-1.2-3.1-2.4-4.65-3.6.41.27.76.6,1.07.99l-3.6-4.65.35.58c-.77-1.83-1.55-3.66-2.32-5.49l.17.59-.82-6.11-.06.57c1.05-3.87,2.09-7.74,3.14-11.61l-.34.51c2.75-2.75,5.5-5.5,8.25-8.25l-.5.28c3.87-1.05,7.74-2.09,11.61-3.14h-.57c2.04.28,4.08.55,6.11.83l-.55-.22,10.15,5.91-.47-.39c1.2,1.55,2.4,3.1,3.6,4.65l-.3-.52c1.05,3.87,2.09,7.74,3.14,11.61l-.07-.59-.82,6.11.18-.57c-.77,1.83-1.55,3.66-2.32,5.49l.36-.47c-2.75,2.75-5.5,5.5-8.25,8.25l.5-.35c-1.83.77-3.66,1.55-5.49,2.32l.58-.22-6.11.82.62-.07-6.11-.82.61.1c6.28,1.03,12.03,1.01,17.72-2.32,4.77-2.79,9.32-8.26,10.57-13.75,1.34-5.89,1.05-12.5-2.32-17.72-3.05-4.73-7.95-9.62-13.75-10.57h0Z"/>
      <path class="cls-1" d="M613.8,371.44c-5.77,2.28-11.22,4.82-15.37,9.63-5.34,6.18-8.62,13.06-9.17,21.28-.37,5.61,1.64,11.15,5.02,15.52,3.66,4.74,7.87,7.29,13.5,9.31,5.82,2.08,12.53,1.94,18.5.64,16.07-3.48,29.32-20.24,22.38-36.7-6.28-14.87-24.73-18.96-39.04-14.07-5.69,1.94-10.64,5.27-13.75,10.57-2.88,4.93-4.11,12.2-2.32,17.72,3.65,11.27,16.1,20.23,28.29,16.06,1.29-.44,2.56-.75,3.91-.96l-6.11.82c1.36-.13,2.66-.13,4.02-.02l-6.11-.82c.9.13,1.75.27,2.61.53l-5.49-2.32.59.28c-1.55-1.2-3.1-2.4-4.65-3.6l.48.39-3.6-4.65.3.54c-1.05-3.87-2.09-7.74-3.14-11.61v.76c1.05-3.87,2.1-7.74,3.14-11.61l-.32.72c1.2-1.55,2.4-3.1,3.6-4.65-.54.69-1.08,1.23-1.75,1.8,1.55-1.2,3.1-2.4,4.65-3.6-.94.69-1.88,1.22-2.94,1.69l5.49-2.32c-.83.29-1.6.51-2.46.69l6.11-.82c-1.15.15-2.24.19-3.4.09l6.11.82c-1.15-.18-2.19-.46-3.27-.9,1.83.77,3.66,1.55,5.49,2.32l-.66-.36c1.55,1.2,3.1,2.4,4.65,3.6l-.5-.54,5.91,10.15-.18-.77.82,6.11.1-.81-.82,6.11c.22-.87.47-1.64.82-2.46-.77,1.83-1.55,3.66-2.32,5.49.4-.79.83-1.49,1.34-2.22-1.2,1.55-2.4,3.1-3.6,4.65.75-.91,1.53-1.69,2.45-2.43l-4.65,3.6c.73-.5,1.44-.91,2.24-1.3-1.83.77-3.66,1.55-5.49,2.32l.81-.32c5.76-2.28,10.5-5.03,13.75-10.57,2.88-4.93,4.11-12.2,2.32-17.72-1.8-5.57-5.25-10.93-10.57-13.75-5.13-2.71-12.08-4.55-17.72-2.32h0Z"/>
      <path class="cls-6" d="M459.4,734.86c-16.04-5.24-32.39-9.51-48.97-12.67-8.96-1.71-18.81-4.14-27.93-4.33-15.12-.33-27.39,11.33-27.18,26.74.26,19,17.05,35.58,33.39,43.14,8.69,4.02,18.06,6.54,27.72,5.89,11.92-.8,21.33-5.08,30.63-12.37,8.89-6.97,7.85-23.2,0-30.41-9.43-8.66-20.92-7.44-30.41,0,1.97-1.54,2.13-1.98-.1-.41-2.02,1.42,3.36-.83.92-.4-.52.09-3.24,1.35-3.71.95.21.18,4.66-.21,1.12-.26-1.28-.02-2.59-.09-3.86-.09-2.55,0,4.82,1.34.39-.09-1.03-.33-2.08-.61-3.11-.92-3.79-1.13,1.96,1.31-.07-.06-1.18-.8-5.89-2.39-6.22-3.84.59.45,1.18.9,1.77,1.35-.63-.52-1.25-1.06-1.85-1.61-.81-.73-1.59-1.49-2.36-2.26-.71-.72-2.39-1.91-2.7-2.92.34,1.12,1.74,3.06.64.56-1.58-3.55.48,1.58.61,2.36,1.04,4.33-1.52,7.51-7.7,9.53-1.99,6.39-5.3,9.02-9.91,7.87,11.04.77,22.41,3.67,33.17,6.15,11.57,2.67,23.01,5.89,34.3,9.58,10.7,3.49,23.95-4.06,26.45-15.02,2.69-11.81-3.56-22.71-15.02-26.45h0Z"/>
      <path class="cls-6" d="M680.54,718.31c-14.62,2.94-28.97,8.5-41.79,16.11-8.54,5.07-17.51,11.03-20.38,21.12-3.62,12.75,3.24,24.86,14.2,31.26,16.21,9.46,35.8,11.5,52.66,2.67,12.69-6.64,21.43-19.12,28.91-30.9,6.04-9.51,2.3-24.13-7.71-29.42-10.62-5.61-22.97-2.44-29.42,7.71-1.97,3.11-5.13,6.38-6.58,9.71.48-1.11,2.47-2.97.61-.9-.65.72-1.27,1.47-1.94,2.18-1.06,1.13-3.5,2.61-4.15,3.94.44-.9,3.52-2.33.97-.86-.8.46-1.6.93-2.39,1.4-2.73,1.61.6-.75,1.32-.52-.15-.05-2.65.66-2.7.75.2-.39,4.56-.55.75-.2-2.53.23-1.23.61.39.33-.93.16-2.6-.54-3.51-.79-.53-.14-5.27-1.73-2.56-.73,2.37.87-1.13-.56-1.56-.79-1.09-.56-2.61-2.19-.86-.18,4.08,2.73,4,7.2-.23,13.42-4.38,11.04-4.58,15.06-.62,12.07.99-.49,1.92-1.3,2.85-1.9,3.84-2.48,7.83-4.72,11.94-6.72,1.03-.5,2.08-.94,3.1-1.45,2.78-1.39-3.33,1.21-.4.16,2.15-.77,4.27-1.62,6.44-2.34,4.62-1.52,9.32-2.72,14.08-3.67,11.05-2.22,18.42-15.94,15.02-26.45-3.79-11.73-14.61-17.39-26.45-15.02h0Z"/>
      <g>
        <path class="cls-13" d="M577.28,847.55c10.42.91,19.92-8.53,21.13-18.92s-4.49-20.72-12.64-27.28c-8.15-6.56-18.45-9.86-28.7-11.95-13.34-2.71-27.52-3.53-40.28,1.22-12.76,4.75-23.73,16.02-24.97,29.58-.58,6.36.93,12.92-.7,19.09-3.78,14.34-21.68,19.28-36.51,19.09-14.83-.19-31.15-2.56-43.22,6.07-10.24,7.32-14.27,22.17-9.14,33.67,5.28,11.84,17.95,18.36,30.03,23.08,67.83,26.5,143.64,23.99,215.44,11.88,7.1-1.2,14.38-2.56,20.48-6.37,14.02-8.76,17.7-28.93,11.19-44.12-6.51-15.19-20.91-25.74-36.18-32.05-21.86-9.04-46.67-10.73-69.56-4.75"/>
        <path class="cls-13" d="M577.28,860.55c15.3.68,28.82-10.78,32.98-25.13,4.38-15.14-2.57-32.14-14.09-42.26-11.62-10.2-26.71-15.11-41.78-17.39-16.41-2.48-33.04-2.15-48.19,5.37-12.45,6.18-23.29,18.26-26.35,32.03-.83,3.72-1.2,7.58-1.16,11.39.04,3.4.62,7.28.08,10.43-.12.7-.34,1.38-.54,2.05.07-.23.82-1.61.12-.29-.3.56-1.9,2.87-1.29,2.16,1.03-1.2-2.21,2.03-1.05,1.03.52-.45-2.01,1.32-2.74,1.73-.5.28-3.27,1.53-1.5.82-1.21.48-2.46.88-3.71,1.23-1.49.43-2.99.75-4.51,1.06-.65.13-1.31.25-1.96.34,1.42-.21.26-.03-.5.01-6.22.36-12.39.04-18.62-.12-15.11-.4-30.7,1.39-42.38,11.92-10.74,9.68-14.76,24.96-12.15,38.88,2.6,13.9,13.85,24.64,25.79,31.16,12.86,7.02,27.44,11.64,41.52,15.56,15.25,4.24,30.79,7.1,46.47,9.14,30.51,3.98,61.41,3.93,92.03,1.35,15.93-1.34,31.81-3.37,47.61-5.82,14.62-2.27,30.29-4.28,41.15-15.44,20.59-21.15,14.62-54.73-4.86-74.19-21.02-21-53.96-29.84-83.01-28.11-8.23.49-16.45,1.77-24.44,3.79-16.21,4.09-9.34,29.18,6.91,25.07,22.9-5.78,48.52-3.43,69.07,8.03,9.26,5.16,15.76,11.07,20.71,20.08,1.24,2.26,2.47,7.83,2.56,9.91.05,1.13.06,2.26,0,3.38,0,.1-.56,4.37-.11,1.9-.16.88-.34,1.75-.56,2.62-.12.48-1.65,4.96-.87,3.15-.43,1.01-1.02,1.93-1.52,2.9-.21.41-1.75,2.74-.55,1.13-.76,1.04-1.73,1.98-2.66,2.87-1.83,1.73-.93.81-.44.45-4.79,3.51-10.98,4.49-16.85,5.52-12.49,2.19-25.07,3.97-37.68,5.35-25.83,2.83-51.88,4.02-77.84,2.66-25.77-1.35-51.3-5.46-75.97-13.09-11.51-3.56-21.73-6.75-31.33-12.88-3.33-2.13-6.16-5.02-8.32-8.2-.08-.12-1.18-2.22-.5-.68-.54-1.21-.85-2.57-1.13-3.86.46,2.07-.07-.6-.09-1.19-.02-.52.28-4.73-.05-2.56.2-1.34.62-2.62.97-3.92.07-.25.92-2.26.18-.64.55-1.21,1.24-2.41,1.99-3.5-1.05,1.53.57-.68.9-1.02.3-.31,2.36-2.22.91-1.05,1.18-.94,2.65-1.78,4.02-2.41,1.01-.47,5.04-1.59,7.17-1.92.62-.09,4.33-.33,6.03-.38,2.71-.07,5.42-.01,8.12.06,5.93.17,11.88.63,17.81.1,11.61-1.03,22.93-4.16,32-11.78,10.15-8.54,12-20.47,11.64-33.04-.3-10.3,4.01-17.59,14.59-22.72,9.92-4.81,24.89-3.78,36.72-1.13,11.14,2.5,23.6,6.78,28.33,17.65,1.61,3.69,1.62,7.43.3,9.73.02-.03-2.46,3.38-1.13,1.84-.09.11-3.03,2.64-1.46,1.52.03-.02-3.68,2.32-1.67,1.04-1.56.34-1.71.45-.44.32-.9.07-1.8.07-2.69,0-7.02-.31-13,6.2-13,13,0,7.3,5.96,12.69,13,13h0Z"/>
      </g>
      <path class="cls-13" d="M558.35,407.15c-8.82-1.05-17.66-1.61-26.55-1.67-12.03-.09-23.55,10.64-23,23,.56,12.54,10.1,22.9,23,23,8.89.07,17.73.62,26.55,1.67,5.45.65,12.56-3.04,16.26-6.74,3.99-3.99,6.99-10.53,6.74-16.26-.61-13.68-10.15-21.47-23-23h0Z"/>
      <path class="cls-13" d="M606.46,450.91c-.01,2.22-.14,4.42-.18,6.64-.24,2.61-.17,2.21.22-1.2-.2,1.07-.46,2.12-.79,3.16,1.41-2.95,1.52-3.3.34-1.05l-.75,1.15c2.27-2.81,2.57-3.35.91-1.62,2.95-2.13,3.42-2.53,1.41-1.19-5.73,2.7,3.17-.47-.81.36-.67.19-1.35.35-2.04.48-1.78.35-.91.24,2.63-.31-.36-.2-5.28-.19-5.63.01,3.93.61,4.46.66,1.59.14-1.16-.25-2.31-.54-3.46-.87-.77-.22-4.58-1.07-5.06-1.73,2.73,1.19,2.92,1.26.55.21-1.09-.5-2.17-1.02-3.25-1.54-3.78-1.83-7.49-3.81-11.3-5.58-10.76-5-21.93-9.19-33.99-9.1-5.39.04-11.04.86-16.17,2.59-5.51,1.85-10.6,5.16-16.14,6.82.81-.35,1.63-.7,2.44-1.05-1.13.44-2.27.85-3.42,1.23-2.3.76-4.65,1.38-7.01,1.93-4.14.96-8.36,1.7-12.57,2.24,6.2-.79-1.96.07-3.11.14-2.47.14-4.91,0-7.38.04-4.71.1,3.74,1.31-1.15-.1-1.2-.25-2.38-.56-3.55-.92-2.31-.82-1.8-.55,1.54.8-.22-.57-3.65-2.06-4.34-2.44-1.43-.97-.82-.48,1.82,1.47-.72-.61-1.4-1.25-2.05-1.93-1.61-1.82-1.29-1.35.95,1.43-.52-.76-1-1.54-1.43-2.36,1.31,3.43,1.56,3.99.76,1.67-.27-.89-.47-1.8-.61-2.72-2.22-11.85-17.16-19.67-28.29-16.06-12.67,4.1-18.44,15.59-16.06,28.29,3.55,18.92,21.55,33.81,39.94,37.29,11.44,2.16,21.92,1.56,33.35,0,8.12-1.11,16.28-2.43,23.99-5.32,3.17-1.19,6.29-2.55,9.4-3.91.86-.38,4.11-1.25,4.53-2.03-.07.12-4.12,1.55-1.69.71,1.03-.36,2.05-.78,3.09-1.11.78-.25,1.58-.44,2.37-.68,3.24-.96-.45-.45-.97.04.53-.5,7.48.21,4-.05-3.07-.23,2.1.63,3.06.9,1.36.39,4.91.97,5.99,2.06-.06-.06-3.75-1.75-1.33-.53,1.34.67,2.72,1.27,4.06,1.93,8.47,4.16,16.91,8.67,25.96,11.46,9.69,2.99,19.58,3.32,29.49,1.44,11.47-2.19,21.03-9,27.88-18.23,6.97-9.4,8.18-21.66,8.26-33,.08-12.03-10.64-23.55-23-23-12.53.56-22.91,10.1-23,23h0Z"/>
      <g>
        <path class="cls-5" d="M436.85,261.41c-30.63,4.54-61.18,9.61-91.64,15.21-4.5.83-9.67,2.17-11.55,6.34-1.6,3.55-.09,7.65,1.25,11.31,7.77,21.2,9.75,44.5,5.67,66.71-.51,2.77-.8,6.29,1.61,7.74,1.44.87,3.27.56,4.92.22,51.51-10.59,103.04-21.84,155.4-26.69,52.36-4.85,105.94-3.13,156.35,11.85,24.15,7.17,47.4,17.33,71.9,23.16,5.2,1.24,11.6,1.91,15.03-2.19,2.73-3.26,2.22-8.04,1.74-12.26-2.08-18.27-9.79-34.72-5.24-52.54,1.17-4.57,11.5-11.79,9.45-16.04-1.9-3.95-6.2-6.07-10.23-7.79-42.16-17.99-88.19-24.41-133.6-30.66-59.16-8.14-121.99-5.7-180.99,3.54"/>
        <path class="cls-5" d="M430.73,239.24c-18.9,2.81-37.77,5.8-56.61,9.01-9.42,1.6-18.83,3.26-28.23,4.96-10.22,1.85-20.64,4.06-27.85,12.33-5.29,6.08-7.95,13.33-8.04,21.41-.07,6.07,2.06,11.32,3.92,16.9,1.35,4.05,2.49,8.17,3.43,12.34.47,2.08.88,4.18,1.24,6.29.11.62.62,2.12.44,2.71-.35-2.79-.43-3.32-.23-1.58.07.61.14,1.21.19,1.82.88,8.85.71,17.66-.12,26.5-.05.54-.18,3.58-.05.57.13-3.2-.15.64-.29,1.47-.52,3.14-1.3,6.33-1.31,9.51,0,7.7,2.42,15.78,8.24,21.14,6.55,6.04,14.75,8.31,23.42,7.15,5.31-.71,10.53-1.92,15.77-3,8.91-1.84,17.81-3.69,26.72-5.5,18.46-3.75,36.94-7.37,55.51-10.52,9.28-1.58,18.57-3.04,27.89-4.34.96-.13,1.93-.29,2.89-.4-4.86.56-1.34.18-.33.05,2.25-.28,4.51-.57,6.76-.84,4.83-.58,9.67-1.11,14.51-1.59,17.83-1.76,35.74-2.77,53.66-2.79,9.09,0,18.18.24,27.25.79,4.37.26,8.74.59,13.1,1,2.18.2,4.36.42,6.53.66.93.1,1.86.21,2.8.32.09.01,5.95.82,2.52.29-2.96-.46.18.02.66.09,1.24.18,2.47.36,3.71.55,2.16.33,4.32.68,6.47,1.05,4.62.8,9.22,1.68,13.79,2.67,8.87,1.91,17.66,4.19,26.33,6.85,17.17,5.26,33.88,11.9,51.01,17.27,20.05,6.29,48.6,14.05,60.55-10.07,5.67-11.45,3.69-23.65,1.42-35.72-.78-4.11-1.72-8.19-2.61-12.28-.44-2.01-.86-4.03-1.24-6.05-.16-.86-.27-1.73-.46-2.59-.68-3.18.41,5.68.02.08-.14-2.02-.29-4.03-.28-6.06,0-.87.06-1.74.07-2.61.03-3.81-.03.97-.24.85-1.15-.66,2.76-6.93-.92.42,1.37-2.73-1.67,1.99-1.81,2.12.55-.53,1.01-1.21,1.51-1.79,7.3-8.52,13.65-16.9,12.05-28.81-1.71-12.76-11.94-21.25-23.13-26-9.42-4-18.91-7.7-28.66-10.82-16.86-5.41-34.14-9.39-51.53-12.63-36.27-6.75-73.29-12.15-110.16-13.9-36.38-1.73-72.91-.04-109.06,4.33-10.43,1.26-20.83,2.69-31.21,4.3-11.93,1.85-19.58,17.41-16.06,28.29,4.2,12.97,15.51,18.05,28.29,16.06,3.7-.57,7.4-1.11,11.11-1.65,1.07-.16,4.52-.64-.53.06,1.86-.26,3.73-.49,5.6-.72,6.88-.86,13.77-1.62,20.67-2.28,13.89-1.33,27.82-2.24,41.76-2.7,27.15-.9,54.39-.13,81.41,2.76,3.11.33,6.2.72,9.31,1.08,6.28.74-4.92-.7,1.26.16,1.51.21,3.03.42,4.54.63,6.98.97,13.95,1.94,20.92,2.98,13.03,1.94,26.03,4.08,38.94,6.7,12.85,2.61,25.62,5.69,38.17,9.52,6.41,1.95,12.76,4.11,19.02,6.48,1.14.43,2.28.87,3.41,1.32l1.7.68c2.4.99,2.26.92-.42-.21.26.36,2.15.95,2.7,1.22.89.43,1.76.91,2.6,1.43-2.62-2.24-3.06-2.52-1.32-.84l-4.19-17.79c1.87-3.9,2.32-5.04,1.37-3.4-1.05,2.02-2.66,1.87,1.29-1.52-1.44,1.23-2.67,3.06-3.88,4.54-6.81,8.3-9.24,15.84-10.28,26.5-1.37,14.06,2.61,28.04,5.39,41.7.36,1.78.65,3.56,1.01,5.34,1.14,5.76-.2-3.15.03.03.09,1.18.12,2.45.29,3.62v1.45c.01-2.26.62-4.35,1.83-6.27,1.85-2.75,5.44-5.92,8.69-6.76,1.18-.13,2.35-.26,3.53-.39-.91.06-1.82.06-2.73-.01,1.36-.96,5.44.97,1.33.08-2.06-.45-4.11-.99-6.15-1.53-13.4-3.54-26.45-8.24-39.51-12.84-25.59-9.02-51.28-16.07-78.2-19.75-28.19-3.85-56.48-5.04-84.9-3.71-32.85,1.54-65.56,6.02-97.93,11.64-15.36,2.66-30.66,5.63-45.94,8.7-7.64,1.54-15.28,3.11-22.91,4.69-3.82.79-7.63,1.58-11.45,2.37-1.91.39-3.82.79-5.72,1.18-1.27.26-2.54.52-3.82.79,2.42-.57,4.86-.64,7.31-.22,3.38,1.97,6.77,3.94,10.15,5.91,3.29,12.97,4.89,16.64,4.8,11.01l-.5,3.62c.1.02,1.26-8.29,1.28-8.48.63-4.66,1.21-9.29,1.44-13.99.37-7.32.09-14.65-.76-21.93-1.05-9.03-2.49-17.98-5.06-26.71-1.08-3.68-2.22-7.5-3.69-11.04l-.44-1.65c1.28,4.9-.1,9.49-4.12,13.75-.86.66-1.71,1.32-2.57,1.98-3.45,1.28-4,1.52-1.65.72,15.37-3.79,31.35-5.86,46.95-8.47,16.25-2.72,32.52-5.27,48.81-7.69,5.31-.79,11.17-6.16,13.75-10.57,2.88-4.93,4.11-12.2,2.32-17.72-4.22-13.04-15.5-17.96-28.29-16.06h0Z"/>
      </g>
      <g class="cls-12">
        <g>
          <path class="cls-9" d="M278.31,570.48c-23.69-1.72-47.06-7.93-68.48-18.2-16.72,35.34-22.13,75.92-15.26,114.41,4.37,24.47,16.04,50.59,39.26,59.43,6.52,2.48,14.54,4.21,17.27,10.63,4.61,10.86-10.26,19.22-21.79,21.74-11.67,2.55-23.34,5.09-35,7.64-3.83.84-7.93,1.83-10.49,4.79-5.09,5.9-.96,14.99,3.68,21.26,11.29,15.27,25.08,28.7,40.65,39.57-16.69,9.78-20.56,35.87-7.42,50.07,13.16,14.22,35.52,14,52.78,22.82-8.07,8.04-16.79,19.41-11.75,29.63,2.35,4.76,7.16,7.71,11.73,10.4,14.73,8.68,29.58,17.42,45.68,23.16,27.08,9.66,56.36,10.41,84.96,13.35,68.64,7.04,136.18,27.14,205.16,25.33,21.78-.57,44-3.49,63.45-13.31,8.46-4.27,16.36-9.84,25.42-12.65,9.43-2.94,19.53-2.71,29.4-2.3,15.71.66,31.39,1.75,47.04,3.24,8.64.83,17.94,1.65,25.47-2.67,15.9-9.12,12.96-32.35,9.63-50.37-1.04-5.61-1.65-12.14,2.23-16.32,2.66-2.86,6.73-3.8,10.52-4.72,19.3-4.68,39.46-13.88,48.02-31.8,8.56-17.92-2.57-44.76-22.43-44.49,11.56-9.64,23.12-19.28,34.68-28.91,4.34-3.62,8.88-7.52,10.61-12.9,3.85-11.93-7.6-22.95-18.12-29.77-12.95-8.39-26.48-15.88-40.47-22.38,44.45-43.97,58.57-115.79,34.08-173.31-.95-2.22-2.04-4.54-4.05-5.88-2.26-1.51-5.19-1.46-7.91-1.32-17.25.84-35.48,3.13-49.03,13.85-17.23,13.62-22.47,37.02-27.62,58.36-5.15,21.35-20.32,42.64-39.77,52.83-8.65,4.53-11.35,7.9-21.1,8.53-27.97,1.8-56.87-1.46-81.9-14.08-25.03-12.63-45.73-35.54-51.31-63.02-.62-3.06-1.24-6.48-3.76-8.34-2.06-1.52-4.83-1.55-7.39-1.52-26.24.37-52.47.74-78.71,1.11-3.13.04-6.61.23-8.78,2.49-2.06,2.14-2.23,5.39-2.46,8.35-2.54,33.23-28.36,62.55-60.22,72.34-31.86,9.79-67.97,1.14-94.15-19.49-26.18-20.63-42.69-52.13-48.29-84.99"/>
          <path class="cls-9" d="M278.31,548.98c-2.73-.21-5.46-.55-8.19-.78-2.68-.23,3.58.6-.62-.08-1.2-.19-2.41-.38-3.61-.58-5.7-.97-11.36-2.21-16.96-3.69-5.3-1.41-10.54-3.04-15.69-4.9-2.58-.93-5.12-1.94-7.68-2.95,1.85.73,2.03.89.09.02-1.67-.76-3.32-1.51-4.98-2.3-9.74-4.61-24.17-3.52-29.42,7.71-13.21,28.27-20.7,58.61-21.08,89.9-.33,27.13,3.94,55.97,17.33,79.95,6.68,11.96,16.25,22.64,28.02,29.76,5.7,3.45,12.07,5.56,18.29,7.85,3.96,1.46-.64.5-.78-.37l1.16.6c1.93,1.21,1.52.82-1.23-1.19l.88.87c-1.51-1.44-2.53-3.16-3.06-5.18-.28-3.84-.39-4.63-.34-2.38-.07-2.42.53-4.67,1.8-6.72-1.96,3.51,3.88-3.36.64-.65-3.67,3.08.12-.31.44-.14-.13-.07-5.95,3.38-5.95,3.26.86-.37,1.72-.75,2.59-1.12-.85.32-1.71.61-2.57.88-1.25.39-2.52.7-3.79,1.01-4.52,1.07-9.08,1.98-13.61,2.97-16.03,3.5-36.28,4.83-45.58,20.49-12.01,20.23,2.52,40.51,15.4,55.63,10.93,12.83,23.74,23.77,37.49,33.47v-37.13c-24.62,15.18-33.14,48.78-19.05,74.05,7.48,13.41,20.74,21.27,34.7,26.46,5.52,2.05,11.24,3.52,16.9,5.13,2.61.75,5.22,1.51,7.8,2.38,1.4.47,2.76,1.02,4.15,1.5,1.5.59.92.34-1.76-.76.89.4,1.76.82,2.62,1.26-1.45-11.26-2.9-22.51-4.35-33.77-12.75,12.91-23.69,30.32-17.88,49.15,5.21,16.87,22.23,24.91,36.49,32.94,14.34,8.07,29.4,15.29,45.25,19.83,15.33,4.4,31.31,6.45,47.13,8.1,15.41,1.61,30.87,2.63,46.26,4.51,1.27.16,2.54.32,3.81.48,6.34.78-4.44-.65,1.89.25,3.8.54,7.6,1.09,11.4,1.66,8.23,1.26,16.45,2.62,24.66,4.02,32.15,5.49,64.23,11.51,96.68,15.03,31.28,3.4,63.45,4.56,94.49-1.52,15.2-2.98,29.47-8.81,42.94-16.39,3.1-1.75,6.27-3.37,9.39-5.07,4.89-2.66-3.97.93,1.38-.6,1.76-.5,3.46-1.11,5.25-1.52.9-.21,6.47-1.98,1.56-.4,1.57-.51,3.9-.3,5.54-.36,3.72-.13,7.44-.02,11.16.11,16.33.61,32.63,1.81,48.9,3.32,16.33,1.51,33.43-.26,45.49-12.69,10.45-10.78,14.08-25.93,13.72-40.57-.16-6.43-1.1-12.85-2.05-19.21-.39-2.6-.81-5.21-1.32-7.8-.95-4.83-.2,4.9.02-.08-.05-.97-.05-1.93.02-2.9.08,2.01-.44,3.84-1.56,5.5-.47.73-6.21,4.79-2.63,2.93-5.27,2.73.33.35,1.89-.04,3.33-.84,6.64-1.74,9.9-2.81,7.33-2.42,14.64-5.41,21.38-9.19,15.01-8.43,27.55-21.55,33.06-38.06,10.13-30.34-11.04-68.03-44.47-68.46,5.07,12.23,10.14,24.47,15.2,36.7,11.56-9.64,23.16-19.23,34.68-28.91,13.05-10.97,21.47-26.96,15.9-44.21-4.97-15.4-17.68-25.86-30.88-34.21-12-7.59-24.49-14.36-37.35-20.38,1.45,11.26,2.9,22.51,4.35,33.77,47.58-47.56,65.59-123.87,42.33-187.37-4.56-12.46-9.93-24.83-23.98-28.69-10.48-2.88-22.88-.47-33.42,1.05-18.84,2.71-37.7,10.75-50.05,25.71-11.93,14.45-18.26,31.81-22.81,49.79-.93,3.67-1.76,7.36-2.7,11.02-.5,1.96-1.06,3.89-1.71,5.81-.24.73-.5,1.45-.76,2.17-.26.72-.54,1.44-.83,2.15-.59,1.48-.38.96.65-1.58-.55.15-2.17,4.45-2.41,4.9-.86,1.62-1.76,3.21-2.72,4.77-1.1,1.79-2.32,3.49-3.47,5.24-.68,1.03-1.64,3.32.52-.59-.6,1.09-1.7,2.08-2.52,3-2.58,2.95-5.44,5.52-8.28,8.2-.92.86-2.33,2.85.76-.49-.59.64-1.81,1.32-2.48,1.77-1.66,1.14-3.38,2.19-5.14,3.18-3.3,1.85-6.57,3.79-9.89,5.61-.49.27-1.13.49-1.57.83-2.04,1.52,4.42-1.21,1.86-.78-.74.12-1.79.36-2.45.69-1.8.9,5.23-.24.49-.04-9.1.39-18.13.64-27.23.02-2.34-.16-4.67-.36-7-.62-.81-.09-1.84-.06-2.62-.3,4.02,1.27,1.82.26.51.04-4.6-.78-9.18-1.64-13.71-2.79s-8.96-2.51-13.33-4.11c-.91-.33-2.54-.72-3.26-1.25.15.11,3.38,1.54,1.11.47s-4.62-2.12-6.87-3.3c-3.34-1.75-6.59-3.67-9.72-5.76-.81-.54-3.29-2.96-4.33-3.04,1.57.11,2.91,2.36.77.59-1.16-.96-2.33-1.92-3.46-2.92-2.64-2.33-5.16-4.79-7.54-7.38-1.36-1.48-2.63-3.02-3.93-4.55-1.48-1.74-1.59-.5.61.79-.86-.5-1.62-2.26-2.15-3.06-2.08-3.09-3.98-6.31-5.65-9.64-.45-.89-.86-1.79-1.29-2.68-1.07-2.24.49-1.31.42,1.03.05-1.59-1.5-4.09-1.97-5.62-3.47-11.32-4.94-23-16.8-29.18-10.67-5.56-23.99-3.6-35.62-3.44-20.4.29-41-.22-61.37.88-7.09.38-13.74,1.82-19.45,6.23-6.62,5.12-10.16,11.99-11.27,20.22-.36,2.65-.7,5.32-.86,7.99-.15,2.41.31-2.2.31-2.19-.29.77-.33,1.95-.5,2.79-.78,3.93-1.88,7.8-3.27,11.56-1.7,4.61,1.4-2.69-.28.74-.83,1.7-1.65,3.39-2.56,5.05-.9,1.64-4.35,9.21-6.14,9.56.09-.02,3.39-4.07.73-.98-.62.72-1.22,1.46-1.84,2.18-1.1,1.26-2.23,2.48-3.4,3.67-1.33,1.36-2.71,2.68-4.13,3.96-.53.48-1.07.95-1.61,1.42-1.33,1.14-4.52,2.64-.11.23-2.88,1.58-5.47,3.88-8.32,5.57-1.64.97-3.32,1.89-5.02,2.75-.85.43-1.72.82-2.57,1.25-3.53,1.79,3.04-1.09.54-.2-3.52,1.26-7,2.49-10.64,3.4-2.05.51-4.11.9-6.18,1.32-.62.12-3.21.31-.26.1,3.44-.24-1.12.11-1.84.18-4.19.38-8.4.48-12.6.32-1.84-.07-3.68-.19-5.52-.36-.8-.07-4.22-.56-1.07-.07,3.5.55-1.6-.29-1.84-.33-3.91-.69-7.77-1.61-11.58-2.73-1.78-.52-3.55-1.09-5.3-1.7-1-.35-1.99-.74-2.99-1.09-4.89-1.72,2.71,1.32-.02.05-3.62-1.68-7.19-3.39-10.65-5.38-1.27-.73-10.88-5.91-10.64-6.96-.05.23,3.15,2.57.61.46-.8-.66-1.61-1.32-2.4-2-1.58-1.35-3.12-2.74-4.62-4.17-3.01-2.86-5.86-5.88-8.56-9.03-.67-.79-1.33-1.59-1.99-2.39-2.03-2.41.69-.12.48.68.14-.53-2.92-4.02-3.19-4.42-2.52-3.63-4.85-7.39-7-11.26-1.77-3.19-3.42-6.45-4.94-9.76-.4-.87-.99-1.92-1.28-2.86,1.39,4.57.78,1.9.37.79-.82-2.21-1.67-4.39-2.44-6.62-2.62-7.67-4.57-15.52-5.97-23.5-1.95-11.11-16.13-18.36-26.45-15.02-11.95,3.87-17.11,14.55-15.02,26.45,5.96,33.95,22.93,67.57,49.02,90.48,29.25,25.69,67.39,37.75,105.99,32.09,33.32-4.88,64.73-27.8,79.46-58.15,3.89-8,7.19-16.45,8.75-25.24.75-4.22,2.49-9.9,1.78-14.27.27,1.66-.64,3.73-1.48,5.15,2.69-4.55-8.26,9.48-11.63,7.12.96.67,5.36-.16,6.66-.17,20.66-.29,41.32-.58,61.98-.87,1.26-.02,14.2.34,14.35-.18-.51,1.88-9.91-6.33-6.81-3.83-1.39-1.12-2.79-2.25-4.18-3.37-1.08-2.95-1.38-3.64-.91-2.05.33,2.06.92,4.22,1.42,6.25,2.14,8.73,5.74,17.32,10.11,25.16,8.93,16.01,22,29.11,36.88,39.63,14.97,10.58,32.9,17.62,50.78,21.36,18.68,3.91,38.88,5.71,57.93,3.58,10.1-1.13,18-4.73,26.71-9.68,8.11-4.61,15.75-9.59,22.59-16.03,13.53-12.75,23.68-29.75,28.92-47.56,2.21-7.52,3.68-15.25,5.87-22.79,1.06-3.65,2.22-7.27,3.57-10.82.22-.58.77-1.49.82-2.1-.21,2.97-1.34,2.98-.4,1.01s1.92-3.99,3.02-5.93c.84-1.49,1.73-2.95,2.69-4.37.31-.46,1.14-1.99,1.69-2.38-2.89,2.06-1.9,2.24-.6.95,1.22-1.2,2.33-2.5,3.59-3.67.54-.5,2.87-2.75.71-.75-2.33,2.15,1.07-.7,1.69-1.1,1.8-1.15,3.68-2.12,5.57-3.1,3.4-1.74-3.58,1.21,1.52-.54,4.09-1.41,8.29-2.42,12.54-3.17.79-.14,4.27-.44,1.18-.25-2.92.18-.15.02.39-.04,2.17-.23,4.35-.45,6.53-.62,1.9-.14,3.79-.26,5.69-.36,1.09-.05,2.21.02,3.29-.08,4.25.19,1.36-1.15-8.67-4.02-.56-.68-1.11-1.35-1.67-2.03.48.63,2.56,4.15-.34-1.13.45.81.77,1.89,1.1,2.74.62,1.6,1.22,3.22,1.79,4.84,1.29,3.71,2.44,7.46,3.43,11.26.93,3.56,1.73,7.15,2.41,10.76.35,1.88.43,3.98.96,5.8,0,.03-.54-4.53-.28-2.07.13,1.22.29,2.44.41,3.66.75,7.57.95,15.2.62,22.8-.16,3.68-.44,7.36-.84,11.02-.11.97-.29,1.96-.35,2.93.03-.53.79-5.15.15-1.33-.33,1.94-.64,3.88-1.01,5.81-1.44,7.48-3.39,14.87-5.84,22.08-.55,1.63-1.13,3.25-1.73,4.86-.35.92-.72,1.83-1.06,2.75-1.34,3.58.34-.56.48-1.05-1.05,3.62-3.29,7.31-5.02,10.65-3.5,6.75-7.47,13.25-11.92,19.41-.57.8-1.17,1.57-1.74,2.37-1.71,2.36,2.54-3.1.66-.86-1.1,1.31-2.17,2.67-3.28,3.97-2.56,2.99-5.25,5.85-8.04,8.63-9.07,9.06-8.39,27.8,4.35,33.77,10.62,4.97,21,10.45,31.05,16.5,2.64,1.59,5.27,3.21,7.86,4.88,1.16.75,2.32,1.49,3.46,2.28.43.29.85.59,1.27.9,1.26.92.85.6-1.22-.97.34-.26,4.75,4.36,5.2,4.85,2.74,2.95,1.17.01.02-.18.64.11,1.58,2.69,1.88,3.16,1.51,2.4-1.57-3.75-.64-1.17.84,2.32.11-4.74-.19-.9.13-.96.27-1.93.4-2.89-.56,1.81-.53,1.9.09.26.63-1.38.66-1.55.09-.52-.84,1.33-.46.91,1.14-1.27-.45-.11-4.39,4.33-5.01,4.87-2.32,2-4.7,3.94-7.05,5.9-9.8,8.17-19.6,16.34-29.4,24.51-6.53,5.44-7.5,16.24-4.45,23.49,3.33,7.88,11,13.11,19.65,13.22,3.49.04,1.91,1.41-1.21-.35.6.34,2.45.83,3.15.91-3.86-.45-4.04-1.85-1.73-.52,2.19,1.26,1.2,2.11-1.25-1.17.58.77,1.67,1.61,2.39,2.27,2.88,2.65-2.1-3.63-.9-1.31.42.82,1.07,1.58,1.54,2.39.38.66.75,1.34,1.08,2.03.94,2.03.68,1.39-.79-1.93.11,1.64,1.19,4.03,1.62,5.66,1.11,4.24-.19-5.4-.13-1.02.01.99.1,1.97.08,2.96-.01.93-.28,2.05-.16,2.95-.64-4.58.67-3.87-.02-1.09-.23.93-1.05,2.42-1.04,3.35l1.25-2.99c-.42.87-.86,1.72-1.33,2.56-.2.36-1.92,3.65-2.29,3.61.69.07,3.05-3.6.28-.47-.72.81-4.57,5.63-5.62,5.42.7-.53,1.4-1.06,2.1-1.59-.77.57-1.55,1.13-2.35,1.67-.8.54-1.61,1.06-2.43,1.57-2.72,1.68-5.58,3.01-8.41,4.46s5-1.84.37-.14c-1.39.51-2.77,1.05-4.18,1.54-2.33.8-4.68,1.53-7.06,2.18-8.28,2.3-16.76,4.13-23.19,10.36-6.94,6.73-10.26,15.62-10.37,25.26-.08,6.52,1.66,13.02,2.67,19.44l.2,1.33c.34,2.34.26,1.78-.22-1.69-.18,1.15.32,2.89.43,4.06.19,2.24.32,4.49.33,6.74.01,1.93-.73,4.7-.29,6.54l.44-3.19c-.13.82-.29,1.64-.47,2.45-.32,1.42-1.33,3.22-1.4,4.63.03-.63,2.51-4.55.67-1.94l-.59,1.01c-1.24,1.84-.81,1.33,1.29-1.54-.42.18-2.31,2.07-2.55,2.48.94-1.61,3.45-2.8,1.29-1.25-4.25,3.04,4.02-1.56-.81.19-4.72,1.71,4.43.08-.66.14-3.31.04-6.58-.02-9.89-.3-14.15-1.16-28.27-2.45-42.46-3.18-15.38-.79-31.64-1.71-46.31,3.87-7.04,2.68-13.62,6.13-20.16,9.82-2.84,1.6-5.69,3.19-8.63,4.6-.04.02-5.32,2.32-2.26,1.07,2.63-1.08-3.43,1.23-4,1.43-6.11,2.1-12.39,3.67-18.75,4.84-1.45.27-2.92.46-4.36.73-3.51.67,5.28-.53-.43.07-3.83.4-7.65.78-11.49,1.02-14.05.88-28.17.65-42.21-.21-6.99-.43-13.97-1.03-20.93-1.76-3.17-.33-6.33-.69-9.5-1.08-1.9-.23-3.8-.48-5.69-.72,3.9.5-.36-.05-1.87-.26-14.57-2.05-29.08-4.51-43.57-7.03-29.02-5.04-58.02-10.23-87.32-13.44-15.3-1.68-30.65-2.8-45.95-4.45-6.12-.66,4.51.73-1.56-.19-2.41-.37-4.83-.73-7.24-1.14-3.6-.62-7.19-1.33-10.75-2.14-7.13-1.63-14.16-3.7-20.99-6.34-.65-.25-6.19-2.7-1.62-.63-2.22-1.01-4.44-2.01-6.63-3.09-3.29-1.61-6.54-3.3-9.76-5.05-6.66-3.61-13.22-7.44-19.72-11.32-1.04-.62-2.06-1.32-3.11-1.92-1.91-1.33-1.63-1.08.83.77-.73-.62-1.42-1.28-2.06-1.99,0,.02,2.56,3.72.95.83,1.07,1.56,1.55,3.29,1.47,5.19.06-2.39-.07-1.91-.39,1.42l.36-1.43c.76-2.2.6-1.91-.48.89,0,0,2.32-3.96,2.42-4.12,2.76-4.52-3.02,3.04.63-.84,1.47-1.56,2.87-3.16,4.38-4.69,9.16-9.28,8.27-27.52-4.35-33.77-10.18-5.04-20.82-7.95-31.65-11.13-2.11-.62-4.21-1.27-6.29-1.98-.42-.14-3.26-.78-3.39-1.24.21.69,4.48,2.08.56.17-2.14-1.04-4.04-2.34-6.09-3.53-2.09-1.21,3.51,3.5.48.29-.78-.83-1.6-1.75-2.45-2.49-1.59-1.39,2.59,4.37.78.95-.37-.7-.79-1.43-1.22-2.09-2.09-3.23.86,3.28.46,1.26-.19-.97-.65-1.93-.9-2.9-.17-.68-.75-4.61-.31-.73.44,3.85.07.09.03-.79-.04-1.02.02-2.04.02-3.06,0-2.53,1.43-2.32-.32,1.44.76-1.63,1.01-4.16,1.5-5.94.79-2.88-.21,1.28-.79,1.74.54-.42,1.34-2.6,1.72-3.22.33-.55,1.21-1.42,1.34-2.03-.63,3.01-2.71,3.02-.66,1.09.47-.44,2-1.47,2.19-2.09-.43,1.44-4.13,2.84-.37.53,6.49-4,10.65-10.85,10.65-18.56s-4.3-14.09-10.65-18.56c-1.41-1-2.8-2.02-4.2-3.03-4.69-3.36,3.31,2.84-1.11-.87-2.21-1.85-4.43-3.67-6.58-5.58-5.16-4.59-10.04-9.49-14.63-14.66-1.91-2.16-3.73-4.38-5.57-6.6-3.66-4.41,2.35,3.63-.85-1.12-.85-1.26-1.73-2.47-2.5-3.78-.53-.92-1.31-4.47-.92-1.58l.52,1.16c-.6-2.37-.65-1.88-.14,1.47-.13-4.01-1.05,3.53-1.49,4.33-5.38,4.56-6.52,5.89-3.43,3.97-2.68,1.06-3.24,1.35-1.69.87,6.39-.92,12.84-2.91,19.17-4.29,7.3-1.59,14.76-2.86,21.96-4.87,14.49-4.05,29.75-13.36,34.45-28.5,2.56-8.22,1.56-17.24-2.62-24.77-4.7-8.46-12.34-13.13-20.98-16.66-2.5-1.02-5.04-1.99-7.61-2.82-3.72-1.2,1.4.43,1.32.64-.02.05-3.45-1.74-3.69-1.87-1.19-.68-2.31-1.46-3.47-2.17-3.9-2.38,2.73,2.49.57.48-2.18-2.03-4.24-4.09-6.3-6.24-3.2-3.34,2.07,3.05.35.57-.66-.95-1.35-1.88-2-2.85-1.56-2.35-2.97-4.8-4.27-7.31-.44-.84-.86-1.7-1.26-2.56l-.6-1.3c-.94-2.13-.79-1.74.47,1.18-1.45-.96-2.36-6.42-2.9-8.15-1.56-5.01-2.77-10.12-3.7-15.28-.32-1.75-.58-3.51-.86-5.26-.95-5.88.36,4.61-.14-1.33-.3-3.54-.68-7.07-.87-10.62-.41-7.69-.35-15.4.17-23.08.24-3.5.34-7.17,1.02-10.61-1.07,5.4.09-.44.24-1.32.28-1.75.59-3.5.92-5.25,1.44-7.56,3.33-15.04,5.67-22.37,1.08-3.38,2.25-6.74,3.52-10.06.63-1.66,1.27-3.32,1.97-4.95-2.1,4.86,1.05-2.14,1.44-2.98-9.81,2.57-19.61,5.14-29.42,7.71,25.23,11.94,51.49,18.97,79.33,21.13,11.24.87,21.99-10.51,21.5-21.5-.56-12.39-9.46-20.57-21.5-21.5h0Z"/>
        </g>
        <g>
          <path class="cls-10" d="M543.81,820.44c-39.25-.26-78.53,9.41-113.18,27.84-6.28,3.34-12.76,7.32-15.89,13.71-1.88,3.83-2.37,8.17-2.79,12.41-1.97,20.18-2.81,40.46-2.51,60.73-12.31,4.64-26.09.1-37.96-5.58-44.4-21.27-82.26-57.4-113.11-95.76-22.98-28.58-31.49-51.5-40.5-85.07-15.81,26.48-38.84,62.58-41.96,93.26-1.65,16.2-2.07,32.67.87,48.68,6.21,33.83,27.24,63.59,53.29,86.04,16.74,14.42,35.69,26.27,55.99,34.99,44.9,19.29,94.83,22.87,143.68,24.27,37.38,1.07,74.93,1.01,111.96-4.2,2.52-.35,5.28-.87,6.87-2.85,1.6-1.99,1.5-4.79,1.32-7.33-4.82-66.82-15.51-133.87-8.19-200.46"/>
          <path class="cls-10" d="M543.81,798.94c-39.97-.11-79.27,9.1-115.28,26.35-8.69,4.17-17.54,8.7-24.53,15.49-9.31,9.05-12.18,20.36-13.48,32.82-2.14,20.42-2.86,41.01-2.59,61.53,5.26-6.91,10.52-13.82,15.78-20.73-1.08.37-2.17.65-3.24,1.01-4.65,1.54.84-.43.76.03-.06.36-6.25.1-6.72-.1.47.19,4.81,1.07.65-.04-1.12-.3-2.25-.52-3.36-.83-2.54-.7-4.97-1.65-7.44-2.52-2.99-1.05,3.13,1.55.32.12-1.01-.52-2.07-.96-3.09-1.45-1.99-.96-3.97-1.96-5.94-2.98-4.18-2.18-8.3-4.48-12.35-6.89-7.67-4.57-15.09-9.55-22.27-14.86-.9-.67-1.79-1.34-2.69-2.01-3.19-2.38-.23-.08.35.28-1.86-1.16-3.57-2.82-5.26-4.21-3.7-3.03-7.34-6.14-10.91-9.32-13.65-12.16-26.36-25.37-38.28-39.23-2.9-3.38-5.76-6.79-8.57-10.25-1.42-1.75-2.98-3.48-4.27-5.33.41.59,2.58,3.47.26.29-.81-1.11-1.64-2.22-2.44-3.34-4.91-6.84-9.4-13.99-13.32-21.44-1.01-1.92-1.98-3.86-2.92-5.82-.61-1.27-2.81-4.49-2.68-5.88-.17,1.81,1.49,3.68.5,1.17-.44-1.12-.9-2.23-1.33-3.35-.79-2.03-1.54-4.08-2.27-6.14-3.29-9.31-6-18.8-8.57-28.33-4.85-18.02-29.88-20.89-39.3-5.14-13.11,21.94-26.2,43.7-35.78,67.47-10.05,24.94-12.48,53.18-9.13,79.76,6.87,54.5,43.51,98.77,88.54,127.93,48.09,31.14,105.18,40.51,161.41,43.45,28.75,1.5,57.65,2.13,86.42,1.09,14.41-.52,28.81-1.53,43.13-3.27,8.55-1.04,17.05-1.46,24.64-5.93,10.13-5.97,13.5-17.66,12.71-28.74-4.7-66.08-15.16-132.17-8.05-198.49,1.2-11.22-10.75-21.98-21.5-21.5-12.68.57-20.21,9.48-21.5,21.5-5.9,55.04.18,110.22,5.22,165.07.63,6.88,1.25,13.76,1.82,20.65.27,3.28.53,6.55.78,9.83.12,1.64.29,3.28.37,4.91.09,1.03.12,2.07.08,3.11,2.44-4.27,4.88-8.53,7.33-12.8,3.62-2.58,2.85-1.39.19-.86,3.98-.8.73-.09-.14.01-3.58.43-7.16.86-10.75,1.22-6.85.69-13.71,1.23-20.58,1.64-27.31,1.63-54.7,1.25-82.03.33-12.72-.43-25.43-1.05-38.12-2.09-6.34-.52-12.66-1.15-18.98-1.92-1.2-.15-5.34-.66-.58-.04-1.5-.19-2.99-.42-4.48-.64-3.28-.49-6.55-1.02-9.82-1.59-12.42-2.19-24.73-5.07-36.76-8.86-6.03-1.9-11.89-4.16-17.81-6.39-3.32-1.25,4.49,2.06-.64-.27-1.32-.6-2.65-1.18-3.97-1.8-2.9-1.35-5.77-2.75-8.61-4.23-10.45-5.42-22.16-11.57-30.95-19.51,3.77,3.41-.53-.43-1.15-.93-1.13-.91-2.25-1.84-3.36-2.77-2.09-1.76-4.14-3.55-6.16-5.39-4.13-3.76-8.09-7.69-11.87-11.8-1.98-2.15-3.91-4.35-5.79-6.6-.85-1.02-1.68-2.06-2.52-3.09-3.31-4.04,1.85,2.64-.04-.07-3.19-4.57-6.41-9.07-9.25-13.88-2.83-4.79-5.22-9.73-7.61-14.74-1.42-2.97,1.82,4.91.03.05-.45-1.23-.94-2.45-1.39-3.69-.98-2.72-1.86-5.47-2.65-8.26-.86-3.04-1.6-6.12-2.21-9.22-.34-1.7-.83-3.53-.92-5.26.24,5.08-.08-1.08-.14-1.73-.7-7.48-.77-15.02-.46-22.52.16-3.76.42-7.52.75-11.27.11-1.25.26-2.5.36-3.74.27-2.37.2-1.89-.21,1.43.15-.97.32-1.93.5-2.89,1.11-5.78,2.76-11.45,4.72-17,.97-2.75,1.88-5.65,3.18-8.27-2.45,4.97.04,0,.44-.89.68-1.51,1.38-3.01,2.09-4.51,2.87-6.03,5.97-11.94,9.2-17.79,6.08-11,12.65-21.72,19.1-32.51-13.1-1.71-26.2-3.42-39.3-5.14,4.93,18.31,10.72,36.33,19,53.44,8.65,17.87,20.66,33.66,33.36,48.83,25.92,30.98,55.98,59.31,90.66,80.31,21.69,13.13,49.1,27.73,74.99,18.84,8.93-3.06,15.91-10.88,15.78-20.73-.24-18.31.38-36.62,1.97-54.87.2-2.28-.01-5.28.7-7.46-1.71,5.21.11.91.26-.61.72-2.27.53-2.06-.57.65.45-.9.96-1.77,1.54-2.6-1.86,2.35-2,2.66-.42.94l1.12-1.02c-2.38,1.75-2.62,1.95-.7.58.86-.57,1.73-1.13,2.61-1.65,1.32-.79,2.67-1.53,4.03-2.25,3.93-2.11,7.94-4.08,11.99-5.94,1.89-.87,3.77-1.78,5.7-2.54-4.73,1.87,1.35-.51,2.29-.87,3.88-1.51,7.8-2.92,11.75-4.23,7.91-2.61,15.95-4.81,24.08-6.59,4.07-.89,8.16-1.67,12.26-2.35,1.09-.18,7.64-1.18,2.23-.4,2.06-.29,4.13-.51,6.2-.72,8.58-.89,17.2-1.28,25.82-1.26,11.25.03,22.02-9.91,21.5-21.5-.52-11.67-9.45-21.47-21.5-21.5h0Z"/>
        </g>
        <g>
          <path class="cls-10" d="M537.78,819.98c39.25-.26,78.53,9.41,113.18,27.84,6.28,3.34,12.76,7.32,15.89,13.71,1.88,3.83,2.37,8.17,2.79,12.41,1.97,20.18,2.81,40.46,2.51,60.73,12.31,4.64,26.09.1,37.96-5.58,44.4-21.27,82.26-57.4,113.11-95.76,22.98-28.58,31.49-51.5,40.5-85.07,15.81,26.48,38.84,62.58,41.96,93.26,1.65,16.2,2.07,32.67-.87,48.68-6.21,33.83-27.24,63.59-53.29,86.04-16.74,14.42-35.69,26.27-55.99,34.99-44.9,19.29-94.83,22.87-143.68,24.27-37.38,1.07-74.93,1.01-111.96-4.2-2.52-.35-5.28-.87-6.87-2.85-1.6-1.99-1.5-4.79-1.32-7.33,4.82-66.82,15.51-133.87,8.19-200.46"/>
          <path class="cls-10" d="M537.78,841.48c8.33-.02,16.65.34,24.94,1.17,2.36.24,4.74.48,7.09.82-5.2-.74.19.07,1.35.26,4.11.66,8.2,1.43,12.27,2.3,8.14,1.75,16.19,3.92,24.1,6.5,3.96,1.29,7.88,2.69,11.76,4.18.86.33,8.03,3.13,3.13,1.2,1.93.76,3.82,1.67,5.7,2.54,3.78,1.74,7.52,3.58,11.2,5.53,1.62.86,3.24,1.72,4.82,2.67.76.46,5.02,4.03,2.9,1.8-1.36-1.07-1.31-.97.14.29,1.58,1.72,1.44,1.4-.42-.94.58.83,1.09,1.69,1.54,2.6-.99-2.46-1.25-2.93-.78-1.41.13,1.51,2.27,6.84.47,1.38.63,1.91.44,4.47.62,6.48,1.64,18.57,2.3,37.21,2.05,55.85-.13,9.91,6.85,17.67,15.78,20.73,23.36,8.02,47.66-3.35,67.79-14.65,18.16-10.19,35.04-22.71,50.8-36.28,14.93-12.85,28.74-26.97,41.63-41.85,13.14-15.18,25.95-31,35.49-48.75,10.13-18.86,16.75-39.3,22.3-59.9-13.1,1.71-26.2,3.42-39.3,5.14,5.6,9.37,11.29,18.68,16.67,28.17,2.88,5.07,5.67,10.2,8.31,15.39,1.26,2.48,2.49,4.97,3.68,7.48.59,1.25,1.17,2.5,1.74,3.76.93,2.05,2.04,4.14.44.89,2.41,4.9,4.07,10.49,5.58,15.72.7,2.43,1.33,4.88,1.87,7.36.26,1.21.46,2.42.71,3.63,1,4.66-.3-4.32.03,0,1.01,13.25,1.58,26.13.47,39.4-.52,6.16.88-4.36-.25,1.72-.21,1.14-.4,2.27-.62,3.41-.56,2.85-1.23,5.67-2,8.46-.7,2.54-1.48,5.05-2.34,7.53-.43,1.24-.87,2.48-1.34,3.71-.37.98-.76,1.96-1.16,2.93l.94-2.23c-1.4,5.02-4.92,10.32-7.53,14.78-2.82,4.82-5.98,9.35-9.17,13.92-3.11,4.44,2.9-3.51-.52.71-.67.83-1.33,1.66-2.01,2.48-1.87,2.26-3.79,4.46-5.76,6.62-3.76,4.12-7.71,8.08-11.82,11.85-1.99,1.83-4.02,3.61-6.08,5.36-1.33,1.13-2.67,2.24-4.03,3.34-.02.02-4.55,3.51-1.94,1.55s-1.99,1.45-2.01,1.46c-1.17.86-2.36,1.7-3.55,2.53-2.62,1.83-5.28,3.61-7.98,5.33-5.15,3.28-10.44,6.34-15.85,9.17-2.58,1.35-5.18,2.65-7.8,3.89-1.31.62-2.63,1.23-3.96,1.83-1.52.68-4.81,2.02-1.39.64-11.71,4.72-23.72,8.57-35.99,11.54-6.14,1.49-12.32,2.77-18.53,3.89-2.97.53-5.94,1.02-8.92,1.48-1.49.23-2.99.44-4.48.66-5.16.76,3.27-.35-1.47.18-12.65,1.43-25.31,2.56-38.02,3.26-26.73,1.46-53.6,2.07-80.37,1.42-13.76-.33-27.52-1.08-41.22-2.43-3.59-.36-7.17-.75-10.75-1.2-1.1-.14-5.36-.93-1.11-.13l-1.27-.2c-1.74-.46-1.7-.33.1.4l1.37.66c5.18,13.9,7.62,17.64,7.32,11.24.22-1.47.19-3.01.3-4.5.27-3.61.55-7.21.85-10.81,5.12-62.07,13.8-124.39,7.12-186.7-1.2-11.15-9.03-22.06-21.5-21.5-10.62.48-22.78,9.52-21.5,21.5,6.33,59-1.12,118.09-6.28,176.87-1.48,16.85-6.74,39.95,10.95,50.37,7.62,4.49,16.05,4.89,24.64,5.93,7.81.95,15.64,1.68,23.49,2.24,28.65,2.03,57.42,1.7,86.1.78,56.49-1.83,114.08-7.73,164.83-34.57,45.6-24.11,86.6-64.94,100.92-115.57,4.41-15.58,5.87-32.15,5.33-48.29-.5-15.06-2.15-30.19-6.96-44.53-9.15-27.31-24.43-51.91-39.12-76.48-9.41-15.74-34.44-12.89-39.3,5.14-2.25,8.34-4.6,16.66-7.37,24.84-1.24,3.69-2.57,7.35-4,10.97-.26.67-.54,1.34-.8,2-1.4,3.5.24-.75.5-1.17-1.21,1.99-1.98,4.42-2.99,6.52-3.46,7.16-7.43,14.06-11.83,20.68-2.37,3.56-4.73,7.4-7.56,10.61,3.34-3.8-1.29,1.59-1.95,2.41-1.57,1.94-3.16,3.87-4.76,5.79-11.69,14.02-24.14,27.43-37.51,39.85-6.81,6.33-13.92,12.27-21.14,18.13-2.42,1.96,2.85-2.13.36-.27-.9.67-1.79,1.35-2.69,2.02-1.8,1.34-3.61,2.65-5.44,3.94-3.87,2.74-7.81,5.38-11.82,7.92-8.48,5.36-17.27,10.07-26.28,14.46-3.68,1.79-.24.27.35-.08-1.36.8-3.43,1.33-4.92,1.83-2.49.83-5.04,1.28-7.54,2.01-2.65.78,1.61-.3,1.49-.13-.31.45-4.55.17-5.05.19-2.33.06-1.69.97.73.23-1.16.35-3.86-1.01-4.88-1.36,5.26,6.91,10.52,13.82,15.78,20.73.26-20.26-.45-40.57-2.51-60.73-1.3-12.75-4.03-24.34-13.56-33.62-6.99-6.8-15.83-11.32-24.53-15.49-36-17.26-75.3-26.46-115.28-26.35-11.25.03-22.02,9.87-21.5,21.5.52,11.62,9.45,21.53,21.5,21.5h0Z"/>
        </g>
        <g>
          <path class="cls-10" d="M888.61,593.9c1.52-14.08-12.72-26.51-26.88-26.24s-26.68,10.46-33.45,22.91-8.75,26.87-9.99,40.98c-1.44,16.43-2.03,32.94-1.77,49.44.16,9.94.72,20.24,5.32,29.05,2.92,5.59,7.41,10.36,12.82,13.6,6.38,3.82,14.4,5.45,21.36,2.84,9.13-3.43,14.25-12.97,18.04-21.96,14.82-35.13,21.57-73.65,19.57-111.73"/>
          <path class="cls-10" d="M901.61,593.9c1.02-14.09-7.95-27.57-20.12-34.13-13.39-7.22-29.03-6.23-42.14,1.2-28.27,16.03-32.73,50.15-34.76,79.47-1.11,16.06-1.82,32.41-.79,48.49,1.08,17.03,6.42,32.65,20.42,43.24,12.29,9.29,30.22,12.04,43.38,2.8,12.47-8.75,17.98-23.54,23.07-37.28,12.35-33.32,17.69-69.42,15.96-104.89-.34-7.01-5.73-13-13-13-6.78,0-13.34,5.95-13,13,1.21,24.75-1.11,49.34-7.3,73.34-3.01,11.68-6.78,23.68-11.67,34.53-.92,2.04-1.92,4.05-3.03,6-.61,1.07-1.24,2.15-1.96,3.16-1.83,2.58-.95,1.21-.64.84-1.7,1.99-2.49,2.66-3.95,3.39-.75.37-3.12.96-5.38.61-2.53-.39-6.75-2.73-9.09-5.01-3.35-3.25-5.34-7.15-6.55-12.03-2.87-11.57-1.75-24.62-1.45-36.43.33-12.81.9-25.77,2.58-38.48,1.41-10.64,3.97-21.79,10.42-30.58,2.03-2.76,6.04-6.47,9.22-8.35,4.26-2.53,7.98-3.64,12.62-3.01-2.46-.33,4.57,1.67,2.67.83,3.07,1.37,3.15,1.44,5.21,3.47-.24-.23,2.49,2.97,1.62,1.76-.86-1.19,1.99,3.88.91,1.37.35.8.54,1.68.77,2.52.34,1.56.36,1.72.07.48.03.9,0,1.8-.1,2.7-.51,7.01,6.34,13,13,13,7.46,0,12.49-5.97,13-13h0Z"/>
        </g>
        <path class="cls-13" d="M614.95,690.39c6.04-15.91,14.09-34.98,30.44-41.39,6.67-2.62,13-2.49,18.29,1.16-1.05-.73.33.24.64.5.86.75,1.67,1.58,2.42,2.44,1.44,1.64-.74-1.19.46.61.5.75.94,1.53,1.38,2.33.99,1.81,1.11,4.59.75,6.09-3.57,14.65,15.56,22.13,23.76,10.02,3.28-4.85,8.6-10.37,13.54-13.47,3.11-1.95,4.86-2.87,7.8-3.81,4.36-1.4,5.52-1.57,9.66-1.51,11.28.16,20.66,7.52,21.74,18.18.53,5.25-.5,11.32-2.87,16.62-2.42,5.41-5.99,10.12-11.58,14.31-10.81,8.12-26.5,11.5-40.66,14.9-16.98,4.08-34.28,7.1-50.49,13.82-16.44,6.81-29.75,18.8-35.94,35.81-5.59,15.33-.82,33,8.5,45.82,5.24,7.2,11.33,13.08,18.63,18.17,6.89,4.81,14.46,8.53,21.43,13.21,13.67,9.18,20.37,23.28,23.33,39.18,3.49,18.75-.72,40.59-5.24,59.91-1.6,6.83,2.13,14.08,9.08,15.99,6.58,1.81,14.39-2.21,15.99-9.08,8.95-38.26,13.44-81.01-13.12-113.59-5.84-7.16-13.33-12.74-21.16-17.55-6.93-4.26-15.3-8.48-20.5-13.15-5.15-4.62-9.69-10.54-11.61-16.02-.55-1.58-1.01-3.18-1.36-4.81-.06-.25-.46-3.09-.33-1.76.13,1.34-.01-1.52-.02-1.77,0-.58.42-4.59.08-2.82.34-1.81.92-3.76,1.22-4.43,2.87-6.63,7.56-11.88,13.32-15.45,7.12-4.42,15.51-6.75,23.53-8.93,17.42-4.74,35.32-7.62,52.55-13.08,17.24-5.46,33.11-14.25,43.37-29.59,9.19-13.74,13-33.03,7.3-48.84-7.19-19.95-27.08-32.15-48.14-30.97-21.35,1.2-38.85,14.38-50.51,31.61,7.92,3.34,15.84,6.68,23.76,10.02,3.26-13.39-1.41-27.58-11.7-36.77-10.91-9.74-24.89-12.82-39.09-9.79-29.71,6.35-43.96,35.24-53.73,60.99-2.49,6.57,2.76,14.26,9.08,15.99,7.31,2.01,13.49-2.49,15.99-9.08h0Z"/>
        <path class="cls-3" d="M509.76,691.46c-6,14.54-8.89,30.2-9.8,45.87-.49,8.43-.33,17.48,1.8,25.65,4.3,16.44,20.15,29.19,37.31,28.79,17.57-.41,32.48-12.39,37.83-28.91,2.46-7.59,2.76-16.1,2.77-24.08.02-15.81-2.89-33.14-12.21-46.31-5.07-7.16-11-12.76-19.72-15.17-7.9-2.18-18.42-1.19-25.43,3.33-13.96,9-22.5,30.08-11.84,45.15,1.5,2.13,2.75,4.31,3.84,6.67-1.11-2.63-2.22-5.26-3.33-7.88,1.58,3.86,2.57,7.8,3.2,11.92-.39-2.92-.79-5.85-1.18-8.77.91,7.27.88,14.71.18,22,.39-2.92.79-5.85,1.18-8.77-.24,1.56-.56,2.89-1.09,4.37,1.11-2.63,2.22-5.26,3.33-7.88-.37.87-.86,1.66-1.49,2.36,1.72-2.23,3.44-4.45,5.16-6.68l-.97.89,6.68-5.16-1.11.71c2.63-1.11,5.26-2.22,7.88-3.33-.76.41-1.57.65-2.44.72,2.92-.39,5.85-.79,8.77-1.18l-1.24-.06c2.92.39,5.85.79,8.77,1.18l-1.2-.39c2.63,1.11,5.26,2.22,7.88,3.33l-1.09-.73,6.68,5.16-.85-.96c1.72,2.23,3.44,4.45,5.16,6.68l-.64-1.14c1.11,2.63,2.22,5.26,3.33,7.88-.5-1.37-.78-2.58-.99-4.02.39,2.92.79,5.85,1.18,8.77-.63-7.73-.22-15.51.79-23.19-.39,2.92-.79,5.85-1.18,8.77,1.43-9.67,3.99-19,7.72-28.03,3.04-7.36.5-18.9-3.33-25.43s-11.85-13.37-19.72-15.17c-8.45-1.92-17.93-1.51-25.43,3.33-7.71,4.97-11.7,11.32-15.17,19.72h0Z"/>
        <path class="cls-13" d="M622.61,774.62c3.06,6.05,8.53,9.84,14.22,13.17,1.17.69,2.35,1.35,3.47,2.11-1.83-1.24,2.1,1.63,2.08,1.61,2.64,2.08,5.27,4.04,8.3,5.5,11.92,5.74,26.18,3.85,38.44-.07,12.55-4.01,22.84-13.7,30.09-24.5,6.95-10.36,7.93-24.33,8.77-36.4.49-7.01-6.32-13-13-13-7.44,0-12.51,5.97-13,13-.31,4.44-.52,7.36-1.12,10.79-.43,2.43-.94,4.85-1.65,7.22-.27.89-.54,1.8-.88,2.67.61-1.54-.28.52-.6,1.05-1.8,3-4.21,5.65-7.41,8.7-1.59,1.52-2.62,2.45-4.06,3.4.09-.06-3.24,1.88-2.05,1.31s-2.03.71-1.98.7c-2.06.66-4.17,1.18-6.28,1.63-.99.21-1.97.4-2.97.58-.49.09-3.31.49-1.62.28-1.92.23-3.88.42-5.82.34-2.25-.1,2.12.77-1.55-.24-.36-.1-2-.74-.81-.2-4.31-1.96-7.21-5.31-11.46-7.9-1.72-1.05-3.48-2.04-5.2-3.09-.56-.34-1.6-1.12-.47-.3-1.89-1.37.1.63-.98-1.49-3.17-6.26-11.99-8.06-17.79-4.66-6.37,3.72-7.85,11.5-4.66,17.79h0Z"/>
        <path class="cls-13" d="M819.63,714.48c7.42-8.92,15.67-17.01,24.74-24.25,7.28-5.82,3.23-15.92-2.63-20.42-4.43-3.39-10.31-4.07-15.7-4.36-1.12-.06-2.26-.15-3.38-.14-2.8.04,1.68.91-.66-.05l-.9-.26c2.22.52,3.7,1.76,4.46,3.73,1.25,1.51,1.56,3.27.91,5.27.43-.79.88-1.58,1.34-2.36,7.38-12.85,14.92-25.61,22.38-38.42,5.75-9.86-3.74-22-14.68-19.1-13.2,3.5-25.96,8.63-37.99,15.1,6.52,3.74,13.04,7.48,19.56,11.23-.18-11.95,1.22-23.54,5.9-34.6,1.92-4.53,4.97-9.87,8.04-13.61.77-.94,1.59-1.86,2.47-2.71.29-.29,2.94-2.47.62-.72,1.8-1.36,3.77-2.52,5.78-3.56.47-.24,3.58-1.69,1.25-.69,1.14-.49,2.31-.9,3.48-1.3,2.22-.76,4.48-1.41,6.77-1.96s4.72-1.02,7.11-1.41c2.96-.48-.91-.02,1.83-.21,1.33-.09,2.65-.24,3.98-.32,5.16-.31,10.32-.17,15.47.35-2.3-.23.6.09,1.33.22,1.14.2,2.27.43,3.39.7,2.1.5,4.14,1.13,6.16,1.87,6.59,2.44,14.24-2.72,15.99-9.08,2-7.26-2.47-13.55-9.08-15.99-21.99-8.13-51.38-5.29-71.83,5.9-26.17,14.32-35.08,49.47-34.65,77.1.16,10.07,10.86,15.91,19.56,11.23,10.13-5.45,20.65-9.53,31.77-12.48-4.89-6.37-9.79-12.73-14.68-19.1-4.64,7.97-9.28,15.94-13.93,23.91-4.67,8.01-12.71,17.87-12.94,27.43s5.72,16.69,14.7,19c3.2.83,6.62.82,9.91.99.57.02,1.14.05,1.71.09,1.55.14,1.5.12-.14-.06,1.44.42,1.4.31-.12-.33.61.3,1.18.68,1.69,1.13-.88-6.81-1.75-13.61-2.63-20.42-9.07,7.24-17.32,15.33-24.74,24.25-4.49,5.39-5.28,13.1,0,18.38,4.62,4.62,13.87,5.42,18.38,0h0Z"/>
        <path class="cls-13" d="M752.23,844.5c5.75,4.15,8.25,11.55,9.69,18.18.96,4.41,4.04,16.63-2.35,17.62-5.21.81-8.09,7.34-6.81,11.99,1.53,5.56,6.77,7.62,11.99,6.81,17.87-2.77,18.97-23.3,16.77-37.3-2.15-13.65-8.09-25.94-19.45-34.14-4.27-3.08-10.86-.74-13.34,3.5-2.88,4.92-.78,10.25,3.5,13.34h0Z"/>
        <path class="cls-13" d="M786.68,804.79c11.65,3.66,28.84,15.47,18.83,29.27-3.09,4.27-.73,10.87,3.5,13.34,4.93,2.88,10.24.78,13.34-3.5,7.61-10.49,6.84-25.37.36-36.22-6.73-11.26-18.68-17.87-30.84-21.69-12-3.77-17.13,15.05-5.18,18.8h0Z"/>
        <path class="cls-13" d="M815.68,769.6c11.53.65,19.94,11.73,19.3,22.8-.72,12.54,18.78,12.5,19.5,0,1.27-22.08-17.17-41.09-38.8-42.3-12.54-.71-12.5,18.8,0,19.5h0Z"/>
        <g>
          <path class="cls-10" d="M190.69,593.39c-1.52-14.08,12.72-26.51,26.88-26.24,14.16.27,26.68,10.46,33.45,22.91,6.77,12.44,8.75,26.87,9.99,40.98,1.44,16.43,2.03,32.94,1.77,49.44-.16,9.94-.72,20.24-5.32,29.05-2.92,5.59-7.41,10.36-12.82,13.6-6.38,3.82-14.4,5.45-21.36,2.84-9.13-3.43-14.25-12.97-18.04-21.96-14.82-35.13-21.57-73.65-19.57-111.73"/>
          <path class="cls-10" d="M203.69,593.39c0-.08-.04-4.47-.3-1.89.09-.85.4-1.76.61-2.57.72-2.74-.86.57.83-1.72.12-.16,1.32-2.03.28-.66,3.09-4.08,5.56-4.82,9.12-6.05,2.31-.8,5.14-.49,9.11.78,2.9.93,6.75,3.44,9.6,6.21,15.29,14.83,15.42,42.44,16.39,63.3.6,13.05,1.1,26.35.04,39.38-.78,9.55-4.32,18.4-12.69,22.51-7.5,3.68-11.69.77-15.64-5.89-5.82-9.81-9.33-21.3-12.6-32.29-7.96-26.74-11.13-54.37-9.77-82.23.34-7.02-6.22-13-13-13-7.33,0-12.66,5.96-13,13-1.54,31.5,2.51,63.48,12.06,93.55,4.38,13.79,9.21,28.75,18.21,40.27,10.26,13.13,27.01,17.43,42.41,11.03,14.67-6.09,25.06-19.33,28.35-34.81,3.4-16.03,2.41-33.29,1.72-49.56-1.22-29.07-2.28-65.13-26.27-85.65-12.21-10.44-29.38-16.64-45.1-10.62-15.1,5.78-27.59,19.9-26.36,36.89.51,7,5.61,13,13,13,6.64,0,13.51-5.96,13-13h0Z"/>
        </g>
        <path class="cls-13" d="M489.42,682.97c-9.77-25.75-24.01-54.64-53.73-60.99-14.2-3.03-28.18.04-39.09,9.79-10.3,9.2-14.96,23.36-11.7,36.77,7.92-3.34,15.84-6.68,23.76-10.02-9.99-14.76-24.65-27.41-42.67-30.65-18.81-3.38-38.58,2.81-50.08,18.52-10.03,13.71-10.69,32.96-4.57,48.42,6.66,16.8,19.48,29.24,35.98,36.44,16.64,7.26,34.57,10.72,52.19,14.76,15.75,3.61,34.37,7.14,45.06,19.07,1.92,2.14,3.7,4.81,5.19,8.01,1.15,2.46,1.6,4.43,1.62,7.23,0,.93-.02,1.87-.09,2.8.13-1.77-.05.47-.11.73-.39,1.87-.88,3.7-1.51,5.51-.02.05-.9,2.24-.33.93-.39.89-.86,1.77-1.32,2.62-.93,1.74-1.98,3.43-3.11,5.05-3.86,5.53-9.62,9.91-15.81,13.71-8.13,4.98-16.41,9.48-23.83,15.53-15.52,12.67-24.74,32.32-27.77,51.86-3.69,23.77.34,47.43,5.76,70.62,1.6,6.84,9.41,10.89,15.99,9.08,7-1.92,10.68-9.13,9.08-15.99-4.26-18.23-7.81-36.76-5.89-55.56,1.3-12.72,6.66-27.25,15.94-36.81,11.19-11.53,27.41-16.56,39.15-27.64,11.66-11,20.69-27.4,19.81-43.84-.95-17.64-12.26-33.29-26.82-42.65-14.41-9.26-32.78-12.8-49.25-16.5-14.61-3.28-31.57-6.36-44.33-12.57-13.04-6.34-20.86-15.14-23.3-28.86.05.29.16,1.52-.02-.03-.13-1.16-.2-2.33-.22-3.49-.02-.86.19-5.06-.01-3.43.25-2.01.82-4.04,1.47-5.96.47-1.39.08-.35-.05-.05.45-1.04,1.02-2.04,1.61-3.01,3.05-5.05,8.21-7.81,14.94-9.22,5.42-1.14,12.94.32,18.71,3.48,6.46,3.55,12.15,9.1,16.14,15.01,8.13,12.01,27.36,4.76,23.76-10.02-.18-.72-.37-1.95-.22-.51,0,.02.06-3.45-.08-2.22-.11.96,1.57-4.47.74-2.76,1.51-3.14,3.05-4.99,5.42-6.67,2.12-1.5,4.56-2.46,7.18-2.67,4.19-.33,7.12.22,10.9,1.71,16.34,6.41,24.4,25.48,30.44,41.39,2.49,6.56,8.77,11.07,15.99,9.08,6.29-1.73,11.58-9.39,9.08-15.99h0Z"/>
        <path class="cls-13" d="M434.24,760.98l-.6,1.17c.67-.73.69-.78.07-.14-1.04,1.43,1.1-.67-.37.38-1.63,1.17-3.45,2.08-5.16,3.11-4.19,2.51-7.37,5.84-11.41,7.91-1.88.97,2.15-.41-1.45.54-.41.11-2.11.35-.79.22-1.94.19-3.96-.06-5.89-.25-.15-.01-2.73-.41-4.53-.78-2.36-.48-4.72-1.05-7.02-1.79-2.8-.89-4.45-2-7.52-4.84s-5.98-5.91-7.69-8.72c-3.31-5.44-4.03-14.71-4.56-22.27-.49-7.01-5.63-13-13-13-6.66,0-13.49,5.96-13,13,.83,11.96,1.84,25.49,8.44,35.89,7.02,11.06,17.84,20.97,30.42,25.01,11.99,3.85,26.08,5.78,37.8.36,3.3-1.52,6.09-3.56,8.94-5.8-.02.02,3.66-2.65,2.08-1.61,1.13-.75,2.3-1.43,3.47-2.11,5.71-3.35,11.14-7.1,14.22-13.17s1.65-14.09-4.66-17.79c-5.79-3.39-14.6-1.62-17.79,4.66h0Z"/>
        <path class="cls-13" d="M278.06,695.58c-7.42-8.92-15.67-17.01-24.74-24.25-.88,6.81-1.75,13.61-2.63,20.42.52-.45,1.08-.83,1.69-1.13-1.51.64-1.55.75-.12.33-1.64.18-1.69.2-.14.06l1.14-.06c3.32-.18,6.74-.16,10-.92,9.2-2.14,15.41-9.51,15.18-19.1-.22-9.31-7.91-18.8-12.44-26.58-4.81-8.25-9.62-16.51-14.42-24.76-4.89,6.37-9.79,12.73-14.68,19.1,11.12,2.95,21.64,7.02,31.77,12.48,8.7,4.68,19.41-1.15,19.56-11.23.43-27.64-8.48-62.78-34.65-77.1-11.39-6.24-24.39-8.96-37.24-9.89-11.43-.83-23.77-.01-34.59,3.99-6.58,2.43-11.05,8.81-9.08,15.99,1.74,6.33,9.37,11.53,15.99,9.08,2.02-.75,4.07-1.38,6.16-1.87,1.12-.27,2.26-.5,3.39-.7.27-.05,4.07-.5,1.33-.22,4.93-.5,9.86-.64,14.81-.39,1.33.07,2.65.19,3.98.29.66.06,1.33.13,1.99.2-1.03-.16-1.08-.17-.15-.03,2.39.35,4.78.8,7.13,1.35,2.5.58,4.97,1.28,7.4,2.11,1.17.4,2.35.82,3.48,1.3-2.38-1.02,1.09.61,1.25.69,2,1.03,3.97,2.2,5.78,3.56-1.42-1.08-.6-.49.24.36.79.81,1.58,1.6,2.32,2.46,3.39,3.89,6.46,9.24,8.6,14.29,4.56,10.78,6.06,22.6,5.87,34.53,6.52-3.74,13.04-7.48,19.56-11.23-12.02-6.47-24.78-11.6-37.99-15.1-10.93-2.9-20.43,9.23-14.68,19.1,7.46,12.81,15,25.57,22.38,38.42,2.14,3.73.64,1.34,1.27-1.21.51-2.19,1.74-3.66,3.69-4.41,2.08-1.02,2.36-1.27.84-.75-2.07,1.03,2.05.08-.66.05-.93-.01-1.88.07-2.81.12-5.57.28-11.69.87-16.27,4.38-5.86,4.5-9.91,14.6-2.63,20.42,9.07,7.24,17.32,15.33,24.74,24.25,4.49,5.4,13.74,4.64,18.38,0,5.35-5.35,4.5-12.97,0-18.38h0Z"/>
        <path class="cls-13" d="M317.23,827.16c-11.34,8.18-17.33,20.51-19.45,34.14-2.17,13.99-1.12,34.52,16.77,37.3,5.2.81,10.49-1.32,11.99-6.81,1.27-4.62-1.58-11.18-6.81-11.99-6.38-.99-3.31-13.24-2.35-17.62,1.44-6.63,3.94-14.03,9.69-18.18,4.26-3.08,6.34-8.48,3.5-13.34-2.46-4.21-9.05-6.6-13.34-3.5h0Z"/>
        <path class="cls-13" d="M287.43,785.48c-12.21,3.84-24.05,10.44-30.84,21.69-6.53,10.81-7.23,25.76.36,36.22,3.09,4.26,8.48,6.34,13.34,3.5,4.2-2.46,6.61-9.05,3.5-13.34-10.01-13.8,7.19-25.61,18.83-29.27,11.93-3.75,6.84-22.58-5.18-18.8h0Z"/>
        <path class="cls-13" d="M263.62,749.59c-21.63,1.22-40.07,20.22-38.8,42.3.72,12.47,20.22,12.56,19.5,0-.64-11.08,7.77-22.16,19.3-22.8,12.48-.7,12.56-20.21,0-19.5h0Z"/>
        <path class="cls-10" d="M523.41,636.6c-2.67,4.05-3.31,9.95-1.7,14.51,2.04,5.77,6.19,10.17,12.16,11.93,3.2.94,7.16.36,10.02-1.31,2.7-1.58,5.27-4.67,5.97-7.77,1.59-6.97-2.1-13.93-9.08-15.99-.23-.06-.45-.13-.66-.23,1.04.44,2.07.87,3.11,1.31-.32-.16-.59-.33-.88-.54.88.68,1.75,1.36,2.63,2.03-.27-.23-.5-.46-.74-.73.68.88,1.36,1.75,2.03,2.63-.29-.38-.52-.77-.73-1.2.44,1.04.87,2.07,1.31,3.11-.18-.44-.31-.88-.4-1.35.15,1.15.31,2.3.46,3.46-.06-.47-.07-.92-.03-1.39-.15,1.15-.31,2.3-.46,3.46.06-.35.14-.66.25-1-.44,1.04-.87,2.07-1.31,3.11.14-.33.3-.62.5-.92,1.8-2.73,2.16-6.94,1.31-10.02-.83-3.02-3.16-6.28-5.97-7.77-3.02-1.59-6.67-2.39-10.02-1.31-3.32,1.08-5.83,3.04-7.77,5.97h0Z"/>
        <path class="cls-13" d="M537.52,644.67c-.99-1.63-2.12-3.38-2.7-4.91-1-2.62-.31-2.46-1.68.57-.33.72-.23-.4.72-.58-1.49.27,1.2-.41,1.59-.52,2.12-.6-1.33,0,.86-.22,1.16-.11,2.51-.14,3.65.04-1.7-.27,3.06,1.39,1.71.7,2.85,1.45.1-.25,1.39.97,1.45,1.38-.46-1.01.49.63.42.79.46.79.11.01l.38,1.32c-.2-1.39.03-.06.04.61l-.05,1.36c.1-1.01.05-1.06-.17-.15-.27.1-.51.55.39-.52-4.5,5.38-5.27,13.11,0,18.38,4.63,4.63,13.86,5.41,18.38,0,7.38-8.81,9.49-20.02,4.95-30.75-4.57-10.8-14.79-17.09-26.18-18.39-9.84-1.12-21.05,1.99-27.54,9.8-8.91,10.72-5.35,23.9,1.19,34.75,8.63,14.31,31.12,1.26,22.45-13.12h0Z"/>
        <path class="cls-5" d="M361.43,283.07c38.44-8.78,76.88-19.05,115.83-25.26,3.52-.56-3.81.41-.27.04,1.3-.14,2.6-.31,3.91-.46,2.28-.25,4.56-.48,6.85-.69,5.22-.48,10.46-.84,15.69-1.13,9.83-.55,19.67-.86,29.51-1.17,19.36-.62,38.73-1.42,58.11-1.49,19.65-.07,39.24.78,58.75,3.13,3.5.42-3.85-.63-.38-.03.95.16,1.91.28,2.87.43,2.17.34,4.34.71,6.5,1.1,4.34.79,8.65,1.68,12.94,2.69,8.05,1.89,16.02,4.18,23.83,6.91,3.36,1.17,7.31,3.65,10.8,4.11-3.64-.48-2.81-1.24-.95-.38,1,.46,2,.89,3,1.36,1.99.92,3.96,1.87,5.92,2.86,7.3,3.69,14.37,7.87,21.07,12.57.89.62,1.76,1.28,2.66,1.9,1.46,1.01,1.91,2.49-.75-.64,1.15,1.36,3.09,2.47,4.44,3.61,3.13,2.64,6.2,5.39,9.05,8.33,0,0,2.11,1.96,2.08,2.26-.02.17-2.33-4.08-.88-.84-.39-.87-.99-4.8-.66-1.38-.41-4.26-.39-7.45,1.74-11.11,3.87-6.64-.09-1.02-1.36.51-2.34,2.83-4.58,5.67-6.18,8.97-4.6,9.5-6.44,19.82-5.92,30.35.19,3.84.66,7.65,1.16,11.46.2,1.52.41,3.04.61,4.56,1.33,9.88-.3-3.43.04.44.18,2.07.4,4.13.48,6.21.06,1.63.07,3.26,0,4.89-.03.69-.09,1.39-.11,2.08-.16,3.9.1-1.65.34-2.03-.66,1.04-.77,3.29-1.05,4.56-.21.9-1.37,3.76.03.3,1.49-3.7-.26.03-.59.66-1.73,3.34,3.35-3.72-.08-.31-2.04,2.02,4.16-2.77,1.36-1.23-2.25,1.23,1.87-.76,1.96-.72.3.14-2.96.69-2.95.76-.05-.64,6.07-.05,1.53-.43-.76-.06-1.59-.11-2.35-.11-2.68.02,4.67,1.23.57-.02-17.66-5.36-34.53-13.17-51.94-19.36-17.92-6.38-36.09-12.05-54.45-17.01-38.55-10.41-78.73-18.76-118.84-18.05-21.19.38-42.31,3.33-63.18,6.86-18.61,3.15-37.72,5.95-55.84,11.32-17.73,5.26-32.45,14.57-47.87,24.35-3.31,2.1-6.67,4.14-10.13,5.98-.77.41-4.28,2.73-4.84,2.39-.02-.01,5.46-2.02,1.26-.56-.96.33-1.91.69-2.87,1-1.94.62-3.9,1.07-5.89,1.52-4.19.96,5.15-.78-.69-.03l-.69.02c9.28,1.23,14.47,5.57,15.58,13.02.07.23,2.3,6.81.74,7.88-.13.09.86-2.36.8-2.54.29.95-2.33,5.06-.37,1.2,9.78-19.32,9.52-41.44,1.94-61.51-1.6-4.25-3.5-8.38-5.06-12.64-.72-1.98-1.39-3.98-1.92-6.02-.23-.88-.63-4.55-.45-1.29.21,3.81.03-2.2.06-2.19.19.01-.96,4.13-.31,1.91.25-.85.54-1.76.7-2.62.39-2.18-.84,2.28-1.08,2.4.16-.08,1.09-1.95,1.27-2.32,1-2.11,1.93-.46-1.29,1.4.52-.3,1.43-1.66,1.78-2.02.82-.86,3.85-2.77,4.03-3.73-.07.37-4.63,3.25-1.29,1.06.59-.39,1.17-.8,1.77-1.19,1.4-.92,2.83-1.78,4.28-2.61,3.29-1.88,6.69-3.56,10.12-5.18,10.9-5.18,14.59-21.64,8.25-31.47-7.22-11.2-19.81-13.79-31.47-8.25-17.77,8.45-35.04,20.49-40.93,40.32-3.5,11.77-1.55,24.5,2.78,35.74,1.72,4.46,3.71,8.8,5.28,13.32,1.25,3.6,3.77,9.35,3.34,13.19.49-4.37-.31-2.86-.25-1.07.04,1.12.13,2.23.13,3.35s-.08,2.22-.08,3.33c0,4.34-.21-.71.26-1.18-.13.13-1.54,6.47-1.64,6.39-.13-.11,2.48-5.12.35-.91-.5.98-.98,1.97-1.44,2.97-2.73,5.94-5.05,11.82-5.09,18.49-.05,9.97,5.14,19.49,13.7,24.67,10.65,6.44,25.23,4.38,36.44.46,9.25-3.23,17.88-7.74,26.13-12.97,7.37-4.67,14.53-9.71,22.22-13.86,1.94-1.05,3.94-1.95,5.91-2.94,2.96-1.49-3.69,1.3-.55.25,1.13-.38,2.23-.84,3.35-1.24,4.79-1.68,9.68-3.04,14.61-4.22,19.92-4.77,40.4-8.19,60.66-11.16.96-.14,1.93-.28,2.89-.42,4.46-.64.49-.13-.32.04,2.5-.54,5.19-.64,7.73-.91,5.48-.59,10.97-1.06,16.47-1.38,10.62-.61,21.26-.57,31.88.08,5.12.32,10.24.77,15.34,1.34.96.11,1.91.22,2.87.34.74.09,4.83.62,1.72.2-3.11-.42.98.15,1.71.26,1.59.23,3.18.48,4.76.73,10.48,1.68,20.89,3.78,31.24,6.13,40.23,9.15,79.61,21.82,117.72,37.61,20.86,8.64,46.57,12.29,63.29-6.7,8.05-9.14,11.33-20.13,12.5-32.04.36-3.7.35-7.43.08-11.14-.14-1.82-.35-3.63-.57-5.44l-.82-6.11c.14,1.04.28,2.09.42,3.13.17-1.13-.35-2.66-.48-3.79-.48-4.06-.84-8.14-.76-12.23.02-.99.15-2,.14-2.99-.03-2.47-.34,2.37-.39,2.46.34-.71.39-2.02.6-2.83.17-.7.38-1.38.62-2.06.58-1.65.26-.92-.96,2.2.1,0,1.44-2.76,1.44-2.48,0,.43-3.75,4.39-.71,1.11,2.23-2.41,4.41-5.06,6.14-7.84,4.59-7.4,5.3-17.13,2.88-25.35-3.32-11.27-12.31-19.9-21.03-27.27-7.73-6.53-15.91-12.62-24.55-17.88-34.49-20.99-74.46-30.18-114.29-33.61-41.76-3.59-84.29-1.22-126.08.75-22.49,1.06-44.81,3.64-66.85,8.26-20.81,4.37-41.51,9.36-62.24,14.1-10.35,2.36-20.7,4.73-31.04,7.09-11.74,2.68-19.77,16.83-16.06,28.29,3.98,12.29,15.71,18.94,28.29,16.06h0Z"/>
        <g>
          <path class="cls-11" d="M341.1,403.04c98.56-68.09,232.18-73.57,344.05-30.74,17.65,6.76,35.11,14.76,49.63,26.85,7.13,5.94,13.5,12.82,21.16,18.07,6.98,4.79,14.87,8.09,22.83,10.96,36.84,13.25,76.84,17.63,115.68,12.67,3.96,5.65,1.39,13.98-3.84,18.47-5.23,4.5-12.32,6.05-19.13,7.15-90.64,14.57-179.81-25.41-268.95-47.37-25.31-6.24-51.2-11.07-77.26-10.61-39.98.7-78.54,13.74-117.13,24.23-65.72,17.87-133.13,28.61-200.39,39.31-11.27,1.79-27.03.49-28.51-10.82-.61-4.64,1.88-9.17,5-12.66,15.1-16.92,41.39-15.11,64.07-14.81,23.88.32,47.8-2.57,70.92-8.57,5.06-1.31,10.99-7.63,6.48-10.27"/>
          <path class="cls-11" d="M352.71,422.9c14.84-10.2,30.52-19.12,46.89-26.63,2.16-.99,4.34-1.93,6.5-2.9,2.88-1.29-4.05,1.65-1.13.47.98-.4,1.95-.8,2.93-1.2,4.4-1.78,8.84-3.46,13.31-5.04,8.46-3,17.03-5.66,25.7-7.98s17.46-4.32,26.3-5.99c4.17-.79,8.35-1.5,12.54-2.14,1.31-.2,2.62-.39,3.94-.58,2-.3,2.59-1.35-1.38.18,1.98-.77,5-.62,7.12-.85,18.02-1.97,36.17-2.65,54.29-2.12,9.36.28,18.7.88,28.02,1.8,4.25.42,8.51,1.14,12.77,1.46-.58-.04-5.47-.79-1.34-.17,1.06.16,2.12.31,3.18.46,2.65.4,5.29.82,7.93,1.27,17.94,3.05,35.67,7.27,53.06,12.64,8.66,2.67,17.24,5.63,25.71,8.88,2.14.82,4.28,1.66,6.4,2.52,1.06.43,2.14.84,3.19,1.31-4.74-2.13-1.76-.74-.74-.28,4.7,2.13,9.37,4.32,13.92,6.77,4.02,2.17,7.96,4.5,11.75,7.05,1.86,1.25,3.9,2.48,5.58,3.97-3.81-3.37-1.43-1.12-.62-.4,1.3,1.16,2.65,2.26,3.95,3.42,8.41,7.52,16.61,15.48,26.47,21.13,20.89,11.97,46.25,18.48,69.9,22.12,25.16,3.87,50.32,4.9,75.62,1.77-6.62-3.8-13.24-7.59-19.86-11.39l.71,1.16c-1.27-1.97-1.91-4.12-1.92-6.47.19-1.14.38-2.28.57-3.42-.65,2.34-.31,1.82,1.01-1.55l-.66,1.24c-1.33,2.04-.98,1.6,1.06-1.31-2.99,3.69,3.99-2.93-.25.02-4.02,2.8,4.49-.95-.35.1-1.56.34-3.09.86-4.66,1.19s-3.15.6-4.73.86c-1.21.2-2.43.38-3.65.56,3.07-.4,3.29-.43.64-.09-15.13,1.66-30.26,2.22-45.46,1.47-7.27-.36-14.52-.98-21.75-1.82-1.81-.21-3.63-.39-5.43-.67,6.05.94-.1-.04-1.12-.19-4.23-.63-8.45-1.33-12.65-2.09-15.17-2.73-30.19-6.22-45.1-10.11-61.64-16.04-122.51-40.65-186.54-45.31-32.75-2.38-65.42,3.62-96.99,11.92-30.85,8.12-61.35,17.24-92.5,24.22-31.65,7.09-63.56,12.94-95.54,18.31-16,2.69-32.02,5.26-48.04,7.82-1.92.31-3.84.61-5.77.92-2.15.34-7.93.14-.04.11-2.44.01-4.85.4-7.31.33-1.21-.04-2.46-.27-3.66-.26,6.29-.04,3.76.58,1.47-.06-3.45-.96-1.32-1.93,1.37.74-.62-.32-1.21-.68-1.78-1.08,3.21,2.68,4.02,3.2,2.43,1.57.82,1.01,1.64,2.01,2.45,3.02,1.48,4,1.88,4.86,1.2,2.59.66,2.18.71,4.37.14,6.56-1.49,3.04-1.65,3.44-.47,1.21,2.7-4.38-3.45,2.91.2-.2.66-.68,1.34-1.33,2.05-1.96,1.86-1.57,1.41-1.23-1.38,1.01.51.07,2.97-1.9,3.5-2.2.8-.45,1.62-.87,2.45-1.26-3.4,1.37-3.95,1.6-1.66.71,3.16-1.02,6.27-1.97,9.54-2.6l1.42-.26c2.5-.39,1.91-.33-1.79.2,1.55.38,4.26-.43,5.89-.53,3.49-.23,6.99-.31,10.49-.33,7.38-.04,14.76.27,22.14.21,19.44-.17,38.99-2.42,58.02-6.34,10.46-2.15,21.05-4.39,28.93-12.22,10.23-10.17,13.66-29.6.9-39.56-5.03-3.92-9.6-6.74-16.26-6.74-5.64,0-12.38,2.51-16.26,6.74-7.57,8.25-10.13,24.62,0,32.53l-1.46-11.36c-3.28-5.05-3.43-9.3-.45-12.75,1.04-1.4,2.11-2.39,3.58-3.35-.65.42-2.84,1.53.42-.02,3.63-1.73-.14-.26-1.25.02-4.07,1.01-8.17,1.92-12.28,2.74-4.12.82-8.25,1.53-12.4,2.16-.95.14-1.92.32-2.87.42.26-.02,4.03-.47,1.31-.2-2.25.23-4.49.52-6.74.73-15.14,1.44-30.17.92-45.33.99-15.84.08-31.31,1.99-45.84,8.52-18.49,8.31-33.03,27.38-29.08,48.27,3.62,19.12,22.96,27.57,40.45,28.32,7.74.33,15.47-1.3,23.07-2.51,8.33-1.33,16.66-2.66,24.99-4.01,33.3-5.39,66.57-11.06,99.61-17.89,32.74-6.76,64.95-15.18,97.12-24.21,15.66-4.4,31.39-8.63,47.37-11.7,3.98-.76,7.97-1.41,11.96-2.06,4.57-.74-3.32.34,1.28-.19,2.16-.25,4.32-.5,6.49-.7,8.12-.76,16.28-1.07,24.43-.86,4.12.1,8.25.33,12.36.66,1.9.15,3.8.33,5.69.53.95.1,1.89.2,2.84.31.54.06,4.67.64,1.67.18s.27.04.72.11c1.26.19,2.52.38,3.77.58,1.89.3,3.77.62,5.65.95,4.08.72,8.14,1.52,12.19,2.37,15.91,3.35,31.65,7.52,47.3,11.92,31.51,8.86,62.69,18.86,94.38,27.03,32.13,8.29,65.08,14.7,98.3,16.14,15.81.69,31.61.05,47.29-2.03,18.88-2.5,40.49-6.67,49.21-26.17,5.07-11.33,5.73-23.91-.91-34.87-3.82-6.3-12.01-12.36-19.86-11.39-10.63,1.32-21.32,2.01-32.03,1.98-5.2-.02-10.4-.19-15.59-.53-2.44-.16-4.88-.36-7.32-.59-1.22-.12-2.44-.24-3.65-.37-1.31-.14-6.97-.7-1.17-.08-10.28-1.1-20.59-3.53-30.55-6.22-4.73-1.27-9.41-2.69-14.05-4.24-2.6-.87-5.19-1.78-7.76-2.74-1.13-.43-2.25-.89-3.39-1.31-2.63-.97,3.59,1.75-.35-.19-2.17-1.07-4.34-2.11-6.44-3.32-1.31-.75-2.59-1.55-3.85-2.38-.62-.41-3.81-2.54-1.23-.76,2.54,1.75-.47-.41-1.07-.91-.89-.75-1.76-1.51-2.63-2.27-2.18-1.92-4.3-3.9-6.45-5.86-8.44-7.68-17.54-14.73-27.41-20.48-17.56-10.24-37.07-17.55-56.32-23.9-72.61-23.95-152.38-28.64-226.97-11.3-41.43,9.63-81.63,26.69-116.73,50.8-9.9,6.8-15.32,20.5-8.25,31.47,6.35,9.85,20.86,15.54,31.47,8.25h0Z"/>
        </g>
        <g>
          <path class="cls-8" d="M541.71,442.53c62.39-7.84,120.93,28.65,182.47,41.55,50.48,10.58,102.79,11.12,154.27,14.17-35.57,17.18-71.14,28.34-106.71,45.52-3.05,1.47-6.26,3.09-8.04,5.97-1.49,2.4-1.75,5.34-1.89,8.16-1.19,23.7,2.53,51.26-14.69,67.59-5.71,5.41-13.09,8.73-20.6,11.06-28.57,8.85-62.92,2.88-82.41-19.8-13.29-15.47-20.17-38.18-39.05-45.9-7.37-3.01-15.55-3.17-23.5-3.28-36.66-.52-73.31-1.04-109.97-1.56-3.07-.04-6.35-.03-8.91,1.65-2.9,1.9-4.17,5.45-5.23,8.75-6.87,21.42-14.22,45.31-33.71,56.56-12.69,7.33-28.3,7.66-42.77,5.36-24.64-3.92-50.5-17.8-56.97-41.89-4.8-17.89,1.32-39.78-11.26-53.38-5.41-5.85-13.23-8.7-20.74-11.34-32.23-11.31-64.58-22.29-97.04-32.95,127.95.68,250.47-72.12,377.59-57.57"/>
          <path class="cls-8" d="M541.71,465.53c10.74-1.28,21.54-1.39,32.31-.42,2.22.2,4.55.28,6.73.74-6.62-1.4,1.8.36,3.11.59,5.33.94,10.61,2.07,15.87,3.36,20.89,5.11,41.13,12.51,61.41,19.57,20.53,7.14,41.17,13.87,62.54,18.03,24.53,4.77,49.48,7.54,74.39,9.39,26.76,1.98,53.59,2.9,80.38,4.47-3.87-14.29-7.74-28.57-11.61-42.86-3.83,1.84-7.68,3.64-11.56,5.39-2.07.93-4.14,1.85-6.22,2.76-.89.39-1.78.77-2.67,1.15-.44.19-4.27,1.78-1.7.73,2.53-1.02-.46.19-.81.34-1.19.49-2.37.98-3.56,1.47-1.78.73-3.56,1.46-5.34,2.18-4.14,1.68-8.3,3.34-12.45,5-17.35,6.92-34.72,13.81-51.73,21.51-8.92,4.04-18.15,7.73-24.32,15.72-6.95,8.99-7.71,19.66-7.92,30.62-.13,6.77-.08,13.55-.4,20.32-.15,3.2-.67,6.41-.78,9.6,0,.11.85-5.03.3-2.52-.15.7-.24,1.42-.38,2.13-.36,1.86-.79,3.7-1.31,5.52-.35,1.22-1.21,2.73-1.3,3.98.04-.45,2.47-5.07.7-1.68-.32.61-.62,1.23-.95,1.84-.66,1.22-1.46,2.34-2.16,3.53-1.48,2.51,3.12-3.4,1.03-1.34-.68.67-1.28,1.41-1.96,2.08-.16.16-1.79,1.56-1.76,1.63-.09-.21,3.59-2.36,1.33-1.05-1.7.98-3.3,2.11-5.05,3.01-.75.39-1.53.72-2.28,1.1-2.38,1.21,1.59-.68,1.59-.69-1.13,1.18-4.55,1.59-6.18,2.06-3.02.88-6.1,1.59-9.2,2.14-.7.12-1.48.16-2.16.36-.1.03,5.08-.53,2.5-.35-1.94.13-3.88.36-5.83.45-3.16.14-6.33.11-9.49-.09-1.42-.09-2.94-.44-4.35-.39.46-.02,5.73.95,1.8.22-.95-.18-1.9-.33-2.85-.53-3.06-.62-6.09-1.42-9.06-2.39-1.36-.45-2.69-.99-4.05-1.46-2.36-.81,2.25.97,2.2.94-.9-.63-2.21-1.03-3.21-1.55-2.77-1.41-5.31-3.09-7.93-4.75-3.48-2.21,3.23,2.87.13.14-1.43-1.26-2.86-2.51-4.21-3.87-1.01-1.02-1.99-2.08-2.93-3.18-.44-.52-.86-1.06-1.31-1.57-1.92-2.23,2.76,3.83,1.09,1.39-1.83-2.68-3.69-5.33-5.43-8.07-3.34-5.28-6.5-10.68-10.13-15.77-9.93-13.92-22.54-26.12-39.91-29.74-17.85-3.72-36.98-2.35-55.12-2.61-17.99-.26-35.99-.51-53.98-.77-8.5-.12-17.04-.53-25.54-.35-13.26.29-25.86,6.43-31.46,18.96-3.22,7.19-5.28,14.78-7.87,22.2-1.05,3.01-2.21,5.98-3.36,8.96-1.1,2.85,1.91-4.21.6-1.46-.31.66-.59,1.33-.9,1.99-.71,1.53-1.46,3.04-2.25,4.53-1.45,2.74-3.09,5.31-4.78,7.9-2.12,3.26,3.12-3.58-.25.32-1.06,1.23-2.17,2.42-3.34,3.54-.55.53-4.89,4.21-1.92,1.82,2.81-2.28-.97.51-1.76.99-.92.55-1.95.98-2.84,1.56-2.15,1.4,1.39-.83,1.67-.61-.34-.26-4.9,1.62-5.57,1.79-1.37.36-4.56.38-5.75,1.18.22-.15,4.48-.34,1.92-.33-.84,0-1.7.13-2.54.17-4,.2-7.94-.05-11.93-.32-1.59-.11-3.67-1.09,1.04.22-.75-.21-1.59-.24-2.36-.37-1.38-.23-2.75-.49-4.12-.78-3.23-.68-6.42-1.52-9.56-2.53-1.58-.51-3.13-1.08-4.69-1.64-3.96-1.41,4.03,1.98.26.13-2.95-1.45-5.87-2.89-8.68-4.62-1.38-.85-2.67-1.83-4.04-2.7-2.06-1.3,1.96,1.57,1.91,1.52-.45-.48-1.07-.88-1.58-1.31-2.42-2.08-4.49-4.39-6.64-6.73-1.63-1.76,1.58,2.08,1.55,2.01-.29-.7-1.07-1.54-1.5-2.22-.72-1.13-1.39-2.29-2.01-3.48-.4-.77-.71-1.7-1.17-2.43,0-.01,1.64,4.65,1.07,2.34-.39-1.58-1.01-3.11-1.38-4.7-.26-1.08-1.14-6.49-.61-2.77.53,3.77-.05-1.25-.12-2.17-.26-3.52-.37-7.06-.52-10.59-.76-17.39-3.6-35.92-17.26-48.25-13.87-12.51-33.33-17.08-50.6-23.05-16.76-5.8-33.56-11.51-50.38-17.13-8.41-2.81-16.83-5.6-25.26-8.37-2.04,15.06-4.08,30.12-6.11,45.18,51.47.14,102.28-10.8,151.91-23.49,24.35-6.23,48.59-12.89,73.01-18.84,12.4-3.02,24.84-5.87,37.36-8.36,5.65-1.13,11.32-2.18,17.01-3.16,2.83-.48,5.67-.95,8.51-1.39,1.7-.26,3.4-.52,5.11-.76,1.14-.16,2.27-.32,3.41-.48-.9.12-1.8.24-2.71.37,13.24-2.62,27.55-2.93,41.01-3.27,14.36-.36,28.71.23,42.98,1.82,12,1.34,23.51-11.53,23-23-.61-13.6-10.14-21.57-23-23-102-11.36-199.21,30.43-297.58,49.43-6.83,1.32-13.68,2.53-20.56,3.61-1.71.27-3.43.53-5.15.78-1.14.17-2.29.33-3.43.49l2.68-.35c-3.42.52-6.88.87-10.32,1.25-14.36,1.57-28.78,2.4-43.23,2.36-11.47-.03-21.09,8.78-22.59,19.94-1.56,11.59,5.48,21.62,16.47,25.24,33.69,11.07,67.56,21.96,100.81,34.3.56.21,1.67.87,2.26.86-2.65.06-3.38-1.61-1.08-.41,1.41.73,2.79,1.51,4.19,2.27,2.72,1.47-.55.9-.83-.83.05.33,1.46,1.35,1.73,1.62.42.43,1,1.36,1.51,1.66-.96-.56-2.52-3.9-1.17-1.19-.01-.03,1.1,2.38,1.29,2.46-.23-.1-1.52-4.51-1.04-2.27.35,1.59.95,3.14,1.3,4.74.15.7.23,1.41.39,2.11.57,2.47-.31-2.6-.32-2.53-.07,1.92.37,3.98.49,5.9.98,16.49,1.43,32.25,9.21,47.27,14.96,28.87,48.72,42.06,79.28,45.2,17.62,1.81,37.33-1.21,52.07-11.58,13.05-9.17,22.63-21.77,29.03-36.31,3.38-7.66,6.36-15.44,8.98-23.39.97-2.95,2.25-5.98,2.91-9.01.51-2.34-.9,1.86-.96,1.98.54-.99,1.71-1.99-.2-.13-2.52,2.45-5.25,4.29-8.67,5.19-3.14.83-.26.16.79.15,18.24-.07,36.52.51,54.76.77,17.99.26,35.99.51,53.98.77,3.81.05,7.62.07,11.42.36.38.03,2.27.43,2.56.23-.47.34-5.42-1.16-1.07-.04.82.21,1.65.38,2.47.6s4.14,1.65,1.1.15c-3.08-1.52,1.34.76,2.19,1.27.54.32,1.09.81,1.65,1.07,1.95.89-1.93-1.47-2.04-1.65,1.33,2.19,4.7,4.52,6.53,6.48,2.58,2.77-2.88-4.03.12.13.94,1.29,1.84,2.61,2.72,3.94,1.79,2.7,3.5,5.47,5.21,8.22,4.12,6.62,8.43,12.94,13.27,19.07,10.08,12.76,24.06,21.28,39.08,27,29.3,11.17,68.64,7.77,93.75-11.62,27.44-21.2,25.47-56.67,26.3-87.84.02-.82.65-3.21-.04-.32-.33,1.37-.49,2.49-1.2,3.77-.62,1.11-2.82,4.37-4.09,4.34.41,0,1.54-.87,1.92-1.08,3.82-2.03,7.81-3.77,11.75-5.56,3.83-1.74,7.69-3.43,11.56-5.1.35-.15,3.31-1.45.81-.35-2.69,1.18,1.06-.44,1.7-.71,2.07-.86,4.15-1.71,6.22-2.56,17.54-7.15,35.19-14,52.62-21.4,8.08-3.43,16.09-7.02,24.01-10.82,8.74-4.2,13.5-16.92,10.57-25.97-3.26-10.07-11.66-16.27-22.18-16.89-23.6-1.38-47.23-2.26-70.82-3.81-12.11-.79-24.21-1.76-36.27-3.07-2.54-.28-5.07-.57-7.6-.87-1.27-.15-2.53-.32-3.79-.47-6.16-.76,3.31.51-.51-.07-5.98-.91-11.96-1.79-17.91-2.87-42.97-7.76-82.54-26.33-124.59-37.38-24.37-6.41-50.08-10.18-75.25-7.18-6.31.75-11.59,2.07-16.26,6.74-3.99,3.99-6.99,10.53-6.74,16.26.5,11.24,10.2,24.53,23,23h0Z"/>
        </g>
        <path class="cls-13" d="M494.02,404.77c-29.2,3.87-58.31,8.71-86.1,18.77-12.87,4.66-25.61,10.03-37.28,17.23-10.57,6.52-20.45,14.07-30.5,21.34s-20.74,14.62-32.1,20.25c-11.55,5.72-23.93,8.49-36.55,10.74-27.16,4.84-54.49,1.83-81.84.25-26.73-1.55-53.44-3.02-80.21-3.67-12.23-.29-12.23,18.71,0,19,23.66.57,47.28,1.76,70.9,3.13,12.95.75,25.9,1.5,38.85,2.18,14.28.75,28.2,1.51,42.43-.31,13.28-1.71,26.99-3.75,39.71-8.08s24.27-10.65,35.31-17.96c20.89-13.84,39.8-30.46,62.99-40.53,29.92-12.99,62.23-19.08,94.4-23.35,5.09-.67,9.5-3.88,9.5-9.5,0-4.61-4.38-10.18-9.5-9.5h0Z"/>
        <path class="cls-13" d="M492.48,409.2c-31.67,7.56-61.97,21.5-88.02,41.06-13.12,9.85-25.7,20.73-37.42,32.2-10.03,9.81-19.28,20.38-29.13,30.38-11.76,11.93-24.22,23.01-38.87,31.28-10.65,6.01-1.08,22.43,9.59,16.41,25.64-14.47,44.83-36.73,64.98-57.67,21.61-22.47,46.07-42.84,73.92-57.08,15.88-8.12,32.67-14.11,50.01-18.25,11.89-2.84,6.85-21.16-5.05-18.32h0Z"/>
        <path class="cls-13" d="M341.26,381.05c12.71-7.88,26.3-11.7,41.16-12.67,14.29-.93,29.71-2.19,43.87.35,24.28,4.36,50.75,18.78,56.84,44.52,2.81,11.89,21.14,6.86,18.32-5.05-5.84-24.69-26.36-42.15-48.98-51.53-11.53-4.78-23.89-7.47-36.36-8.03-13.25-.59-27.13-.12-40.32,1.3-15.85,1.71-30.52,6.27-44.12,14.7-10.37,6.43-.84,22.88,9.59,16.41h0Z"/>
        <path class="cls-8" d="M248.74,443.08c-8.67-5.81-18.46-9.57-28.23-13.12-10.11-3.67-20.23-7.31-30.34-10.96-4.83-1.74-10.4,1.96-11.69,6.64-1.45,5.28,1.79,9.94,6.64,11.69,9.55,3.45,19.1,6.89,28.65,10.35,8.87,3.21,17.5,6.54,25.38,11.82,10.19,6.83,19.71-9.63,9.59-16.41h0Z"/>
        <g>
          <path class="cls-13" d="M408.44,357.76c8.4,2.26,17.77,3.66,25.46,11.35,3.76,3.76,7.21,9.08,8.04,14.34.84,5.35,2.36,8.1,3.2,13.45.74,4.69,1.6,9.67,4.75,13.23,2.39,2.7,5.82,4.26,9.25,5.35,10.09,3.23,11.92,6.75,22.08,3.77,3.65-1.07,8.2-1.05,7.59-5.11-.3-1.98-.23-2.54-1.15-4.32-10.45-20.23-34.34-47.91-57.06-49.47"/>
          <path class="cls-13" d="M405.91,366.93c6.58,1.73,13.95,2.84,19.43,7.19,6.44,5.11,7.16,11.87,9.23,19.26,2.31,8.21,2.47,16.84,8.6,23.47,5.53,5.99,13.9,7.83,21.2,10.79,12.47,5.05,36.67,1.12,33.52-16.65-1.12-6.32-5.4-12.29-8.96-17.53-4.39-6.46-9.29-12.65-14.68-18.3-11.71-12.27-26.31-22.76-43.63-24.3-5.12-.46-9.5,4.69-9.5,9.5,0,5.52,4.37,9.04,9.5,9.5,13.65,1.22,25.8,13.41,34.31,23.28,4.83,5.59,9.07,11.69,12.72,18.12.39.69,1.7,3.21,1.68,3.18.36,3.36,1.62,1.55,3.8-5.43-.72.21-1.44.39-2.18.54-2.39.59-5.67,1.54-7.2,1.28-3.05-.52-5.97-2.27-8.83-3.35-2.97-1.13-6.93-1.68-8.6-4.69-1.87-3.36-1.78-7.94-2.66-11.63-.93-3.91-1.85-7.91-2.88-11.79-2.47-9.29-9.17-17.35-17.14-22.52-6.85-4.44-14.9-6.18-22.68-8.22-11.84-3.11-16.89,15.21-5.05,18.32h0Z"/>
        </g>
        <path class="cls-13" d="M589.59,423.13c28.65,3.8,57.2,9.07,84.33,19.3,12.11,4.56,23.56,10.13,34.37,17.24,10.44,6.87,20.33,14.53,30.54,21.74,10.34,7.3,21.04,14.19,32.67,19.28,12.48,5.46,25.45,8.42,38.85,10.65,14.15,2.36,27.92,3.33,42.24,2.61,13.8-.68,27.59-1.45,41.39-2.25,26.73-1.55,53.44-3.02,80.21-3.67,12.21-.29,12.25-19.29,0-19-23.66.57-47.28,1.76-70.9,3.13-12.95.75-25.9,1.5-38.85,2.18-14.11.74-27.94,1.59-42-.26-12.73-1.68-25.9-3.98-37.97-8.48-11.79-4.4-22.63-11.3-32.93-18.43-10.31-7.14-20.22-14.84-30.6-21.88-10.93-7.42-22.36-13.26-34.57-18.29-30.96-12.73-63.75-18.51-96.77-22.89-5.1-.68-9.5,4.85-9.5,9.5,0,5.69,4.39,8.82,9.5,9.5h0Z"/>
        <path class="cls-13" d="M586.07,426.89c30.64,7.32,59.59,20.81,84.62,40.01,12.42,9.53,24.35,20.16,35.37,31.28,9.82,9.91,19.06,20.39,28.96,30.23,12.04,11.97,25.13,23.1,39.96,31.48,10.66,6.02,20.25-10.39,9.59-16.41-25.47-14.38-43.88-37.18-64.09-57.75-22.52-22.92-48.24-43.82-77.11-58.17-16.64-8.27-34.17-14.69-52.25-19-11.89-2.84-16.96,15.48-5.05,18.32h0Z"/>
        <path class="cls-13" d="M751.93,364c-11.65-7.23-24.41-11.99-37.98-13.92-13.72-1.95-27.69-2.07-41.53-2.17-25.01-.19-50.71,8.72-69.41,25.49-10.08,9.04-17.73,20.92-20.86,34.16-2.81,11.89,15.5,16.96,18.32,5.05,6.09-25.74,32.57-40.16,56.84-44.52,14.16-2.54,29.58-1.28,43.87-.35,14.86.97,28.45,4.79,41.16,12.67,10.42,6.46,19.97-9.97,9.59-16.41h0Z"/>
        <path class="cls-8" d="M844.45,458.84c7.88-5.28,16.51-8.61,25.38-11.82,9.55-3.46,19.1-6.9,28.65-10.35,4.82-1.74,8.07-6.46,6.64-11.69-1.28-4.66-6.84-8.39-11.69-6.64-10.11,3.65-20.23,7.29-30.34,10.96-9.77,3.55-19.55,7.31-28.23,13.12-10.11,6.77-.61,23.24,9.59,16.41h0Z"/>
        <g>
          <path class="cls-13" d="M675.17,357.12c-8.4,2.26-17.77,3.66-25.46,11.35-3.76,3.76-7.21,9.08-8.04,14.34-.84,5.35-2.36,8.1-3.2,13.45-.74,4.69-1.6,9.67-4.75,13.23-2.39,2.7-5.82,4.26-9.25,5.35-10.09,3.23-11.92,6.75-22.08,3.77-3.65-1.07-8.2-1.05-7.59-5.11.3-1.98.23-2.54,1.15-4.32,10.45-20.23,34.34-47.91,57.06-49.47"/>
          <path class="cls-13" d="M672.64,347.96c-7.77,2.04-15.83,3.78-22.68,8.22-7.97,5.17-14.67,13.23-17.14,22.52-1.03,3.88-1.95,7.87-2.88,11.79-.87,3.69-.78,8.27-2.66,11.63-1.68,3.01-5.63,3.57-8.6,4.69-2.86,1.08-5.78,2.83-8.83,3.35-1.53.26-4.82-.69-7.2-1.28-.73-.15-1.46-.33-2.18-.54,2.18,6.98,3.45,8.79,3.8,5.43-.03.03,1.29-2.49,1.68-3.18,3.64-6.43,7.89-12.52,12.72-18.12,8.51-9.87,20.66-22.06,34.31-23.28,5.11-.46,9.5-4.04,9.5-9.5,0-4.79-4.36-9.96-9.5-9.5-15.3,1.37-28.3,9.67-39.29,19.99-10.35,9.72-20.14,21.86-26.23,34.76-3.66,7.74-2.82,17.2,5.86,20.9,6.5,2.77,14.66,4.29,21.58,2.64,2.82-.67,5.43-2.02,8.12-3.07,3.98-1.55,8.22-2.62,11.91-4.83,8.12-4.87,11.08-12.94,12.68-21.8,1.43-7.98,2.91-17.67,8.8-23.59,5.66-5.69,13.83-6.95,21.27-8.91,11.82-3.1,6.81-21.44-5.05-18.32h0Z"/>
        </g>
        <path class="cls-13" d="M726.79,407.11c-1-.19-2.02-.38-2.97-.76,1.59.63-2.05-1.27-1.26-.71-1.42-1-2.06-1.91-2.77-3.57.43,1.6.86,3.2,1.3,4.79l.09-1c-.93,2.24-1.85,4.48-2.78,6.72l.5-.49c-1.4.81-2.79,1.63-4.19,2.44-1.44.04-1.44.06,0,.06-.73-.18-.51-.14.67.12,1.22.3,1.79.53,2.25.77,1.22.63,1.19.58,2.02,1.32.53.49,1.02,1.01,1.49,1.56-.83-.74-1.18-1.77-1.05-3.09.43-1.6.86-3.2,1.3-4.79l-.32.5c1.14-1.14,2.27-2.27,3.41-3.41.7-.5,2.3-.66,3.11-.48-5-1.12-10.28,1.52-11.69,6.64-1.31,4.77,1.61,10.56,6.64,11.69,3.95.88,8.02.78,11.53-1.44,4.6-2.91,6.19-8.73,4.1-13.66-2.99-7.05-10.92-12.52-18.27-14.03-4.06-.83-8.77-1.31-12.52.88-5.48,3.21-6.52,10.21-3.57,15.48,3.65,6.52,10.65,11.38,17.93,12.78,5.03.97,10.25-1.41,11.69-6.64,1.28-4.65-1.57-10.71-6.64-11.69h0Z"/>
        <path class="cls-7" d="M538.16,410.48c-16.79-1.11-33.83.45-50.23,4.17-7.64,1.73-15.48,3.88-22.55,7.32-11.19,5.44-18.3,16.51-17.9,29.01.89,28.05,32.33,29.7,53,26.67,6.73-.99,13.31-2.58,19.94-4.11,3.32-.77,6.65-1.52,10.01-2.11,1.02-.18,2.28-.5,3.34-.54-6.77.25.96.1,2.27.07,1.68-.05,3.36.11,5.04.08,5.37-.07-5.11-1.18.16-.06,3.14.67,6.24,1.33,9.32,2.23,6.73,1.96,13.26,4.51,19.92,6.67,14.42,4.68,30.65,7.34,45.42,2.52,10.74-3.5,19.59-11.02,22.96-22.03,3.55-11.63-1.69-24.53-10.76-32.02-12.23-10.1-30.02-12.83-45.24-16.12-32.36-7-68.14-8.62-99.55,3.58-5.76,2.24-10.52,5.06-13.75,10.57-2.88,4.93-4.11,12.2-2.32,17.72,3.52,10.87,16.28,20.73,28.29,16.06,4.69-1.82,9.49-3.3,14.39-4.45,2.42-.57,4.86-1.06,7.31-1.49.37-.06,5.81-1.08,1.93-.36-3.74.7,2.96-.31,3.66-.38,10.39-.98,20.86-.94,31.23.19,1.2.13,2.5.22,3.7.44-5.98-1.1-.05.04,1.01.21,2.29.37,4.57.78,6.84,1.23,5.6,1.09,11.15,2.4,16.67,3.79,5.75,1.45,11.64,3.66,17.49,4.61,1.55.25,3.28,1.93-1.88-.9,3.22,1.76-.85-.95-1.24-1.33,2.86,2.81-1.16-2.35-1.58-3.37-2.62-6.37-.54-15.46,5.67-19.13.56-.33,5.17-1.5,1.62-.75.26-.06-3.03.76-3.04.7l3.08-.39c-1.01.1-2.02.16-3.03.18-1.01.02-2.03,0-3.03-.04.23.01-3.02-.27-3.03-.24,1.03.13,2.05.27,3.08.4-1.02-.17-2.03-.36-3.03-.58-2.56-.55-5.09-1.24-7.59-2-10.01-3.02-19.67-7.25-29.94-9.4-13.95-2.93-27.04-2.18-40.95.63-5.02,1.02-9.99,2.28-14.99,3.41-2.76.62-5.53,1.12-8.3,1.67-2.6.52-1.59-.87,1.14-.11-1.06-.29-3.84.34-4.97.38-1.38.05-2.76.05-4.14,0-.83-.02-1.66-.07-2.48-.15,3.08.48,3.74.57,1.98.26-9.95-2.42,10.48,4.76,10.24,16.57.2,4.56-1.38,8.1-4.74,10.62-3.19,2.74-3.64,3.39-1.36,1.94-4.6,2.51-2.87,1.07-1.34.67,2.08-.54,4.12-1.32,6.19-1.91,3.26-.93,6.55-1.75,9.87-2.46,2.9-.62,6.13-1.64,9.1-1.65-5.22.03-1.16.16.31,0,2.15-.23,4.3-.42,6.45-.55,6.78-.43,13.56-.37,20.34.08,12.03.79,23.53-11.14,23-23-.59-13.14-10.11-22.15-23-23h0Z"/>
        <path class="cls-11" d="M430.09,234.03c1.28-.18,2.56-.36,3.84-.53-2.91.39-3.03.41-.35.06,2.57-.32,5.13-.65,7.7-.96,4.5-.54,8.99-1.05,13.5-1.52,9.01-.94,18.03-1.74,27.06-2.38,18.71-1.34,37.46-2.05,56.21-2.07,18.74-.02,37.48.65,56.17,2.06,9.02.68,18.02,1.53,27.01,2.56,2.57.29,5.13.6,7.7.93.74.09,7.27.85,1.57.19,5.13.59,10.24,1.48,15.34,2.29,6.31,1.01,12,1.03,17.72-2.32,4.77-2.79,9.32-8.26,10.57-13.75,2.51-11.04-3.36-26.26-16.06-28.29-79.9-12.78-160.21-11.76-240.22-.62-5.28.74-11.19,6.21-13.75,10.57-2.88,4.93-4.11,12.2-2.32,17.72,1.8,5.57,5.25,10.93,10.57,13.75,5.86,3.09,11.23,3.22,17.72,2.32h0Z"/>
        <g>
          <path class="cls-7" d="M730.57,76.16c-5.81,25.08-15.66,49.21-29.06,71.19-10.33,16.94-22.78,32.69-30.92,50.78-.68,1.51-1.34,3.14-1.07,4.77.69,4.18,6.24,5.01,10.48,4.99,23.11-.07,46.22,4.88,67.27,14.4,7.15,3.24,15.93,6.89,22.27,2.26,1.96-1.43,3.35-3.49,4.61-5.57,4.44-7.36,7.62-15.49,9.34-23.92-5.37,2.13-10.45,5.02-15.03,8.54.24-17.79,3.68-35.53,10.1-52.12.96-2.47,1.69-5.9-.59-7.25-1.47-.87-3.34-.24-4.92.42-8.9,3.69-17.71,7.57-26.43,11.65,1.9-27.38,3.4-56.61-10.26-80.42"/>
          <path class="cls-7" d="M708.39,70.05c-2.34,9.91-5.22,19.68-8.76,29.23-.83,2.25-1.72,4.47-2.59,6.7-1.56,3.97-.02.19.25-.52-.52,1.39-1.2,2.75-1.81,4.11-2.1,4.64-4.33,9.21-6.72,13.7-9.6,18.09-22.34,34.2-32.33,52.04-3.11,5.56-6.27,11.47-8.34,17.5-3.41,9.96-.92,20.55,5.99,28.34,9.07,10.22,22.71,9.34,35.03,10,2.73.15,5.46.37,8.18.65.79.08,4.7.55,1.47.14-3.23-.41.67.12,1.46.25,5.4.88,10.76,2.02,16.05,3.44,4.7,1.26,9.34,2.72,13.91,4.4,1.14.42,2.28.85,3.41,1.29.69.27,4.29,1.81,1.47.57-2.75-1.21.6.3,1.32.62,2.8,1.24,5.62,2.46,8.47,3.6,14.64,5.87,32.61,4.86,43.51-7.82,8.85-10.29,14.45-23.92,17.31-37.08,1.77-8.15.13-16.34-5.91-22.38-5.26-5.26-15.05-8.94-22.38-5.91-7.33,3.03-14.16,6.1-20.53,10.86,11.54,6.62,23.07,13.24,34.61,19.86.1-4.92.47-9.79.92-14.69.32-2.65.29-2.44-.1.64.18-1.21.38-2.42.59-3.63.42-2.42.9-4.82,1.44-7.22,2.1-9.32,6.46-18.21,7.72-27.63,2.64-19.65-16.14-35.33-35.1-28.6-10.85,3.85-21.49,9.11-31.92,13.97,11.54,6.62,23.07,13.24,34.61,19.86,2.16-31.39,2.4-63.73-13.4-92.03-5.87-10.51-21.17-14.89-31.47-8.25s-14.53,20.22-8.25,31.47c.82,1.46,1.55,2.96,2.34,4.43,2.62,4.88-1.57-4.6.31.59,1.13,3.11,2.16,6.23,2.98,9.44.75,2.96,1.23,5.95,1.83,8.94.27,1.75.2,1.09-.23-1.98.11.83.2,1.66.28,2.5.18,1.67.32,3.35.43,5.03.91,13.28.09,26.61-.83,39.87-.55,7.93,4.77,15.98,11.39,19.86,7.61,4.45,15.57,3.56,23.22,0,4.66-2.17,9.33-4.3,14.03-6.36,2.35-1.03,4.7-2.08,7.07-3.06-2.54,1.07-2.59,1.1-.17.08,3.92-1.32,1.48-1.46-7.31-.42l-10.15-5.91-4.62-17.41-.31,1.17c-.4.91-.7,1.9-1.04,2.83-.85,2.3-1.66,4.62-2.4,6.96-1.58,4.97-2.9,10.02-3.95,15.13-2.33,11.3-3.69,22.89-3.92,34.43-.16,8.06,4.5,15.83,11.39,19.86,6.49,3.8,16.84,4.77,23.22,0,2.09-1.56,4.22-3.03,6.47-4.35,1-.59,2.01-1.14,3.04-1.67s5.03-2.26.03-.2c-9.43-9.43-18.86-18.86-28.29-28.29-.86,3.95-2,7.75-3.35,11.55-1.63,4.6.26-.79.33-.73.07.05-1.03,2.16-1.12,2.33-.52,1.04-3.78,5.39-3.67,6.52,0-.07,3.05-3.52,1.37-1.78-1.83,1.9,2.46-1.67,3.11-1.96,1.51-.67,2.88-.96,4.54-1.12-3.11.31.18-1.43,1.51.29-.5-.65-4.7-1.47-5.44-1.7-2.5-.79,1.69.74,1.72.75-1.35-.35-2.68-1.2-3.95-1.75-19.37-8.41-38.95-13.56-59.99-15.65-4.24-.42-8.49-.68-12.74-.76-1.71-.03-3.76-.34-5.44-.09-2.14.32,3.04.43,3.06.44-1.74-.51-1.56-.37.54.41,4.16,1.26,6.16,4.73,6.01,10.41l4.31,9.7c-1.09,2.57-1.27,3.07-.54,1.5.44-.78.78-1.63,1.18-2.43.94-1.88,1.93-3.73,2.94-5.57,2.18-3.94,4.52-7.79,6.93-11.59,9.52-14.98,19.85-29.34,27.89-45.22,9.68-19.11,17.29-39.36,22.21-60.22,2.75-11.69-3.64-25.46-16.06-28.29-11.78-2.68-25.34,3.54-28.29,16.06h0Z"/>
        </g>
        <g>
          <path class="cls-7" d="M348.72,71.06c-8.53,24.27-14.11,49.58-16.56,75.2-.16,1.72-.58,3.8-2.21,4.36-.99.34-2.08-.04-3.06-.42-3.04-1.17-6.08-2.34-9.12-3.51-.91,13.58,1.02,27.34,5.62,40.15.65,1.8,1.34,3.81.56,5.55-1.3,2.89-5.56,2.79-8.36,1.3-2.8-1.49-5.24-3.92-8.38-4.32-5.18-.66-9.48,4.99-9.19,10.2s3.78,9.69,7.57,13.28c8,7.59,18.46,13.02,29.48,13.26,6.11.14,12.13-1.3,18.08-2.72,12.4-2.97,24.81-5.94,37.21-8.91,5.89-1.41,12.24-3.11,15.96-7.89,4.55-5.86,3.46-14.54-.28-20.94s-9.62-11.21-14.87-16.44c-22.83-22.73-34.65-56.06-31.24-88.1"/>
          <path class="cls-7" d="M326.54,64.95c-4.44,12.75-8.13,25.73-10.96,38.94-1.38,6.44-2.56,12.93-3.54,19.45-.68,4.51-1.29,9.04-1.85,13.57-.23,1.87-.47,3.74-.65,5.61-.47,4.81.94-3.15,1.56-4.18,2.75-2.75,5.5-5.5,8.25-8.25l-1.01.68c3.87-1.05,7.74-2.09,11.61-3.14,3.32.68,4.04.7,2.15.05-.91-.35-1.82-.7-2.74-1.05-1.82-.7-3.65-1.4-5.47-2.11-6.67-2.57-14.72,0-20.05,4.12-5.92,4.57-8.64,10.64-9.06,18.06-.87,15.23,1.23,30.93,6.13,45.38l.31.88c3.33,11.15,10.93,4.28,22.8-20.61,6.33,2.2,2.36.97.48-.21-3.46-2.16-7.16-3.98-11.16-4.94-12.72-3.07-26.23,2.88-33.01,13.99-21.12,34.62,23.59,67.27,54.76,67.93,14.9.32,30.28-5,44.66-8.44,14.68-3.51,30.56-5.73,41.87-16.68,13.7-13.27,13.35-35.99,3.47-51.3-3.81-5.9-8.57-11.04-13.62-15.87-4.19-4.01-9.37-8.32-12.42-13.34,3.17,5.21.57.62-.16-.44-.9-1.3-1.77-2.62-2.62-3.96-1.69-2.68-3.26-5.43-4.71-8.24-.73-1.41-1.37-2.85-2.09-4.27-1.02-2.3-.88-1.92.42,1.14-.4-.98-.79-1.96-1.16-2.95-1.12-2.96-2.12-5.97-2.98-9.02-.86-3.05-1.6-6.13-2.2-9.24-.14-.72-1.18-4.08-.8-4.68.13.99.27,1.98.4,2.98-.13-1.05-.24-2.1-.33-3.15-.62-6.85-.53-13.7.15-20.54,1.18-12.01-11.42-23.52-23-23-13.47.6-21.73,10.13-23,23-2.38,24.14,3.05,48.38,13.48,70.11,5.07,10.56,11.93,20.24,19.63,29.05,3.32,3.8,7,7.22,10.61,10.73,1.15,1.12,5.4,4.32,5.47,5.76,0,.06-2.98-4.84-.76-.86,2.82,5.09.56-.1.42-.07.16.48.31.96.47,1.44.57,2.5.57,1.94,0-1.69-.04.02.09,3.19.02,2.95-.66-2.46.74-4.58-.05-1.87.36-.96.72-1.93,1.08-2.89,2.2-2.6,2.43-3.03.7-1.3.51-.49,4.26-2.94.92-1.17,4.9-2.6,2.21-.91.52-.38-2.93.91-5.93,1.56-8.91,2.27-12.35,2.96-24.68,6.08-37.07,8.86-1.2.27-2.4.5-3.6.77-5.69,1.3,3.36.04-.23.11-.79.02-7.39.81-7.7-.03,1.01.12,2.01.23,3.02.35-1.02-.2-2.04-.44-3.04-.73-.62-.17-2.55-1.05-2.98-.96,1.93-.39,3.76,1.91,1.16.47-1.62-.89-3.25-1.72-4.82-2.71-1.85-1.18-2.71-3.15.15.38-.58-.71-1.7-1.4-2.41-2.04-.36-.33-3.5-2.88-3.37-3.33-.23.85,3.68,3.67.72.88-2.28-2.15-.02-.25.38,1.28.89,3.38-.14,6.64-1.75,9.58.88-1.62,2.12-2.16-1.26,1.53-5.49,5.17-11.88,6.04-19.18,2.59l1.37.78c7.68,5.75,18.31,8.38,27.66,5.66,14.6-4.24,21.88-18.7,18.8-33.12-1.42-6.63-3.74-13.18-5.26-19.83-.82-3.61.38,5.63-.05-.32-.13-1.85-.33-3.69-.41-5.55-.17-3.71-.1-7.42.11-11.13-9.7,7.39-19.41,14.79-29.11,22.18,5.78,2.22,11.17,4.81,17.53,4.78,11.27-.05,21.58-7.71,24.6-18.66,1.44-5.21,1.62-10.84,2.18-16.22.58-5.5-.6,3.66.16-1.35.38-2.48.74-4.96,1.16-7.44,3.02-17.96,7.62-35.61,13.61-52.8,3.96-11.38-4.51-25.66-16.06-28.29-12.83-2.92-24.05,3.88-28.29,16.06h0Z"/>
        </g>
        <path class="cls-13" d="M346.8,430.61c7.12-1.37,13.99-6.05,17.66-12.35,2.94-5.03,2.64-11.5-2.34-15.17-3.95-2.91-8.9-2.57-13.48-1.63-7.11,1.46-14.29,6.46-17.79,12.89-2.61,4.81-1.48,10.57,2.66,14.05,3.5,2.94,8.2,3.14,12.49,2.18,5.01-1.12,7.95-6.91,6.64-11.69-1.42-5.16-6.66-7.76-11.69-6.64.82-.18,2.41-.02,3.11.48l3.41,3.41-.32-.5c.43,1.6.86,3.2,1.3,4.79.13,1.32-.21,2.35-1.05,3.09.46-.55.96-1.07,1.49-1.56.84-.74.81-.69,2.02-1.32.46-.24,1.03-.46,2.25-.77,1.18-.26,1.41-.3.67-.12,1.44,0,1.44-.03,0-.06-1.4-.81-2.79-1.63-4.19-2.44l.5.49c-.93-2.24-1.85-4.48-2.78-6.72l.09,1c.43-1.6.86-3.2,1.3-4.79-1.45,3.38-3.34,4.34-7,5.05-5.04.97-7.92,7.02-6.64,11.69,1.45,5.27,6.63,7.61,11.69,6.64h0Z"/>
        <g>
          <path class="cls-13" d="M660.57,204.56c17.1-26.99,46.53-45.81,78.21-50.02,1.39-.19,2.87-.33,4.16.21,1.64.69,3.73,2.37,4.58,3.92,13.14,23.89,17.61,51.85,14.61,78.95-.3,2.67.18,6.43,2.87,6.53.81.03,1.57-.34,2.29-.72,26.54-14.02,40.75-45.56,39.88-75.56-.88-30-14.76-58.34-32.86-82.27-7.37-9.74-15.73-19.13-26.51-24.88-10.78-5.74-24.45-7.29-35.11-1.34-5.86,3.27-10.39,8.49-14.24,13.99-8.02,11.42-13.63,24.32-19.01,37.2-12.88,30.83-24.98,64.15-18.65,96.95"/>
          <path class="cls-13" d="M667.48,208.6c10.45-16.22,25.35-29,42.72-37.34,8.5-4.08,17.66-6.85,26.95-8.43,1.4-.24,2.77-.69,3.21-.34,1.45,1.13,2.67,4.83,3.43,6.42,2.43,5.11,4.38,10.44,6,15.86,3.1,10.42,4.81,21.15,5.17,32.02.17,5.22.06,10.44-.34,15.65-.38,5.12-1.31,10.31,1.68,14.9,6.89,10.56,19.5.88,26.3-4.49,7.28-5.76,13.39-12.96,18.28-20.83,22.56-36.33,15.56-81.09-4.25-116.88-10.19-18.4-23.68-38.42-41.92-49.64s-42.25-10.62-57.15,6.12c-8.22,9.23-14.15,20.39-19.26,31.56-5.67,12.41-10.89,25.12-15.52,37.95-9.1,25.25-14.62,51.8-9.73,78.55,1.85,10.11,17.27,5.83,15.43-4.25-5.14-28.14,4.1-56.45,14.41-82.33,5.15-12.93,10.43-26,17.53-38.01,5.7-9.63,12.85-20.25,25.01-21.35,25.18-2.27,43.23,25.64,54.39,44.3,12.7,21.25,21.27,45.75,19,70.79-1.08,11.87-4.92,23.66-11.01,33.89-3.1,5.21-6.77,9.92-11.14,14.14-3.53,3.41-8.97,8.76-13.8,9.62h4.25l-1.02-.25c1.18.69,2.35,1.37,3.53,2.06.89.71.16,1.16.5-.62.32-1.69.36-3.49.48-5.2.3-4.05.44-8.11.41-12.17-.06-7.38-.75-14.72-1.86-22.02-2.22-14.57-6.81-29.12-13.9-42.07-3.22-5.88-8.82-10.17-15.77-9.71s-13.51,2.14-19.89,4.09c-12.51,3.82-24.5,9.7-35.07,17.4-12.25,8.92-22.65,19.81-30.86,32.56-5.59,8.68,8.25,16.71,13.82,8.08h0Z"/>
        </g>
        <path class="cls-13" d="M726.92,187.98c-18.04,1.66-30.2,14.14-41.26,27.3-4.94,5.87,3.51,14.41,8.49,8.49,8.58-10.2,18.5-22.47,32.78-23.79,7.63-.7,7.7-12.71,0-12h0Z"/>
        <path class="cls-13" d="M735.28,208.77c-10.66-.43-21.01,5.62-25.67,15.26-3.34,6.92,7,13.02,10.36,6.06,2.93-6.08,8.53-9.59,15.3-9.32,7.72.31,7.71-11.69,0-12h0Z"/>
        <g>
          <path class="cls-13" d="M422.01,200.98c-17.1-26.99-46.53-45.81-78.21-50.02-1.39-.19-2.87-.33-4.16.21-1.64.69-3.73,2.37-4.58,3.92-13.14,23.89-17.61,51.85-14.61,78.95.3,2.67-.18,6.43-2.87,6.53-.81.03-1.57-.34-2.29-.72-26.54-14.02-40.75-45.56-39.88-75.56.88-30,14.76-58.34,32.86-82.27,7.37-9.74,15.73-19.13,26.51-24.88,10.78-5.74,24.45-7.29,35.11-1.34,5.86,3.27,10.39,8.49,14.24,13.99,8.02,11.42,13.63,24.32,19.01,37.2,12.88,30.83,24.98,64.15,18.65,96.95"/>
          <path class="cls-13" d="M428.92,196.94c-14.41-22.37-35.85-39.29-60.88-48.29-5.96-2.14-12.1-3.77-18.35-4.83-7.31-1.24-13.69-1.5-19.21,4.23-4.73,4.91-7.3,12.82-9.74,19.06-2.73,6.99-4.81,14.22-6.27,21.58-1.6,8.06-2.56,16.3-2.84,24.51-.14,4.35-.08,8.7.17,13.04.12,2.03.29,4.05.47,6.07.06.67,0,1.69.22,2.33.44,1.24-.57.84.46.02,1.18-.69,2.35-1.37,3.53-2.06l-1.02.25h4.25c-4.04-.71-8.6-4.92-11.7-7.67-4.14-3.68-7.84-7.82-10.92-12.42-6.15-9.17-10.16-19.44-12.27-30.26-4.66-23.89,2.18-48.76,13.33-69.89,5.87-11.12,12.89-21.85,20.99-31.49,7.87-9.36,17.41-18.27,29.84-20.6,12.18-2.29,21.45,3.6,28.27,13.3,7.82,11.11,13.36,23.65,18.56,36.15,11.94,28.66,24.06,60.29,18.29,91.84-1.84,10.07,13.58,14.38,15.43,4.25,4.36-23.87.5-47.71-6.98-70.55-3.69-11.26-8.14-22.25-12.73-33.17-4.61-10.97-9.37-21.96-15.74-32.05-5.47-8.67-12.15-17.45-21.54-22.13-9.54-4.76-20.77-5.18-30.95-2.31-21.04,5.93-35.48,24.49-47.15,41.84-23.18,34.46-35.98,78.33-19.12,118.18,7.15,16.92,19.97,33.58,37.05,41.4,4.93,2.26,10.86,1.25,13.92-3.53s2.07-9.76,1.68-14.9c-.81-10.8-.54-21.81,1.3-32.5,2.03-11.83,5.6-23.45,11.07-34.14.24-.46,1.32-2.93,1.76-3.19,1.29-.77-.61.11,1.09-.13,2.18-.31,5.3.9,7.47,1.38,5.44,1.21,10.79,2.84,15.97,4.88,19.77,7.78,36.99,22.04,48.47,39.87,5.56,8.63,19.41.62,13.82-8.08h0Z"/>
        </g>
        <path class="cls-13" d="M355.67,196.4c14.28,1.32,24.21,13.59,32.78,23.79,4.98,5.92,13.43-2.61,8.49-8.49-11.07-13.17-23.22-25.64-41.26-27.3-7.69-.71-7.64,11.3,0,12h0Z"/>
        <path class="cls-13" d="M347.31,217.19c6.77-.27,12.37,3.24,15.3,9.32,3.36,6.95,13.71.87,10.36-6.06-4.66-9.64-15.01-15.69-25.67-15.26-7.7.31-7.74,12.31,0,12h0Z"/>
      </g>
      <path class="cls-2" d="M335.07,332.55c4.98,11.11,22.24,8.49,29.09.73,7.3-8.26,4.33-22.21-3.07-29.32-7.66-7.35-20.04-8.35-28.89-2.5-9.41,6.23-11.5,17.74-15.42,27.51-2.87,7.17,8.73,10.28,11.57,3.19,3.43-8.56,5.8-23.94,18.23-22.46,5.15.61,8.98,4.78,9.62,9.88.36,2.85-.19,5.63-2.86,7.06-2.18,1.17-6.72,2.53-7.92-.15-3.16-7.03-13.5-.94-10.36,6.06h0Z"/>
      <path class="cls-2" d="M348.5,329.02c-5.79,2.91-10.21,8.75-11.22,15.18-.5,3.2.82,6.45,4.19,7.38,2.85.78,6.87-.97,7.38-4.19.36-2.28.71-3.41,1.99-5.14.21-.28.89-1.03,1.54-1.57-.4.33.36-.27.4-.3.57-.38,1.17-.69,1.77-1,2.89-1.46,3.71-5.54,2.15-8.21-1.72-2.94-5.3-3.61-8.21-2.15h0Z"/>
      <path class="cls-2" d="M563.54,281.08c9.35,6.8,24.13,12.22,35.64,8.3,10.88-3.7,12.14-18.15,4.37-25.53-8.6-8.17-23.03-5.67-31.48,1.32-4.83,3.99-8.56,9.52-12.94,14.01s-8.68,8.44-13.18,12.48c-8.22,7.4-17.1,19.15-28.61,20.94-1.56.24-3.33.33-4.89.01-.53-.13-1.06-.26-1.59-.4-1.31-1-1.53-.71-.68.87.47-2.11,1.49-3.67,2.91-5.27,4.32-4.83,10.16-8.33,15.18-12.38,7.2-5.8,14.6-11.36,21.81-17.15,8.75-7.02,22.9-16.83,23.01-29.5.11-12.77-13.63-17.64-23.9-12.79-5.6,2.64-10.08,7.36-14.59,11.48-5.58,5.09-11.17,10.18-16.75,15.27-4.7,4.28-9.36,8.8-15.01,11.82-2.71,1.45-5.63,2.52-8.7,2.81-.89.08-8.68-.97-8.31-1.47l.49,1.97c-.05-.69-.07-1.39-.07-2.08.12-.76.3-1.38.77-2,1.04-1.39,3.12-2,4.75-2.21,6.43-.84,11.15,4.38,15.24,8.49,9.49,9.54,18.33,19.71,28.01,29.07,8.95,8.66,17.77,17.41,31.2,15.78,11.64-1.41,18.96-11.29,10.88-21.74-7.54-9.76-18.9-16.52-28.18-24.5-4.74-4.08-8.93-8.7-13.75-12.71-4.79-3.99-11-8.29-13.46-14.23-.59-1.42-1.49-4.43-.57-5.9,1.88-2.99,6.04-.26,7.91,1.3,2.3,1.91,4.12,4.4,6.26,6.5,8.99,8.82,17.98,17.64,26.97,26.47,5.52,5.41,14.01-3.07,8.49-8.49-8.27-8.12-16.55-16.24-24.82-24.36-4.69-4.6-8.88-10.3-14.97-13.02-10.86-4.85-22.63,2.21-22.09,14.37.54,11.95,10.61,19.78,19.01,26.85,4.05,3.41,7.57,7.33,11.53,10.83,4.4,3.89,9.13,7.39,13.69,11.08,5.05,4.08,10.07,8.3,14.52,13.04,1.85,1.98.89,1.82-1.52,2.41s-5.15.39-7.53-.26c-5.76-1.57-10.91-7.88-15.09-11.92-5.1-4.93-9.98-10.09-14.83-15.26-8.03-8.55-16.69-20.78-28.25-24.67-9.86-3.32-22.87.56-25.71,11.51-1.07,4.14-.74,9.36,2.58,12.32,4.35,3.88,11.17,5.19,16.83,4.82,13.1-.85,22.95-9.72,32.2-18.15,5.12-4.67,10.24-9.33,15.36-14,4.09-3.73,9.86-11.25,15.95-11.28,7.59-.04.28,8.96-1.7,11.28-4.42,5.2-10.24,9.29-15.55,13.53-7.28,5.81-14.67,11.5-21.97,17.29-7.93,6.27-21.28,13.95-20.23,25.95.61,6.98,8.15,10.09,14.25,10.65,7.14.65,14.22-1.77,20.16-5.62,5.92-3.83,10.87-8.9,16.02-13.66,4.39-4.05,8.91-7.96,13.24-12.08,5.48-5.2,10.39-10.82,15.4-16.45,3.8-4.27,10.95-8.29,16.69-5.2,1.66.9,3.4,2.91,2.54,4.97-1.12,2.69-6.05,1.98-8.45,1.71-6.66-.73-13.11-3.74-18.48-7.64-6.25-4.55-12.25,5.86-6.06,10.36Z"/>
      <path class="cls-2" d="M403.17,311.35c.63,2.56-2.92,2.92-4.72,2.62-2.41-.4-4.61-1.98-6.02-3.94-3.16-4.39-1.2-10.58,4.12-11.93,5.96-1.51,11.98,1.92,16.99,4.7,5.49,3.05,11.05,6.28,17.29,7.49,11.75,2.28,23.53-3.92,26.8-15.81,1.35-4.92,1.19-11.33-2.47-15.28-4.34-4.68-12.09-5.84-18.1-6.31-7.7-.61-7.66,11.39,0,12,2.96.24,8.67.47,9.33,3.84.53,2.67-1.67,5.98-3.49,7.64-5.73,5.22-14,1.21-19.72-1.91-11.24-6.12-26.17-13.97-37.76-3.8-10.19,8.94-7.63,24.94,3.22,32.04s29.89.98,26.08-14.55c-1.84-7.5-13.41-4.32-11.57,3.19h0Z"/>
      <path class="cls-2" d="M418.78,313.75c-3.42-1.43-7.52-1.69-11.18-1.24-3.1.39-6.16,2.48-6,6,.13,2.92,2.66,6.41,6,6,1.6-.2,3.21-.25,4.82-.1.44.04.42.04-.04-.01.39.07.78.15,1.17.24.7.17,1.37.4,2.04.68,2.9,1.22,6.72-1.31,7.38-4.19.8-3.51-1.08-6.08-4.19-7.38h0Z"/>
      <path class="cls-2" d="M454.7,277.65c-.2-.3-.91-2.04-.55-.86-.16-.52-.28-1.04-.41-1.57.29,1.18.01-.32.01-.6,0-.37.02-.74.05-1.1-.09.69-.07.68.06-.02.69-3.05-.93-6.64-4.19-7.38-3.05-.69-6.64.92-7.38,4.19-1.02,4.51-.55,9.46,2.04,13.39,1.72,2.62,5.39,3.97,8.21,2.15,2.61-1.68,4-5.4,2.15-8.21h0Z"/>
      <path class="cls-2" d="M737.48,326.97c-1.24,2.75-5.7,1.34-7.92.15-2.47-1.32-3.12-3.77-2.93-6.45.38-5.32,4.36-9.85,9.7-10.48,12.43-1.48,14.81,13.91,18.23,22.46,2.84,7.08,14.45,3.99,11.57-3.19-3.93-9.82-6.03-21.2-15.42-27.51-8.8-5.92-21.27-4.82-28.89,2.5-7.45,7.15-10.31,20.99-3.07,29.32,6.79,7.81,24.13,10.33,29.09-.73,3.14-6.99-7.2-13.1-10.36-6.06h0Z"/>
      <path class="cls-2" d="M728.36,339.87c.73.37,1.85,1.01,2.25,1.34.36.29,1.32,1.33,1.46,1.53,1.25,1.69,1.63,2.87,1.99,5.14.51,3.2,4.51,4.98,7.38,4.19,3.41-.94,4.7-4.17,4.19-7.38-1.01-6.43-5.43-12.27-11.22-15.18-2.89-1.46-6.5-.77-8.21,2.15-1.56,2.67-.75,6.75,2.15,8.21h0Z"/>
      <path class="cls-2" d="M668.17,308.64c-3.82,15.59,14.82,21.79,26.08,14.55,10.87-6.98,13.42-23.21,3.22-32.04-11.68-10.11-26.46-2.38-37.76,3.8-5.49,3-13.45,6.95-19.21,2.39-2.06-1.63-4.54-5.26-4-8.12.65-3.42,6.36-3.61,9.33-3.84,7.65-.61,7.71-12.61,0-12-5.86.47-13.23,1.55-17.63,5.87-4.05,3.98-4.37,10.5-2.94,15.72,3.28,11.94,15.03,18.03,26.8,15.81,5.96-1.12,11.34-4.17,16.57-7.09,5.19-2.89,11.49-6.72,17.71-5.11,5.07,1.32,7.17,6.97,4.48,11.42-1.36,2.24-3.78,3.98-6.37,4.45-1.8.32-5.35-.04-4.72-2.62,1.84-7.5-9.73-10.7-11.57-3.19h0Z"/>
      <path class="cls-2" d="M667.32,325.81c.66-.28,1.33-.51,2.04-.68.39-.09.78-.17,1.17-.24-.46.05-.48.06-.04.01,1.61-.15,3.22-.1,4.82.1,3.13.39,6.13-3.04,6-6-.16-3.58-2.65-5.58-6-6-3.65-.45-7.76-.19-11.18,1.24-2.88,1.21-5.28,4.02-4.19,7.38.9,2.77,4.28,5.49,7.38,4.19h0Z"/>
      <path class="cls-2" d="M638.58,284.19c2.58-3.93,3.06-8.88,2.04-13.39-.69-3.06-4.4-5.16-7.38-4.19-3.21,1.04-4.93,4.1-4.19,7.38.14.7.16.71.06.02.03.37.05.73.05,1.1,0,.32-.26,1.83.01.6-.12.54-.26,1.04-.41,1.57.34-1.17-.34.55-.55.86-1.73,2.63-.61,6.75,2.15,8.21,3,1.59,6.36.65,8.21-2.15h0Z"/>
    </g>
  </g>
</svg>