<?xml version="1.0" encoding="UTF-8"?>
<svg id="PROJECT_ICON" data-name="PROJECT ICON" xmlns="http://www.w3.org/2000/svg" viewBox="0 0 1080 1080">
  <defs>
    <style>
      .cls-1 {
        fill: #fab04f;
      }

      .cls-2 {
        fill: #16549a;
      }
    </style>
  </defs>
  <g id="ICON_-_2-Color" data-name="ICON - 2-Color">
    <g id="ICON_-_2-Color-2" data-name="ICON - 2-Color">
      <g id="Manu">
        <path class="cls-1" d="M410.87,213.46c-36.68,7.55-67.5,18.2-89.48,30.9l-24.73-49.77c-1.47-3.03,1.73-6.18,4.74-4.68l15.77,9.95,11.07,5.54-3.94-7.41-13.08-24.59-5.17-27.53c-.32-2.95,2.94-4.95,5.43-3.32l24.94,18.25-8.17-18.72,15.53-68.49c.86-3.37,5.57-3.59,6.73-.31l16.22,51.42c2.92,9.26,7.28,18,12.92,25.91l36.06,50.56c3.31,4.64.75,11.15-4.83,12.3Z"/>
        <path class="cls-1" d="M879.31,427.7l-92.93-8.61c-1.48-.25-2.94-.62-4.35-1.13-2.04-.72-3.98-1.7-5.79-2.91l-6.14-4.13c-5.2-3.49-9.27-8.4-11.76-14.14,0,0-1.65-4.38-1.65-4.48,8.15-2.09,14.42-8.87,15.76-17.3.18-1.1.27-2.23.27-3.38,0-3.44-.81-6.69-2.26-9.58-.06-.11-1.08-1.78-1.5-2.53-.84-1.49-1.59-3.05-2.24-4.65-.12-.29-.57-1.46-.66-1.76-.11-.3-.21-.6-.3-.9-.2-.6-.38-1.21-.54-1.81-.08-.3-.39-1.54-.45-1.85-.07-.31-.32-1.57-.37-1.88-.16-.95-.52-4.6-.53-4.87-.03-.63-.05-1.28-.05-1.92,0-1.71.11-3.39.32-5.05.75-5.94,2.81-11.49,5.89-16.37.61-.96,1.25-1.89,1.94-2.8,2.42-3.86,4.13-8.18,4.98-12.82.39-2.16.6-4.38.6-6.65,0-2-.16-3.97-.47-5.88-1.54-9.59-6.78-17.93-14.22-23.52-2.91-1.72-5.98-3.4-9.2-5.05-25.38-12.94-60.3-23.45-101.23-30.28-14.42-16.99-58.64-29.36-110.95-29.36s-96.54,12.37-110.95,29.36c-40.93,6.83-75.85,17.34-101.23,30.28-3.23,1.64-6.3,3.33-9.2,5.05-7.44,5.59-12.68,13.94-14.22,23.52-.31,1.91-.47,3.88-.47,5.88,0,2.27.21,4.49.6,6.65.85,4.64,2.57,8.97,4.98,12.82.69.91,1.33,1.84,1.94,2.8,3.08,4.89,5.14,10.44,5.89,16.37.21,1.65.32,3.34.32,5.05,0,.64-.02,1.29-.05,1.92-.01.27-.37,3.92-.53,4.87-.05.31-.74,3.42-.82,3.73-.16.61-.74,2.41-.85,2.71-.1.3-.55,1.47-.66,1.76-.65,1.6-1.4,3.15-2.24,4.65-.42.75-1.44,2.42-1.5,2.53-1.45,2.88-2.26,6.13-2.26,9.58,0,1.15.09,2.28.27,3.38,1.34,8.43,7.6,15.2,15.76,17.3,0,.1-1.65,4.48-1.65,4.48-2.48,5.74-6.56,10.65-11.76,14.14l-6.14,4.13c-1.81,1.21-3.76,2.19-5.79,2.91-1.41.51-2.87.88-4.35,1.13l-92.93,8.61c-4.02.67-4.98,6.01-1.45,8.04l44.74,24.99-42.39,13.36c-3.93,1.64-3.4,7.36.77,8.25l64.08,11.41-38.14,20.12c-3.2,1.69-3.06,6.32.25,7.8,25.42,11.35,53.81,21.33,84.58,29.65.9.25,1.79.49,2.7.73-.17.44-.33.88-.49,1.32-2.95,8.14-4.56,16.93-4.56,26.09,0,14.66,4.12,28.35,11.27,39.99.39.63.78,1.26,1.19,1.88,4.12,6.28,9.13,11.93,14.86,16.75,3.64,3.06,9.2.44,9.2-4.31v-19.61c0-3.79,3.07-6.85,6.85-6.85s6.85,3.07,6.85,6.85v33.17c0,2.47,1.61,4.65,3.97,5.37,7.07,2.15,14.58,3.31,22.35,3.31,2.53,0,5.03-.12,7.49-.36,2.89-.28,5.09-2.69,5.09-5.59v-32.39c0-3.89,3.25-7.03,7.18-6.84,3.69.17,6.52,3.34,6.52,7.04v24.98c0,4.17,4.4,6.9,8.12,5.02,14.02-7.07,25.57-18.32,33.01-32.11,5.82-10.8,9.13-23.15,9.13-36.28,0-.96-.02-1.92-.05-2.87-.03-.72-.06-1.44-.11-2.16-.14-2.05-.78-4.05-1.93-5.75-9.11-13.6-22.47-24.1-38.17-29.63-.01,0-.02,0-.03-.01-.43-.1-.84-.24-1.23-.42-2.3-1.05-3.91-3.38-3.91-6.08,0-3.66,2.95-6.64,6.6-6.68h.08c.54,0,1.06.06,1.55.19,7.09.86,13.89,2.7,20.24,5.37,20.37,8.56,33.17,20.52,40.07,41.69,15.93.8,35.2,1.2,51.59,1.2s35.66-.4,51.59-1.2c6.91-21.17,19.7-33.13,40.07-41.69,6.35-2.67,13.15-4.51,20.24-5.37.49-.12,1.02-.19,1.55-.19h.08c3.65.04,6.6,3.02,6.6,6.68,0,2.7-1.6,5.03-3.91,6.08-.39.18-.8.32-1.23.42-.01,0-.02,0-.03.01-15.7,5.53-29.06,16.04-38.17,29.63-1.15,1.71-1.79,3.7-1.93,5.75-.05.72-.08,1.44-.11,2.16-.04.95-.05,1.91-.05,2.87,0,13.13,3.3,25.48,9.13,36.28,7.44,13.8,18.99,25.05,33.01,32.11,3.73,1.88,8.12-.85,8.12-5.02v-24.98c0-3.69,2.83-6.87,6.52-7.04,3.93-.19,7.18,2.95,7.18,6.84v32.39c0,2.9,2.21,5.31,5.09,5.59,2.46.24,4.96.36,7.49.36,7.77,0,15.28-1.16,22.35-3.31,2.36-.72,3.97-2.9,3.97-5.37v-33.17c0-3.79,3.07-6.85,6.85-6.85s6.85,3.07,6.85,6.85v19.61c0,4.76,5.57,7.38,9.2,4.31,5.73-4.82,10.75-10.47,14.86-16.75.41-.62.8-1.24,1.19-1.88,7.15-11.64,11.27-25.34,11.27-39.99,0-9.16-1.61-17.95-4.56-26.09-.16-.44-.32-.88-.49-1.32.9-.24,1.8-.48,2.7-.73,30.76-8.32,59.15-18.29,84.58-29.65,3.3-1.47,3.44-6.11.25-7.8l-38.14-20.12,64.08-11.41c4.17-.89,4.7-6.61.77-8.25l-42.39-13.36,44.74-24.99c3.53-2.03,2.57-7.37-1.45-8.04ZM640.75,463.44c-.08.21-.17.42-.26.63-7.04,16.83-23.66,28.66-43.04,28.66-3.5,0-6.9-.39-10.18-1.12h0c-5.14-1.14-9.96-3.14-14.3-5.82-1.88-1.16-6.69-4.93-7.44-5.36-7.07-4.13-15.3-6.5-24.08-6.5s-17.01,2.37-24.08,6.5c-.74.43-5.56,4.2-7.44,5.36-4.34,2.69-9.16,4.68-14.3,5.82h0c-3.28.73-6.68,1.12-10.18,1.12-19.38,0-36.01-11.83-43.04-28.66-.09-.21-.18-.42-.26-.63-.94-2.43-1.46-5.08-1.46-7.84,0-4.11,1.14-7.95,3.12-11.22,1.83-3.02,4.37-5.56,7.4-7.38.22-.13.44-.26.66-.38,1.56-.81,3.39-1.2,5.31-1.01,4.33.43,7.86,3.9,8.38,8.23.26,2.23-.26,4.33-1.32,6.06h0c-.31.52-.68.99-1.08,1.44-1.31,1.44-2.25,3.2-2.6,5.12-.07.35-.1.69-.1.99,0,2.05.66,3.95,1.77,5.5.74,1.03,1.74,1.83,2.88,2.39.2.09.4.19.59.28.58.28,1.18.54,1.77.79.27.11.54.22.81.33,3.39,1.35,6.98,2.3,10.71,2.81,2.1.3,4.26.45,6.44.45,10.01,0,19.28-3.15,26.88-8.53,0,0,0,0,.01,0,.81-.66,1.64-1.29,2.49-1.9h0c4.98-3.52,10.68-6.08,16.85-7.4,3.14-.68,6.41-1.04,9.76-1.04s6.62.36,9.76,1.04c6.16,1.32,11.87,3.88,16.85,7.4h0c.86.6,1.69,1.24,2.49,1.9,0,0,0,0,.01,0,7.6,5.38,16.87,8.53,26.88,8.53,2.19,0,4.34-.15,6.44-.45,3.73-.51,7.32-1.47,10.71-2.81.27-.11.55-.22.81-.33.59-.25,1.19-.51,1.77-.79.2-.09.39-.19.59-.28,1.14-.56,2.14-1.36,2.88-2.39,1.11-1.55,1.77-3.45,1.77-5.5,0-.3-.04-.64-.1-.99-.35-1.92-1.28-3.68-2.6-5.12-.4-.44-.76-.92-1.08-1.43h0c-1.06-1.73-1.58-3.83-1.32-6.07.52-4.33,4.05-7.79,8.38-8.23,1.93-.19,3.75.2,5.31,1.01.22.12.44.25.66.38,3.03,1.82,5.57,4.36,7.4,7.38,1.98,3.27,3.12,7.11,3.12,11.22,0,2.77-.52,5.41-1.46,7.84ZM449.79,400.47c0-9.78,7.93-17.7,17.7-17.7s17.7,7.93,17.7,17.7-7.93,17.7-17.7,17.7-17.7-7.93-17.7-17.7ZM520.35,425.88c0-6.08,9.45-11.01,21.11-11.01s21.11,4.93,21.11,11.01-9.45,11.01-21.11,11.01-21.11-4.93-21.11-11.01ZM597.71,400.47c0-9.78,7.93-17.7,17.7-17.7s17.7,7.93,17.7,17.7-7.93,17.7-17.7,17.7-17.7-7.93-17.7-17.7ZM737.15,378.5c-2.28-1.44-4.6-2.85-6.98-4.23h0c-.6-.35-1.2-.7-1.8-1.04-.19-.11-.37-.21-.55-.31-8.09-4.6-16.7-8.9-25.8-12.86h0c-44.34-19.34-100.05-30.87-160.55-30.92-60.5.05-116.2,11.58-160.55,30.92h0c-9.1,3.96-17.71,8.26-25.8,12.86-.19.1-.37.21-.55.31-.6.34-1.21.69-1.8,1.04h0c-2.38,1.38-4.7,2.79-6.98,4.23-.16-.06-8.24,4.77-13.24,3.73-6.6-1.37-8.48-7.35-8.06-14.08.01-.17.03-.33.04-.51.17-1.81.7-3.52,1.52-5.05.25-.48,4.65-8.78,5.56-12.18.79-2.96,1.25-6.05,1.33-9.23.01-.36.02-.71.02-1.07,0-3.27-.4-6.46-1.15-9.51-.96-3.94-2.51-7.66-4.55-11.07,0-.01-.01-.02-.02-.03-.64-.87-1.24-1.78-1.78-2.72-2.71-4.65-4.26-10.06-4.26-15.82,0-9.85,1.95-18.64,9.03-24.41,1.35-1.1,2.85-2,4.44-2.72,2.72-1.22,5.54-2.41,8.46-3.57h0c5.37-2.15,11.04-4.21,17.01-6.17,19.29-6.33,41.64-11.66,66.25-15.73,34.62-5.72,73.71-8.94,115.09-8.94s80.47,3.22,115.09,8.94c24.61,4.07,46.96,9.4,66.25,15.73,5.97,1.96,11.65,4.02,17.01,6.16h0c2.92,1.17,5.74,2.36,8.46,3.58,1.59.71,3.09,1.61,4.44,2.72,7.09,5.77,9.03,14.56,9.03,24.41,0,5.77-1.55,11.17-4.26,15.82-.55.94-1.14,1.85-1.78,2.72,0,.01-.01.02-.02.03-2.04,3.41-3.59,7.13-4.55,11.07-.75,3.05-1.15,6.24-1.15,9.51,0,.36,0,.71.02,1.07.08,3.18.54,6.27,1.33,9.23.9,3.41,2.25,6.64,3.98,9.64.13.24,1.24,1.9,1.58,2.54.82,1.53,1.86,3.24,2.03,5.05.02.17.03.33.04.51.42,6.73-1.97,12.71-8.57,14.08-5,1.04-13.08-3.79-13.24-3.73Z"/>
        <path class="cls-1" d="M786.24,194.59l-24.73,49.77c-21.98-12.7-52.8-23.34-89.48-30.9-5.58-1.15-8.14-7.66-4.83-12.3l36.06-50.56c5.64-7.91,10-16.65,12.92-25.91l16.22-51.42c1.16-3.28,5.87-3.06,6.73.31l15.53,68.49-8.17,18.72,24.94-18.25c2.49-1.63,5.75.37,5.43,3.32l-5.17,27.53-13.08,24.59-3.94,7.41,11.07-5.54,15.77-9.95c3.01-1.5,6.21,1.66,4.74,4.68Z"/>
      </g>
      <path class="cls-2" d="M882.78,757.52l-51.16-22.25c25.3-3,45.57-23.79,47.07-50.11l8.77-99.32c.99-17.49-6.52-33.49-18.95-43.98l-80.4,28.53c.26,2.91.39,5.85.39,8.83,0,30.71-14.17,58.12-36.32,76.03-16.79,13.58-38.15,21.7-61.42,21.7-49.37,0-90.18-36.6-96.8-84.15h-107.92c-6.61,47.54-47.43,84.15-96.8,84.15-23.27,0-44.64-8.13-61.42-21.7-22.15-17.92-36.31-45.32-36.31-76.03,0-2.97.13-5.92.39-8.83l-80.4-28.53c-12.43,10.48-19.95,26.49-18.95,43.98l8.77,99.32c1.5,26.32,21.76,47.11,47.07,50.11l-51.16,22.25c-7.5,3.27-11.94,11.1-10.89,19.22l3.62,27.73c.86,6.58,5.21,12.19,11.37,14.67l34.17,13.72-22.85,5.25c-9.05,2.65-13.88,12.48-10.47,21.26l9.75,25.03c1.76,4.52,5.47,8,10.09,9.48l57.63,18.91-22.64,7.9c-5.27,2.04-6.64,8.88-2.55,12.79l37.18,33.19c10.81,10.34,25.63,15.37,40.49,13.76l57.66-6.25c41.3,21.85,93.49,34.89,150.22,34.89s108.93-13.04,150.23-34.89l57.66,6.25c14.87,1.61,29.69-3.42,40.49-13.76l37.19-33.19c4.09-3.91,2.72-10.75-2.55-12.79l-22.64-7.9,57.63-18.91c4.62-1.47,8.32-4.96,10.09-9.48l9.75-25.03c3.42-8.79-1.42-18.62-10.46-21.26l-22.85-5.25,34.17-13.72c6.16-2.47,10.51-8.09,11.37-14.67l3.61-27.73c1.06-8.12-3.38-15.95-10.89-19.22ZM541.45,802.17c20.73,0,37.54,9.21,37.54,20.57,0,.7-.06,1.39-.19,2.07-.49,2.72-2.9,4.62-5.66,4.62h-.05c-7.06,0-13.33,2.83-17.23,7.22-3.66,4.1-8.79,6.66-14.29,6.67h-.23c-5.5-.01-10.63-2.56-14.29-6.67-3.91-4.38-10.17-7.22-17.24-7.22h-.04c-2.76,0-5.17-1.9-5.66-4.62-.12-.68-.19-1.37-.19-2.07,0-11.36,16.81-20.57,37.53-20.57ZM376.4,743.37c0-5.46,1.2-10.65,3.35-15.3l69.54,18.74c-1.73,18.56-17.35,33.09-36.36,33.09-20.18,0-36.53-16.35-36.53-36.53ZM650.55,893.68h0s-.03.03-.03.03c-.83.72-1.76,1.3-2.77,1.75l-25.75,16.27h0c-1.73,1.1-3.79,1.73-5.99,1.73s-4.25-.63-5.98-1.73h-.02s-61.37-27.5-61.37-27.5c-4.57-2.05-9.8-2.05-14.37.01l-62.5,28.11-.26.12c-1.41.63-2.97.99-4.61.99s-3.2-.35-4.61-.99c-.92-.41-1.77-.94-2.54-1.58h-.01s-26.05-16.21-26.05-16.21h0c-3.15-1.99-5.25-5.5-5.25-9.51,0-6.2,5.03-11.23,11.24-11.23,2.25,0,4.34.66,6.1,1.8l.04.03c.28.18.55.38.81.59l12.04,8.69c5.09,3.67,11.75,4.35,17.48,1.78l60.69-27.3h.01c1.4-.63,2.96-.98,4.6-.98s3.2.35,4.6.98l60.7,27.3c5.73,2.58,12.4,1.9,17.48-1.78l12.43-8.98h0c1.85-1.33,4.11-2.11,6.56-2.11,6.21,0,11.24,5.03,11.24,11.23,0,3.41-1.52,6.46-3.91,8.51ZM667.07,779.9c-18.31,0-33.48-13.47-36.12-31.05l70.11-18.89c1.64,4.15,2.54,8.68,2.54,13.41,0,20.18-16.36,36.53-36.53,36.53Z"/>
    </g>
  </g>
</svg>